G04 EAGLE Gerber RS-274X export*
G75*
%MOMM*%
%FSLAX34Y34*%
%LPD*%
%INBottom Copper*%
%IPPOS*%
%AMOC8*
5,1,8,0,0,1.08239X$1,22.5*%
G01*
G04 Define Apertures*
%ADD10C,0.150000*%
%ADD11C,0.452400*%
%ADD12C,0.502400*%
G36*
X736773Y-99678D02*
X736476Y-99738D01*
X3524Y-99738D01*
X3249Y-99687D01*
X2994Y-99523D01*
X2822Y-99273D01*
X2762Y-98976D01*
X2762Y355876D01*
X2813Y356151D01*
X2977Y356406D01*
X3227Y356578D01*
X3524Y356638D01*
X64684Y356638D01*
X66302Y358256D01*
X66302Y564024D01*
X66349Y564287D01*
X66508Y564546D01*
X66756Y564721D01*
X67052Y564786D01*
X67350Y564730D01*
X67603Y564563D01*
X71183Y560983D01*
X102662Y560983D01*
X102948Y560927D01*
X103201Y560759D01*
X104490Y559471D01*
X107416Y559471D01*
X109485Y561540D01*
X109485Y564466D01*
X107416Y566535D01*
X104490Y566535D01*
X103201Y565246D01*
X102959Y565083D01*
X102662Y565023D01*
X85030Y565023D01*
X84766Y565069D01*
X84508Y565229D01*
X84333Y565476D01*
X84268Y565772D01*
X84323Y566070D01*
X84491Y566323D01*
X84555Y566387D01*
X84555Y569313D01*
X82486Y571382D01*
X80663Y571382D01*
X80377Y571438D01*
X80124Y571605D01*
X36176Y615554D01*
X36013Y615795D01*
X35953Y616092D01*
X35953Y659408D01*
X35999Y659671D01*
X36159Y659929D01*
X36406Y660105D01*
X36702Y660170D01*
X37000Y660114D01*
X37253Y659947D01*
X37317Y659883D01*
X39140Y659883D01*
X39426Y659827D01*
X39678Y659660D01*
X59592Y639747D01*
X59750Y639516D01*
X59815Y639220D01*
X59759Y638922D01*
X59592Y638669D01*
X57408Y636486D01*
X57408Y633560D01*
X59477Y631491D01*
X61300Y631491D01*
X61586Y631435D01*
X61838Y631267D01*
X112019Y581086D01*
X112182Y580845D01*
X112243Y580548D01*
X112243Y391783D01*
X112187Y391497D01*
X112019Y391244D01*
X110731Y389956D01*
X110731Y387030D01*
X112800Y384961D01*
X115315Y384961D01*
X115601Y384905D01*
X115853Y384737D01*
X485991Y14600D01*
X865797Y14600D01*
X866083Y14544D01*
X866336Y14377D01*
X867625Y13088D01*
X870551Y13088D01*
X872620Y15157D01*
X872620Y18083D01*
X870551Y20152D01*
X867625Y20152D01*
X866336Y18863D01*
X866094Y18700D01*
X865797Y18640D01*
X857799Y18640D01*
X857536Y18687D01*
X857277Y18846D01*
X857102Y19094D01*
X857037Y19390D01*
X857093Y19688D01*
X857260Y19941D01*
X868189Y30870D01*
X868431Y31033D01*
X868728Y31093D01*
X870551Y31093D01*
X872620Y33162D01*
X872620Y36088D01*
X872556Y36152D01*
X872403Y36371D01*
X872333Y36666D01*
X872384Y36965D01*
X872547Y37221D01*
X872797Y37392D01*
X873095Y37453D01*
X948265Y37453D01*
X948551Y37397D01*
X948804Y37229D01*
X1037765Y-51732D01*
X1037928Y-51973D01*
X1037988Y-52270D01*
X1037988Y-54093D01*
X1040057Y-56162D01*
X1042983Y-56162D01*
X1045052Y-54093D01*
X1045052Y-51167D01*
X1042983Y-49098D01*
X1041160Y-49098D01*
X1040874Y-49042D01*
X1040622Y-48875D01*
X1038695Y-46948D01*
X1038542Y-46729D01*
X1038472Y-46434D01*
X1038523Y-46135D01*
X1038687Y-45879D01*
X1038937Y-45708D01*
X1039234Y-45648D01*
X1200939Y-45648D01*
X1206949Y-39638D01*
X1207190Y-39475D01*
X1207487Y-39415D01*
X1279219Y-39415D01*
X1279505Y-39471D01*
X1279758Y-39638D01*
X1281047Y-40927D01*
X1283973Y-40927D01*
X1286042Y-38858D01*
X1286042Y-35932D01*
X1284753Y-34643D01*
X1284590Y-34402D01*
X1284530Y-34104D01*
X1284530Y9174D01*
X1284586Y9460D01*
X1284753Y9713D01*
X1286042Y11002D01*
X1286042Y13928D01*
X1283973Y15997D01*
X1281047Y15997D01*
X1278978Y13928D01*
X1278978Y11002D01*
X1280267Y9713D01*
X1280430Y9472D01*
X1280490Y9174D01*
X1280490Y-34104D01*
X1280434Y-34390D01*
X1280267Y-34643D01*
X1279758Y-35152D01*
X1279517Y-35315D01*
X1279219Y-35375D01*
X1207859Y-35375D01*
X1207584Y-35324D01*
X1207329Y-35160D01*
X1207157Y-34910D01*
X1207097Y-34613D01*
X1207097Y-32470D01*
X1205808Y-31181D01*
X1205645Y-30939D01*
X1205585Y-30642D01*
X1205585Y8482D01*
X1205641Y8768D01*
X1205808Y9021D01*
X1207097Y10310D01*
X1207097Y13236D01*
X1205028Y15305D01*
X1202102Y15305D01*
X1200813Y14016D01*
X1200572Y13853D01*
X1200274Y13793D01*
X1174247Y13793D01*
X1173961Y13848D01*
X1173709Y14016D01*
X1094987Y92738D01*
X976277Y92738D01*
X976014Y92784D01*
X975756Y92944D01*
X975580Y93191D01*
X975515Y93487D01*
X975571Y93785D01*
X975738Y94038D01*
X975802Y94102D01*
X975802Y97028D01*
X974513Y98317D01*
X974350Y98558D01*
X974290Y98856D01*
X974290Y252303D01*
X974346Y252589D01*
X974513Y252841D01*
X981908Y260236D01*
X981908Y395279D01*
X981959Y395553D01*
X982122Y395809D01*
X982372Y395980D01*
X982670Y396041D01*
X984121Y396041D01*
X986190Y398110D01*
X986190Y399932D01*
X986245Y400218D01*
X986413Y400471D01*
X1050444Y464502D01*
X1050685Y464665D01*
X1050982Y464725D01*
X1379632Y464725D01*
X1379918Y464669D01*
X1380171Y464502D01*
X1381460Y463213D01*
X1383282Y463213D01*
X1383568Y463157D01*
X1383821Y462990D01*
X1624312Y222498D01*
X1624475Y222257D01*
X1624536Y221960D01*
X1624536Y220548D01*
X1624480Y220262D01*
X1624312Y220009D01*
X1583113Y178809D01*
X1583113Y51073D01*
X1583057Y50787D01*
X1582889Y50534D01*
X1581601Y49246D01*
X1581601Y46320D01*
X1583670Y44251D01*
X1586596Y44251D01*
X1588665Y46320D01*
X1588665Y49246D01*
X1587376Y50534D01*
X1587213Y50776D01*
X1587153Y51073D01*
X1587153Y176820D01*
X1587208Y177106D01*
X1587376Y177359D01*
X1590122Y180105D01*
X1590341Y180258D01*
X1590636Y180328D01*
X1590935Y180277D01*
X1591191Y180114D01*
X1591362Y179863D01*
X1591423Y179566D01*
X1591423Y65616D01*
X1591367Y65330D01*
X1591199Y65077D01*
X1589911Y63788D01*
X1589911Y60862D01*
X1591980Y58793D01*
X1594906Y58793D01*
X1596975Y60862D01*
X1596975Y63788D01*
X1595686Y65077D01*
X1595523Y65318D01*
X1595463Y65616D01*
X1595463Y179590D01*
X1595518Y179876D01*
X1595686Y180129D01*
X1634935Y219378D01*
X1634935Y224514D01*
X1626975Y232474D01*
X1626812Y232716D01*
X1626752Y233013D01*
X1626752Y234143D01*
X1624683Y236212D01*
X1621757Y236212D01*
X1621651Y236106D01*
X1621420Y235948D01*
X1621124Y235883D01*
X1620826Y235938D01*
X1620573Y236106D01*
X1450751Y405928D01*
X1450593Y406159D01*
X1450528Y406455D01*
X1450583Y406753D01*
X1450751Y407006D01*
X1452935Y409190D01*
X1452935Y412116D01*
X1450866Y414185D01*
X1449043Y414185D01*
X1448757Y414240D01*
X1448504Y414408D01*
X1354674Y508238D01*
X878611Y508238D01*
X878325Y508293D01*
X878072Y508461D01*
X876783Y509750D01*
X873857Y509750D01*
X871673Y507566D01*
X871443Y507408D01*
X871147Y507343D01*
X870849Y507398D01*
X870596Y507566D01*
X844302Y533860D01*
X498428Y533860D01*
X498142Y533916D01*
X497889Y534083D01*
X496601Y535372D01*
X494085Y535372D01*
X493799Y535428D01*
X493547Y535595D01*
X459272Y569870D01*
X240126Y569870D01*
X239840Y569926D01*
X239587Y570093D01*
X238298Y571382D01*
X235372Y571382D01*
X233188Y569198D01*
X232958Y569040D01*
X232662Y568975D01*
X232364Y569031D01*
X232111Y569198D01*
X231439Y569870D01*
X196526Y569870D01*
X191901Y565246D01*
X191660Y565083D01*
X191363Y565023D01*
X189573Y565023D01*
X189287Y565078D01*
X189034Y565246D01*
X187746Y566535D01*
X184820Y566535D01*
X182751Y564466D01*
X182751Y561540D01*
X184820Y559471D01*
X187746Y559471D01*
X189034Y560759D01*
X189276Y560922D01*
X189573Y560983D01*
X193352Y560983D01*
X194023Y561654D01*
X194254Y561812D01*
X194550Y561877D01*
X194848Y561822D01*
X195101Y561654D01*
X197285Y559471D01*
X200211Y559471D01*
X201499Y560759D01*
X201741Y560922D01*
X202038Y560983D01*
X230143Y560983D01*
X230429Y560927D01*
X230681Y560759D01*
X309602Y481838D01*
X309755Y481619D01*
X309825Y481324D01*
X309774Y481025D01*
X309611Y480769D01*
X309361Y480598D01*
X309064Y480538D01*
X175031Y480538D01*
X174745Y480593D01*
X174492Y480761D01*
X173203Y482050D01*
X170277Y482050D01*
X170213Y481986D01*
X169994Y481833D01*
X169699Y481763D01*
X169400Y481814D01*
X169144Y481977D01*
X168973Y482227D01*
X168913Y482525D01*
X168913Y594398D01*
X168968Y594684D01*
X169136Y594936D01*
X470150Y895951D01*
X470150Y919119D01*
X470206Y919405D01*
X470373Y919658D01*
X471662Y920947D01*
X471662Y923873D01*
X469593Y925942D01*
X466667Y925942D01*
X464598Y923873D01*
X464598Y920947D01*
X465887Y919658D01*
X466050Y919417D01*
X466110Y919119D01*
X466110Y897940D01*
X466054Y897654D01*
X465887Y897401D01*
X164873Y596387D01*
X164873Y546174D01*
X164826Y545911D01*
X164666Y545652D01*
X164419Y545477D01*
X164123Y545412D01*
X163825Y545468D01*
X163572Y545635D01*
X45871Y663336D01*
X45708Y663578D01*
X45648Y663875D01*
X45648Y767462D01*
X45703Y767748D01*
X45871Y768001D01*
X47160Y769290D01*
X47160Y772216D01*
X45091Y774285D01*
X42255Y774285D01*
X41980Y774336D01*
X41724Y774499D01*
X41553Y774749D01*
X41493Y775047D01*
X41493Y827017D01*
X41548Y827303D01*
X41716Y827556D01*
X43005Y828845D01*
X43005Y831771D01*
X41716Y833059D01*
X41553Y833301D01*
X41493Y833598D01*
X41493Y884494D01*
X41548Y884780D01*
X41716Y885033D01*
X43005Y886322D01*
X43005Y889248D01*
X40936Y891317D01*
X38010Y891317D01*
X35941Y889248D01*
X35941Y886322D01*
X37229Y885033D01*
X37392Y884792D01*
X37453Y884494D01*
X37453Y833598D01*
X37397Y833312D01*
X37229Y833059D01*
X35941Y831771D01*
X35941Y828845D01*
X37229Y827556D01*
X37392Y827314D01*
X37453Y827017D01*
X37453Y773982D01*
X37397Y773696D01*
X37229Y773444D01*
X31913Y768127D01*
X31913Y614103D01*
X77267Y568748D01*
X77430Y568507D01*
X77491Y568210D01*
X77491Y566387D01*
X77554Y566323D01*
X77707Y566104D01*
X77777Y565809D01*
X77726Y565510D01*
X77563Y565254D01*
X77313Y565083D01*
X77015Y565023D01*
X73172Y565023D01*
X72886Y565078D01*
X72634Y565246D01*
X48768Y589112D01*
X48605Y589353D01*
X48545Y589650D01*
X48545Y591473D01*
X46476Y593542D01*
X43550Y593542D01*
X41481Y591473D01*
X41481Y588547D01*
X43550Y586478D01*
X45372Y586478D01*
X45658Y586422D01*
X45911Y586255D01*
X61599Y570566D01*
X61752Y570347D01*
X61822Y570052D01*
X61771Y569753D01*
X61608Y569497D01*
X61358Y569326D01*
X61061Y569266D01*
X3524Y569266D01*
X3249Y569317D01*
X2994Y569480D01*
X2822Y569730D01*
X2762Y570028D01*
X2762Y1005976D01*
X2813Y1006251D01*
X2977Y1006506D01*
X3227Y1006678D01*
X3524Y1006738D01*
X196176Y1006738D01*
X196451Y1006687D01*
X196706Y1006523D01*
X196878Y1006273D01*
X196938Y1005976D01*
X196938Y995856D01*
X198556Y994238D01*
X691344Y994238D01*
X692962Y995856D01*
X692962Y1005976D01*
X693013Y1006251D01*
X693177Y1006506D01*
X693427Y1006678D01*
X693724Y1006738D01*
X918476Y1006738D01*
X918751Y1006687D01*
X919006Y1006523D01*
X919178Y1006273D01*
X919238Y1005976D01*
X919238Y568356D01*
X920856Y566738D01*
X1698476Y566738D01*
X1698751Y566687D01*
X1699006Y566523D01*
X1699178Y566273D01*
X1699238Y565976D01*
X1699238Y-98976D01*
X1699187Y-99251D01*
X1699023Y-99506D01*
X1698773Y-99678D01*
X1698476Y-99738D01*
X925524Y-99738D01*
X925249Y-99687D01*
X924994Y-99523D01*
X924822Y-99273D01*
X924762Y-98976D01*
X924762Y-2856D01*
X923144Y-1238D01*
X738856Y-1238D01*
X737238Y-2856D01*
X737238Y-98976D01*
X737187Y-99251D01*
X737023Y-99506D01*
X736773Y-99678D01*
G37*
%LPC*%
G36*
X211827Y961121D02*
X214753Y961121D01*
X216822Y963190D01*
X216822Y965012D01*
X216878Y965298D01*
X217045Y965551D01*
X236629Y985135D01*
X236871Y985298D01*
X237168Y985358D01*
X238991Y985358D01*
X241060Y987427D01*
X241060Y990353D01*
X238991Y992422D01*
X236065Y992422D01*
X233996Y990353D01*
X233996Y988530D01*
X233940Y988244D01*
X233772Y987992D01*
X214188Y968408D01*
X213947Y968245D01*
X213650Y968185D01*
X211827Y968185D01*
X209758Y966116D01*
X209758Y963190D01*
X211827Y961121D01*
G37*
G36*
X235372Y648111D02*
X238298Y648111D01*
X239587Y649399D01*
X239828Y649562D01*
X240126Y649623D01*
X263987Y649623D01*
X598807Y984442D01*
X599048Y984605D01*
X599345Y984666D01*
X601168Y984666D01*
X603237Y986735D01*
X603237Y989661D01*
X601168Y991730D01*
X598242Y991730D01*
X596173Y989661D01*
X596173Y987838D01*
X596117Y987552D01*
X595950Y987299D01*
X262536Y653886D01*
X262295Y653723D01*
X261998Y653663D01*
X240126Y653663D01*
X239840Y653718D01*
X239587Y653886D01*
X238298Y655175D01*
X235372Y655175D01*
X233303Y653106D01*
X233303Y650180D01*
X235372Y648111D01*
G37*
G36*
X240220Y720131D02*
X243146Y720131D01*
X245215Y722200D01*
X245215Y725126D01*
X243926Y726414D01*
X243763Y726656D01*
X243703Y726953D01*
X243703Y754365D01*
X243758Y754651D01*
X243926Y754904D01*
X449919Y960897D01*
X450161Y961060D01*
X450458Y961121D01*
X452281Y961121D01*
X454350Y963190D01*
X454350Y966116D01*
X452281Y968185D01*
X449355Y968185D01*
X447286Y966116D01*
X447286Y964293D01*
X447230Y964007D01*
X447062Y963754D01*
X239663Y756354D01*
X239663Y726953D01*
X239607Y726667D01*
X239439Y726414D01*
X238151Y725126D01*
X238151Y722200D01*
X240220Y720131D01*
G37*
G36*
X1633465Y460050D02*
X1637815Y460050D01*
X1640890Y463125D01*
X1640890Y467475D01*
X1637815Y470550D01*
X1633465Y470550D01*
X1630390Y467475D01*
X1630390Y463125D01*
X1633465Y460050D01*
G37*
G36*
X1614140Y430666D02*
X1617066Y430666D01*
X1619135Y432735D01*
X1619135Y435661D01*
X1617846Y436949D01*
X1617683Y437191D01*
X1617623Y437488D01*
X1617623Y440602D01*
X1617678Y440888D01*
X1617846Y441141D01*
X1619135Y442430D01*
X1619135Y445356D01*
X1617066Y447425D01*
X1614140Y447425D01*
X1612071Y445356D01*
X1612071Y442430D01*
X1613359Y441141D01*
X1613522Y440899D01*
X1613583Y440602D01*
X1613583Y437488D01*
X1613527Y437202D01*
X1613359Y436949D01*
X1612071Y435661D01*
X1612071Y432735D01*
X1614140Y430666D01*
G37*
G36*
X1447940Y417508D02*
X1450866Y417508D01*
X1452154Y418797D01*
X1452396Y418960D01*
X1452693Y419020D01*
X1612312Y419020D01*
X1612598Y418964D01*
X1612851Y418797D01*
X1614140Y417508D01*
X1617066Y417508D01*
X1619135Y419577D01*
X1619135Y422503D01*
X1617066Y424572D01*
X1614140Y424572D01*
X1612851Y423283D01*
X1612609Y423120D01*
X1612312Y423060D01*
X1452693Y423060D01*
X1452407Y423116D01*
X1452154Y423283D01*
X1450866Y424572D01*
X1447940Y424572D01*
X1445871Y422503D01*
X1445871Y419577D01*
X1447940Y417508D01*
G37*
G36*
X1240190Y406428D02*
X1243116Y406428D01*
X1244404Y407717D01*
X1244646Y407880D01*
X1244943Y407940D01*
X1257752Y407940D01*
X1258038Y407884D01*
X1258291Y407717D01*
X1259580Y406428D01*
X1262506Y406428D01*
X1264575Y408497D01*
X1264575Y411423D01*
X1262506Y413492D01*
X1259580Y413492D01*
X1258291Y412203D01*
X1258049Y412040D01*
X1257752Y411980D01*
X1244943Y411980D01*
X1244657Y412036D01*
X1244404Y412203D01*
X1243116Y413492D01*
X1240190Y413492D01*
X1238121Y411423D01*
X1238121Y408497D01*
X1240190Y406428D01*
G37*
G36*
X1633465Y402250D02*
X1637815Y402250D01*
X1640890Y405325D01*
X1640890Y409675D01*
X1637815Y412750D01*
X1633465Y412750D01*
X1630390Y409675D01*
X1630390Y405325D01*
X1633465Y402250D01*
G37*
G36*
X1181327Y343411D02*
X1184253Y343411D01*
X1185542Y344699D01*
X1185783Y344862D01*
X1186081Y344923D01*
X1234179Y344923D01*
X1278969Y389712D01*
X1279210Y389875D01*
X1279507Y389935D01*
X1306919Y389935D01*
X1307205Y389879D01*
X1307458Y389712D01*
X1308747Y388423D01*
X1311673Y388423D01*
X1313742Y390492D01*
X1313742Y393418D01*
X1311673Y395487D01*
X1308747Y395487D01*
X1307458Y394198D01*
X1307217Y394035D01*
X1306919Y393975D01*
X1277518Y393975D01*
X1232729Y349186D01*
X1232487Y349023D01*
X1232190Y348963D01*
X1186081Y348963D01*
X1185795Y349018D01*
X1185542Y349186D01*
X1184253Y350475D01*
X1181327Y350475D01*
X1179258Y348406D01*
X1179258Y345480D01*
X1181327Y343411D01*
G37*
G36*
X112800Y326791D02*
X115726Y326791D01*
X117795Y328860D01*
X117795Y330682D01*
X117850Y330968D01*
X118018Y331221D01*
X125829Y339032D01*
X126071Y339195D01*
X126368Y339256D01*
X128191Y339256D01*
X130260Y341325D01*
X130260Y344251D01*
X128191Y346320D01*
X125265Y346320D01*
X123196Y344251D01*
X123196Y342428D01*
X123140Y342142D01*
X122972Y341889D01*
X115161Y334078D01*
X114919Y333915D01*
X114622Y333855D01*
X112800Y333855D01*
X110731Y331786D01*
X110731Y328860D01*
X112800Y326791D01*
G37*
G36*
X188433Y271718D02*
X191567Y271718D01*
X193782Y273933D01*
X193782Y277067D01*
X191567Y279282D01*
X188433Y279282D01*
X186218Y277067D01*
X186218Y273933D01*
X188433Y271718D01*
G37*
G36*
X170433Y271718D02*
X173567Y271718D01*
X175782Y273933D01*
X175782Y277067D01*
X173567Y279282D01*
X170433Y279282D01*
X168218Y277067D01*
X168218Y273933D01*
X170433Y271718D01*
G37*
G36*
X116433Y271718D02*
X119567Y271718D01*
X121782Y273933D01*
X121782Y277067D01*
X119567Y279282D01*
X116433Y279282D01*
X114218Y277067D01*
X114218Y273933D01*
X116433Y271718D01*
G37*
G36*
X98433Y271718D02*
X101567Y271718D01*
X103782Y273933D01*
X103782Y277067D01*
X101567Y279282D01*
X98433Y279282D01*
X96218Y277067D01*
X96218Y273933D01*
X98433Y271718D01*
G37*
G36*
X80433Y271718D02*
X83567Y271718D01*
X85782Y273933D01*
X85782Y277067D01*
X83567Y279282D01*
X80433Y279282D01*
X78218Y277067D01*
X78218Y273933D01*
X80433Y271718D01*
G37*
G36*
X62433Y271718D02*
X65567Y271718D01*
X67782Y273933D01*
X67782Y277067D01*
X65567Y279282D01*
X62433Y279282D01*
X60218Y277067D01*
X60218Y273933D01*
X62433Y271718D01*
G37*
G36*
X188433Y253718D02*
X191567Y253718D01*
X193782Y255933D01*
X193782Y259067D01*
X191567Y261282D01*
X188433Y261282D01*
X186218Y259067D01*
X186218Y255933D01*
X188433Y253718D01*
G37*
G36*
X134433Y253718D02*
X137567Y253718D01*
X139782Y255933D01*
X139782Y259067D01*
X137567Y261282D01*
X134433Y261282D01*
X132218Y259067D01*
X132218Y255933D01*
X134433Y253718D01*
G37*
G36*
X116433Y253718D02*
X119567Y253718D01*
X121782Y255933D01*
X121782Y259067D01*
X119567Y261282D01*
X116433Y261282D01*
X114218Y259067D01*
X114218Y255933D01*
X116433Y253718D01*
G37*
G36*
X98433Y253718D02*
X101567Y253718D01*
X103782Y255933D01*
X103782Y259067D01*
X101567Y261282D01*
X98433Y261282D01*
X96218Y259067D01*
X96218Y255933D01*
X98433Y253718D01*
G37*
G36*
X80433Y253718D02*
X83567Y253718D01*
X85782Y255933D01*
X85782Y259067D01*
X83567Y261282D01*
X80433Y261282D01*
X78218Y259067D01*
X78218Y255933D01*
X80433Y253718D01*
G37*
G36*
X62433Y253718D02*
X65567Y253718D01*
X67782Y255933D01*
X67782Y259067D01*
X65567Y261282D01*
X62433Y261282D01*
X60218Y259067D01*
X60218Y255933D01*
X62433Y253718D01*
G37*
G36*
X152433Y235718D02*
X155567Y235718D01*
X157782Y237933D01*
X157782Y241067D01*
X155567Y243282D01*
X152433Y243282D01*
X150218Y241067D01*
X150218Y237933D01*
X152433Y235718D01*
G37*
G36*
X134433Y235718D02*
X137567Y235718D01*
X139782Y237933D01*
X139782Y241067D01*
X137567Y243282D01*
X134433Y243282D01*
X132218Y241067D01*
X132218Y237933D01*
X134433Y235718D01*
G37*
G36*
X116433Y235718D02*
X119567Y235718D01*
X121782Y237933D01*
X121782Y241067D01*
X119567Y243282D01*
X116433Y243282D01*
X114218Y241067D01*
X114218Y237933D01*
X116433Y235718D01*
G37*
G36*
X98433Y235718D02*
X101567Y235718D01*
X103782Y237933D01*
X103782Y241067D01*
X101567Y243282D01*
X98433Y243282D01*
X96218Y241067D01*
X96218Y237933D01*
X98433Y235718D01*
G37*
G36*
X80433Y235718D02*
X83567Y235718D01*
X85782Y237933D01*
X85782Y241067D01*
X83567Y243282D01*
X80433Y243282D01*
X78218Y241067D01*
X78218Y237933D01*
X80433Y235718D01*
G37*
G36*
X62433Y235718D02*
X65567Y235718D01*
X67782Y237933D01*
X67782Y241067D01*
X65567Y243282D01*
X62433Y243282D01*
X60218Y241067D01*
X60218Y237933D01*
X62433Y235718D01*
G37*
G36*
X80433Y217718D02*
X83567Y217718D01*
X85782Y219933D01*
X85782Y223067D01*
X83567Y225282D01*
X80433Y225282D01*
X78218Y223067D01*
X78218Y219933D01*
X80433Y217718D01*
G37*
G36*
X62433Y217718D02*
X65567Y217718D01*
X67782Y219933D01*
X67782Y223067D01*
X65567Y225282D01*
X62433Y225282D01*
X60218Y223067D01*
X60218Y219933D01*
X62433Y217718D01*
G37*
G36*
X170433Y217718D02*
X173567Y217718D01*
X175782Y219933D01*
X175782Y223067D01*
X173567Y225282D01*
X170433Y225282D01*
X168218Y223067D01*
X168218Y219933D01*
X170433Y217718D01*
G37*
G36*
X152433Y217718D02*
X155567Y217718D01*
X157782Y219933D01*
X157782Y223067D01*
X155567Y225282D01*
X152433Y225282D01*
X150218Y223067D01*
X150218Y219933D01*
X152433Y217718D01*
G37*
G36*
X134433Y217718D02*
X137567Y217718D01*
X139782Y219933D01*
X139782Y223067D01*
X137567Y225282D01*
X134433Y225282D01*
X132218Y223067D01*
X132218Y219933D01*
X134433Y217718D01*
G37*
G36*
X116433Y217718D02*
X119567Y217718D01*
X121782Y219933D01*
X121782Y223067D01*
X119567Y225282D01*
X116433Y225282D01*
X114218Y223067D01*
X114218Y219933D01*
X116433Y217718D01*
G37*
G36*
X98433Y217718D02*
X101567Y217718D01*
X103782Y219933D01*
X103782Y223067D01*
X101567Y225282D01*
X98433Y225282D01*
X96218Y223067D01*
X96218Y219933D01*
X98433Y217718D01*
G37*
G36*
X188433Y199718D02*
X191567Y199718D01*
X193782Y201933D01*
X193782Y205067D01*
X191567Y207282D01*
X188433Y207282D01*
X186218Y205067D01*
X186218Y201933D01*
X188433Y199718D01*
G37*
G36*
X170433Y199718D02*
X173567Y199718D01*
X175782Y201933D01*
X175782Y205067D01*
X173567Y207282D01*
X170433Y207282D01*
X168218Y205067D01*
X168218Y201933D01*
X170433Y199718D01*
G37*
G36*
X152433Y199718D02*
X155567Y199718D01*
X157782Y201933D01*
X157782Y205067D01*
X155567Y207282D01*
X152433Y207282D01*
X150218Y205067D01*
X150218Y201933D01*
X152433Y199718D01*
G37*
G36*
X134433Y199718D02*
X137567Y199718D01*
X139782Y201933D01*
X139782Y205067D01*
X137567Y207282D01*
X134433Y207282D01*
X132218Y205067D01*
X132218Y201933D01*
X134433Y199718D01*
G37*
G36*
X116433Y199718D02*
X119567Y199718D01*
X121782Y201933D01*
X121782Y205067D01*
X119567Y207282D01*
X116433Y207282D01*
X114218Y205067D01*
X114218Y201933D01*
X116433Y199718D01*
G37*
G36*
X98433Y199718D02*
X101567Y199718D01*
X103782Y201933D01*
X103782Y205067D01*
X101567Y207282D01*
X98433Y207282D01*
X96218Y205067D01*
X96218Y201933D01*
X98433Y199718D01*
G37*
G36*
X80433Y199718D02*
X83567Y199718D01*
X85782Y201933D01*
X85782Y205067D01*
X83567Y207282D01*
X80433Y207282D01*
X78218Y205067D01*
X78218Y201933D01*
X80433Y199718D01*
G37*
G36*
X62433Y199718D02*
X65567Y199718D01*
X67782Y201933D01*
X67782Y205067D01*
X65567Y207282D01*
X62433Y207282D01*
X60218Y205067D01*
X60218Y201933D01*
X62433Y199718D01*
G37*
G36*
X188433Y181718D02*
X191567Y181718D01*
X193782Y183933D01*
X193782Y187067D01*
X191567Y189282D01*
X188433Y189282D01*
X186218Y187067D01*
X186218Y183933D01*
X188433Y181718D01*
G37*
G36*
X170433Y181718D02*
X173567Y181718D01*
X175782Y183933D01*
X175782Y187067D01*
X173567Y189282D01*
X170433Y189282D01*
X168218Y187067D01*
X168218Y183933D01*
X170433Y181718D01*
G37*
G36*
X152433Y181718D02*
X155567Y181718D01*
X157782Y183933D01*
X157782Y187067D01*
X155567Y189282D01*
X152433Y189282D01*
X150218Y187067D01*
X150218Y183933D01*
X152433Y181718D01*
G37*
G36*
X134433Y181718D02*
X137567Y181718D01*
X139782Y183933D01*
X139782Y187067D01*
X137567Y189282D01*
X134433Y189282D01*
X132218Y187067D01*
X132218Y183933D01*
X134433Y181718D01*
G37*
G36*
X116433Y181718D02*
X119567Y181718D01*
X121782Y183933D01*
X121782Y187067D01*
X119567Y189282D01*
X116433Y189282D01*
X114218Y187067D01*
X114218Y183933D01*
X116433Y181718D01*
G37*
G36*
X98433Y181718D02*
X101567Y181718D01*
X103782Y183933D01*
X103782Y187067D01*
X101567Y189282D01*
X98433Y189282D01*
X96218Y187067D01*
X96218Y183933D01*
X98433Y181718D01*
G37*
G36*
X80433Y181718D02*
X83567Y181718D01*
X85782Y183933D01*
X85782Y187067D01*
X83567Y189282D01*
X80433Y189282D01*
X78218Y187067D01*
X78218Y183933D01*
X80433Y181718D01*
G37*
G36*
X62433Y181718D02*
X65567Y181718D01*
X67782Y183933D01*
X67782Y187067D01*
X65567Y189282D01*
X62433Y189282D01*
X60218Y187067D01*
X60218Y183933D01*
X62433Y181718D01*
G37*
G36*
X1245730Y24168D02*
X1248656Y24168D01*
X1250725Y26237D01*
X1250725Y28060D01*
X1250780Y28346D01*
X1250948Y28598D01*
X1261529Y39180D01*
X1261771Y39343D01*
X1262068Y39403D01*
X1263891Y39403D01*
X1265960Y41472D01*
X1265960Y44398D01*
X1263891Y46467D01*
X1260965Y46467D01*
X1258896Y44398D01*
X1258896Y42575D01*
X1258840Y42289D01*
X1258672Y42037D01*
X1248091Y31455D01*
X1247849Y31292D01*
X1247552Y31232D01*
X1245730Y31232D01*
X1243661Y29163D01*
X1243661Y26237D01*
X1245730Y24168D01*
G37*
%LPD*%
G36*
X792726Y42245D02*
X792429Y42185D01*
X717890Y42185D01*
X717604Y42241D01*
X717351Y42408D01*
X604153Y155607D01*
X603990Y155848D01*
X603930Y156145D01*
X603930Y157968D01*
X601861Y160037D01*
X598935Y160037D01*
X596866Y157968D01*
X596866Y155042D01*
X598935Y152973D01*
X600757Y152973D01*
X601043Y152917D01*
X601296Y152750D01*
X635752Y118294D01*
X635910Y118064D01*
X635975Y117768D01*
X635919Y117469D01*
X635752Y117217D01*
X633453Y114918D01*
X633223Y114760D01*
X632927Y114695D01*
X632629Y114751D01*
X632376Y114918D01*
X412203Y335091D01*
X412040Y335333D01*
X411980Y335630D01*
X411980Y337392D01*
X378942Y370430D01*
X378626Y370430D01*
X378340Y370486D01*
X378087Y370653D01*
X376798Y371942D01*
X373872Y371942D01*
X373808Y371878D01*
X373589Y371725D01*
X373294Y371656D01*
X372995Y371706D01*
X372739Y371870D01*
X372568Y372120D01*
X372508Y372417D01*
X372508Y385202D01*
X372563Y385488D01*
X372731Y385741D01*
X374020Y387030D01*
X374020Y389956D01*
X373956Y390019D01*
X373803Y390239D01*
X373733Y390534D01*
X373784Y390833D01*
X373947Y391088D01*
X374197Y391260D01*
X374495Y391320D01*
X471133Y391320D01*
X471419Y391264D01*
X471671Y391097D01*
X520616Y342153D01*
X804137Y342153D01*
X859187Y397202D01*
X859428Y397365D01*
X859725Y397426D01*
X861548Y397426D01*
X863617Y399495D01*
X863617Y402421D01*
X863553Y402484D01*
X863400Y402704D01*
X863331Y402999D01*
X863381Y403298D01*
X863545Y403553D01*
X863795Y403725D01*
X864092Y403785D01*
X905962Y403785D01*
X906248Y403729D01*
X906501Y403562D01*
X907790Y402273D01*
X910716Y402273D01*
X912899Y404457D01*
X913130Y404615D01*
X913426Y404680D01*
X913724Y404624D01*
X913977Y404457D01*
X955484Y362949D01*
X955647Y362707D01*
X955708Y362410D01*
X955708Y353003D01*
X955652Y352717D01*
X955484Y352464D01*
X954196Y351176D01*
X954196Y348250D01*
X956265Y346181D01*
X959191Y346181D01*
X961260Y348250D01*
X961260Y351176D01*
X959971Y352464D01*
X959808Y352706D01*
X959748Y353003D01*
X959748Y364399D01*
X881498Y442649D01*
X881345Y442869D01*
X881275Y443164D01*
X881326Y443463D01*
X881489Y443718D01*
X881739Y443890D01*
X882036Y443950D01*
X901114Y443950D01*
X901400Y443894D01*
X901653Y443727D01*
X902942Y442438D01*
X905868Y442438D01*
X908052Y444622D01*
X908282Y444780D01*
X908578Y444845D01*
X908876Y444789D01*
X909129Y444622D01*
X966437Y387313D01*
X966600Y387072D01*
X966661Y386775D01*
X966661Y385645D01*
X968730Y383576D01*
X969488Y383576D01*
X969763Y383524D01*
X970018Y383361D01*
X970190Y383111D01*
X970250Y382814D01*
X970250Y333552D01*
X970194Y333266D01*
X970027Y333014D01*
X968194Y331181D01*
X967952Y331018D01*
X967655Y330958D01*
X915252Y330958D01*
X914966Y331013D01*
X914714Y331181D01*
X908160Y337734D01*
X907997Y337976D01*
X907937Y338273D01*
X907937Y340096D01*
X905868Y342165D01*
X904323Y342165D01*
X904060Y342211D01*
X903802Y342371D01*
X903627Y342618D01*
X903561Y342914D01*
X903617Y343212D01*
X903785Y343465D01*
X911817Y351497D01*
X912058Y351660D01*
X912355Y351721D01*
X914178Y351721D01*
X916247Y353790D01*
X916247Y356716D01*
X914178Y358785D01*
X911252Y358785D01*
X909183Y356716D01*
X909183Y354893D01*
X909127Y354607D01*
X908960Y354354D01*
X890613Y336007D01*
X890613Y331536D01*
X890557Y331250D01*
X890389Y330997D01*
X889101Y329708D01*
X889101Y326782D01*
X891170Y324713D01*
X894096Y324713D01*
X896165Y326782D01*
X896165Y329708D01*
X894876Y330997D01*
X894713Y331238D01*
X894653Y331536D01*
X894653Y334018D01*
X894708Y334304D01*
X894876Y334556D01*
X899572Y339253D01*
X899792Y339406D01*
X900087Y339476D01*
X900386Y339425D01*
X900641Y339262D01*
X900813Y339011D01*
X900873Y338714D01*
X900873Y337170D01*
X902942Y335101D01*
X904765Y335101D01*
X905051Y335045D01*
X905303Y334877D01*
X913263Y326918D01*
X969644Y326918D01*
X971719Y328992D01*
X971939Y329145D01*
X972234Y329215D01*
X972533Y329164D01*
X972788Y329001D01*
X972960Y328751D01*
X973020Y328454D01*
X973020Y265748D01*
X972964Y265462D01*
X972797Y265209D01*
X971508Y263921D01*
X971508Y260995D01*
X973692Y258811D01*
X973850Y258580D01*
X973915Y258284D01*
X973859Y257986D01*
X973692Y257733D01*
X970250Y254292D01*
X970250Y98856D01*
X970194Y98570D01*
X970027Y98317D01*
X968623Y96913D01*
X968393Y96755D01*
X968097Y96690D01*
X967799Y96746D01*
X967546Y96913D01*
X900906Y163553D01*
X900748Y163784D01*
X900683Y164080D01*
X900738Y164378D01*
X900906Y164631D01*
X903090Y166815D01*
X903090Y168637D01*
X903145Y168923D01*
X903313Y169176D01*
X909047Y174910D01*
X909288Y175073D01*
X909585Y175133D01*
X911408Y175133D01*
X913477Y177202D01*
X913477Y180128D01*
X911408Y182197D01*
X908482Y182197D01*
X906413Y180128D01*
X906413Y178305D01*
X906357Y178019D01*
X906190Y177767D01*
X900456Y172033D01*
X900214Y171870D01*
X899917Y171810D01*
X898095Y171810D01*
X895911Y169626D01*
X895681Y169468D01*
X895384Y169403D01*
X895086Y169458D01*
X894833Y169626D01*
X894183Y170276D01*
X894020Y170518D01*
X893960Y170815D01*
X893960Y236287D01*
X821598Y308649D01*
X821435Y308891D01*
X821375Y309188D01*
X821375Y311011D01*
X819306Y313080D01*
X816380Y313080D01*
X814311Y311011D01*
X814311Y308085D01*
X816380Y306016D01*
X818202Y306016D01*
X818488Y305960D01*
X818741Y305792D01*
X889697Y234836D01*
X889860Y234595D01*
X889920Y234298D01*
X889920Y215912D01*
X889873Y215649D01*
X889714Y215391D01*
X889466Y215215D01*
X889170Y215150D01*
X888872Y215206D01*
X888619Y215373D01*
X888556Y215437D01*
X886733Y215437D01*
X886447Y215493D01*
X886194Y215660D01*
X830600Y271254D01*
X830437Y271496D01*
X830377Y271793D01*
X830377Y273616D01*
X828308Y275685D01*
X825382Y275685D01*
X823313Y273616D01*
X823313Y270690D01*
X825382Y268621D01*
X827205Y268621D01*
X827491Y268565D01*
X827743Y268397D01*
X872587Y223554D01*
X872745Y223324D01*
X872810Y223028D01*
X872754Y222729D01*
X872587Y222477D01*
X870403Y220293D01*
X870403Y220194D01*
X870356Y219931D01*
X870197Y219673D01*
X869949Y219497D01*
X869653Y219432D01*
X869355Y219488D01*
X869102Y219655D01*
X867781Y220977D01*
X864855Y220977D01*
X863566Y219688D01*
X863324Y219525D01*
X863027Y219465D01*
X818995Y219465D01*
X818709Y219521D01*
X818456Y219688D01*
X804285Y233859D01*
X804122Y234101D01*
X804062Y234398D01*
X804062Y236221D01*
X801993Y238290D01*
X799067Y238290D01*
X796998Y236221D01*
X796998Y233295D01*
X799067Y231226D01*
X800890Y231226D01*
X801176Y231170D01*
X801428Y231002D01*
X817006Y215425D01*
X863027Y215425D01*
X863313Y215369D01*
X863566Y215202D01*
X864969Y213798D01*
X865127Y213568D01*
X865192Y213272D01*
X865137Y212974D01*
X864969Y212721D01*
X853910Y201662D01*
X853910Y186295D01*
X853859Y186020D01*
X853695Y185764D01*
X853445Y185593D01*
X853148Y185533D01*
X780276Y185533D01*
X779990Y185588D01*
X779737Y185756D01*
X778448Y187045D01*
X775522Y187045D01*
X775458Y186981D01*
X775239Y186828D01*
X774944Y186758D01*
X774645Y186809D01*
X774389Y186972D01*
X774218Y187222D01*
X774158Y187520D01*
X774158Y260552D01*
X774213Y260838D01*
X774381Y261091D01*
X775670Y262380D01*
X775670Y265306D01*
X773601Y267375D01*
X770675Y267375D01*
X768606Y265306D01*
X768606Y262380D01*
X769894Y261091D01*
X770057Y260849D01*
X770118Y260552D01*
X770118Y181291D01*
X832912Y118496D01*
X833075Y118255D01*
X833135Y117958D01*
X833135Y94725D01*
X833088Y94461D01*
X832929Y94203D01*
X832681Y94028D01*
X832385Y93963D01*
X832087Y94018D01*
X831834Y94186D01*
X831771Y94250D01*
X828845Y94250D01*
X827556Y92961D01*
X827314Y92798D01*
X827017Y92738D01*
X817698Y92738D01*
X795559Y70598D01*
X795329Y70440D01*
X795033Y70375D01*
X794734Y70431D01*
X794482Y70598D01*
X794376Y70705D01*
X791450Y70705D01*
X789381Y68636D01*
X789381Y65710D01*
X791450Y63641D01*
X793466Y63641D01*
X793741Y63589D01*
X793996Y63426D01*
X794168Y63176D01*
X794228Y62879D01*
X794228Y62247D01*
X795517Y60958D01*
X795680Y60717D01*
X795740Y60419D01*
X795740Y55167D01*
X795684Y54881D01*
X795517Y54629D01*
X790893Y50004D01*
X790893Y45561D01*
X792967Y43486D01*
X793120Y43266D01*
X793190Y42971D01*
X793139Y42672D01*
X792976Y42417D01*
X792726Y42245D01*
G37*
%LPC*%
G36*
X668877Y107268D02*
X671803Y107268D01*
X673872Y109337D01*
X673872Y111160D01*
X673928Y111446D01*
X674095Y111698D01*
X763622Y201225D01*
X763863Y201388D01*
X764160Y201448D01*
X765983Y201448D01*
X768052Y203517D01*
X768052Y206443D01*
X765983Y208512D01*
X763057Y208512D01*
X760988Y206443D01*
X760988Y204620D01*
X760932Y204334D01*
X760765Y204082D01*
X671238Y114555D01*
X670997Y114392D01*
X670700Y114332D01*
X668877Y114332D01*
X666808Y112263D01*
X666808Y109337D01*
X668877Y107268D01*
G37*
G36*
X776215Y60178D02*
X779141Y60178D01*
X781210Y62247D01*
X781210Y65173D01*
X779141Y67242D01*
X776215Y67242D01*
X774926Y65953D01*
X774684Y65790D01*
X774387Y65730D01*
X768442Y65730D01*
X768156Y65786D01*
X767904Y65953D01*
X760531Y73326D01*
X760368Y73568D01*
X760308Y73865D01*
X760308Y74330D01*
X760363Y74616D01*
X760531Y74869D01*
X766540Y80878D01*
X766540Y92274D01*
X766596Y92560D01*
X766763Y92813D01*
X768052Y94102D01*
X768052Y97028D01*
X766763Y98317D01*
X766600Y98558D01*
X766540Y98856D01*
X766540Y125514D01*
X766596Y125800D01*
X766763Y126053D01*
X768052Y127342D01*
X768052Y130268D01*
X765983Y132337D01*
X763057Y132337D01*
X760988Y130268D01*
X760988Y127342D01*
X762277Y126053D01*
X762440Y125812D01*
X762500Y125514D01*
X762500Y98856D01*
X762444Y98570D01*
X762277Y98317D01*
X760988Y97028D01*
X760988Y94102D01*
X762277Y92813D01*
X762440Y92572D01*
X762500Y92274D01*
X762500Y82867D01*
X762444Y82581D01*
X762277Y82329D01*
X756268Y76319D01*
X756268Y71876D01*
X766453Y61690D01*
X774387Y61690D01*
X774673Y61634D01*
X774926Y61467D01*
X776215Y60178D01*
G37*
G36*
X782447Y87186D02*
X785373Y87186D01*
X787442Y89255D01*
X787442Y92181D01*
X786153Y93469D01*
X785990Y93711D01*
X785930Y94008D01*
X785930Y97183D01*
X785986Y97469D01*
X786153Y97721D01*
X788552Y100120D01*
X788793Y100283D01*
X789090Y100343D01*
X790913Y100343D01*
X792982Y102412D01*
X792982Y105338D01*
X790913Y107407D01*
X787987Y107407D01*
X785918Y105338D01*
X785918Y103515D01*
X785862Y103229D01*
X785695Y102977D01*
X781890Y99172D01*
X781890Y94008D01*
X781834Y93722D01*
X781667Y93469D01*
X780378Y92181D01*
X780378Y89255D01*
X782447Y87186D01*
G37*
%LPD*%
D10*
X497215Y906483D02*
X497215Y970885D01*
X649565Y976425D02*
X649565Y983350D01*
X639870Y993045D01*
X520068Y993045D01*
X497908Y970885D01*
X497215Y970885D01*
X475748Y885708D02*
X463283Y885708D01*
X475748Y885708D02*
X496523Y906483D01*
X497215Y906483D01*
X109415Y425195D02*
X76175Y391955D01*
X263843Y965345D02*
X445278Y965345D01*
X449433Y969500D01*
X496523Y969500D01*
X497215Y970885D01*
X1233343Y378105D02*
X1233343Y353175D01*
X1478488Y416193D02*
X1492338Y402343D01*
X1233343Y407883D02*
X1233343Y378105D01*
X1233343Y407883D02*
X1249963Y424503D01*
X1240960Y5540D02*
X1270738Y5540D01*
X1565743Y34625D02*
X1565743Y73405D01*
X967423Y333785D02*
X945263Y355945D01*
X940415Y360100D02*
X859393Y360100D01*
X940415Y360100D02*
X944570Y355945D01*
X945263Y355945D01*
X769368Y76868D02*
X765905Y76868D01*
X769368Y76868D02*
X772830Y76868D01*
X765905Y76868D02*
X763135Y74098D01*
X767290Y208443D02*
X767290Y245145D01*
X767290Y208443D02*
X769368Y206365D01*
X769368Y76868D01*
X772830Y77560D02*
X799145Y77560D01*
X772830Y77560D02*
X772830Y76868D01*
X859393Y357330D02*
X859393Y360100D01*
X859393Y357330D02*
X767290Y265228D01*
X767290Y245145D01*
X1180713Y353175D02*
X1233343Y353175D01*
X1180713Y353175D02*
X1166170Y338633D01*
D11*
X497215Y970885D03*
X497215Y906483D03*
X649565Y976425D03*
X463283Y885708D03*
X76175Y391955D03*
X109415Y425195D03*
X263843Y965345D03*
X1233343Y353175D03*
X1233343Y378105D03*
X1492338Y402343D03*
X1478488Y416193D03*
X1249963Y424503D03*
X1270738Y5540D03*
X1240960Y5540D03*
X1565743Y34625D03*
X1565743Y73405D03*
X945263Y355945D03*
X967423Y333785D03*
X859393Y360100D03*
X772830Y76868D03*
X763135Y74098D03*
X767290Y245145D03*
X799145Y77560D03*
X1166170Y338633D03*
D10*
X1449403Y421040D02*
X1615603Y421040D01*
D11*
X1449403Y421040D03*
X1615603Y421040D03*
D10*
X1615603Y434198D02*
X1615603Y443893D01*
D11*
X1615603Y434198D03*
X1615603Y443893D03*
D10*
X1449403Y410653D02*
X1353838Y506218D01*
X875320Y506218D01*
X409960Y405805D02*
X254840Y405805D01*
X237528Y388493D01*
D11*
X1449403Y410653D03*
X875320Y506218D03*
X409960Y405805D03*
X237528Y388493D03*
D10*
X265228Y400958D02*
X398880Y400958D01*
X265228Y400958D02*
X249300Y385030D01*
D11*
X398880Y400958D03*
X249300Y385030D03*
D10*
X1278355Y391955D02*
X1310210Y391955D01*
X1278355Y391955D02*
X1233343Y346943D01*
X1182790Y346943D01*
D11*
X1310210Y391955D03*
X1182790Y346943D03*
D10*
X419655Y459820D02*
X297083Y459820D01*
X236143Y398880D01*
X159275Y542920D02*
X38780Y663415D01*
X159275Y542920D02*
X159275Y393340D01*
X171048Y381568D01*
X219523Y381568D01*
X236143Y398188D01*
X236143Y398880D01*
X1167555Y11080D02*
X1167555Y-36010D01*
X1167555Y11080D02*
X1166863Y11773D01*
X828230Y68558D02*
X828230Y82408D01*
X835155Y89333D01*
X835155Y119110D01*
X772138Y182128D01*
X772138Y263843D01*
X1137085Y-36010D02*
X1167555Y-36010D01*
X1137085Y-36010D02*
X1132238Y-40858D01*
X1042213Y-40858D01*
X937645Y63710D01*
X844158Y63710D01*
X419655Y456358D02*
X419655Y459820D01*
X419655Y456358D02*
X519375Y356638D01*
D11*
X419655Y459820D03*
X236143Y398880D03*
X38780Y663415D03*
X1167555Y-36010D03*
X1166863Y11773D03*
X828230Y68558D03*
X772138Y263843D03*
X844158Y63710D03*
X519375Y356638D03*
D10*
X39473Y830308D02*
X39473Y887785D01*
X1092765Y10388D02*
X1092765Y-33933D01*
X353868Y478518D02*
X171740Y478518D01*
X975040Y396110D02*
X975040Y262458D01*
X975040Y396110D02*
X880168Y490983D01*
X369795Y490983D01*
X39473Y772830D02*
X39473Y830308D01*
X39473Y772830D02*
X33933Y767290D01*
X33933Y614940D01*
X81023Y567850D01*
D11*
X39473Y830308D03*
X39473Y887785D03*
X1092765Y-33933D03*
X1092765Y10388D03*
X353868Y478518D03*
X171740Y478518D03*
X975040Y262458D03*
X369795Y490983D03*
X81023Y567850D03*
D10*
X1282510Y12465D02*
X1282510Y-37395D01*
X114263Y388493D02*
X114263Y581700D01*
X60940Y635023D01*
X1206335Y-37395D02*
X1282510Y-37395D01*
X1206335Y-37395D02*
X1200103Y-43628D01*
X1038750Y-43628D01*
X978503Y16620D01*
X869088Y16620D02*
X486828Y16620D01*
X114955Y388493D01*
X114263Y388493D01*
D11*
X1282510Y-37395D03*
X1282510Y12465D03*
X114263Y388493D03*
X60940Y635023D03*
X978503Y16620D03*
X869088Y16620D03*
D10*
X1130853Y11080D02*
X1130853Y-36010D01*
X829615Y63710D02*
X823383Y63710D01*
X829615Y63710D02*
X855930Y90025D01*
X855930Y183513D02*
X855930Y200825D01*
X855930Y183513D02*
X855930Y100413D01*
X855930Y90025D01*
X855930Y200825D02*
X873935Y218830D01*
X1098305Y11080D02*
X1130853Y11080D01*
X1098305Y11080D02*
X1021438Y87948D01*
X887785Y87948D01*
X875320Y100413D01*
X855930Y100413D01*
X426580Y459128D02*
X421040Y464668D01*
X295698Y464668D01*
X220908Y389878D01*
X220908Y387800D01*
X217445Y384338D01*
X174510Y384338D01*
X171048Y387800D01*
X43628Y662723D02*
X43628Y770753D01*
X43628Y662723D02*
X162045Y544305D01*
X162045Y397495D01*
X171048Y388493D01*
X171048Y387800D01*
X776985Y183513D02*
X855930Y183513D01*
X530455Y351790D02*
X426580Y455665D01*
X426580Y459128D01*
D11*
X1130853Y-36010D03*
X1130853Y11080D03*
X823383Y63710D03*
X873935Y218830D03*
X426580Y459128D03*
X171048Y387800D03*
X43628Y770753D03*
X776985Y183513D03*
X530455Y351790D03*
D10*
X826845Y272153D02*
X887093Y211905D01*
D11*
X826845Y272153D03*
X887093Y211905D03*
D10*
X764520Y95565D02*
X764520Y81715D01*
X758288Y75483D01*
X758288Y72713D01*
X767290Y63710D01*
X777678Y63710D01*
X899558Y168278D02*
X909945Y178665D01*
X764520Y128805D02*
X764520Y95565D01*
D11*
X764520Y95565D03*
X777678Y63710D03*
X909945Y178665D03*
X899558Y168278D03*
X764520Y128805D03*
D10*
X869088Y34625D02*
X853853Y19390D01*
X698733Y19390D01*
X669648Y48475D01*
D11*
X869088Y34625D03*
X669648Y48475D03*
D10*
X851775Y34625D02*
X862855Y34625D01*
X851775Y34625D02*
X841388Y24238D01*
X719508Y24238D01*
D11*
X862855Y34625D03*
X719508Y24238D03*
D10*
X670340Y110800D02*
X764520Y204980D01*
X817843Y217445D02*
X866318Y217445D01*
X817843Y217445D02*
X800530Y234758D01*
D11*
X670340Y110800D03*
X764520Y204980D03*
X866318Y217445D03*
X800530Y234758D03*
D10*
X1382923Y466745D02*
X1628068Y221600D01*
X1585133Y177973D02*
X1585133Y47783D01*
X1585133Y177973D02*
X1628068Y220908D01*
X1628068Y221600D01*
X192515Y563003D02*
X186283Y563003D01*
X192515Y563003D02*
X197363Y567850D01*
X230603Y567850D01*
X312318Y486135D01*
X870473Y486135D01*
X969846Y386761D02*
X972270Y384338D01*
X969846Y386761D02*
X870473Y486135D01*
X972270Y384338D02*
X972270Y332400D01*
X968808Y328938D01*
X914100Y328938D01*
X904405Y338633D01*
X1049830Y466745D02*
X1382923Y466745D01*
X1049830Y466745D02*
X982658Y399573D01*
X970193Y387108D02*
X969846Y386761D01*
D11*
X1382923Y466745D03*
X1628068Y221600D03*
X1585133Y47783D03*
X186283Y563003D03*
X904405Y338633D03*
X982658Y399573D03*
X970193Y387108D03*
D10*
X1379460Y471593D02*
X1384308Y471593D01*
X1444555Y411345D01*
X1444555Y409268D01*
X1621143Y232680D01*
X1623220Y232680D01*
X1593443Y180743D02*
X1593443Y62325D01*
X1593443Y180743D02*
X1632915Y220215D01*
X1632915Y223678D01*
X1623913Y232680D01*
X1623220Y232680D01*
X231295Y563003D02*
X198748Y563003D01*
X231295Y563003D02*
X310933Y483365D01*
X837925Y483365D01*
X848659Y472631D02*
X957728Y363563D01*
X848659Y472631D02*
X837925Y483365D01*
X957728Y363563D02*
X957728Y349713D01*
X848659Y472631D02*
X849005Y472978D01*
D11*
X1379460Y471593D03*
X1623220Y232680D03*
X1593443Y62325D03*
X198748Y563003D03*
X957728Y349713D03*
X849005Y472978D03*
D10*
X949418Y39473D02*
X1041520Y-52630D01*
X949418Y39473D02*
X852468Y39473D01*
X842080Y29085D01*
X704965Y29085D01*
X370488Y363563D01*
X370488Y388493D01*
D11*
X1041520Y-52630D03*
X370488Y388493D03*
D10*
X1241653Y409960D02*
X1261043Y409960D01*
D11*
X1241653Y409960D03*
X1261043Y409960D03*
D10*
X783910Y98335D02*
X783910Y90718D01*
X783910Y98335D02*
X789450Y103875D01*
D11*
X783910Y90718D03*
X789450Y103875D03*
D10*
X797760Y63710D02*
X797760Y54015D01*
X792913Y49168D01*
X792913Y46398D01*
X796375Y42935D01*
X817150Y42935D01*
X863548Y89333D01*
X863548Y90718D01*
D11*
X797760Y63710D03*
X863548Y90718D03*
D10*
X794990Y67173D02*
X792913Y67173D01*
X794990Y67173D02*
X818535Y90718D01*
X830308Y90718D01*
D11*
X792913Y67173D03*
X830308Y90718D03*
D10*
X817843Y47783D02*
X797760Y47783D01*
X817843Y47783D02*
X858700Y88640D01*
X858700Y92103D01*
X862163Y95565D01*
X873935Y95565D01*
D11*
X797760Y47783D03*
X873935Y95565D03*
D10*
X1247193Y27700D02*
X1262428Y42935D01*
X708428Y31855D02*
X405113Y335170D01*
X708428Y31855D02*
X838618Y31855D01*
X842773Y36010D01*
D11*
X1247193Y27700D03*
X1262428Y42935D03*
X405113Y335170D03*
X842773Y36010D03*
D10*
X837925Y47783D02*
X826153Y47783D01*
X818535Y40165D01*
X716738Y40165D01*
X600398Y156505D01*
X126728Y342788D02*
X114263Y330323D01*
D11*
X837925Y47783D03*
X600398Y156505D03*
X126728Y342788D03*
X114263Y330323D03*
D10*
X972270Y253455D02*
X972270Y95565D01*
X972270Y253455D02*
X979888Y261073D01*
X979888Y395418D01*
X843465Y531840D01*
X495138Y531840D01*
X458435Y567850D02*
X236835Y567850D01*
X458435Y567850D02*
X494445Y531840D01*
X495138Y531840D01*
D11*
X972270Y95565D03*
X495138Y531840D03*
X236835Y567850D03*
D10*
X844850Y44320D02*
X848313Y44320D01*
X844850Y44320D02*
X835155Y34625D01*
X709813Y34625D01*
X409960Y334478D01*
X409960Y336555D01*
X378105Y368410D01*
X375335Y368410D01*
D11*
X848313Y44320D03*
X375335Y368410D03*
D10*
X851083Y47783D02*
X863548Y47783D01*
X851083Y47783D02*
X849698Y49168D01*
X845543Y49168D01*
X833770Y37395D01*
X713275Y37395D01*
X637100Y113570D01*
D11*
X863548Y47783D03*
X637100Y113570D03*
D10*
X1203565Y11773D02*
X1203565Y-33933D01*
X310240Y473670D02*
X300545Y473670D01*
X216060Y389185D01*
X1173095Y11773D02*
X1203565Y11773D01*
X1173095Y11773D02*
X1094150Y90718D01*
X970885Y90718D01*
X891940Y169663D01*
X891940Y235450D01*
X817843Y309548D01*
X653720Y473670D02*
X310240Y473670D01*
D11*
X1203565Y-33933D03*
X1203565Y11773D03*
X310240Y473670D03*
X216060Y389185D03*
X817843Y309548D03*
X653720Y473670D03*
D10*
X263150Y651643D02*
X236835Y651643D01*
X263150Y651643D02*
X599705Y988198D01*
D11*
X236835Y651643D03*
X599705Y988198D03*
D10*
X105953Y563003D02*
X72020Y563003D01*
X45013Y590010D01*
D11*
X105953Y563003D03*
X45013Y590010D03*
D10*
X435583Y452895D02*
X829615Y452895D01*
X858008Y424503D01*
D11*
X435583Y452895D03*
X858008Y424503D03*
D10*
X468130Y896788D02*
X468130Y922410D01*
X468130Y896788D02*
X166893Y595550D01*
X166893Y446663D01*
D11*
X468130Y922410D03*
X166893Y446663D03*
D10*
X882938Y445970D02*
X904405Y445970D01*
X882938Y445970D02*
X876013Y452895D01*
X179358Y365640D02*
X173818Y365640D01*
X179358Y365640D02*
X192515Y378798D01*
X354560Y378798D01*
X369103Y393340D01*
X472285Y393340D01*
X521453Y344173D01*
X803300Y344173D01*
X860085Y400958D01*
X943878Y452203D02*
X963268Y471593D01*
D11*
X904405Y445970D03*
X876013Y452895D03*
X173818Y365640D03*
X860085Y400958D03*
X963268Y471593D03*
X943878Y452203D03*
D10*
X892633Y335170D02*
X892633Y328245D01*
X892633Y335170D02*
X912715Y355253D01*
X365640Y394033D02*
X345558Y394033D01*
X365640Y394033D02*
X367718Y396110D01*
X473670Y396110D01*
X522838Y346943D01*
X799838Y346943D01*
X858700Y405805D01*
X909253Y405805D01*
D11*
X892633Y328245D03*
X912715Y355253D03*
X345558Y394033D03*
X909253Y405805D03*
D10*
X241683Y723663D02*
X241683Y755518D01*
X450818Y964653D01*
D11*
X241683Y723663D03*
X450818Y964653D03*
D10*
X185590Y365640D02*
X185590Y324090D01*
D11*
X185590Y324090D03*
X185590Y365640D03*
D10*
X880168Y484750D02*
X891940Y472978D01*
D11*
X891940Y472978D03*
X880168Y484750D03*
D10*
X237528Y988890D02*
X213290Y964653D01*
D11*
X213290Y964653D03*
X237528Y988890D03*
D12*
X190000Y275500D03*
X172000Y275500D03*
X118000Y275500D03*
X100000Y275500D03*
X82000Y275500D03*
X64000Y275500D03*
X190000Y257500D03*
X136000Y257500D03*
X118000Y257500D03*
X100000Y257500D03*
X82000Y257500D03*
X64000Y257500D03*
X154000Y239500D03*
X136000Y239500D03*
X118000Y239500D03*
X100000Y239500D03*
X82000Y239500D03*
X64000Y239500D03*
X172000Y221500D03*
X154000Y221500D03*
X136000Y221500D03*
X118000Y221500D03*
X100000Y221500D03*
X82000Y221500D03*
X64000Y221500D03*
X190000Y203500D03*
X172000Y203500D03*
X154000Y203500D03*
X136000Y203500D03*
X118000Y203500D03*
X100000Y203500D03*
X82000Y203500D03*
X64000Y203500D03*
X64000Y185500D03*
X82000Y185500D03*
X100000Y185500D03*
X118000Y185500D03*
X136000Y185500D03*
X154000Y185500D03*
X172000Y185500D03*
X190000Y185500D03*
M02*
