G04 EAGLE Gerber RS-274X export*
G75*
%MOMM*%
%FSLAX34Y34*%
%LPD*%
%INTop Copper*%
%IPPOS*%
%AMOC8*
5,1,8,0,0,1.08239X$1,22.5*%
G01*
G04 Define Apertures*
%ADD10R,1.400000X1.050000*%
%ADD11R,0.900000X0.700000*%
%ADD12R,1.400000X1.400000*%
%ADD13R,0.700000X0.900000*%
%ADD14R,2.200000X2.000000*%
%ADD15R,0.800000X0.800000*%
%ADD16R,1.200000X0.600000*%
%ADD17R,0.940000X0.970000*%
%ADD18R,0.900000X0.800000*%
%ADD19R,1.150000X0.800000*%
%ADD20R,0.800000X0.900000*%
%ADD21R,0.900000X0.600000*%
%ADD22R,0.300000X0.800000*%
%ADD23R,0.400000X0.800000*%
%ADD24R,1.150000X0.300000*%
%ADD25R,2.000000X2.180000*%
%ADD26R,2.000000X1.200000*%
%ADD27R,1.350000X0.600000*%
%ADD28R,1.200000X1.800000*%
%ADD29R,1.900000X1.400000*%
%ADD30R,1.500000X0.700000*%
%ADD31R,0.127000X0.127000*%
%ADD32R,1.200000X0.550000*%
%ADD33R,1.500000X3.600000*%
%ADD34R,0.500000X1.050000*%
%ADD35C,0.125000*%
%ADD36R,1.168400X1.600200*%
%ADD37C,2.000000*%
%ADD38C,0.110000*%
%ADD39R,3.400000X4.300000*%
%ADD40R,0.900000X1.500000*%
%ADD41C,0.147500*%
%ADD42C,0.067500*%
%ADD43R,0.900000X1.300000*%
%ADD44C,0.150000*%
%ADD45C,0.452400*%
%ADD46C,0.300000*%
%ADD47C,0.502400*%
G36*
X1698784Y123401D02*
X1698488Y123336D01*
X1698190Y123391D01*
X1697937Y123559D01*
X1697026Y124470D01*
X1676612Y124470D01*
X1676337Y124521D01*
X1676082Y124685D01*
X1675910Y124935D01*
X1675850Y125232D01*
X1675850Y189667D01*
X1675906Y189953D01*
X1676073Y190206D01*
X1683468Y197600D01*
X1683468Y210975D01*
X1581432Y313010D01*
X1567132Y313010D01*
X1566857Y313061D01*
X1566602Y313225D01*
X1566430Y313475D01*
X1566370Y313772D01*
X1566370Y350026D01*
X1565626Y350770D01*
X1564247Y350770D01*
X1563984Y350817D01*
X1563726Y350976D01*
X1563550Y351224D01*
X1563485Y351520D01*
X1563541Y351818D01*
X1563708Y352071D01*
X1615299Y403662D01*
X1615519Y403815D01*
X1615814Y403885D01*
X1616113Y403834D01*
X1616368Y403670D01*
X1616374Y403662D01*
X1625652Y403662D01*
X1625652Y402138D01*
X1616600Y402138D01*
X1616600Y400348D01*
X1618140Y398808D01*
X1618390Y398654D01*
X1618565Y398406D01*
X1618630Y398110D01*
X1618575Y397812D01*
X1618407Y397559D01*
X1618100Y397252D01*
X1618100Y386062D01*
X1643180Y386062D01*
X1643180Y397252D01*
X1641692Y398740D01*
X1633412Y398740D01*
X1633148Y398787D01*
X1632890Y398946D01*
X1632715Y399194D01*
X1632650Y399490D01*
X1632705Y399788D01*
X1632873Y400041D01*
X1633180Y400348D01*
X1633180Y401488D01*
X1633231Y401763D01*
X1633395Y402018D01*
X1633645Y402190D01*
X1633942Y402250D01*
X1637815Y402250D01*
X1640890Y405325D01*
X1640890Y409675D01*
X1637815Y412750D01*
X1635922Y412750D01*
X1635659Y412797D01*
X1635401Y412956D01*
X1635225Y413204D01*
X1635160Y413500D01*
X1635216Y413798D01*
X1635383Y414051D01*
X1636378Y415045D01*
X1636378Y457505D01*
X1635133Y458749D01*
X1634980Y458969D01*
X1634910Y459264D01*
X1634961Y459563D01*
X1635125Y459818D01*
X1635375Y459990D01*
X1635672Y460050D01*
X1637815Y460050D01*
X1640890Y463125D01*
X1640890Y467475D01*
X1637815Y470550D01*
X1633942Y470550D01*
X1633667Y470601D01*
X1633412Y470765D01*
X1633240Y471015D01*
X1633180Y471312D01*
X1633180Y472452D01*
X1632873Y472759D01*
X1632720Y472979D01*
X1632650Y473274D01*
X1632701Y473573D01*
X1632864Y473828D01*
X1633115Y474000D01*
X1633412Y474060D01*
X1641692Y474060D01*
X1643180Y475548D01*
X1643180Y486738D01*
X1618100Y486738D01*
X1618100Y475548D01*
X1618407Y475241D01*
X1618560Y475021D01*
X1618630Y474726D01*
X1618579Y474427D01*
X1618416Y474172D01*
X1618166Y474000D01*
X1618144Y473996D01*
X1616600Y472452D01*
X1616600Y470662D01*
X1625652Y470662D01*
X1625652Y469138D01*
X1616600Y469138D01*
X1616600Y467662D01*
X1625652Y467662D01*
X1625652Y466138D01*
X1616600Y466138D01*
X1616600Y464348D01*
X1617647Y463301D01*
X1617810Y463060D01*
X1617870Y462762D01*
X1617870Y456844D01*
X1617963Y456708D01*
X1618028Y456412D01*
X1617973Y456114D01*
X1617870Y455959D01*
X1617870Y455565D01*
X1617814Y455279D01*
X1617647Y455026D01*
X1609449Y446828D01*
X1609207Y446665D01*
X1608910Y446605D01*
X1528132Y446605D01*
X1527857Y446656D01*
X1527602Y446820D01*
X1527430Y447070D01*
X1527370Y447367D01*
X1527370Y448126D01*
X1526626Y448870D01*
X1516574Y448870D01*
X1515830Y448126D01*
X1515830Y440074D01*
X1516574Y439330D01*
X1526626Y439330D01*
X1527370Y440074D01*
X1527370Y441803D01*
X1527421Y442078D01*
X1527585Y442333D01*
X1527835Y442505D01*
X1528132Y442565D01*
X1608886Y442565D01*
X1609149Y442518D01*
X1609408Y442359D01*
X1609583Y442111D01*
X1609648Y441815D01*
X1609592Y441517D01*
X1609425Y441264D01*
X1599754Y431593D01*
X1599512Y431430D01*
X1599215Y431370D01*
X1501532Y431370D01*
X1501257Y431421D01*
X1501002Y431585D01*
X1500830Y431835D01*
X1500770Y432132D01*
X1500770Y432526D01*
X1500026Y433270D01*
X1486974Y433270D01*
X1486230Y432526D01*
X1486230Y425474D01*
X1486915Y424789D01*
X1487073Y424558D01*
X1487138Y424262D01*
X1487083Y423964D01*
X1486915Y423711D01*
X1486230Y423026D01*
X1486230Y420551D01*
X1486174Y420265D01*
X1486007Y420012D01*
X1477071Y411076D01*
X1476851Y410923D01*
X1476556Y410853D01*
X1476257Y410904D01*
X1476002Y411067D01*
X1475830Y411317D01*
X1475770Y411615D01*
X1475770Y413794D01*
X1475760Y413840D01*
X1475815Y414138D01*
X1475983Y414391D01*
X1477040Y415448D01*
X1477040Y418738D01*
X1459960Y418738D01*
X1459960Y415448D01*
X1461017Y414391D01*
X1461175Y414160D01*
X1461240Y413864D01*
X1461230Y413809D01*
X1461230Y413435D01*
X1461179Y413160D01*
X1461015Y412904D01*
X1460765Y412733D01*
X1460468Y412673D01*
X1452693Y412673D01*
X1452407Y412728D01*
X1452154Y412896D01*
X1450866Y414185D01*
X1447940Y414185D01*
X1445871Y412116D01*
X1445871Y409190D01*
X1447940Y407121D01*
X1450866Y407121D01*
X1452154Y408409D01*
X1452396Y408572D01*
X1452693Y408633D01*
X1460468Y408633D01*
X1460743Y408581D01*
X1460998Y408418D01*
X1461170Y408168D01*
X1461230Y407871D01*
X1461230Y406474D01*
X1461974Y405730D01*
X1475026Y405730D01*
X1475802Y406506D01*
X1476021Y406659D01*
X1476316Y406728D01*
X1476615Y406678D01*
X1476871Y406514D01*
X1477042Y406264D01*
X1477103Y405967D01*
X1477103Y397732D01*
X1477051Y397457D01*
X1476888Y397202D01*
X1476638Y397030D01*
X1476341Y396970D01*
X1475174Y396970D01*
X1474430Y396226D01*
X1474430Y386174D01*
X1475174Y385430D01*
X1475648Y385430D01*
X1475923Y385379D01*
X1476178Y385215D01*
X1476350Y384965D01*
X1476410Y384668D01*
X1476410Y379232D01*
X1476359Y378957D01*
X1476195Y378702D01*
X1475945Y378530D01*
X1475648Y378470D01*
X1474774Y378470D01*
X1474030Y377726D01*
X1474030Y368480D01*
X1473979Y368205D01*
X1473815Y367949D01*
X1473565Y367778D01*
X1473268Y367718D01*
X1405320Y367718D01*
X1393171Y355568D01*
X1392951Y355415D01*
X1392656Y355345D01*
X1392357Y355396D01*
X1392102Y355560D01*
X1391930Y355810D01*
X1391870Y356107D01*
X1391870Y359642D01*
X1390154Y363784D01*
X1386984Y366954D01*
X1382842Y368670D01*
X1378358Y368670D01*
X1374216Y366954D01*
X1371046Y363784D01*
X1370770Y363118D01*
X1370621Y362888D01*
X1370374Y362712D01*
X1370078Y362647D01*
X1369780Y362703D01*
X1369527Y362870D01*
X1317493Y414904D01*
X1317330Y415146D01*
X1317270Y415443D01*
X1317270Y418526D01*
X1316526Y419270D01*
X1315820Y419270D01*
X1315545Y419321D01*
X1315289Y419485D01*
X1315118Y419735D01*
X1315058Y420032D01*
X1315058Y434812D01*
X1315113Y435098D01*
X1315281Y435351D01*
X1335029Y455099D01*
X1335259Y455257D01*
X1335556Y455322D01*
X1335854Y455267D01*
X1336107Y455099D01*
X1337896Y453310D01*
X1341788Y453310D01*
X1341788Y457962D01*
X1343312Y457962D01*
X1343312Y453310D01*
X1347204Y453310D01*
X1348912Y455018D01*
X1348941Y455173D01*
X1349105Y455428D01*
X1349355Y455600D01*
X1349652Y455660D01*
X1351638Y455660D01*
X1351638Y473740D01*
X1349652Y473740D01*
X1349377Y473791D01*
X1349122Y473955D01*
X1348950Y474205D01*
X1348915Y474380D01*
X1347204Y476090D01*
X1343312Y476090D01*
X1343312Y471438D01*
X1336210Y471438D01*
X1336210Y469996D01*
X1337257Y468949D01*
X1337420Y468707D01*
X1337480Y468410D01*
X1337480Y465430D01*
X1337429Y465155D01*
X1337265Y464899D01*
X1337015Y464728D01*
X1336774Y464679D01*
X1309518Y437422D01*
X1309518Y420032D01*
X1309466Y419757D01*
X1309303Y419502D01*
X1309053Y419330D01*
X1308756Y419270D01*
X1307474Y419270D01*
X1306730Y418526D01*
X1306730Y417647D01*
X1306679Y417372D01*
X1306515Y417117D01*
X1306265Y416945D01*
X1305968Y416885D01*
X1286051Y416885D01*
X1285765Y416941D01*
X1285512Y417108D01*
X1267607Y435013D01*
X1267484Y435175D01*
X1267389Y435463D01*
X1267280Y436393D01*
X1267275Y436481D01*
X1267275Y458768D01*
X1267326Y459043D01*
X1267490Y459298D01*
X1267740Y459470D01*
X1268037Y459530D01*
X1270026Y459530D01*
X1270770Y460274D01*
X1270770Y468326D01*
X1270026Y469070D01*
X1259974Y469070D01*
X1259230Y468326D01*
X1259230Y460274D01*
X1259974Y459530D01*
X1260973Y459530D01*
X1261248Y459479D01*
X1261503Y459315D01*
X1261675Y459065D01*
X1261735Y458768D01*
X1261735Y440482D01*
X1261684Y440207D01*
X1261520Y439952D01*
X1261270Y439780D01*
X1260973Y439720D01*
X1253075Y439720D01*
X1252331Y438976D01*
X1252331Y432424D01*
X1252368Y432387D01*
X1252526Y432156D01*
X1252591Y431860D01*
X1252536Y431562D01*
X1252368Y431309D01*
X1251061Y430002D01*
X1251061Y426962D01*
X1260363Y426962D01*
X1260363Y425438D01*
X1251061Y425438D01*
X1251061Y422398D01*
X1252368Y421091D01*
X1252526Y420860D01*
X1252591Y420564D01*
X1252536Y420266D01*
X1252368Y420013D01*
X1252331Y419976D01*
X1252331Y416811D01*
X1252284Y416548D01*
X1252125Y416290D01*
X1251877Y416114D01*
X1251581Y416049D01*
X1251283Y416105D01*
X1251030Y416272D01*
X1236923Y430379D01*
X1236770Y430599D01*
X1236700Y430894D01*
X1236751Y431193D01*
X1236915Y431448D01*
X1237165Y431620D01*
X1237462Y431680D01*
X1240125Y431680D01*
X1240869Y432424D01*
X1240869Y438976D01*
X1240125Y439720D01*
X1234131Y439720D01*
X1233845Y439776D01*
X1233592Y439943D01*
X1228950Y444585D01*
X1213332Y444585D01*
X1213057Y444636D01*
X1212802Y444800D01*
X1212630Y445050D01*
X1212570Y445347D01*
X1212570Y446626D01*
X1211826Y447370D01*
X1206398Y447370D01*
X1206112Y447426D01*
X1205859Y447593D01*
X1201250Y452203D01*
X1149655Y452203D01*
X1149426Y452238D01*
X1149161Y452385D01*
X1148974Y452624D01*
X1148744Y453083D01*
X1148447Y453182D01*
X1148149Y453366D01*
X1145618Y455897D01*
X1145455Y456138D01*
X1145395Y456436D01*
X1145395Y524716D01*
X1145448Y524996D01*
X1145614Y525250D01*
X1145865Y525420D01*
X1148584Y526546D01*
X1151754Y529716D01*
X1153470Y533858D01*
X1153470Y538342D01*
X1151754Y542484D01*
X1149099Y545139D01*
X1148946Y545359D01*
X1148876Y545654D01*
X1148927Y545953D01*
X1149091Y546208D01*
X1149341Y546380D01*
X1149638Y546440D01*
X1281358Y546440D01*
X1281644Y546384D01*
X1281896Y546217D01*
X1353072Y475041D01*
X1353225Y474821D01*
X1353295Y474526D01*
X1353244Y474227D01*
X1353162Y474098D01*
X1353162Y455660D01*
X1356726Y455660D01*
X1357012Y455604D01*
X1357265Y455437D01*
X1358122Y454580D01*
X1366378Y454580D01*
X1367320Y455522D01*
X1367320Y458410D01*
X1367376Y458696D01*
X1367543Y458949D01*
X1368590Y459996D01*
X1368590Y461438D01*
X1361488Y461438D01*
X1361488Y462962D01*
X1368590Y462962D01*
X1368590Y463963D01*
X1368641Y464238D01*
X1368805Y464493D01*
X1369055Y464665D01*
X1369352Y464725D01*
X1379632Y464725D01*
X1379918Y464669D01*
X1380171Y464502D01*
X1381460Y463213D01*
X1384386Y463213D01*
X1386455Y465282D01*
X1386455Y468208D01*
X1384386Y470277D01*
X1383754Y470277D01*
X1383479Y470328D01*
X1383224Y470492D01*
X1383052Y470742D01*
X1382992Y471039D01*
X1382992Y473056D01*
X1380923Y475125D01*
X1377997Y475125D01*
X1376708Y473836D01*
X1376467Y473673D01*
X1376169Y473613D01*
X1367901Y473613D01*
X1367616Y473668D01*
X1367363Y473836D01*
X1366378Y474820D01*
X1359322Y474820D01*
X1359036Y474876D01*
X1358784Y475043D01*
X1285918Y547909D01*
X1285765Y548129D01*
X1285695Y548424D01*
X1285746Y548723D01*
X1285909Y548978D01*
X1286159Y549150D01*
X1286456Y549210D01*
X1328448Y549210D01*
X1328734Y549154D01*
X1328986Y548987D01*
X1450643Y427330D01*
X1460468Y427330D01*
X1460743Y427279D01*
X1460998Y427115D01*
X1461170Y426865D01*
X1461230Y426568D01*
X1461230Y425207D01*
X1461240Y425160D01*
X1461185Y424862D01*
X1461017Y424609D01*
X1459960Y423552D01*
X1459960Y420262D01*
X1477040Y420262D01*
X1477040Y423552D01*
X1475983Y424609D01*
X1475825Y424840D01*
X1475760Y425136D01*
X1475770Y425191D01*
X1475770Y432526D01*
X1475026Y433270D01*
X1461974Y433270D01*
X1461230Y432526D01*
X1461230Y432132D01*
X1461179Y431857D01*
X1461015Y431602D01*
X1460765Y431430D01*
X1460468Y431370D01*
X1452632Y431370D01*
X1452346Y431426D01*
X1452094Y431593D01*
X1330437Y553250D01*
X549312Y553250D01*
X549049Y553297D01*
X548791Y553456D01*
X548615Y553704D01*
X548550Y554000D01*
X548606Y554298D01*
X548773Y554551D01*
X882938Y888715D01*
X882938Y929319D01*
X882991Y929599D01*
X883156Y929854D01*
X883408Y930023D01*
X887084Y931546D01*
X890254Y934716D01*
X891970Y938858D01*
X891970Y943342D01*
X890254Y947484D01*
X887084Y950654D01*
X882942Y952370D01*
X878458Y952370D01*
X874316Y950654D01*
X871146Y947484D01*
X869430Y943342D01*
X869430Y938858D01*
X871146Y934716D01*
X874316Y931546D01*
X876927Y930464D01*
X877166Y930308D01*
X877337Y930057D01*
X877398Y929760D01*
X877398Y891326D01*
X877342Y891040D01*
X877174Y890787D01*
X445221Y458833D01*
X445001Y458680D01*
X444706Y458610D01*
X444407Y458661D01*
X444152Y458825D01*
X443980Y459075D01*
X443920Y459372D01*
X443920Y461354D01*
X442854Y462420D01*
X433046Y462420D01*
X431997Y461371D01*
X431755Y461208D01*
X431458Y461148D01*
X429871Y461148D01*
X429585Y461203D01*
X429332Y461371D01*
X428043Y462660D01*
X427191Y462660D01*
X426928Y462706D01*
X426669Y462866D01*
X426494Y463113D01*
X426429Y463409D01*
X426485Y463707D01*
X426652Y463960D01*
X431420Y468728D01*
X431651Y468886D01*
X431947Y468952D01*
X432245Y468896D01*
X432498Y468728D01*
X433046Y468180D01*
X442854Y468180D01*
X443920Y469246D01*
X443920Y474054D01*
X442854Y475120D01*
X433046Y475120D01*
X431762Y473836D01*
X431520Y473673D01*
X431223Y473613D01*
X430591Y473613D01*
X420553Y463575D01*
X420312Y463412D01*
X420015Y463352D01*
X419302Y463352D01*
X419027Y463403D01*
X418772Y463567D01*
X418600Y463817D01*
X418540Y464114D01*
X418540Y477238D01*
X379460Y477238D01*
X379460Y455677D01*
X379409Y455402D01*
X379245Y455147D01*
X378995Y454975D01*
X378698Y454915D01*
X368025Y454915D01*
X367761Y454962D01*
X367503Y455121D01*
X367328Y455369D01*
X367263Y455665D01*
X367290Y455811D01*
X367290Y458188D01*
X352810Y458188D01*
X352810Y455816D01*
X352837Y455701D01*
X352786Y455402D01*
X352623Y455147D01*
X352373Y454975D01*
X352075Y454915D01*
X325935Y454915D01*
X325649Y454971D01*
X325396Y455138D01*
X311588Y468946D01*
X311430Y469176D01*
X311365Y469472D01*
X311421Y469771D01*
X311588Y470023D01*
X313772Y472207D01*
X313772Y474030D01*
X313828Y474316D01*
X313995Y474568D01*
X333706Y494279D01*
X333948Y494442D01*
X334245Y494503D01*
X353908Y494503D01*
X354194Y494447D01*
X354447Y494279D01*
X355146Y493580D01*
X364954Y493580D01*
X366020Y494646D01*
X366020Y499454D01*
X364954Y500520D01*
X355146Y500520D01*
X354080Y499454D01*
X354080Y499305D01*
X354029Y499030D01*
X353865Y498774D01*
X353615Y498603D01*
X353318Y498543D01*
X332256Y498543D01*
X311138Y477425D01*
X310897Y477262D01*
X310600Y477202D01*
X308777Y477202D01*
X306593Y475018D01*
X306363Y474860D01*
X306067Y474795D01*
X305769Y474851D01*
X305516Y475018D01*
X238805Y541729D01*
X238652Y541949D01*
X238582Y542244D01*
X238633Y542543D01*
X238797Y542798D01*
X239047Y542970D01*
X239344Y543030D01*
X246126Y543030D01*
X246870Y543774D01*
X246870Y559826D01*
X246126Y560570D01*
X244465Y560570D01*
X244190Y560621D01*
X243934Y560785D01*
X243763Y561035D01*
X243703Y561332D01*
X243703Y720372D01*
X243758Y720658D01*
X243926Y720911D01*
X245215Y722200D01*
X245215Y725126D01*
X243146Y727195D01*
X240220Y727195D01*
X238151Y725126D01*
X238151Y722200D01*
X239439Y720911D01*
X239602Y720669D01*
X239663Y720372D01*
X239663Y655650D01*
X239616Y655386D01*
X239456Y655128D01*
X239209Y654953D01*
X238913Y654888D01*
X238615Y654943D01*
X238362Y655111D01*
X238298Y655175D01*
X235372Y655175D01*
X233303Y653106D01*
X233303Y651283D01*
X233247Y650997D01*
X233080Y650744D01*
X143129Y560793D01*
X142887Y560630D01*
X142590Y560570D01*
X134474Y560570D01*
X133689Y559785D01*
X133458Y559627D01*
X133162Y559562D01*
X132864Y559617D01*
X132611Y559785D01*
X131826Y560570D01*
X130202Y560570D01*
X129927Y560621D01*
X129672Y560785D01*
X129500Y561035D01*
X129440Y561332D01*
X129440Y580548D01*
X129496Y580834D01*
X129663Y581086D01*
X197998Y649421D01*
X197998Y745868D01*
X198049Y746143D01*
X198212Y746398D01*
X198462Y746570D01*
X198529Y746583D01*
X202784Y748346D01*
X205954Y751516D01*
X207670Y755658D01*
X207670Y760142D01*
X205954Y764284D01*
X202784Y767454D01*
X198642Y769170D01*
X194158Y769170D01*
X190016Y767454D01*
X186846Y764284D01*
X185130Y760142D01*
X185130Y755658D01*
X186846Y751516D01*
X190016Y748346D01*
X193487Y746908D01*
X193726Y746751D01*
X193897Y746501D01*
X193958Y746204D01*
X193958Y651410D01*
X193902Y651124D01*
X193734Y650871D01*
X138871Y596008D01*
X138651Y595855D01*
X138356Y595785D01*
X138057Y595836D01*
X137802Y595999D01*
X137630Y596249D01*
X137570Y596546D01*
X137570Y600142D01*
X135854Y604284D01*
X132684Y607454D01*
X128542Y609170D01*
X124058Y609170D01*
X119916Y607454D01*
X116746Y604284D01*
X115030Y600142D01*
X115030Y595658D01*
X116746Y591516D01*
X119916Y588346D01*
X120482Y588111D01*
X120712Y587963D01*
X120887Y587716D01*
X120952Y587419D01*
X120897Y587121D01*
X120729Y586869D01*
X99085Y565224D01*
X99085Y561332D01*
X99034Y561057D01*
X98870Y560802D01*
X98620Y560630D01*
X98323Y560570D01*
X96374Y560570D01*
X95589Y559785D01*
X95358Y559627D01*
X95062Y559562D01*
X94764Y559617D01*
X94511Y559785D01*
X93726Y560570D01*
X85935Y560570D01*
X85649Y560626D01*
X85396Y560793D01*
X83266Y562924D01*
X83103Y563165D01*
X83043Y563462D01*
X83043Y564559D01*
X83098Y564845D01*
X83266Y565098D01*
X84555Y566387D01*
X84555Y569313D01*
X82486Y571382D01*
X79560Y571382D01*
X77491Y569313D01*
X77491Y566387D01*
X78779Y565098D01*
X78942Y564857D01*
X79003Y564559D01*
X79003Y562602D01*
X78951Y562327D01*
X78788Y562072D01*
X78538Y561900D01*
X78241Y561840D01*
X76762Y561840D01*
X76762Y541760D01*
X81552Y541760D01*
X82709Y542917D01*
X82940Y543075D01*
X83236Y543140D01*
X83534Y543085D01*
X83616Y543030D01*
X91590Y543030D01*
X91876Y542974D01*
X92129Y542807D01*
X158438Y476498D01*
X168449Y476498D01*
X168735Y476442D01*
X168988Y476274D01*
X170277Y474986D01*
X173203Y474986D01*
X175272Y477055D01*
X175272Y479981D01*
X173203Y482050D01*
X170277Y482050D01*
X168988Y480761D01*
X168747Y480598D01*
X168449Y480538D01*
X160427Y480538D01*
X160141Y480593D01*
X159889Y480761D01*
X98920Y541729D01*
X98767Y541949D01*
X98697Y542244D01*
X98748Y542543D01*
X98912Y542798D01*
X99162Y542970D01*
X99459Y543030D01*
X104748Y543030D01*
X105034Y542974D01*
X105286Y542807D01*
X107886Y540208D01*
X202443Y540208D01*
X202729Y540152D01*
X202981Y539984D01*
X344209Y398757D01*
X344367Y398526D01*
X344432Y398230D01*
X344377Y397932D01*
X344209Y397679D01*
X342806Y396276D01*
X342564Y396113D01*
X342267Y396053D01*
X240150Y396053D01*
X239886Y396099D01*
X239628Y396259D01*
X239453Y396506D01*
X239388Y396802D01*
X239443Y397100D01*
X239611Y397353D01*
X239675Y397417D01*
X239675Y400343D01*
X237606Y402412D01*
X234680Y402412D01*
X233391Y401123D01*
X233149Y400960D01*
X232852Y400900D01*
X158438Y400900D01*
X143331Y385793D01*
X143090Y385630D01*
X142793Y385570D01*
X134474Y385570D01*
X133689Y384785D01*
X133458Y384627D01*
X133162Y384562D01*
X132864Y384617D01*
X132611Y384785D01*
X131826Y385570D01*
X121774Y385570D01*
X120989Y384785D01*
X120758Y384627D01*
X120462Y384562D01*
X120164Y384617D01*
X119911Y384785D01*
X119126Y385570D01*
X118175Y385570D01*
X117911Y385617D01*
X117653Y385776D01*
X117478Y386024D01*
X117413Y386320D01*
X117468Y386618D01*
X117636Y386871D01*
X117795Y387030D01*
X117795Y389956D01*
X115957Y391793D01*
X115799Y392023D01*
X115734Y392320D01*
X115790Y392618D01*
X115957Y392870D01*
X165994Y442907D01*
X166236Y443070D01*
X166533Y443131D01*
X168356Y443131D01*
X170425Y445200D01*
X170425Y448126D01*
X168356Y450195D01*
X165430Y450195D01*
X163361Y448126D01*
X163361Y446303D01*
X163305Y446017D01*
X163137Y445764D01*
X153541Y436168D01*
X153321Y436015D01*
X153026Y435945D01*
X152727Y435996D01*
X152621Y436064D01*
X152621Y435988D01*
X146462Y435988D01*
X146462Y429829D01*
X146389Y429829D01*
X146440Y429756D01*
X146506Y429460D01*
X146450Y429162D01*
X146282Y428909D01*
X112956Y395583D01*
X112715Y395420D01*
X112418Y395360D01*
X112041Y395360D01*
X102474Y385793D01*
X102232Y385630D01*
X101935Y385570D01*
X96374Y385570D01*
X95589Y384785D01*
X95358Y384627D01*
X95062Y384562D01*
X94764Y384617D01*
X94511Y384785D01*
X93726Y385570D01*
X91480Y385570D01*
X91205Y385621D01*
X90949Y385785D01*
X90778Y386035D01*
X90718Y386332D01*
X90718Y524677D01*
X74936Y540459D01*
X74783Y540679D01*
X74713Y540974D01*
X74764Y541273D01*
X74927Y541528D01*
X75177Y541700D01*
X75238Y541712D01*
X75238Y561840D01*
X71397Y561840D01*
X71122Y561891D01*
X70867Y562055D01*
X70695Y562305D01*
X70635Y562602D01*
X70635Y777440D01*
X59510Y788565D01*
X59352Y788795D01*
X59287Y789092D01*
X59342Y789390D01*
X59510Y789643D01*
X94180Y824313D01*
X94180Y881568D01*
X94231Y881843D01*
X94395Y882098D01*
X94645Y882270D01*
X94942Y882330D01*
X96626Y882330D01*
X97370Y883074D01*
X97370Y884253D01*
X97421Y884528D01*
X97585Y884783D01*
X97835Y884955D01*
X98132Y885015D01*
X199202Y885015D01*
X281155Y966968D01*
X281155Y981203D01*
X281206Y981478D01*
X281370Y981733D01*
X281620Y981905D01*
X281917Y981965D01*
X396725Y981965D01*
X397010Y981909D01*
X397263Y981742D01*
X468868Y910138D01*
X469026Y909907D01*
X469091Y909611D01*
X469035Y909313D01*
X468868Y909060D01*
X466053Y906245D01*
X466053Y874706D01*
X465997Y874420D01*
X465829Y874167D01*
X460141Y868478D01*
X459921Y868325D01*
X459626Y868255D01*
X459327Y868306D01*
X459221Y868374D01*
X459221Y868138D01*
X447062Y868138D01*
X447062Y855979D01*
X446828Y855979D01*
X446880Y855906D01*
X446945Y855610D01*
X446889Y855312D01*
X446722Y855059D01*
X430043Y838380D01*
X430043Y506287D01*
X429991Y506012D01*
X429828Y505757D01*
X429578Y505585D01*
X429281Y505525D01*
X379728Y505525D01*
X376028Y501825D01*
X376028Y493831D01*
X375972Y493545D01*
X375804Y493292D01*
X374628Y492115D01*
X374408Y491962D01*
X374113Y491892D01*
X373814Y491943D01*
X373559Y492107D01*
X373387Y492357D01*
X373380Y492392D01*
X371258Y494515D01*
X368332Y494515D01*
X366159Y492342D01*
X366040Y492162D01*
X361921Y488043D01*
X361680Y487880D01*
X361383Y487820D01*
X355146Y487820D01*
X354080Y486754D01*
X354080Y482812D01*
X354029Y482537D01*
X353865Y482281D01*
X353615Y482110D01*
X353318Y482050D01*
X352405Y482050D01*
X350336Y479981D01*
X350336Y477055D01*
X352405Y474986D01*
X353318Y474986D01*
X353593Y474934D01*
X353848Y474771D01*
X354020Y474521D01*
X354080Y474224D01*
X354080Y469246D01*
X355146Y468180D01*
X364954Y468180D01*
X366020Y469246D01*
X366020Y474054D01*
X365749Y474324D01*
X365591Y474555D01*
X365526Y474851D01*
X365582Y475149D01*
X365749Y475402D01*
X378159Y487812D01*
X378379Y487965D01*
X378674Y488035D01*
X378973Y487984D01*
X379228Y487820D01*
X379400Y487570D01*
X379460Y487273D01*
X379460Y478762D01*
X418540Y478762D01*
X418540Y499223D01*
X418591Y499498D01*
X418755Y499753D01*
X419005Y499925D01*
X419302Y499985D01*
X430657Y499985D01*
X430943Y499929D01*
X431196Y499762D01*
X431757Y499201D01*
X431920Y498959D01*
X431980Y498662D01*
X431980Y494646D01*
X433046Y493580D01*
X434821Y493580D01*
X435095Y493529D01*
X435351Y493365D01*
X435522Y493115D01*
X435583Y492818D01*
X435583Y488582D01*
X435531Y488307D01*
X435368Y488052D01*
X435118Y487880D01*
X434821Y487820D01*
X433046Y487820D01*
X431980Y486754D01*
X431980Y481946D01*
X433046Y480880D01*
X442854Y480880D01*
X443920Y481946D01*
X443920Y486754D01*
X442854Y487820D01*
X441885Y487820D01*
X441610Y487871D01*
X441354Y488035D01*
X441183Y488285D01*
X441123Y488582D01*
X441123Y492818D01*
X441174Y493093D01*
X441337Y493348D01*
X441587Y493520D01*
X441885Y493580D01*
X442854Y493580D01*
X443920Y494646D01*
X443920Y499454D01*
X442854Y500520D01*
X438588Y500520D01*
X438302Y500576D01*
X438049Y500743D01*
X435879Y502914D01*
X435699Y503200D01*
X435657Y503500D01*
X435736Y503793D01*
X435803Y503927D01*
X435622Y504472D01*
X435583Y504713D01*
X435583Y835770D01*
X435638Y836055D01*
X435806Y836308D01*
X471593Y872095D01*
X471593Y892998D01*
X471644Y893273D01*
X471807Y893528D01*
X472057Y893700D01*
X472355Y893760D01*
X475438Y893760D01*
X475438Y900062D01*
X483240Y900062D01*
X483240Y903352D01*
X482183Y904409D01*
X482025Y904640D01*
X481960Y904936D01*
X481970Y904991D01*
X481970Y907780D01*
X482026Y908065D01*
X482193Y908318D01*
X533225Y959350D01*
X533225Y961813D01*
X533276Y962088D01*
X533440Y962343D01*
X533690Y962515D01*
X533987Y962575D01*
X682567Y962575D01*
X686268Y966275D01*
X686268Y978957D01*
X682093Y983132D01*
X681930Y983373D01*
X681870Y983671D01*
X681870Y989226D01*
X681126Y989970D01*
X671074Y989970D01*
X670330Y989226D01*
X670330Y983901D01*
X670283Y983638D01*
X670124Y983380D01*
X669876Y983205D01*
X669580Y983139D01*
X669282Y983195D01*
X669135Y983293D01*
X669132Y983293D01*
X668857Y983344D01*
X668602Y983507D01*
X668430Y983757D01*
X668370Y984055D01*
X668370Y993476D01*
X668421Y993751D01*
X668585Y994006D01*
X668835Y994178D01*
X669132Y994238D01*
X691344Y994238D01*
X692962Y995856D01*
X692962Y1005976D01*
X693013Y1006251D01*
X693177Y1006506D01*
X693427Y1006678D01*
X693724Y1006738D01*
X918476Y1006738D01*
X918751Y1006687D01*
X919006Y1006523D01*
X919178Y1006273D01*
X919238Y1005976D01*
X919238Y568356D01*
X920856Y566738D01*
X1698476Y566738D01*
X1698751Y566687D01*
X1699006Y566523D01*
X1699178Y566273D01*
X1699238Y565976D01*
X1699238Y124098D01*
X1699191Y123834D01*
X1699032Y123576D01*
X1698784Y123401D01*
G37*
%LPC*%
G36*
X514974Y912530D02*
X525026Y912530D01*
X525770Y913274D01*
X525770Y921326D01*
X525026Y922070D01*
X514974Y922070D01*
X514230Y921326D01*
X514230Y920345D01*
X514179Y920070D01*
X514015Y919814D01*
X513765Y919643D01*
X513468Y919583D01*
X510732Y919583D01*
X510457Y919634D01*
X510202Y919797D01*
X510030Y920047D01*
X509970Y920345D01*
X509970Y921826D01*
X509226Y922570D01*
X499174Y922570D01*
X498430Y921826D01*
X498430Y914774D01*
X499174Y914030D01*
X509226Y914030D01*
X509970Y914774D01*
X509970Y914781D01*
X510021Y915055D01*
X510185Y915311D01*
X510435Y915482D01*
X510732Y915543D01*
X513468Y915543D01*
X513743Y915491D01*
X513998Y915328D01*
X514170Y915078D01*
X514230Y914781D01*
X514230Y913274D01*
X514974Y912530D01*
G37*
G36*
X520762Y905062D02*
X527040Y905062D01*
X527040Y908852D01*
X525552Y910340D01*
X520762Y910340D01*
X520762Y905062D01*
G37*
G36*
X512960Y905062D02*
X519238Y905062D01*
X519238Y910340D01*
X514448Y910340D01*
X512960Y908852D01*
X512960Y905062D01*
G37*
G36*
X499174Y895030D02*
X509226Y895030D01*
X509970Y895774D01*
X509970Y902826D01*
X509226Y903570D01*
X499174Y903570D01*
X498430Y902826D01*
X498430Y895774D01*
X499174Y895030D01*
G37*
G36*
X520762Y898260D02*
X525552Y898260D01*
X527040Y899748D01*
X527040Y903538D01*
X520762Y903538D01*
X520762Y898260D01*
G37*
G36*
X514448Y898260D02*
X519238Y898260D01*
X519238Y903538D01*
X512960Y903538D01*
X512960Y899748D01*
X514448Y898260D01*
G37*
G36*
X476962Y893760D02*
X481752Y893760D01*
X483240Y895248D01*
X483240Y898538D01*
X476962Y898538D01*
X476962Y893760D01*
G37*
G36*
X433760Y869662D02*
X445538Y869662D01*
X445538Y881440D01*
X443806Y881440D01*
X439197Y879531D01*
X435669Y876003D01*
X433760Y871394D01*
X433760Y869662D01*
G37*
G36*
X447062Y869662D02*
X458840Y869662D01*
X458840Y871394D01*
X456931Y876003D01*
X453403Y879531D01*
X448794Y881440D01*
X447062Y881440D01*
X447062Y869662D01*
G37*
G36*
X443806Y856360D02*
X445538Y856360D01*
X445538Y868138D01*
X433760Y868138D01*
X433760Y866406D01*
X435669Y861797D01*
X439197Y858269D01*
X443806Y856360D01*
G37*
G36*
X148236Y813530D02*
X161288Y813530D01*
X162032Y814274D01*
X162032Y833326D01*
X161288Y834070D01*
X148236Y834070D01*
X147492Y833326D01*
X147492Y814274D01*
X148236Y813530D01*
G37*
G36*
X155524Y796062D02*
X163302Y796062D01*
X163302Y805352D01*
X161814Y806840D01*
X155524Y806840D01*
X155524Y796062D01*
G37*
G36*
X146222Y796062D02*
X154000Y796062D01*
X154000Y806840D01*
X147710Y806840D01*
X146222Y805352D01*
X146222Y796062D01*
G37*
G36*
X147710Y783760D02*
X154000Y783760D01*
X154000Y794538D01*
X146222Y794538D01*
X146222Y785248D01*
X147710Y783760D01*
G37*
G36*
X155524Y783760D02*
X161814Y783760D01*
X163302Y785248D01*
X163302Y794538D01*
X155524Y794538D01*
X155524Y783760D01*
G37*
G36*
X148236Y756530D02*
X161288Y756530D01*
X162032Y757274D01*
X162032Y776326D01*
X161288Y777070D01*
X148236Y777070D01*
X147492Y776326D01*
X147492Y757274D01*
X148236Y756530D01*
G37*
G36*
X155524Y739062D02*
X163302Y739062D01*
X163302Y748352D01*
X161814Y749840D01*
X155524Y749840D01*
X155524Y739062D01*
G37*
G36*
X146222Y739062D02*
X154000Y739062D01*
X154000Y749840D01*
X147710Y749840D01*
X146222Y748352D01*
X146222Y739062D01*
G37*
G36*
X155524Y726760D02*
X161814Y726760D01*
X163302Y728248D01*
X163302Y737538D01*
X155524Y737538D01*
X155524Y726760D01*
G37*
G36*
X147710Y726760D02*
X154000Y726760D01*
X154000Y737538D01*
X146222Y737538D01*
X146222Y728248D01*
X147710Y726760D01*
G37*
G36*
X493675Y528308D02*
X496601Y528308D01*
X498670Y530377D01*
X498670Y533303D01*
X496601Y535372D01*
X495752Y535372D01*
X495483Y535421D01*
X495226Y535582D01*
X495053Y535831D01*
X494990Y536128D01*
X495048Y536426D01*
X496470Y539858D01*
X496470Y544342D01*
X494754Y548484D01*
X491584Y551654D01*
X487442Y553370D01*
X482958Y553370D01*
X478816Y551654D01*
X475646Y548484D01*
X473930Y544342D01*
X473930Y539858D01*
X475646Y535716D01*
X478816Y532546D01*
X482958Y530830D01*
X487442Y530830D01*
X490552Y532118D01*
X490819Y532176D01*
X491118Y532125D01*
X491374Y531962D01*
X491545Y531711D01*
X491606Y531414D01*
X491606Y530377D01*
X493675Y528308D01*
G37*
G36*
X1657400Y488262D02*
X1669178Y488262D01*
X1669178Y500940D01*
X1658888Y500940D01*
X1657400Y499452D01*
X1657400Y488262D01*
G37*
G36*
X1670702Y488262D02*
X1682480Y488262D01*
X1682480Y499452D01*
X1680992Y500940D01*
X1670702Y500940D01*
X1670702Y488262D01*
G37*
G36*
X1631402Y488262D02*
X1643180Y488262D01*
X1643180Y499452D01*
X1641692Y500940D01*
X1631402Y500940D01*
X1631402Y488262D01*
G37*
G36*
X1618100Y488262D02*
X1629878Y488262D01*
X1629878Y500940D01*
X1619588Y500940D01*
X1618100Y499452D01*
X1618100Y488262D01*
G37*
G36*
X1670702Y474060D02*
X1680992Y474060D01*
X1682480Y475548D01*
X1682480Y486738D01*
X1670702Y486738D01*
X1670702Y474060D01*
G37*
G36*
X1658888Y474060D02*
X1669178Y474060D01*
X1669178Y486738D01*
X1657400Y486738D01*
X1657400Y475548D01*
X1658888Y474060D01*
G37*
G36*
X1265762Y478062D02*
X1272040Y478062D01*
X1272040Y481852D01*
X1270552Y483340D01*
X1265762Y483340D01*
X1265762Y478062D01*
G37*
G36*
X1257960Y478062D02*
X1264238Y478062D01*
X1264238Y483340D01*
X1259448Y483340D01*
X1257960Y481852D01*
X1257960Y478062D01*
G37*
G36*
X1259448Y471260D02*
X1264238Y471260D01*
X1264238Y476538D01*
X1257960Y476538D01*
X1257960Y472748D01*
X1259448Y471260D01*
G37*
G36*
X1265762Y471260D02*
X1270552Y471260D01*
X1272040Y472748D01*
X1272040Y476538D01*
X1265762Y476538D01*
X1265762Y471260D01*
G37*
G36*
X1336210Y472962D02*
X1341788Y472962D01*
X1341788Y476090D01*
X1337896Y476090D01*
X1336210Y474404D01*
X1336210Y472962D01*
G37*
G36*
X114160Y462512D02*
X119938Y462512D01*
X119938Y468290D01*
X115648Y468290D01*
X114160Y466802D01*
X114160Y462512D01*
G37*
G36*
X146462Y462512D02*
X152240Y462512D01*
X152240Y466802D01*
X150752Y468290D01*
X146462Y468290D01*
X146462Y462512D01*
G37*
G36*
X121462Y430210D02*
X125752Y430210D01*
X126411Y430869D01*
X126642Y431027D01*
X126938Y431092D01*
X127236Y431037D01*
X127489Y430869D01*
X128148Y430210D01*
X132438Y430210D01*
X132438Y437512D01*
X133962Y437512D01*
X133962Y430210D01*
X138252Y430210D01*
X138911Y430869D01*
X139142Y431027D01*
X139438Y431092D01*
X139736Y431037D01*
X139989Y430869D01*
X140648Y430210D01*
X144938Y430210D01*
X144938Y437512D01*
X152240Y437512D01*
X152240Y441802D01*
X151581Y442461D01*
X151423Y442692D01*
X151358Y442988D01*
X151413Y443286D01*
X151581Y443539D01*
X152240Y444198D01*
X152240Y448488D01*
X144938Y448488D01*
X144938Y450012D01*
X152240Y450012D01*
X152240Y454302D01*
X151581Y454961D01*
X151423Y455192D01*
X151358Y455488D01*
X151413Y455786D01*
X151581Y456039D01*
X152240Y456698D01*
X152240Y460988D01*
X144938Y460988D01*
X144938Y468290D01*
X140648Y468290D01*
X139989Y467631D01*
X139758Y467473D01*
X139462Y467408D01*
X139164Y467463D01*
X138911Y467631D01*
X138252Y468290D01*
X133962Y468290D01*
X133962Y460988D01*
X132438Y460988D01*
X132438Y468290D01*
X128148Y468290D01*
X127489Y467631D01*
X127258Y467473D01*
X126962Y467408D01*
X126664Y467463D01*
X126411Y467631D01*
X125752Y468290D01*
X121462Y468290D01*
X121462Y460988D01*
X114160Y460988D01*
X114160Y456698D01*
X114819Y456039D01*
X114977Y455808D01*
X115042Y455512D01*
X114987Y455214D01*
X114819Y454961D01*
X114160Y454302D01*
X114160Y450012D01*
X121462Y450012D01*
X121462Y448488D01*
X114160Y448488D01*
X114160Y444198D01*
X114819Y443539D01*
X114977Y443308D01*
X115042Y443012D01*
X114987Y442714D01*
X114819Y442461D01*
X114160Y441802D01*
X114160Y437512D01*
X121462Y437512D01*
X121462Y430210D01*
G37*
G36*
X352810Y459712D02*
X359288Y459712D01*
X359288Y463690D01*
X354620Y463690D01*
X352810Y461880D01*
X352810Y459712D01*
G37*
G36*
X360812Y459712D02*
X367290Y459712D01*
X367290Y461880D01*
X365480Y463690D01*
X360812Y463690D01*
X360812Y459712D01*
G37*
G36*
X1514560Y457862D02*
X1520838Y457862D01*
X1520838Y463140D01*
X1516048Y463140D01*
X1514560Y461652D01*
X1514560Y457862D01*
G37*
G36*
X1522362Y457862D02*
X1528640Y457862D01*
X1528640Y461652D01*
X1527152Y463140D01*
X1522362Y463140D01*
X1522362Y457862D01*
G37*
G36*
X1522362Y451060D02*
X1527152Y451060D01*
X1528640Y452548D01*
X1528640Y456338D01*
X1522362Y456338D01*
X1522362Y451060D01*
G37*
G36*
X1516048Y451060D02*
X1520838Y451060D01*
X1520838Y456338D01*
X1514560Y456338D01*
X1514560Y452548D01*
X1516048Y451060D01*
G37*
G36*
X1420462Y434162D02*
X1426740Y434162D01*
X1426740Y437952D01*
X1425252Y439440D01*
X1420462Y439440D01*
X1420462Y434162D01*
G37*
G36*
X1412660Y434162D02*
X1418938Y434162D01*
X1418938Y439440D01*
X1414148Y439440D01*
X1412660Y437952D01*
X1412660Y434162D01*
G37*
G36*
X115648Y430210D02*
X119938Y430210D01*
X119938Y435988D01*
X114160Y435988D01*
X114160Y431698D01*
X115648Y430210D01*
G37*
G36*
X1414148Y427360D02*
X1418938Y427360D01*
X1418938Y432638D01*
X1412660Y432638D01*
X1412660Y428848D01*
X1414148Y427360D01*
G37*
G36*
X1420462Y427360D02*
X1425252Y427360D01*
X1426740Y428848D01*
X1426740Y432638D01*
X1420462Y432638D01*
X1420462Y427360D01*
G37*
G36*
X1414674Y415630D02*
X1424726Y415630D01*
X1425470Y416374D01*
X1425470Y418258D01*
X1425521Y418533D01*
X1425685Y418788D01*
X1425935Y418960D01*
X1426232Y419020D01*
X1446112Y419020D01*
X1446398Y418964D01*
X1446651Y418797D01*
X1447940Y417508D01*
X1450866Y417508D01*
X1452935Y419577D01*
X1452935Y422503D01*
X1450866Y424572D01*
X1447940Y424572D01*
X1446651Y423283D01*
X1446409Y423120D01*
X1446112Y423060D01*
X1426232Y423060D01*
X1425957Y423111D01*
X1425702Y423275D01*
X1425530Y423525D01*
X1425470Y423822D01*
X1425470Y424426D01*
X1424726Y425170D01*
X1414674Y425170D01*
X1413930Y424426D01*
X1413930Y416374D01*
X1414674Y415630D01*
G37*
G36*
X1670702Y386062D02*
X1682480Y386062D01*
X1682480Y397252D01*
X1680992Y398740D01*
X1670702Y398740D01*
X1670702Y386062D01*
G37*
G36*
X1657400Y386062D02*
X1669178Y386062D01*
X1669178Y398740D01*
X1658888Y398740D01*
X1657400Y397252D01*
X1657400Y386062D01*
G37*
G36*
X1658888Y371860D02*
X1669178Y371860D01*
X1669178Y384538D01*
X1657400Y384538D01*
X1657400Y373348D01*
X1658888Y371860D01*
G37*
G36*
X1670702Y371860D02*
X1680992Y371860D01*
X1682480Y373348D01*
X1682480Y384538D01*
X1670702Y384538D01*
X1670702Y371860D01*
G37*
G36*
X1631402Y371860D02*
X1641692Y371860D01*
X1643180Y373348D01*
X1643180Y384538D01*
X1631402Y384538D01*
X1631402Y371860D01*
G37*
G36*
X1619588Y371860D02*
X1629878Y371860D01*
X1629878Y384538D01*
X1618100Y384538D01*
X1618100Y373348D01*
X1619588Y371860D01*
G37*
%LPD*%
G36*
X64630Y569326D02*
X64333Y569266D01*
X3524Y569266D01*
X3249Y569317D01*
X2994Y569480D01*
X2822Y569730D01*
X2762Y570028D01*
X2762Y697998D01*
X2813Y698273D01*
X2977Y698528D01*
X3227Y698700D01*
X3524Y698760D01*
X11500Y698760D01*
X11500Y717840D01*
X3524Y717840D01*
X3249Y717891D01*
X2994Y718055D01*
X2822Y718305D01*
X2762Y718602D01*
X2762Y1005976D01*
X2813Y1006251D01*
X2977Y1006506D01*
X3227Y1006678D01*
X3524Y1006738D01*
X196176Y1006738D01*
X196451Y1006687D01*
X196706Y1006523D01*
X196878Y1006273D01*
X196938Y1005976D01*
X196938Y995856D01*
X198556Y994238D01*
X211068Y994238D01*
X211343Y994187D01*
X211598Y994023D01*
X211770Y993773D01*
X211830Y993476D01*
X211830Y991132D01*
X211779Y990857D01*
X211615Y990602D01*
X211365Y990430D01*
X211068Y990370D01*
X201874Y990370D01*
X201130Y989626D01*
X201130Y981574D01*
X201874Y980830D01*
X209868Y980830D01*
X210154Y980774D01*
X210406Y980607D01*
X211607Y979406D01*
X211770Y979165D01*
X211830Y978868D01*
X211830Y978132D01*
X211779Y977857D01*
X211615Y977602D01*
X211365Y977430D01*
X211068Y977370D01*
X201874Y977370D01*
X201130Y976626D01*
X201130Y968574D01*
X201874Y967830D01*
X206940Y967830D01*
X207226Y967774D01*
X207479Y967607D01*
X209535Y965551D01*
X209698Y965309D01*
X209758Y965012D01*
X209758Y963190D01*
X211827Y961121D01*
X214753Y961121D01*
X216822Y963190D01*
X216822Y966116D01*
X216770Y966167D01*
X216617Y966387D01*
X216548Y966682D01*
X216598Y966981D01*
X216762Y967236D01*
X217012Y967408D01*
X217309Y967468D01*
X227626Y967468D01*
X228370Y968212D01*
X228370Y978491D01*
X228421Y978765D01*
X228585Y979021D01*
X228835Y979192D01*
X229132Y979253D01*
X244798Y979253D01*
X245073Y979201D01*
X245328Y979038D01*
X245500Y978788D01*
X245560Y978491D01*
X245560Y974750D01*
X255862Y974750D01*
X255862Y966198D01*
X263152Y966198D01*
X264490Y967536D01*
X264721Y967694D01*
X265017Y967759D01*
X265315Y967704D01*
X265426Y967630D01*
X272143Y967630D01*
X272406Y967583D01*
X272664Y967424D01*
X272840Y967176D01*
X272905Y966880D01*
X272849Y966582D01*
X272682Y966329D01*
X197131Y890778D01*
X196889Y890615D01*
X196592Y890555D01*
X98132Y890555D01*
X97857Y890606D01*
X97602Y890770D01*
X97430Y891020D01*
X97419Y891077D01*
X96626Y891870D01*
X86574Y891870D01*
X85830Y891126D01*
X85830Y883074D01*
X86574Y882330D01*
X87878Y882330D01*
X88153Y882279D01*
X88408Y882115D01*
X88580Y881865D01*
X88640Y881568D01*
X88640Y826923D01*
X88584Y826637D01*
X88417Y826384D01*
X60833Y798800D01*
X60613Y798647D01*
X60318Y798577D01*
X60019Y798628D01*
X59764Y798792D01*
X59592Y799042D01*
X59532Y799339D01*
X59532Y804326D01*
X58750Y805108D01*
X58700Y805117D01*
X58442Y805276D01*
X58267Y805524D01*
X58202Y805820D01*
X58257Y806118D01*
X58425Y806371D01*
X58802Y806748D01*
X58802Y810538D01*
X38722Y810538D01*
X38722Y806748D01*
X40210Y805260D01*
X41230Y805260D01*
X41505Y805209D01*
X41760Y805045D01*
X41932Y804795D01*
X41992Y804498D01*
X41992Y799989D01*
X41936Y799703D01*
X41769Y799451D01*
X36760Y794442D01*
X36760Y666706D01*
X36704Y666420D01*
X36537Y666167D01*
X35248Y664878D01*
X35248Y661952D01*
X37317Y659883D01*
X40243Y659883D01*
X42312Y661952D01*
X42312Y664878D01*
X41023Y666167D01*
X40860Y666408D01*
X40800Y666706D01*
X40800Y751626D01*
X40847Y751890D01*
X41006Y752148D01*
X41254Y752323D01*
X41550Y752388D01*
X41848Y752333D01*
X42101Y752165D01*
X42736Y751530D01*
X58158Y751530D01*
X58433Y751479D01*
X58688Y751315D01*
X58860Y751065D01*
X58920Y750768D01*
X58920Y638313D01*
X58864Y638027D01*
X58697Y637774D01*
X57408Y636486D01*
X57408Y633560D01*
X59477Y631491D01*
X62403Y631491D01*
X63794Y632882D01*
X64014Y633035D01*
X64309Y633105D01*
X64608Y633054D01*
X64863Y632890D01*
X65035Y632640D01*
X65095Y632343D01*
X65095Y570028D01*
X65044Y569753D01*
X64880Y569497D01*
X64630Y569326D01*
G37*
%LPC*%
G36*
X247048Y966198D02*
X254338Y966198D01*
X254338Y973226D01*
X245560Y973226D01*
X245560Y967686D01*
X247048Y966198D01*
G37*
G36*
X38010Y884253D02*
X40936Y884253D01*
X43005Y886322D01*
X43005Y889248D01*
X41716Y890537D01*
X41553Y890778D01*
X41493Y891076D01*
X41493Y892084D01*
X41411Y892166D01*
X41251Y892402D01*
X41188Y892698D01*
X41246Y892996D01*
X42970Y897158D01*
X42970Y901642D01*
X41254Y905784D01*
X38084Y908954D01*
X33942Y910670D01*
X29458Y910670D01*
X25316Y908954D01*
X22146Y905784D01*
X20430Y901642D01*
X20430Y897158D01*
X22146Y893016D01*
X25316Y889846D01*
X29458Y888130D01*
X33942Y888130D01*
X34887Y888522D01*
X35154Y888579D01*
X35453Y888528D01*
X35709Y888365D01*
X35880Y888115D01*
X35941Y887818D01*
X35941Y886322D01*
X38010Y884253D01*
G37*
G36*
X92362Y900862D02*
X98640Y900862D01*
X98640Y904652D01*
X97152Y906140D01*
X92362Y906140D01*
X92362Y900862D01*
G37*
G36*
X84560Y900862D02*
X90838Y900862D01*
X90838Y906140D01*
X86048Y906140D01*
X84560Y904652D01*
X84560Y900862D01*
G37*
G36*
X86048Y894060D02*
X90838Y894060D01*
X90838Y899338D01*
X84560Y899338D01*
X84560Y895548D01*
X86048Y894060D01*
G37*
G36*
X92362Y894060D02*
X97152Y894060D01*
X98640Y895548D01*
X98640Y899338D01*
X92362Y899338D01*
X92362Y894060D01*
G37*
G36*
X10222Y840562D02*
X21500Y840562D01*
X21500Y849340D01*
X11710Y849340D01*
X10222Y847852D01*
X10222Y840562D01*
G37*
G36*
X23024Y840562D02*
X34302Y840562D01*
X34302Y847852D01*
X32814Y849340D01*
X23024Y849340D01*
X23024Y840562D01*
G37*
G36*
X11710Y830260D02*
X21500Y830260D01*
X21500Y839038D01*
X10222Y839038D01*
X10222Y831748D01*
X11710Y830260D01*
G37*
G36*
X23024Y830260D02*
X32814Y830260D01*
X34302Y831748D01*
X34302Y839038D01*
X23024Y839038D01*
X23024Y830260D01*
G37*
G36*
X38722Y812062D02*
X58802Y812062D01*
X58802Y815852D01*
X58425Y816229D01*
X58272Y816449D01*
X58202Y816744D01*
X58253Y817043D01*
X58416Y817298D01*
X58667Y817470D01*
X58743Y817485D01*
X59532Y818274D01*
X59532Y826326D01*
X58597Y827261D01*
X58439Y827492D01*
X58374Y827788D01*
X58429Y828086D01*
X58597Y828339D01*
X59532Y829274D01*
X59532Y837326D01*
X58788Y838070D01*
X42736Y838070D01*
X41992Y837326D01*
X41992Y834602D01*
X41941Y834327D01*
X41777Y834071D01*
X41527Y833900D01*
X41230Y833840D01*
X38010Y833840D01*
X35941Y831771D01*
X35941Y828845D01*
X38010Y826776D01*
X39832Y826776D01*
X40118Y826720D01*
X40371Y826552D01*
X41769Y825154D01*
X41932Y824913D01*
X41992Y824616D01*
X41992Y818102D01*
X41941Y817827D01*
X41777Y817572D01*
X41527Y817400D01*
X41230Y817340D01*
X40210Y817340D01*
X38722Y815852D01*
X38722Y812062D01*
G37*
G36*
X13024Y709062D02*
X24302Y709062D01*
X24302Y716352D01*
X22814Y717840D01*
X13024Y717840D01*
X13024Y709062D01*
G37*
G36*
X13024Y698760D02*
X22814Y698760D01*
X24302Y700248D01*
X24302Y707538D01*
X13024Y707538D01*
X13024Y698760D01*
G37*
G36*
X29158Y582330D02*
X33642Y582330D01*
X37784Y584046D01*
X40954Y587216D01*
X41062Y587476D01*
X41210Y587705D01*
X41457Y587881D01*
X41754Y587946D01*
X42052Y587890D01*
X42305Y587723D01*
X43550Y586478D01*
X46476Y586478D01*
X48545Y588547D01*
X48545Y591473D01*
X46476Y593542D01*
X43432Y593542D01*
X43157Y593593D01*
X42902Y593757D01*
X42730Y594007D01*
X42670Y594304D01*
X42670Y595842D01*
X40954Y599984D01*
X37784Y603154D01*
X33642Y604870D01*
X29158Y604870D01*
X25016Y603154D01*
X21846Y599984D01*
X20130Y595842D01*
X20130Y591358D01*
X21846Y587216D01*
X25016Y584046D01*
X29158Y582330D01*
G37*
%LPD*%
G36*
X497795Y968118D02*
X497498Y968058D01*
X481832Y968058D01*
X481557Y968109D01*
X481302Y968272D01*
X481130Y968522D01*
X481070Y968820D01*
X481070Y978491D01*
X481121Y978765D01*
X481285Y979021D01*
X481535Y979192D01*
X481832Y979253D01*
X497498Y979253D01*
X497773Y979201D01*
X498028Y979038D01*
X498200Y978788D01*
X498260Y978491D01*
X498260Y974750D01*
X508562Y974750D01*
X508562Y973226D01*
X498260Y973226D01*
X498260Y968820D01*
X498209Y968545D01*
X498045Y968289D01*
X497795Y968118D01*
G37*
G36*
X650095Y968175D02*
X649798Y968115D01*
X634132Y968115D01*
X633857Y968166D01*
X633602Y968330D01*
X633430Y968580D01*
X633370Y968877D01*
X633370Y978491D01*
X633421Y978765D01*
X633585Y979021D01*
X633835Y979192D01*
X634132Y979253D01*
X649798Y979253D01*
X650073Y979201D01*
X650328Y979038D01*
X650500Y978788D01*
X650560Y978491D01*
X650560Y974750D01*
X660862Y974750D01*
X660862Y973226D01*
X650560Y973226D01*
X650560Y968877D01*
X650509Y968602D01*
X650345Y968347D01*
X650095Y968175D01*
G37*
G36*
X736773Y-99678D02*
X736476Y-99738D01*
X3524Y-99738D01*
X3249Y-99687D01*
X2994Y-99523D01*
X2822Y-99273D01*
X2762Y-98976D01*
X2762Y355876D01*
X2813Y356151D01*
X2977Y356406D01*
X3227Y356578D01*
X3524Y356638D01*
X64684Y356638D01*
X66302Y358256D01*
X66302Y539419D01*
X66349Y539682D01*
X66508Y539940D01*
X66756Y540115D01*
X67052Y540180D01*
X67350Y540125D01*
X67603Y539957D01*
X84954Y522606D01*
X85117Y522364D01*
X85178Y522067D01*
X85178Y386332D01*
X85126Y386057D01*
X84963Y385802D01*
X84713Y385630D01*
X84416Y385570D01*
X83622Y385570D01*
X83556Y385525D01*
X83260Y385460D01*
X82962Y385515D01*
X82709Y385683D01*
X81552Y386840D01*
X76762Y386840D01*
X76762Y366760D01*
X81552Y366760D01*
X82709Y367917D01*
X82940Y368075D01*
X83236Y368140D01*
X83534Y368085D01*
X83616Y368030D01*
X89635Y368030D01*
X89920Y367974D01*
X90173Y367807D01*
X130428Y327553D01*
X182218Y327553D01*
X182481Y327506D01*
X182739Y327346D01*
X182915Y327099D01*
X182980Y326803D01*
X182924Y326505D01*
X182757Y326252D01*
X182058Y325553D01*
X182058Y322627D01*
X184127Y320558D01*
X186468Y320558D01*
X186743Y320507D01*
X186998Y320343D01*
X187170Y320093D01*
X187230Y319796D01*
X187230Y313174D01*
X187974Y312430D01*
X198026Y312430D01*
X198770Y313174D01*
X198770Y321226D01*
X198026Y321970D01*
X191575Y321970D01*
X191289Y322026D01*
X191036Y322193D01*
X189345Y323884D01*
X189182Y324126D01*
X189122Y324423D01*
X189122Y324668D01*
X189173Y324943D01*
X189337Y325198D01*
X189587Y325370D01*
X189884Y325430D01*
X198026Y325430D01*
X198787Y326191D01*
X198821Y326373D01*
X198985Y326628D01*
X199235Y326800D01*
X199532Y326860D01*
X414037Y326860D01*
X414323Y326804D01*
X414576Y326637D01*
X581387Y159826D01*
X581540Y159606D01*
X581610Y159311D01*
X581559Y159012D01*
X581395Y158757D01*
X581145Y158585D01*
X580848Y158525D01*
X269150Y158525D01*
X268864Y158581D01*
X268611Y158748D01*
X116082Y311277D01*
X115921Y311514D01*
X115859Y311810D01*
X115917Y312108D01*
X117470Y315858D01*
X117470Y320342D01*
X115856Y324239D01*
X115798Y324518D01*
X115853Y324816D01*
X116021Y325069D01*
X116283Y325331D01*
X116283Y327032D01*
X116338Y327318D01*
X116506Y327571D01*
X117795Y328860D01*
X117795Y331786D01*
X115726Y333855D01*
X112800Y333855D01*
X110731Y331786D01*
X110731Y329562D01*
X110681Y329293D01*
X110520Y329037D01*
X110271Y328863D01*
X109975Y328800D01*
X109677Y328858D01*
X108442Y329370D01*
X103958Y329370D01*
X99816Y327654D01*
X96646Y324484D01*
X94930Y320342D01*
X94930Y315858D01*
X96646Y311716D01*
X99816Y308546D01*
X103958Y306830D01*
X108442Y306830D01*
X112479Y308502D01*
X112758Y308560D01*
X113056Y308504D01*
X113309Y308337D01*
X267161Y154485D01*
X597107Y154485D01*
X597393Y154429D01*
X597646Y154262D01*
X598935Y152973D01*
X601861Y152973D01*
X603930Y155042D01*
X603930Y157968D01*
X603923Y157974D01*
X603770Y158194D01*
X603701Y158489D01*
X603751Y158788D01*
X603915Y159043D01*
X604165Y159215D01*
X604462Y159275D01*
X750768Y159275D01*
X751043Y159224D01*
X751298Y159060D01*
X751470Y158810D01*
X751530Y158513D01*
X751530Y156974D01*
X752274Y156230D01*
X758485Y156230D01*
X758770Y156174D01*
X759023Y156007D01*
X766143Y148888D01*
X785750Y148888D01*
X790369Y153507D01*
X790611Y153670D01*
X790908Y153730D01*
X796326Y153730D01*
X797070Y154474D01*
X797070Y156436D01*
X797121Y156710D01*
X797285Y156966D01*
X797535Y157137D01*
X797832Y157198D01*
X801677Y157198D01*
X857815Y213335D01*
X858045Y213493D01*
X858342Y213558D01*
X858640Y213503D01*
X858893Y213335D01*
X899117Y173110D01*
X899270Y172891D01*
X899340Y172596D01*
X899289Y172297D01*
X899126Y172041D01*
X898876Y171870D01*
X898579Y171810D01*
X898095Y171810D01*
X896026Y169741D01*
X896026Y166737D01*
X896092Y166456D01*
X896041Y166157D01*
X895878Y165902D01*
X895628Y165730D01*
X895330Y165670D01*
X888724Y165670D01*
X887980Y164926D01*
X887980Y162642D01*
X887924Y162356D01*
X887757Y162104D01*
X825539Y99886D01*
X825297Y99723D01*
X825000Y99663D01*
X824532Y99663D01*
X824257Y99714D01*
X824002Y99877D01*
X823830Y100127D01*
X823770Y100425D01*
X823770Y101626D01*
X823026Y102370D01*
X816980Y102370D01*
X816694Y102426D01*
X816441Y102593D01*
X788209Y130825D01*
X767811Y130825D01*
X767525Y130881D01*
X767272Y131048D01*
X765983Y132337D01*
X763057Y132337D01*
X760943Y130223D01*
X760941Y130213D01*
X760782Y129955D01*
X760534Y129780D01*
X760238Y129715D01*
X759940Y129770D01*
X759687Y129938D01*
X742293Y147332D01*
X742130Y147573D01*
X742070Y147871D01*
X742070Y156526D01*
X741326Y157270D01*
X731274Y157270D01*
X730530Y156526D01*
X730530Y147474D01*
X731274Y146730D01*
X734745Y146730D01*
X735030Y146674D01*
X735283Y146507D01*
X778719Y103071D01*
X778872Y102851D01*
X778942Y102556D01*
X778891Y102257D01*
X778728Y102002D01*
X778478Y101830D01*
X778181Y101770D01*
X771574Y101770D01*
X770830Y101026D01*
X770830Y99732D01*
X770779Y99457D01*
X770615Y99202D01*
X770365Y99030D01*
X770068Y98970D01*
X766426Y98970D01*
X766140Y99026D01*
X766032Y99097D01*
X762932Y99097D01*
X762657Y99148D01*
X762402Y99312D01*
X762230Y99562D01*
X762170Y99859D01*
X762170Y101026D01*
X761426Y101770D01*
X751374Y101770D01*
X750630Y101026D01*
X750630Y92974D01*
X751374Y92230D01*
X758450Y92230D01*
X758736Y92174D01*
X758989Y92007D01*
X759655Y91341D01*
X759808Y91121D01*
X759878Y90826D01*
X759827Y90527D01*
X759664Y90272D01*
X759413Y90100D01*
X759116Y90040D01*
X757162Y90040D01*
X757162Y77960D01*
X761978Y77960D01*
X762111Y78053D01*
X762406Y78122D01*
X762705Y78072D01*
X762961Y77908D01*
X763132Y77658D01*
X763179Y77430D01*
X770587Y70021D01*
X770750Y69780D01*
X770810Y69483D01*
X770810Y61222D01*
X770754Y60936D01*
X770587Y60683D01*
X770330Y60426D01*
X770330Y51374D01*
X771074Y50630D01*
X775156Y50630D01*
X775292Y50723D01*
X775588Y50788D01*
X775886Y50733D01*
X776041Y50630D01*
X776505Y50630D01*
X776791Y50574D01*
X777044Y50407D01*
X779611Y47840D01*
X786824Y47840D01*
X789391Y50407D01*
X789633Y50570D01*
X789930Y50630D01*
X790156Y50630D01*
X790292Y50723D01*
X790588Y50788D01*
X790886Y50733D01*
X791041Y50630D01*
X793773Y50630D01*
X794036Y50583D01*
X794294Y50424D01*
X794470Y50176D01*
X794535Y49880D01*
X794479Y49582D01*
X794312Y49329D01*
X794228Y49246D01*
X794228Y46320D01*
X796297Y44251D01*
X799223Y44251D01*
X801292Y46320D01*
X801292Y47450D01*
X801348Y47736D01*
X801515Y47988D01*
X803679Y50152D01*
X803909Y50310D01*
X804205Y50375D01*
X804503Y50319D01*
X804756Y50152D01*
X805590Y49318D01*
X805616Y49313D01*
X805874Y49154D01*
X806050Y48906D01*
X806115Y48610D01*
X806059Y48312D01*
X805892Y48059D01*
X761518Y3686D01*
X761277Y3523D01*
X760980Y3463D01*
X723208Y3463D01*
X719407Y-339D01*
X719171Y-499D01*
X718874Y-562D01*
X718576Y-504D01*
X715452Y790D01*
X710968Y790D01*
X706826Y-925D01*
X703656Y-4096D01*
X701940Y-8238D01*
X701940Y-12721D01*
X703656Y-16864D01*
X706826Y-20034D01*
X710968Y-21750D01*
X715452Y-21750D01*
X719594Y-20034D01*
X722764Y-16864D01*
X724480Y-12721D01*
X724480Y-8238D01*
X723170Y-5075D01*
X723112Y-4796D01*
X723168Y-4498D01*
X723335Y-4245D01*
X725279Y-2301D01*
X725521Y-2138D01*
X725818Y-2078D01*
X736476Y-2078D01*
X736751Y-2129D01*
X737006Y-2292D01*
X737178Y-2542D01*
X737238Y-2840D01*
X737238Y-98976D01*
X737187Y-99251D01*
X737023Y-99506D01*
X736773Y-99678D01*
G37*
%LPC*%
G36*
X68960Y377562D02*
X75238Y377562D01*
X75238Y386840D01*
X70448Y386840D01*
X68960Y385352D01*
X68960Y377562D01*
G37*
G36*
X70448Y366760D02*
X75238Y366760D01*
X75238Y376038D01*
X68960Y376038D01*
X68960Y368248D01*
X70448Y366760D01*
G37*
G36*
X188433Y271718D02*
X191567Y271718D01*
X193782Y273933D01*
X193782Y277067D01*
X191567Y279282D01*
X188433Y279282D01*
X186218Y277067D01*
X186218Y273933D01*
X188433Y271718D01*
G37*
G36*
X116433Y271718D02*
X119567Y271718D01*
X121782Y273933D01*
X121782Y277067D01*
X119567Y279282D01*
X116433Y279282D01*
X114218Y277067D01*
X114218Y273933D01*
X116433Y271718D01*
G37*
G36*
X80433Y271718D02*
X83567Y271718D01*
X85782Y273933D01*
X85782Y277067D01*
X83567Y279282D01*
X80433Y279282D01*
X78218Y277067D01*
X78218Y273933D01*
X80433Y271718D01*
G37*
G36*
X62433Y271718D02*
X65567Y271718D01*
X67782Y273933D01*
X67782Y277067D01*
X65567Y279282D01*
X62433Y279282D01*
X60218Y277067D01*
X60218Y273933D01*
X62433Y271718D01*
G37*
G36*
X170433Y271718D02*
X173567Y271718D01*
X175782Y273933D01*
X175782Y277067D01*
X173567Y279282D01*
X170433Y279282D01*
X168218Y277067D01*
X168218Y273933D01*
X170433Y271718D01*
G37*
G36*
X98433Y271718D02*
X101567Y271718D01*
X103782Y273933D01*
X103782Y277067D01*
X101567Y279282D01*
X98433Y279282D01*
X96218Y277067D01*
X96218Y273933D01*
X98433Y271718D01*
G37*
G36*
X188433Y253718D02*
X191567Y253718D01*
X193782Y255933D01*
X193782Y259067D01*
X191567Y261282D01*
X188433Y261282D01*
X186218Y259067D01*
X186218Y255933D01*
X188433Y253718D01*
G37*
G36*
X62433Y253718D02*
X65567Y253718D01*
X67782Y255933D01*
X67782Y259067D01*
X65567Y261282D01*
X62433Y261282D01*
X60218Y259067D01*
X60218Y255933D01*
X62433Y253718D01*
G37*
G36*
X134433Y253718D02*
X137567Y253718D01*
X139782Y255933D01*
X139782Y259067D01*
X137567Y261282D01*
X134433Y261282D01*
X132218Y259067D01*
X132218Y255933D01*
X134433Y253718D01*
G37*
G36*
X116433Y253718D02*
X119567Y253718D01*
X121782Y255933D01*
X121782Y259067D01*
X119567Y261282D01*
X116433Y261282D01*
X114218Y259067D01*
X114218Y255933D01*
X116433Y253718D01*
G37*
G36*
X98433Y253718D02*
X101567Y253718D01*
X103782Y255933D01*
X103782Y259067D01*
X101567Y261282D01*
X98433Y261282D01*
X96218Y259067D01*
X96218Y255933D01*
X98433Y253718D01*
G37*
G36*
X80433Y253718D02*
X83567Y253718D01*
X85782Y255933D01*
X85782Y259067D01*
X83567Y261282D01*
X80433Y261282D01*
X78218Y259067D01*
X78218Y255933D01*
X80433Y253718D01*
G37*
G36*
X116433Y235718D02*
X119567Y235718D01*
X121782Y237933D01*
X121782Y241067D01*
X119567Y243282D01*
X116433Y243282D01*
X114218Y241067D01*
X114218Y237933D01*
X116433Y235718D01*
G37*
G36*
X98433Y235718D02*
X101567Y235718D01*
X103782Y237933D01*
X103782Y241067D01*
X101567Y243282D01*
X98433Y243282D01*
X96218Y241067D01*
X96218Y237933D01*
X98433Y235718D01*
G37*
G36*
X80433Y235718D02*
X83567Y235718D01*
X85782Y237933D01*
X85782Y241067D01*
X83567Y243282D01*
X80433Y243282D01*
X78218Y241067D01*
X78218Y237933D01*
X80433Y235718D01*
G37*
G36*
X134433Y235718D02*
X137567Y235718D01*
X139782Y237933D01*
X139782Y241067D01*
X137567Y243282D01*
X134433Y243282D01*
X132218Y241067D01*
X132218Y237933D01*
X134433Y235718D01*
G37*
G36*
X62433Y235718D02*
X65567Y235718D01*
X67782Y237933D01*
X67782Y241067D01*
X65567Y243282D01*
X62433Y243282D01*
X60218Y241067D01*
X60218Y237933D01*
X62433Y235718D01*
G37*
G36*
X152433Y235718D02*
X155567Y235718D01*
X157782Y237933D01*
X157782Y241067D01*
X155567Y243282D01*
X152433Y243282D01*
X150218Y241067D01*
X150218Y237933D01*
X152433Y235718D01*
G37*
G36*
X170433Y217718D02*
X173567Y217718D01*
X175782Y219933D01*
X175782Y223067D01*
X173567Y225282D01*
X170433Y225282D01*
X168218Y223067D01*
X168218Y219933D01*
X170433Y217718D01*
G37*
G36*
X98433Y217718D02*
X101567Y217718D01*
X103782Y219933D01*
X103782Y223067D01*
X101567Y225282D01*
X98433Y225282D01*
X96218Y223067D01*
X96218Y219933D01*
X98433Y217718D01*
G37*
G36*
X134433Y217718D02*
X137567Y217718D01*
X139782Y219933D01*
X139782Y223067D01*
X137567Y225282D01*
X134433Y225282D01*
X132218Y223067D01*
X132218Y219933D01*
X134433Y217718D01*
G37*
G36*
X80433Y217718D02*
X83567Y217718D01*
X85782Y219933D01*
X85782Y223067D01*
X83567Y225282D01*
X80433Y225282D01*
X78218Y223067D01*
X78218Y219933D01*
X80433Y217718D01*
G37*
G36*
X62433Y217718D02*
X65567Y217718D01*
X67782Y219933D01*
X67782Y223067D01*
X65567Y225282D01*
X62433Y225282D01*
X60218Y223067D01*
X60218Y219933D01*
X62433Y217718D01*
G37*
G36*
X116433Y217718D02*
X119567Y217718D01*
X121782Y219933D01*
X121782Y223067D01*
X119567Y225282D01*
X116433Y225282D01*
X114218Y223067D01*
X114218Y219933D01*
X116433Y217718D01*
G37*
G36*
X152433Y217718D02*
X155567Y217718D01*
X157782Y219933D01*
X157782Y223067D01*
X155567Y225282D01*
X152433Y225282D01*
X150218Y223067D01*
X150218Y219933D01*
X152433Y217718D01*
G37*
G36*
X170433Y199718D02*
X173567Y199718D01*
X175782Y201933D01*
X175782Y205067D01*
X173567Y207282D01*
X170433Y207282D01*
X168218Y205067D01*
X168218Y201933D01*
X170433Y199718D01*
G37*
G36*
X188433Y199718D02*
X191567Y199718D01*
X193782Y201933D01*
X193782Y205067D01*
X191567Y207282D01*
X188433Y207282D01*
X186218Y205067D01*
X186218Y201933D01*
X188433Y199718D01*
G37*
G36*
X62433Y199718D02*
X65567Y199718D01*
X67782Y201933D01*
X67782Y205067D01*
X65567Y207282D01*
X62433Y207282D01*
X60218Y205067D01*
X60218Y201933D01*
X62433Y199718D01*
G37*
G36*
X152433Y199718D02*
X155567Y199718D01*
X157782Y201933D01*
X157782Y205067D01*
X155567Y207282D01*
X152433Y207282D01*
X150218Y205067D01*
X150218Y201933D01*
X152433Y199718D01*
G37*
G36*
X134433Y199718D02*
X137567Y199718D01*
X139782Y201933D01*
X139782Y205067D01*
X137567Y207282D01*
X134433Y207282D01*
X132218Y205067D01*
X132218Y201933D01*
X134433Y199718D01*
G37*
G36*
X116433Y199718D02*
X119567Y199718D01*
X121782Y201933D01*
X121782Y205067D01*
X119567Y207282D01*
X116433Y207282D01*
X114218Y205067D01*
X114218Y201933D01*
X116433Y199718D01*
G37*
G36*
X98433Y199718D02*
X101567Y199718D01*
X103782Y201933D01*
X103782Y205067D01*
X101567Y207282D01*
X98433Y207282D01*
X96218Y205067D01*
X96218Y201933D01*
X98433Y199718D01*
G37*
G36*
X80433Y199718D02*
X83567Y199718D01*
X85782Y201933D01*
X85782Y205067D01*
X83567Y207282D01*
X80433Y207282D01*
X78218Y205067D01*
X78218Y201933D01*
X80433Y199718D01*
G37*
G36*
X188433Y181718D02*
X191567Y181718D01*
X193782Y183933D01*
X193782Y187067D01*
X191567Y189282D01*
X188433Y189282D01*
X186218Y187067D01*
X186218Y183933D01*
X188433Y181718D01*
G37*
G36*
X98433Y181718D02*
X101567Y181718D01*
X103782Y183933D01*
X103782Y187067D01*
X101567Y189282D01*
X98433Y189282D01*
X96218Y187067D01*
X96218Y183933D01*
X98433Y181718D01*
G37*
G36*
X62433Y181718D02*
X65567Y181718D01*
X67782Y183933D01*
X67782Y187067D01*
X65567Y189282D01*
X62433Y189282D01*
X60218Y187067D01*
X60218Y183933D01*
X62433Y181718D01*
G37*
G36*
X116433Y181718D02*
X119567Y181718D01*
X121782Y183933D01*
X121782Y187067D01*
X119567Y189282D01*
X116433Y189282D01*
X114218Y187067D01*
X114218Y183933D01*
X116433Y181718D01*
G37*
G36*
X170433Y181718D02*
X173567Y181718D01*
X175782Y183933D01*
X175782Y187067D01*
X173567Y189282D01*
X170433Y189282D01*
X168218Y187067D01*
X168218Y183933D01*
X170433Y181718D01*
G37*
G36*
X152433Y181718D02*
X155567Y181718D01*
X157782Y183933D01*
X157782Y187067D01*
X155567Y189282D01*
X152433Y189282D01*
X150218Y187067D01*
X150218Y183933D01*
X152433Y181718D01*
G37*
G36*
X134433Y181718D02*
X137567Y181718D01*
X139782Y183933D01*
X139782Y187067D01*
X137567Y189282D01*
X134433Y189282D01*
X132218Y187067D01*
X132218Y183933D01*
X134433Y181718D01*
G37*
G36*
X80433Y181718D02*
X83567Y181718D01*
X85782Y183933D01*
X85782Y187067D01*
X83567Y189282D01*
X80433Y189282D01*
X78218Y187067D01*
X78218Y183933D01*
X80433Y181718D01*
G37*
G36*
X586774Y109230D02*
X596826Y109230D01*
X597570Y109974D01*
X597570Y110788D01*
X597621Y111063D01*
X597785Y111318D01*
X598035Y111490D01*
X598332Y111550D01*
X633809Y111550D01*
X634095Y111494D01*
X634348Y111327D01*
X635637Y110038D01*
X638563Y110038D01*
X640632Y112107D01*
X640632Y115033D01*
X638563Y117102D01*
X635637Y117102D01*
X634348Y115813D01*
X634107Y115650D01*
X633809Y115590D01*
X598332Y115590D01*
X598057Y115641D01*
X597802Y115805D01*
X597630Y116055D01*
X597570Y116352D01*
X597570Y118026D01*
X596826Y118770D01*
X586774Y118770D01*
X586030Y118026D01*
X586030Y109974D01*
X586774Y109230D01*
G37*
G36*
X666774Y69780D02*
X672826Y69780D01*
X673570Y70524D01*
X673570Y82076D01*
X672646Y83000D01*
X672592Y83035D01*
X672420Y83285D01*
X672360Y83582D01*
X672360Y107509D01*
X672416Y107795D01*
X672583Y108048D01*
X673872Y109337D01*
X673872Y112263D01*
X671803Y114332D01*
X668877Y114332D01*
X666808Y112263D01*
X666808Y109337D01*
X668097Y108048D01*
X668260Y107807D01*
X668320Y107509D01*
X668320Y83582D01*
X668269Y83307D01*
X668105Y83052D01*
X667855Y82880D01*
X667558Y82820D01*
X666774Y82820D01*
X666030Y82076D01*
X666030Y70524D01*
X666774Y69780D01*
G37*
G36*
X592562Y101762D02*
X598840Y101762D01*
X598840Y105552D01*
X597352Y107040D01*
X592562Y107040D01*
X592562Y101762D01*
G37*
G36*
X584760Y101762D02*
X591038Y101762D01*
X591038Y107040D01*
X586248Y107040D01*
X584760Y105552D01*
X584760Y101762D01*
G37*
G36*
X586248Y94960D02*
X591038Y94960D01*
X591038Y100238D01*
X584760Y100238D01*
X584760Y96448D01*
X586248Y94960D01*
G37*
G36*
X592562Y94960D02*
X597352Y94960D01*
X598840Y96448D01*
X598840Y100238D01*
X592562Y100238D01*
X592562Y94960D01*
G37*
G36*
X749360Y84762D02*
X755638Y84762D01*
X755638Y90040D01*
X750848Y90040D01*
X749360Y88552D01*
X749360Y84762D01*
G37*
G36*
X750848Y77960D02*
X755638Y77960D01*
X755638Y83238D01*
X749360Y83238D01*
X749360Y79448D01*
X750848Y77960D01*
G37*
G36*
X616342Y-14141D02*
X622474Y-14141D01*
X623559Y-13056D01*
X623790Y-12898D01*
X624086Y-12833D01*
X624291Y-12871D01*
X637188Y-12871D01*
X637932Y-12127D01*
X637932Y430D01*
X637988Y716D01*
X638155Y968D01*
X639099Y1912D01*
X639340Y2075D01*
X639637Y2135D01*
X645368Y2135D01*
X645643Y2084D01*
X645898Y1920D01*
X646070Y1670D01*
X646130Y1373D01*
X646130Y174D01*
X646874Y-570D01*
X656926Y-570D01*
X657670Y174D01*
X657670Y7010D01*
X657726Y7296D01*
X657893Y7549D01*
X681341Y30997D01*
X681583Y31160D01*
X681880Y31220D01*
X691368Y31220D01*
X691643Y31169D01*
X691898Y31005D01*
X692070Y30755D01*
X692130Y30458D01*
X692130Y28274D01*
X692874Y27530D01*
X700926Y27530D01*
X701670Y28274D01*
X701670Y37379D01*
X701717Y37642D01*
X701876Y37900D01*
X702124Y38075D01*
X702420Y38141D01*
X702718Y38085D01*
X702971Y37917D01*
X704907Y35981D01*
X705070Y35740D01*
X705130Y35443D01*
X705130Y28274D01*
X705874Y27530D01*
X713043Y27530D01*
X713329Y27474D01*
X713581Y27307D01*
X715752Y25136D01*
X715915Y24894D01*
X715976Y24597D01*
X715976Y22775D01*
X718045Y20706D01*
X720971Y20706D01*
X723040Y22775D01*
X723040Y25701D01*
X720971Y27770D01*
X719148Y27770D01*
X718862Y27825D01*
X718609Y27993D01*
X714893Y31709D01*
X714730Y31950D01*
X714670Y32247D01*
X714670Y38326D01*
X713926Y39070D01*
X707847Y39070D01*
X707561Y39126D01*
X707309Y39293D01*
X689874Y56728D01*
X680832Y56728D01*
X680557Y56779D01*
X680302Y56942D01*
X680130Y57192D01*
X680070Y57490D01*
X680070Y61076D01*
X679326Y61820D01*
X673274Y61820D01*
X672530Y61076D01*
X672530Y52427D01*
X672483Y52164D01*
X672324Y51906D01*
X672076Y51730D01*
X671780Y51665D01*
X671482Y51721D01*
X671229Y51888D01*
X671111Y52007D01*
X669288Y52007D01*
X669002Y52063D01*
X668749Y52230D01*
X667293Y53686D01*
X667130Y53928D01*
X667070Y54225D01*
X667070Y61076D01*
X666326Y61820D01*
X660274Y61820D01*
X659530Y61076D01*
X659530Y54687D01*
X659474Y54401D01*
X659307Y54149D01*
X648259Y43101D01*
X648017Y42938D01*
X647720Y42878D01*
X641032Y42878D01*
X640757Y42929D01*
X640502Y43092D01*
X640330Y43342D01*
X640270Y43640D01*
X640270Y45826D01*
X639526Y46570D01*
X631474Y46570D01*
X630730Y45826D01*
X630730Y35774D01*
X631474Y35030D01*
X639526Y35030D01*
X640270Y35774D01*
X640270Y38076D01*
X640321Y38350D01*
X640485Y38606D01*
X640735Y38777D01*
X641032Y38838D01*
X649709Y38838D01*
X659429Y48557D01*
X659670Y48720D01*
X659967Y48780D01*
X665354Y48780D01*
X665628Y48729D01*
X665884Y48565D01*
X666055Y48315D01*
X666116Y48018D01*
X666116Y47012D01*
X668185Y44943D01*
X671111Y44943D01*
X673180Y47012D01*
X673180Y48018D01*
X673231Y48293D01*
X673394Y48548D01*
X673644Y48720D01*
X673942Y48780D01*
X679326Y48780D01*
X680070Y49524D01*
X680070Y51926D01*
X680121Y52200D01*
X680285Y52456D01*
X680535Y52627D01*
X680832Y52688D01*
X687885Y52688D01*
X688171Y52632D01*
X688424Y52464D01*
X700517Y40371D01*
X700670Y40151D01*
X700740Y39856D01*
X700689Y39557D01*
X700526Y39302D01*
X700276Y39130D01*
X699979Y39070D01*
X692874Y39070D01*
X692130Y38326D01*
X692130Y36022D01*
X692079Y35747D01*
X691915Y35492D01*
X691665Y35320D01*
X691368Y35260D01*
X679891Y35260D01*
X653824Y9193D01*
X653582Y9030D01*
X653285Y8970D01*
X646874Y8970D01*
X646130Y8226D01*
X646130Y6937D01*
X646079Y6662D01*
X645915Y6407D01*
X645665Y6235D01*
X645368Y6175D01*
X637648Y6175D01*
X637367Y5894D01*
X637126Y5731D01*
X636829Y5671D01*
X624284Y5671D01*
X624110Y5633D01*
X623812Y5688D01*
X623559Y5856D01*
X622474Y6941D01*
X616342Y6941D01*
X616342Y-14141D01*
G37*
G36*
X616460Y41562D02*
X621738Y41562D01*
X621738Y47840D01*
X617948Y47840D01*
X616460Y46352D01*
X616460Y41562D01*
G37*
G36*
X623262Y41562D02*
X628540Y41562D01*
X628540Y46352D01*
X627052Y47840D01*
X623262Y47840D01*
X623262Y41562D01*
G37*
G36*
X617948Y33760D02*
X621738Y33760D01*
X621738Y40038D01*
X616460Y40038D01*
X616460Y35248D01*
X617948Y33760D01*
G37*
G36*
X623262Y33760D02*
X627052Y33760D01*
X628540Y35248D01*
X628540Y40038D01*
X623262Y40038D01*
X623262Y33760D01*
G37*
G36*
X758560Y31662D02*
X762338Y31662D01*
X762338Y37440D01*
X760048Y37440D01*
X758560Y35952D01*
X758560Y31662D01*
G37*
G36*
X763862Y31662D02*
X767640Y31662D01*
X767640Y35952D01*
X766152Y37440D01*
X763862Y37440D01*
X763862Y31662D01*
G37*
G36*
X763862Y24360D02*
X766152Y24360D01*
X767640Y25848D01*
X767640Y30138D01*
X763862Y30138D01*
X763862Y24360D01*
G37*
G36*
X760048Y24360D02*
X762338Y24360D01*
X762338Y30138D01*
X758560Y30138D01*
X758560Y25848D01*
X760048Y24360D01*
G37*
G36*
X607198Y-2838D02*
X614818Y-2838D01*
X614818Y6941D01*
X608686Y6941D01*
X607198Y5453D01*
X607198Y-2838D01*
G37*
G36*
X644860Y-8038D02*
X651138Y-8038D01*
X651138Y-2760D01*
X646348Y-2760D01*
X644860Y-4248D01*
X644860Y-8038D01*
G37*
G36*
X652662Y-8038D02*
X658940Y-8038D01*
X658940Y-4248D01*
X657452Y-2760D01*
X652662Y-2760D01*
X652662Y-8038D01*
G37*
G36*
X608686Y-14141D02*
X614818Y-14141D01*
X614818Y-4362D01*
X607198Y-4362D01*
X607198Y-12653D01*
X608686Y-14141D01*
G37*
G36*
X652662Y-14840D02*
X657452Y-14840D01*
X658940Y-13352D01*
X658940Y-9562D01*
X652662Y-9562D01*
X652662Y-14840D01*
G37*
G36*
X646348Y-14840D02*
X651138Y-14840D01*
X651138Y-9562D01*
X644860Y-9562D01*
X644860Y-13352D01*
X646348Y-14840D01*
G37*
%LPD*%
G36*
X785151Y156190D02*
X784856Y156120D01*
X784557Y156171D01*
X784302Y156335D01*
X784130Y156585D01*
X784070Y156882D01*
X784070Y164526D01*
X783326Y165270D01*
X777993Y165270D01*
X777707Y165326D01*
X777454Y165493D01*
X769822Y173125D01*
X742832Y173125D01*
X742557Y173176D01*
X742302Y173340D01*
X742130Y173590D01*
X742070Y173887D01*
X742070Y175526D01*
X741326Y176270D01*
X731274Y176270D01*
X730530Y175526D01*
X730530Y175272D01*
X730479Y174997D01*
X730315Y174742D01*
X730065Y174570D01*
X729768Y174510D01*
X581086Y174510D01*
X580800Y174566D01*
X580547Y174733D01*
X375290Y379990D01*
X375132Y380220D01*
X375067Y380517D01*
X375122Y380815D01*
X375290Y381068D01*
X394047Y399825D01*
X394267Y399978D01*
X394562Y400048D01*
X394861Y399997D01*
X395116Y399833D01*
X395288Y399583D01*
X395295Y399548D01*
X397417Y397426D01*
X400343Y397426D01*
X402412Y399495D01*
X402412Y401317D01*
X402468Y401603D01*
X402635Y401856D01*
X405236Y404457D01*
X405466Y404615D01*
X405762Y404680D01*
X406061Y404624D01*
X406313Y404457D01*
X408497Y402273D01*
X411423Y402273D01*
X413492Y404342D01*
X413492Y406165D01*
X413548Y406451D01*
X413715Y406703D01*
X510986Y503974D01*
X511228Y504137D01*
X511525Y504198D01*
X872029Y504198D01*
X872315Y504142D01*
X872568Y503974D01*
X873857Y502686D01*
X874017Y502686D01*
X874280Y502639D01*
X874538Y502479D01*
X874713Y502232D01*
X874779Y501936D01*
X874723Y501638D01*
X874555Y501385D01*
X849903Y476733D01*
X849662Y476570D01*
X849365Y476510D01*
X847542Y476510D01*
X845473Y474441D01*
X845473Y471515D01*
X847542Y469446D01*
X850468Y469446D01*
X852537Y471515D01*
X852537Y473337D01*
X852593Y473623D01*
X852760Y473876D01*
X876629Y497745D01*
X876849Y497898D01*
X877144Y497968D01*
X877443Y497917D01*
X877698Y497754D01*
X877870Y497503D01*
X877930Y497206D01*
X877930Y489671D01*
X878087Y489438D01*
X878148Y489141D01*
X878148Y488041D01*
X878092Y487755D01*
X877924Y487502D01*
X876636Y486213D01*
X876636Y483287D01*
X878750Y481173D01*
X878759Y481171D01*
X879017Y481012D01*
X879193Y480764D01*
X879258Y480468D01*
X879202Y480170D01*
X879035Y479917D01*
X849811Y450693D01*
X849569Y450530D01*
X849272Y450470D01*
X843406Y450470D01*
X842230Y449294D01*
X842230Y428606D01*
X843406Y427430D01*
X848936Y427430D01*
X849210Y427379D01*
X849466Y427215D01*
X849637Y426965D01*
X849698Y426668D01*
X849698Y358132D01*
X849646Y357857D01*
X849483Y357602D01*
X849233Y357430D01*
X848936Y357370D01*
X843406Y357370D01*
X842230Y356194D01*
X842230Y335506D01*
X843406Y334330D01*
X848936Y334330D01*
X849210Y334279D01*
X849466Y334115D01*
X849637Y333865D01*
X849698Y333568D01*
X849698Y248686D01*
X849642Y248400D01*
X849474Y248147D01*
X826341Y225013D01*
X826121Y224860D01*
X825826Y224790D01*
X825527Y224841D01*
X825272Y225005D01*
X825100Y225255D01*
X825040Y225552D01*
X825040Y242822D01*
X825011Y243110D01*
X824938Y243350D01*
X824818Y243570D01*
X824658Y243763D01*
X824462Y243920D01*
X824240Y244036D01*
X823995Y244106D01*
X823735Y244130D01*
X770468Y244130D01*
X770180Y244101D01*
X769940Y244028D01*
X769720Y243908D01*
X769527Y243748D01*
X769370Y243552D01*
X769254Y243330D01*
X769184Y243085D01*
X769160Y242825D01*
X769160Y222578D01*
X769189Y222290D01*
X769262Y222050D01*
X769382Y221830D01*
X769542Y221637D01*
X769738Y221480D01*
X769961Y221364D01*
X770205Y221294D01*
X770465Y221270D01*
X776114Y221270D01*
X776377Y221223D01*
X776635Y221064D01*
X776810Y220816D01*
X776876Y220520D01*
X776820Y220222D01*
X776652Y219969D01*
X765418Y208735D01*
X765177Y208572D01*
X764880Y208512D01*
X763057Y208512D01*
X760988Y206443D01*
X760988Y203517D01*
X763057Y201448D01*
X765983Y201448D01*
X767859Y203324D01*
X768079Y203477D01*
X768374Y203547D01*
X768673Y203496D01*
X768928Y203333D01*
X769100Y203083D01*
X769160Y202785D01*
X769160Y187578D01*
X769189Y187290D01*
X769262Y187050D01*
X769382Y186830D01*
X769421Y186782D01*
X769528Y186614D01*
X769597Y186319D01*
X769547Y186020D01*
X769383Y185764D01*
X769133Y185593D01*
X768836Y185533D01*
X699885Y185533D01*
X699599Y185588D01*
X699346Y185756D01*
X534210Y350892D01*
X534047Y351133D01*
X533987Y351430D01*
X533987Y353253D01*
X533923Y353317D01*
X533770Y353536D01*
X533701Y353831D01*
X533751Y354130D01*
X533915Y354386D01*
X534165Y354557D01*
X534462Y354618D01*
X741631Y354618D01*
X741911Y354564D01*
X742165Y354399D01*
X742335Y354147D01*
X744046Y350016D01*
X747216Y346846D01*
X751365Y345127D01*
X751625Y345079D01*
X751881Y344915D01*
X752052Y344665D01*
X752113Y344368D01*
X752113Y283781D01*
X753519Y282374D01*
X769058Y266835D01*
X769216Y266605D01*
X769281Y266309D01*
X769225Y266011D01*
X769058Y265758D01*
X768606Y265306D01*
X768606Y262380D01*
X770675Y260311D01*
X773601Y260311D01*
X775670Y262380D01*
X775670Y265298D01*
X775721Y265573D01*
X775884Y265828D01*
X776134Y266000D01*
X776432Y266060D01*
X778538Y266060D01*
X778538Y271838D01*
X770695Y271838D01*
X770556Y271740D01*
X770260Y271674D01*
X769962Y271730D01*
X769709Y271898D01*
X756376Y285231D01*
X756213Y285473D01*
X756153Y285770D01*
X756153Y344750D01*
X756206Y345030D01*
X756371Y345284D01*
X756623Y345454D01*
X759984Y346846D01*
X763154Y350016D01*
X764870Y354158D01*
X764870Y357824D01*
X764917Y358087D01*
X765076Y358345D01*
X765324Y358520D01*
X765620Y358586D01*
X765918Y358530D01*
X766171Y358362D01*
X814087Y310446D01*
X814250Y310204D01*
X814311Y309907D01*
X814311Y308085D01*
X816380Y306016D01*
X819306Y306016D01*
X821375Y308085D01*
X821375Y311011D01*
X819306Y313080D01*
X817483Y313080D01*
X817197Y313135D01*
X816944Y313303D01*
X657475Y472772D01*
X657312Y473013D01*
X657252Y473310D01*
X657252Y475133D01*
X655183Y477202D01*
X652257Y477202D01*
X650188Y475133D01*
X650188Y472207D01*
X652257Y470138D01*
X654080Y470138D01*
X654366Y470082D01*
X654618Y469915D01*
X755562Y368971D01*
X755715Y368751D01*
X755785Y368456D01*
X755734Y368157D01*
X755571Y367902D01*
X755321Y367730D01*
X755024Y367670D01*
X751358Y367670D01*
X747216Y365954D01*
X744046Y362784D01*
X742531Y359128D01*
X742375Y358889D01*
X742125Y358718D01*
X741827Y358658D01*
X522666Y358658D01*
X522380Y358713D01*
X522127Y358881D01*
X520838Y360170D01*
X517912Y360170D01*
X515843Y358101D01*
X515843Y355175D01*
X517912Y353106D01*
X520838Y353106D01*
X522127Y354394D01*
X522368Y354557D01*
X522666Y354618D01*
X526448Y354618D01*
X526711Y354571D01*
X526969Y354411D01*
X527145Y354164D01*
X527210Y353868D01*
X527154Y353570D01*
X526987Y353317D01*
X526923Y353253D01*
X526923Y350327D01*
X528992Y348258D01*
X530815Y348258D01*
X531101Y348202D01*
X531353Y348035D01*
X697896Y181493D01*
X773694Y181493D01*
X773980Y181437D01*
X774233Y181269D01*
X775522Y179981D01*
X778448Y179981D01*
X780517Y182050D01*
X780517Y184978D01*
X780370Y185189D01*
X780301Y185484D01*
X780351Y185783D01*
X780515Y186038D01*
X780765Y186210D01*
X781062Y186270D01*
X821076Y186270D01*
X821339Y186223D01*
X821597Y186064D01*
X821772Y185816D01*
X821837Y185520D01*
X821782Y185222D01*
X821614Y184969D01*
X799606Y162961D01*
X799364Y162798D01*
X799067Y162738D01*
X797832Y162738D01*
X797557Y162789D01*
X797302Y162952D01*
X797130Y163202D01*
X797070Y163500D01*
X797070Y164526D01*
X796326Y165270D01*
X788274Y165270D01*
X787530Y164526D01*
X787530Y158818D01*
X787474Y158532D01*
X787307Y158279D01*
X785371Y156343D01*
X785151Y156190D01*
G37*
%LPC*%
G36*
X830706Y427430D02*
X836794Y427430D01*
X837970Y428606D01*
X837970Y449294D01*
X836794Y450470D01*
X830706Y450470D01*
X829530Y449294D01*
X829530Y428606D01*
X830706Y427430D01*
G37*
G36*
X805306Y427430D02*
X811394Y427430D01*
X812570Y428606D01*
X812570Y449294D01*
X811394Y450470D01*
X805306Y450470D01*
X804130Y449294D01*
X804130Y428606D01*
X805306Y427430D01*
G37*
G36*
X818006Y427430D02*
X824094Y427430D01*
X825270Y428606D01*
X825270Y449294D01*
X824094Y450470D01*
X818006Y450470D01*
X816830Y449294D01*
X816830Y428606D01*
X818006Y427430D01*
G37*
G36*
X818006Y334330D02*
X824094Y334330D01*
X825270Y335506D01*
X825270Y356194D01*
X824094Y357370D01*
X818006Y357370D01*
X816830Y356194D01*
X816830Y335506D01*
X818006Y334330D01*
G37*
G36*
X830706Y334330D02*
X836794Y334330D01*
X837970Y335506D01*
X837970Y356194D01*
X836794Y357370D01*
X830706Y357370D01*
X829530Y356194D01*
X829530Y335506D01*
X830706Y334330D01*
G37*
G36*
X805306Y334330D02*
X811394Y334330D01*
X812570Y335506D01*
X812570Y356194D01*
X811394Y357370D01*
X805306Y357370D01*
X804130Y356194D01*
X804130Y335506D01*
X805306Y334330D01*
G37*
G36*
X771010Y273362D02*
X778538Y273362D01*
X778538Y279140D01*
X772498Y279140D01*
X771010Y277652D01*
X771010Y273362D01*
G37*
G36*
X780062Y273362D02*
X787590Y273362D01*
X787590Y277652D01*
X786102Y279140D01*
X780062Y279140D01*
X780062Y273362D01*
G37*
G36*
X808024Y267330D02*
X820576Y267330D01*
X821320Y268074D01*
X821320Y269371D01*
X821371Y269645D01*
X821535Y269901D01*
X821785Y270072D01*
X822082Y270133D01*
X823554Y270133D01*
X823840Y270077D01*
X824093Y269909D01*
X825382Y268621D01*
X828308Y268621D01*
X830377Y270690D01*
X830377Y273616D01*
X828308Y275685D01*
X825382Y275685D01*
X824093Y274396D01*
X823852Y274233D01*
X823554Y274173D01*
X822082Y274173D01*
X821807Y274224D01*
X821552Y274387D01*
X821380Y274637D01*
X821320Y274935D01*
X821320Y277126D01*
X820576Y277870D01*
X808024Y277870D01*
X807280Y277126D01*
X807280Y268074D01*
X808024Y267330D01*
G37*
G36*
X780062Y266060D02*
X786102Y266060D01*
X787590Y267548D01*
X787590Y271838D01*
X780062Y271838D01*
X780062Y266060D01*
G37*
%LPD*%
G36*
X930565Y344233D02*
X930268Y344173D01*
X920411Y344173D01*
X920125Y344228D01*
X919872Y344396D01*
X913848Y350420D01*
X913695Y350639D01*
X913625Y350934D01*
X913676Y351233D01*
X913839Y351489D01*
X914089Y351660D01*
X914125Y351667D01*
X916247Y353790D01*
X916247Y356716D01*
X914958Y358004D01*
X914795Y358246D01*
X914735Y358543D01*
X914735Y423954D01*
X901693Y436996D01*
X901530Y437238D01*
X901470Y437535D01*
X901470Y442070D01*
X901517Y442334D01*
X901676Y442592D01*
X901924Y442767D01*
X902220Y442832D01*
X902518Y442777D01*
X902771Y442609D01*
X902942Y442438D01*
X905868Y442438D01*
X907157Y443727D01*
X907398Y443890D01*
X907696Y443950D01*
X930368Y443950D01*
X930643Y443899D01*
X930898Y443735D01*
X931070Y443485D01*
X931130Y443188D01*
X931130Y442074D01*
X931874Y441330D01*
X941926Y441330D01*
X942670Y442074D01*
X942670Y447823D01*
X942726Y448109D01*
X942893Y448361D01*
X942979Y448447D01*
X943221Y448610D01*
X943518Y448671D01*
X945341Y448671D01*
X947410Y450740D01*
X947410Y453666D01*
X945341Y455735D01*
X943432Y455735D01*
X943157Y455786D01*
X942902Y455949D01*
X942730Y456199D01*
X942670Y456497D01*
X942670Y463126D01*
X941926Y463870D01*
X935751Y463870D01*
X935465Y463926D01*
X935212Y464093D01*
X909693Y489612D01*
X909530Y489853D01*
X909470Y490151D01*
X909470Y496781D01*
X909517Y497044D01*
X909676Y497302D01*
X909924Y497477D01*
X910220Y497542D01*
X910518Y497487D01*
X910771Y497319D01*
X1003902Y404188D01*
X1004065Y403947D01*
X1004125Y403650D01*
X1004125Y364332D01*
X1004074Y364057D01*
X1003910Y363802D01*
X1003660Y363630D01*
X1003363Y363570D01*
X989274Y363570D01*
X988530Y362826D01*
X988530Y358785D01*
X988479Y358510D01*
X988315Y358254D01*
X988065Y358083D01*
X987768Y358023D01*
X951040Y358023D01*
X945141Y352123D01*
X944921Y351970D01*
X944626Y351900D01*
X944327Y351951D01*
X944072Y352115D01*
X943900Y352365D01*
X943840Y352662D01*
X943840Y353538D01*
X937562Y353538D01*
X937562Y348260D01*
X939438Y348260D01*
X939701Y348213D01*
X939959Y348054D01*
X940135Y347806D01*
X940200Y347510D01*
X940144Y347212D01*
X939977Y346959D01*
X939311Y346293D01*
X939069Y346130D01*
X938772Y346070D01*
X931774Y346070D01*
X931030Y345326D01*
X931030Y344935D01*
X930979Y344660D01*
X930815Y344404D01*
X930565Y344233D01*
G37*
%LPC*%
G36*
X968730Y383576D02*
X971656Y383576D01*
X973725Y385645D01*
X973725Y387467D01*
X973780Y387753D01*
X973948Y388006D01*
X981759Y395817D01*
X982001Y395980D01*
X982298Y396041D01*
X984121Y396041D01*
X986190Y398110D01*
X986190Y401036D01*
X984121Y403105D01*
X981195Y403105D01*
X979126Y401036D01*
X979126Y399213D01*
X979070Y398927D01*
X978902Y398674D01*
X971091Y390863D01*
X970849Y390700D01*
X970552Y390640D01*
X968730Y390640D01*
X966661Y388571D01*
X966661Y385645D01*
X968730Y383576D01*
G37*
G36*
X929760Y355062D02*
X936038Y355062D01*
X936038Y360340D01*
X931248Y360340D01*
X929760Y358852D01*
X929760Y355062D01*
G37*
G36*
X937562Y355062D02*
X943840Y355062D01*
X943840Y358852D01*
X942352Y360340D01*
X937562Y360340D01*
X937562Y355062D01*
G37*
G36*
X931248Y348260D02*
X936038Y348260D01*
X936038Y353538D01*
X929760Y353538D01*
X929760Y349748D01*
X931248Y348260D01*
G37*
%LPD*%
G36*
X1503365Y313070D02*
X1503068Y313010D01*
X1322753Y313010D01*
X1322467Y313066D01*
X1322214Y313233D01*
X1273962Y361485D01*
X1168485Y361485D01*
X1157771Y350771D01*
X1157551Y350618D01*
X1157256Y350548D01*
X1156957Y350599D01*
X1156702Y350762D01*
X1156530Y351012D01*
X1156470Y351310D01*
X1156470Y356826D01*
X1155726Y357570D01*
X1145674Y357570D01*
X1144930Y356826D01*
X1144930Y352552D01*
X1144879Y352277D01*
X1144715Y352022D01*
X1144465Y351850D01*
X1144168Y351790D01*
X1143387Y351790D01*
X1143112Y351841D01*
X1142857Y352005D01*
X1142685Y352255D01*
X1142625Y352552D01*
X1142625Y434968D01*
X1142676Y435243D01*
X1142840Y435498D01*
X1143090Y435670D01*
X1143185Y435689D01*
X1143970Y436474D01*
X1143970Y441697D01*
X1144026Y441983D01*
X1144193Y442236D01*
X1144859Y442902D01*
X1145079Y443055D01*
X1145374Y443125D01*
X1145673Y443074D01*
X1145928Y442910D01*
X1146100Y442660D01*
X1146160Y442363D01*
X1146160Y442262D01*
X1158240Y442262D01*
X1158240Y445901D01*
X1158291Y446175D01*
X1158455Y446431D01*
X1158705Y446602D01*
X1159002Y446663D01*
X1186268Y446663D01*
X1186543Y446611D01*
X1186798Y446448D01*
X1186970Y446198D01*
X1187030Y445901D01*
X1187030Y437574D01*
X1187774Y436830D01*
X1189094Y436830D01*
X1189358Y436783D01*
X1189616Y436624D01*
X1189791Y436376D01*
X1189856Y436080D01*
X1189801Y435782D01*
X1189633Y435529D01*
X1189130Y435026D01*
X1189130Y424974D01*
X1189874Y424230D01*
X1197926Y424230D01*
X1198670Y424974D01*
X1198670Y435026D01*
X1197926Y435770D01*
X1197606Y435770D01*
X1197342Y435817D01*
X1197084Y435976D01*
X1196909Y436224D01*
X1196844Y436520D01*
X1196899Y436818D01*
X1197067Y437071D01*
X1197570Y437574D01*
X1197570Y445901D01*
X1197621Y446175D01*
X1197785Y446431D01*
X1198035Y446602D01*
X1198332Y446663D01*
X1198640Y446663D01*
X1198925Y446607D01*
X1199178Y446439D01*
X1201807Y443811D01*
X1201970Y443569D01*
X1202030Y443272D01*
X1202030Y437574D01*
X1202815Y436789D01*
X1202973Y436558D01*
X1203038Y436262D01*
X1202983Y435964D01*
X1202815Y435711D01*
X1202130Y435026D01*
X1202130Y424974D01*
X1202874Y424230D01*
X1211053Y424230D01*
X1211339Y424174D01*
X1211591Y424007D01*
X1227658Y407940D01*
X1238362Y407940D01*
X1238648Y407884D01*
X1238901Y407717D01*
X1240304Y406313D01*
X1240462Y406083D01*
X1240527Y405787D01*
X1240472Y405489D01*
X1240304Y405236D01*
X1239633Y404564D01*
X1239633Y402532D01*
X1239581Y402257D01*
X1239418Y402002D01*
X1239168Y401830D01*
X1238871Y401770D01*
X1235974Y401770D01*
X1235230Y401026D01*
X1235230Y392974D01*
X1235974Y392230D01*
X1246026Y392230D01*
X1246770Y392974D01*
X1246770Y401026D01*
X1246026Y401770D01*
X1244435Y401770D01*
X1244160Y401821D01*
X1243904Y401985D01*
X1243733Y402235D01*
X1243673Y402532D01*
X1243673Y402575D01*
X1243728Y402861D01*
X1243896Y403114D01*
X1248520Y407738D01*
X1248520Y409108D01*
X1248567Y409371D01*
X1248726Y409629D01*
X1248974Y409805D01*
X1249270Y409870D01*
X1249568Y409814D01*
X1249821Y409647D01*
X1269590Y389878D01*
X1296468Y389878D01*
X1296743Y389826D01*
X1296998Y389663D01*
X1297170Y389413D01*
X1297230Y389116D01*
X1297230Y387474D01*
X1297974Y386730D01*
X1303585Y386730D01*
X1303870Y386674D01*
X1304123Y386507D01*
X1349228Y341403D01*
X1386840Y341403D01*
X1407392Y361954D01*
X1407633Y362117D01*
X1407931Y362178D01*
X1476529Y362178D01*
X1476770Y362138D01*
X1477315Y361957D01*
X1477449Y362024D01*
X1477778Y362104D01*
X1478076Y362049D01*
X1478329Y361881D01*
X1503607Y336603D01*
X1503770Y336362D01*
X1503830Y336065D01*
X1503830Y313772D01*
X1503779Y313497D01*
X1503615Y313242D01*
X1503365Y313070D01*
G37*
%LPC*%
G36*
X1147648Y434460D02*
X1151438Y434460D01*
X1151438Y440738D01*
X1146160Y440738D01*
X1146160Y435948D01*
X1147648Y434460D01*
G37*
G36*
X1152962Y434460D02*
X1156752Y434460D01*
X1158240Y435948D01*
X1158240Y440738D01*
X1152962Y440738D01*
X1152962Y434460D01*
G37*
G36*
X1233960Y384762D02*
X1240238Y384762D01*
X1240238Y390040D01*
X1235448Y390040D01*
X1233960Y388552D01*
X1233960Y384762D01*
G37*
G36*
X1241762Y384762D02*
X1248040Y384762D01*
X1248040Y388552D01*
X1246552Y390040D01*
X1241762Y390040D01*
X1241762Y384762D01*
G37*
G36*
X1241762Y377960D02*
X1246552Y377960D01*
X1248040Y379448D01*
X1248040Y383238D01*
X1241762Y383238D01*
X1241762Y377960D01*
G37*
G36*
X1235448Y377960D02*
X1240238Y377960D01*
X1240238Y383238D01*
X1233960Y383238D01*
X1233960Y379448D01*
X1235448Y377960D01*
G37*
%LPD*%
G36*
X1548365Y313070D02*
X1548068Y313010D01*
X1522132Y313010D01*
X1521857Y313061D01*
X1521602Y313225D01*
X1521430Y313475D01*
X1521370Y313772D01*
X1521370Y350026D01*
X1520626Y350770D01*
X1504574Y350770D01*
X1503830Y350026D01*
X1503830Y346055D01*
X1503783Y345791D01*
X1503624Y345533D01*
X1503376Y345358D01*
X1503080Y345293D01*
X1502782Y345348D01*
X1502529Y345516D01*
X1482416Y365629D01*
X1482263Y365849D01*
X1482193Y366144D01*
X1482244Y366443D01*
X1482407Y366698D01*
X1482657Y366870D01*
X1482793Y366897D01*
X1483570Y367674D01*
X1483570Y377726D01*
X1482826Y378470D01*
X1482712Y378470D01*
X1482437Y378521D01*
X1482182Y378685D01*
X1482010Y378935D01*
X1481950Y379232D01*
X1481950Y384668D01*
X1482001Y384943D01*
X1482165Y385198D01*
X1482415Y385370D01*
X1482712Y385430D01*
X1483226Y385430D01*
X1483970Y386174D01*
X1483970Y396226D01*
X1483185Y397011D01*
X1483130Y397021D01*
X1482874Y397185D01*
X1482703Y397435D01*
X1482643Y397732D01*
X1482643Y408497D01*
X1482698Y408783D01*
X1482866Y409036D01*
X1484929Y411099D01*
X1485149Y411252D01*
X1485444Y411322D01*
X1485743Y411271D01*
X1485998Y411108D01*
X1486170Y410858D01*
X1486230Y410561D01*
X1486230Y406474D01*
X1486974Y405730D01*
X1500026Y405730D01*
X1500770Y406474D01*
X1500770Y407871D01*
X1500821Y408145D01*
X1500985Y408401D01*
X1501235Y408572D01*
X1501532Y408633D01*
X1588739Y408633D01*
X1609870Y429763D01*
X1610100Y429921D01*
X1610397Y429986D01*
X1610695Y429931D01*
X1610948Y429763D01*
X1613381Y427330D01*
X1617108Y427330D01*
X1617383Y427279D01*
X1617638Y427115D01*
X1617659Y427085D01*
X1617686Y427058D01*
X1617844Y426827D01*
X1617909Y426531D01*
X1617854Y426233D01*
X1617686Y425980D01*
X1616501Y424795D01*
X1616259Y424632D01*
X1615962Y424572D01*
X1614140Y424572D01*
X1612071Y422503D01*
X1612071Y419577D01*
X1614140Y417508D01*
X1617108Y417508D01*
X1617383Y417457D01*
X1617638Y417293D01*
X1617810Y417043D01*
X1617842Y416886D01*
X1617963Y416708D01*
X1618028Y416412D01*
X1617973Y416114D01*
X1617870Y415959D01*
X1617870Y414185D01*
X1617819Y413910D01*
X1617655Y413654D01*
X1617405Y413483D01*
X1617255Y413452D01*
X1555355Y351552D01*
X1555355Y351532D01*
X1555304Y351257D01*
X1555140Y351002D01*
X1554890Y350830D01*
X1554593Y350770D01*
X1549574Y350770D01*
X1548830Y350026D01*
X1548830Y313772D01*
X1548779Y313497D01*
X1548615Y313242D01*
X1548365Y313070D01*
G37*
%LPC*%
G36*
X1486160Y391962D02*
X1491438Y391962D01*
X1491438Y398240D01*
X1487648Y398240D01*
X1486160Y396752D01*
X1486160Y391962D01*
G37*
G36*
X1492962Y391962D02*
X1498240Y391962D01*
X1498240Y396752D01*
X1496752Y398240D01*
X1492962Y398240D01*
X1492962Y391962D01*
G37*
G36*
X1487648Y384160D02*
X1491438Y384160D01*
X1491438Y390438D01*
X1486160Y390438D01*
X1486160Y385648D01*
X1487648Y384160D01*
G37*
G36*
X1492962Y384160D02*
X1496752Y384160D01*
X1498240Y385648D01*
X1498240Y390438D01*
X1492962Y390438D01*
X1492962Y384160D01*
G37*
G36*
X1485760Y373462D02*
X1491038Y373462D01*
X1491038Y379740D01*
X1487248Y379740D01*
X1485760Y378252D01*
X1485760Y373462D01*
G37*
G36*
X1492562Y373462D02*
X1497840Y373462D01*
X1497840Y378252D01*
X1496352Y379740D01*
X1492562Y379740D01*
X1492562Y373462D01*
G37*
G36*
X1492562Y365660D02*
X1496352Y365660D01*
X1497840Y367148D01*
X1497840Y371938D01*
X1492562Y371938D01*
X1492562Y365660D01*
G37*
G36*
X1487248Y365660D02*
X1491038Y365660D01*
X1491038Y371938D01*
X1485760Y371938D01*
X1485760Y367148D01*
X1487248Y365660D01*
G37*
%LPD*%
G36*
X826121Y189543D02*
X825826Y189473D01*
X825527Y189524D01*
X825272Y189687D01*
X825100Y189937D01*
X825040Y190235D01*
X825040Y207822D01*
X825011Y208110D01*
X824938Y208350D01*
X824818Y208570D01*
X824658Y208763D01*
X824462Y208920D01*
X824240Y209036D01*
X823995Y209106D01*
X823735Y209130D01*
X820132Y209130D01*
X819869Y209177D01*
X819611Y209336D01*
X819435Y209584D01*
X819370Y209880D01*
X819426Y210178D01*
X819593Y210431D01*
X855238Y246075D01*
X855238Y332298D01*
X855289Y332573D01*
X855452Y332828D01*
X855702Y333000D01*
X856000Y333060D01*
X858388Y333060D01*
X858388Y358640D01*
X856000Y358640D01*
X855725Y358691D01*
X855469Y358855D01*
X855298Y359105D01*
X855238Y359402D01*
X855238Y398970D01*
X855284Y399234D01*
X855444Y399492D01*
X855691Y399667D01*
X855987Y399732D01*
X856285Y399677D01*
X856538Y399509D01*
X858622Y397426D01*
X861548Y397426D01*
X861554Y397432D01*
X861774Y397585D01*
X862069Y397655D01*
X862368Y397604D01*
X862623Y397440D01*
X862795Y397190D01*
X862855Y396893D01*
X862855Y359402D01*
X862804Y359127D01*
X862640Y358872D01*
X862390Y358700D01*
X862093Y358640D01*
X859912Y358640D01*
X859912Y333060D01*
X862720Y333060D01*
X862730Y333070D01*
X862961Y333228D01*
X863257Y333293D01*
X863555Y333237D01*
X863808Y333070D01*
X864701Y332177D01*
X874652Y322226D01*
X874810Y321995D01*
X874875Y321699D01*
X874819Y321401D01*
X874652Y321148D01*
X874530Y321026D01*
X874530Y310974D01*
X875097Y310407D01*
X875260Y310166D01*
X875320Y309868D01*
X875320Y238991D01*
X875264Y238705D01*
X875097Y238452D01*
X826341Y189696D01*
X826121Y189543D01*
G37*
G36*
X1133665Y-22100D02*
X1133368Y-22160D01*
X1107932Y-22160D01*
X1107657Y-22109D01*
X1107402Y-21945D01*
X1107230Y-21695D01*
X1107170Y-21398D01*
X1107170Y-20874D01*
X1106426Y-20130D01*
X1100508Y-20130D01*
X1100222Y-20074D01*
X1099969Y-19907D01*
X926233Y153829D01*
X926080Y154049D01*
X926010Y154344D01*
X926061Y154643D01*
X926225Y154898D01*
X926475Y155070D01*
X926772Y155130D01*
X936276Y155130D01*
X937020Y155874D01*
X937020Y164480D01*
X937076Y164766D01*
X937243Y165019D01*
X959783Y187559D01*
X959799Y187643D01*
X959962Y187898D01*
X960212Y188070D01*
X960510Y188130D01*
X962926Y188130D01*
X963670Y188874D01*
X963670Y196926D01*
X962926Y197670D01*
X952874Y197670D01*
X952130Y196926D01*
X952130Y188874D01*
X952890Y188114D01*
X953064Y188083D01*
X953323Y187924D01*
X953498Y187676D01*
X953563Y187380D01*
X953507Y187082D01*
X953340Y186829D01*
X932404Y165893D01*
X932162Y165730D01*
X931865Y165670D01*
X923724Y165670D01*
X922980Y164926D01*
X922980Y163442D01*
X922929Y163167D01*
X922765Y162912D01*
X922515Y162740D01*
X922218Y162680D01*
X922177Y162680D01*
X921891Y162736D01*
X921639Y162903D01*
X910710Y173832D01*
X910557Y174052D01*
X910487Y174347D01*
X910538Y174646D01*
X910701Y174901D01*
X910951Y175073D01*
X911248Y175133D01*
X911408Y175133D01*
X913477Y177202D01*
X913477Y179025D01*
X913533Y179311D01*
X913700Y179563D01*
X927744Y193607D01*
X927985Y193770D01*
X928282Y193830D01*
X936976Y193830D01*
X937720Y194574D01*
X937720Y202891D01*
X937771Y203165D01*
X937935Y203421D01*
X938185Y203592D01*
X938482Y203653D01*
X951368Y203653D01*
X951643Y203601D01*
X951898Y203438D01*
X952070Y203188D01*
X952130Y202891D01*
X952130Y201874D01*
X952874Y201130D01*
X962926Y201130D01*
X963670Y201874D01*
X963670Y209926D01*
X962926Y210670D01*
X952874Y210670D01*
X952130Y209926D01*
X952130Y208455D01*
X952079Y208180D01*
X951915Y207924D01*
X951665Y207753D01*
X951368Y207693D01*
X901491Y207693D01*
X898391Y204593D01*
X898150Y204430D01*
X897853Y204370D01*
X897800Y204370D01*
X897514Y204426D01*
X897261Y204593D01*
X890848Y211007D01*
X890685Y211248D01*
X890625Y211545D01*
X890625Y213368D01*
X888556Y215437D01*
X885630Y215437D01*
X883561Y213368D01*
X883561Y210442D01*
X885630Y208373D01*
X887452Y208373D01*
X887738Y208317D01*
X887991Y208150D01*
X890470Y205671D01*
X890623Y205451D01*
X890693Y205156D01*
X890642Y204857D01*
X890479Y204602D01*
X890228Y204430D01*
X889931Y204370D01*
X889424Y204370D01*
X888680Y203626D01*
X888680Y197701D01*
X888633Y197438D01*
X888474Y197180D01*
X888226Y197005D01*
X887930Y196939D01*
X887632Y196995D01*
X887379Y197163D01*
X869743Y214798D01*
X869585Y215029D01*
X869520Y215325D01*
X869576Y215623D01*
X869743Y215876D01*
X869850Y215982D01*
X869850Y216081D01*
X869896Y216344D01*
X870056Y216602D01*
X870303Y216778D01*
X870599Y216843D01*
X870897Y216787D01*
X871150Y216620D01*
X872472Y215298D01*
X875398Y215298D01*
X877467Y217367D01*
X877467Y220293D01*
X876178Y221582D01*
X876015Y221823D01*
X875955Y222121D01*
X875955Y226680D01*
X876011Y226966D01*
X876178Y227219D01*
X900885Y251926D01*
X900885Y267868D01*
X900936Y268143D01*
X901100Y268398D01*
X901350Y268570D01*
X901637Y268628D01*
X905784Y270346D01*
X908954Y273516D01*
X910670Y277658D01*
X910670Y282142D01*
X908954Y286284D01*
X905784Y289454D01*
X901642Y291170D01*
X897158Y291170D01*
X893016Y289454D01*
X889846Y286284D01*
X888130Y282142D01*
X888130Y277658D01*
X889846Y273516D01*
X893016Y270346D01*
X896375Y268955D01*
X896613Y268798D01*
X896785Y268548D01*
X896845Y268251D01*
X896845Y253915D01*
X896789Y253629D01*
X896622Y253376D01*
X882161Y238915D01*
X881941Y238762D01*
X881646Y238692D01*
X881347Y238743D01*
X881092Y238907D01*
X880920Y239157D01*
X880860Y239454D01*
X880860Y309468D01*
X880911Y309743D01*
X881075Y309998D01*
X881325Y310170D01*
X881622Y310230D01*
X883326Y310230D01*
X884070Y310974D01*
X884070Y321026D01*
X883326Y321770D01*
X882315Y321770D01*
X882040Y321821D01*
X881784Y321985D01*
X881613Y322235D01*
X881553Y322532D01*
X881553Y323160D01*
X871683Y333029D01*
X871530Y333249D01*
X871460Y333544D01*
X871511Y333843D01*
X871675Y334098D01*
X871925Y334270D01*
X872222Y334330D01*
X874894Y334330D01*
X876070Y335506D01*
X876070Y350385D01*
X876126Y350670D01*
X876293Y350923D01*
X879029Y353659D01*
X879249Y353812D01*
X879544Y353882D01*
X879843Y353831D01*
X880098Y353668D01*
X880270Y353418D01*
X880330Y353121D01*
X880330Y335506D01*
X881506Y334330D01*
X887594Y334330D01*
X888220Y334956D01*
X888450Y335114D01*
X888747Y335179D01*
X889045Y335123D01*
X889297Y334956D01*
X891284Y332969D01*
X891442Y332739D01*
X891507Y332443D01*
X891452Y332144D01*
X891284Y331892D01*
X889101Y329708D01*
X889101Y326782D01*
X890389Y325493D01*
X890552Y325252D01*
X890613Y324954D01*
X890613Y322532D01*
X890561Y322257D01*
X890398Y322002D01*
X890148Y321830D01*
X889851Y321770D01*
X888274Y321770D01*
X887530Y321026D01*
X887530Y310974D01*
X888274Y310230D01*
X896326Y310230D01*
X897070Y310974D01*
X897070Y321026D01*
X896326Y321770D01*
X895415Y321770D01*
X895140Y321821D01*
X894884Y321985D01*
X894713Y322235D01*
X894653Y322532D01*
X894653Y324954D01*
X894708Y325240D01*
X894876Y325493D01*
X896165Y326782D01*
X896165Y329708D01*
X896101Y329772D01*
X895948Y329991D01*
X895878Y330286D01*
X895929Y330585D01*
X896092Y330841D01*
X896342Y331012D01*
X896640Y331073D01*
X940559Y331073D01*
X955444Y345957D01*
X955686Y346120D01*
X955983Y346181D01*
X959191Y346181D01*
X961260Y348250D01*
X961260Y351176D01*
X961253Y351182D01*
X961100Y351401D01*
X961031Y351696D01*
X961081Y351995D01*
X961245Y352251D01*
X961495Y352422D01*
X961792Y352483D01*
X987768Y352483D01*
X988043Y352431D01*
X988298Y352268D01*
X988470Y352018D01*
X988530Y351721D01*
X988530Y347774D01*
X989274Y347030D01*
X1003363Y347030D01*
X1003638Y346979D01*
X1003893Y346815D01*
X1004065Y346565D01*
X1004125Y346268D01*
X1004125Y343602D01*
X1004074Y343327D01*
X1003910Y343072D01*
X1003660Y342900D01*
X1003363Y342840D01*
X997562Y342840D01*
X997562Y323760D01*
X999901Y323760D01*
X1000175Y323709D01*
X1000431Y323545D01*
X1000602Y323295D01*
X1000663Y322998D01*
X1000663Y264332D01*
X1000611Y264057D01*
X1000448Y263802D01*
X1000198Y263630D01*
X999901Y263570D01*
X997774Y263570D01*
X997030Y262826D01*
X997030Y254774D01*
X997774Y254030D01*
X1007826Y254030D01*
X1008570Y254774D01*
X1008570Y262826D01*
X1007826Y263570D01*
X1006965Y263570D01*
X1006690Y263621D01*
X1006434Y263785D01*
X1006263Y264035D01*
X1006203Y264332D01*
X1006203Y320550D01*
X1006258Y320835D01*
X1006426Y321088D01*
X1009665Y324328D01*
X1009665Y338563D01*
X1009716Y338838D01*
X1009880Y339093D01*
X1010130Y339265D01*
X1010427Y339325D01*
X1124298Y339325D01*
X1124573Y339274D01*
X1124828Y339110D01*
X1125000Y338860D01*
X1125060Y338563D01*
X1125060Y336262D01*
X1139140Y336262D01*
X1139140Y338563D01*
X1139191Y338838D01*
X1139355Y339093D01*
X1139605Y339265D01*
X1139902Y339325D01*
X1154160Y339325D01*
X1167429Y352594D01*
X1167649Y352747D01*
X1167944Y352817D01*
X1168243Y352766D01*
X1168498Y352603D01*
X1168670Y352353D01*
X1168730Y352056D01*
X1168730Y348107D01*
X1168740Y348060D01*
X1168685Y347762D01*
X1168517Y347509D01*
X1167460Y346452D01*
X1167460Y343162D01*
X1175262Y343162D01*
X1175262Y341638D01*
X1167460Y341638D01*
X1167460Y338348D01*
X1168517Y337291D01*
X1168675Y337060D01*
X1168740Y336764D01*
X1168730Y336709D01*
X1168730Y329374D01*
X1169474Y328630D01*
X1171698Y328630D01*
X1171973Y328579D01*
X1172228Y328415D01*
X1172400Y328165D01*
X1172460Y327868D01*
X1172460Y318272D01*
X1172413Y318008D01*
X1172254Y317750D01*
X1172006Y317575D01*
X1171710Y317510D01*
X1171412Y317565D01*
X1171159Y317733D01*
X1169952Y318940D01*
X1166162Y318940D01*
X1166162Y311138D01*
X1159321Y311138D01*
X1159313Y311096D01*
X1159154Y310837D01*
X1158906Y310662D01*
X1158610Y310597D01*
X1158312Y310653D01*
X1158059Y310820D01*
X1157393Y311486D01*
X1157230Y311728D01*
X1157170Y312025D01*
X1157170Y316926D01*
X1156426Y317670D01*
X1155102Y317670D01*
X1154827Y317721D01*
X1154572Y317885D01*
X1154400Y318135D01*
X1154340Y318432D01*
X1154340Y325268D01*
X1154391Y325543D01*
X1154555Y325798D01*
X1154805Y325970D01*
X1155102Y326030D01*
X1155726Y326030D01*
X1156470Y326774D01*
X1156470Y335826D01*
X1155726Y336570D01*
X1145674Y336570D01*
X1144930Y335826D01*
X1144930Y326774D01*
X1145674Y326030D01*
X1149538Y326030D01*
X1149813Y325979D01*
X1150068Y325815D01*
X1150240Y325565D01*
X1150300Y325268D01*
X1150300Y318432D01*
X1150249Y318157D01*
X1150085Y317902D01*
X1149835Y317730D01*
X1149538Y317670D01*
X1148374Y317670D01*
X1147630Y316926D01*
X1147630Y306874D01*
X1148374Y306130D01*
X1156720Y306130D01*
X1157006Y306074D01*
X1157259Y305907D01*
X1160486Y302680D01*
X1170469Y302680D01*
X1176500Y308711D01*
X1176500Y327868D01*
X1176551Y328143D01*
X1176715Y328398D01*
X1176965Y328570D01*
X1177262Y328630D01*
X1179526Y328630D01*
X1180270Y329374D01*
X1180270Y334466D01*
X1180321Y334740D01*
X1180485Y334996D01*
X1180735Y335167D01*
X1180812Y335183D01*
X1183425Y337796D01*
X1183425Y342649D01*
X1183476Y342923D01*
X1183640Y343179D01*
X1183890Y343350D01*
X1184187Y343411D01*
X1184253Y343411D01*
X1186322Y345480D01*
X1186322Y348406D01*
X1184253Y350475D01*
X1181032Y350475D01*
X1180757Y350526D01*
X1180502Y350689D01*
X1180330Y350939D01*
X1180270Y351237D01*
X1180270Y355183D01*
X1180321Y355458D01*
X1180485Y355713D01*
X1180735Y355885D01*
X1181032Y355945D01*
X1195968Y355945D01*
X1196243Y355894D01*
X1196498Y355730D01*
X1196670Y355480D01*
X1196730Y355183D01*
X1196730Y348374D01*
X1197474Y347630D01*
X1207526Y347630D01*
X1208297Y348401D01*
X1208321Y348533D01*
X1208485Y348788D01*
X1208735Y348960D01*
X1209032Y349020D01*
X1213182Y349020D01*
X1213468Y348964D01*
X1213721Y348797D01*
X1238507Y324011D01*
X1238670Y323769D01*
X1238730Y323472D01*
X1238730Y305074D01*
X1239474Y304330D01*
X1248508Y304330D01*
X1248783Y304279D01*
X1249038Y304115D01*
X1249210Y303865D01*
X1249270Y303568D01*
X1249270Y31994D01*
X1249219Y31719D01*
X1249055Y31464D01*
X1248805Y31292D01*
X1248508Y31232D01*
X1245730Y31232D01*
X1243661Y29163D01*
X1243661Y26237D01*
X1243737Y26161D01*
X1243895Y25930D01*
X1243960Y25634D01*
X1243904Y25336D01*
X1243737Y25083D01*
X1243330Y24676D01*
X1243330Y13924D01*
X1244263Y12991D01*
X1244416Y12771D01*
X1244486Y12476D01*
X1244435Y12177D01*
X1244272Y11922D01*
X1244022Y11750D01*
X1243724Y11690D01*
X1243548Y11690D01*
X1242060Y10202D01*
X1242060Y5062D01*
X1250062Y5062D01*
X1250062Y-3090D01*
X1253356Y-3090D01*
X1253630Y-3141D01*
X1253886Y-3305D01*
X1254057Y-3555D01*
X1254118Y-3852D01*
X1254118Y-19168D01*
X1254066Y-19443D01*
X1253903Y-19698D01*
X1253653Y-19870D01*
X1253356Y-19930D01*
X1245374Y-19930D01*
X1244630Y-20674D01*
X1244630Y-20706D01*
X1244579Y-20980D01*
X1244415Y-21236D01*
X1244165Y-21407D01*
X1243868Y-21468D01*
X1218732Y-21468D01*
X1218457Y-21416D01*
X1218202Y-21253D01*
X1218030Y-21003D01*
X1217987Y-20791D01*
X1217226Y-20030D01*
X1207174Y-20030D01*
X1206414Y-20790D01*
X1206379Y-20980D01*
X1206215Y-21236D01*
X1205965Y-21407D01*
X1205668Y-21468D01*
X1182679Y-21468D01*
X1182393Y-21412D01*
X1182140Y-21244D01*
X1181226Y-20330D01*
X1171174Y-20330D01*
X1170430Y-21074D01*
X1170430Y-21398D01*
X1170379Y-21673D01*
X1170215Y-21928D01*
X1169965Y-22100D01*
X1169668Y-22160D01*
X1146432Y-22160D01*
X1146157Y-22109D01*
X1145902Y-21945D01*
X1145730Y-21695D01*
X1145670Y-21398D01*
X1145670Y-21074D01*
X1144926Y-20330D01*
X1134874Y-20330D01*
X1134130Y-21074D01*
X1134130Y-21398D01*
X1134079Y-21673D01*
X1133915Y-21928D01*
X1133665Y-22100D01*
G37*
%LPC*%
G36*
X987260Y334062D02*
X996038Y334062D01*
X996038Y342840D01*
X988748Y342840D01*
X987260Y341352D01*
X987260Y334062D01*
G37*
G36*
X1197474Y328630D02*
X1207526Y328630D01*
X1208270Y329374D01*
X1208270Y336426D01*
X1207526Y337170D01*
X1197474Y337170D01*
X1196730Y336426D01*
X1196730Y329374D01*
X1197474Y328630D01*
G37*
G36*
X1132862Y329460D02*
X1137652Y329460D01*
X1139140Y330948D01*
X1139140Y334738D01*
X1132862Y334738D01*
X1132862Y329460D01*
G37*
G36*
X1126548Y329460D02*
X1131338Y329460D01*
X1131338Y334738D01*
X1125060Y334738D01*
X1125060Y330948D01*
X1126548Y329460D01*
G37*
G36*
X988748Y323760D02*
X996038Y323760D01*
X996038Y332538D01*
X987260Y332538D01*
X987260Y325248D01*
X988748Y323760D01*
G37*
G36*
X1159360Y312662D02*
X1164638Y312662D01*
X1164638Y318940D01*
X1160848Y318940D01*
X1159360Y317452D01*
X1159360Y312662D01*
G37*
G36*
X1036460Y295662D02*
X1048238Y295662D01*
X1048238Y307440D01*
X1046506Y307440D01*
X1041897Y305531D01*
X1038369Y302003D01*
X1036460Y297394D01*
X1036460Y295662D01*
G37*
G36*
X1049762Y295662D02*
X1061540Y295662D01*
X1061540Y297394D01*
X1059631Y302003D01*
X1056103Y305531D01*
X1051494Y307440D01*
X1049762Y307440D01*
X1049762Y295662D01*
G37*
G36*
X1046506Y282360D02*
X1048238Y282360D01*
X1048238Y294138D01*
X1036460Y294138D01*
X1036460Y292406D01*
X1038369Y287797D01*
X1041897Y284269D01*
X1046506Y282360D01*
G37*
G36*
X1049762Y282360D02*
X1051494Y282360D01*
X1056103Y284269D01*
X1059631Y287797D01*
X1061540Y292406D01*
X1061540Y294138D01*
X1049762Y294138D01*
X1049762Y282360D01*
G37*
G36*
X1094060Y5062D02*
X1108540Y5062D01*
X1108540Y10202D01*
X1107052Y11690D01*
X1106876Y11690D01*
X1106612Y11737D01*
X1106354Y11896D01*
X1106179Y12144D01*
X1106114Y12440D01*
X1106169Y12738D01*
X1106337Y12991D01*
X1107270Y13924D01*
X1107270Y24676D01*
X1106526Y25420D01*
X1103857Y25420D01*
X1103582Y25471D01*
X1103327Y25635D01*
X1103155Y25885D01*
X1103095Y26182D01*
X1103095Y137259D01*
X1001895Y238459D01*
X1001742Y238679D01*
X1001672Y238974D01*
X1001723Y239273D01*
X1001887Y239528D01*
X1002038Y239632D01*
X1002038Y245038D01*
X995379Y245038D01*
X995379Y245789D01*
X995306Y245737D01*
X995010Y245672D01*
X994712Y245728D01*
X994459Y245895D01*
X978795Y261559D01*
X978632Y261801D01*
X978572Y262098D01*
X978572Y263921D01*
X976503Y265990D01*
X973577Y265990D01*
X971508Y263921D01*
X971508Y260995D01*
X973577Y258926D01*
X975400Y258926D01*
X975686Y258870D01*
X975938Y258702D01*
X1098832Y135809D01*
X1098995Y135567D01*
X1099055Y135270D01*
X1099055Y26182D01*
X1099004Y25907D01*
X1098840Y25652D01*
X1098590Y25480D01*
X1098293Y25420D01*
X1096074Y25420D01*
X1095330Y24676D01*
X1095330Y16125D01*
X1095274Y15839D01*
X1095107Y15586D01*
X1093663Y14143D01*
X1093422Y13980D01*
X1093125Y13920D01*
X1091302Y13920D01*
X1089233Y11851D01*
X1089233Y8925D01*
X1091302Y6856D01*
X1093298Y6856D01*
X1093573Y6804D01*
X1093828Y6641D01*
X1094000Y6391D01*
X1094060Y6094D01*
X1094060Y5062D01*
G37*
G36*
X1003562Y246562D02*
X1009840Y246562D01*
X1009840Y250352D01*
X1008352Y251840D01*
X1003562Y251840D01*
X1003562Y246562D01*
G37*
G36*
X995760Y246562D02*
X1002038Y246562D01*
X1002038Y251840D01*
X997248Y251840D01*
X995760Y250352D01*
X995760Y246562D01*
G37*
G36*
X1003562Y239760D02*
X1008352Y239760D01*
X1009840Y241248D01*
X1009840Y245038D01*
X1003562Y245038D01*
X1003562Y239760D01*
G37*
G36*
X1167560Y5462D02*
X1182040Y5462D01*
X1182040Y10602D01*
X1180552Y12090D01*
X1180376Y12090D01*
X1180112Y12137D01*
X1179854Y12296D01*
X1179679Y12544D01*
X1179614Y12840D01*
X1179669Y13138D01*
X1179837Y13391D01*
X1180770Y14324D01*
X1180770Y25076D01*
X1180026Y25820D01*
X1169574Y25820D01*
X1168830Y25076D01*
X1168830Y16912D01*
X1168774Y16626D01*
X1168607Y16374D01*
X1167761Y15528D01*
X1167519Y15365D01*
X1167222Y15305D01*
X1165400Y15305D01*
X1163331Y13236D01*
X1163331Y10310D01*
X1165400Y8241D01*
X1166798Y8241D01*
X1167073Y8189D01*
X1167328Y8026D01*
X1167500Y7776D01*
X1167560Y7479D01*
X1167560Y5462D01*
G37*
G36*
X1132560Y5262D02*
X1147040Y5262D01*
X1147040Y10402D01*
X1145552Y11890D01*
X1145376Y11890D01*
X1145112Y11937D01*
X1144854Y12096D01*
X1144679Y12344D01*
X1144614Y12640D01*
X1144669Y12938D01*
X1144837Y13191D01*
X1145770Y14124D01*
X1145770Y24876D01*
X1145026Y25620D01*
X1134574Y25620D01*
X1133830Y24876D01*
X1133830Y17230D01*
X1133774Y16944D01*
X1133607Y16691D01*
X1131751Y14835D01*
X1131509Y14672D01*
X1131212Y14612D01*
X1129390Y14612D01*
X1127321Y12543D01*
X1127321Y9617D01*
X1129390Y7548D01*
X1131798Y7548D01*
X1132073Y7497D01*
X1132328Y7333D01*
X1132500Y7083D01*
X1132560Y6786D01*
X1132560Y5262D01*
G37*
G36*
X1204560Y5162D02*
X1219040Y5162D01*
X1219040Y10302D01*
X1217552Y11790D01*
X1217376Y11790D01*
X1217112Y11837D01*
X1216854Y11996D01*
X1216679Y12244D01*
X1216614Y12540D01*
X1216669Y12838D01*
X1216837Y13091D01*
X1217770Y14024D01*
X1217770Y24776D01*
X1217026Y25520D01*
X1206574Y25520D01*
X1205830Y24776D01*
X1205830Y17210D01*
X1205774Y16924D01*
X1205607Y16671D01*
X1204463Y15528D01*
X1204222Y15365D01*
X1203925Y15305D01*
X1202102Y15305D01*
X1200033Y13236D01*
X1200033Y10310D01*
X1202102Y8241D01*
X1203798Y8241D01*
X1204073Y8189D01*
X1204328Y8026D01*
X1204500Y7776D01*
X1204560Y7479D01*
X1204560Y5162D01*
G37*
G36*
X1175562Y-2690D02*
X1180552Y-2690D01*
X1182040Y-1202D01*
X1182040Y3938D01*
X1175562Y3938D01*
X1175562Y-2690D01*
G37*
G36*
X1169048Y-2690D02*
X1174038Y-2690D01*
X1174038Y3938D01*
X1167560Y3938D01*
X1167560Y-1202D01*
X1169048Y-2690D01*
G37*
G36*
X1140562Y-2890D02*
X1145552Y-2890D01*
X1147040Y-1402D01*
X1147040Y3738D01*
X1140562Y3738D01*
X1140562Y-2890D01*
G37*
G36*
X1134048Y-2890D02*
X1139038Y-2890D01*
X1139038Y3738D01*
X1132560Y3738D01*
X1132560Y-1402D01*
X1134048Y-2890D01*
G37*
G36*
X1212562Y-2990D02*
X1217552Y-2990D01*
X1219040Y-1502D01*
X1219040Y3638D01*
X1212562Y3638D01*
X1212562Y-2990D01*
G37*
G36*
X1206048Y-2990D02*
X1211038Y-2990D01*
X1211038Y3638D01*
X1204560Y3638D01*
X1204560Y-1502D01*
X1206048Y-2990D01*
G37*
G36*
X1243548Y-3090D02*
X1248538Y-3090D01*
X1248538Y3538D01*
X1242060Y3538D01*
X1242060Y-1602D01*
X1243548Y-3090D01*
G37*
G36*
X1102062Y-3090D02*
X1107052Y-3090D01*
X1108540Y-1602D01*
X1108540Y3538D01*
X1102062Y3538D01*
X1102062Y-3090D01*
G37*
G36*
X1095548Y-3090D02*
X1100538Y-3090D01*
X1100538Y3538D01*
X1094060Y3538D01*
X1094060Y-1602D01*
X1095548Y-3090D01*
G37*
%LPD*%
G36*
X1641265Y87315D02*
X1640968Y87255D01*
X1255572Y87255D01*
X1255297Y87306D01*
X1255042Y87470D01*
X1254870Y87720D01*
X1254810Y88017D01*
X1254810Y303568D01*
X1254861Y303843D01*
X1255025Y304098D01*
X1255275Y304270D01*
X1255572Y304330D01*
X1262526Y304330D01*
X1263270Y305074D01*
X1263270Y319866D01*
X1263321Y320140D01*
X1263485Y320396D01*
X1263735Y320567D01*
X1264032Y320628D01*
X1276268Y320628D01*
X1276543Y320576D01*
X1276798Y320413D01*
X1276970Y320163D01*
X1277030Y319866D01*
X1277030Y319774D01*
X1277774Y319030D01*
X1287826Y319030D01*
X1288570Y319774D01*
X1288570Y327826D01*
X1287826Y328570D01*
X1277774Y328570D01*
X1277030Y327826D01*
X1277030Y326930D01*
X1276979Y326655D01*
X1276815Y326399D01*
X1276565Y326228D01*
X1276268Y326168D01*
X1263544Y326168D01*
X1263258Y326223D01*
X1263005Y326391D01*
X1262526Y326870D01*
X1243798Y326870D01*
X1243512Y326926D01*
X1243259Y327093D01*
X1238593Y331759D01*
X1238440Y331979D01*
X1238370Y332274D01*
X1238421Y332573D01*
X1238585Y332828D01*
X1238835Y333000D01*
X1239132Y333060D01*
X1250238Y333060D01*
X1250238Y344838D01*
X1237460Y344838D01*
X1237460Y334732D01*
X1237413Y334469D01*
X1237254Y334211D01*
X1237006Y334035D01*
X1236710Y333970D01*
X1236412Y334026D01*
X1236159Y334193D01*
X1215708Y354644D01*
X1215555Y354864D01*
X1215485Y355159D01*
X1215536Y355458D01*
X1215700Y355713D01*
X1215950Y355885D01*
X1216247Y355945D01*
X1236698Y355945D01*
X1236973Y355894D01*
X1237228Y355730D01*
X1237400Y355480D01*
X1237460Y355183D01*
X1237460Y346362D01*
X1264540Y346362D01*
X1264540Y355183D01*
X1264591Y355458D01*
X1264755Y355713D01*
X1265005Y355885D01*
X1265302Y355945D01*
X1271352Y355945D01*
X1271638Y355889D01*
X1271891Y355722D01*
X1283472Y344141D01*
X1283625Y343921D01*
X1283695Y343626D01*
X1283644Y343327D01*
X1283562Y343199D01*
X1283562Y330760D01*
X1288352Y330760D01*
X1289840Y332248D01*
X1289840Y335933D01*
X1289887Y336196D01*
X1290046Y336454D01*
X1290294Y336630D01*
X1290590Y336695D01*
X1290888Y336639D01*
X1291141Y336472D01*
X1320143Y307470D01*
X1578822Y307470D01*
X1579108Y307414D01*
X1579361Y307247D01*
X1669937Y216671D01*
X1670090Y216451D01*
X1670160Y216156D01*
X1670109Y215857D01*
X1669945Y215602D01*
X1669695Y215430D01*
X1669398Y215370D01*
X1665458Y215370D01*
X1661316Y213654D01*
X1658146Y210484D01*
X1656430Y206342D01*
X1656430Y201858D01*
X1658146Y197716D01*
X1661316Y194546D01*
X1664300Y193310D01*
X1664538Y193153D01*
X1664710Y192903D01*
X1664770Y192606D01*
X1664770Y99106D01*
X1664714Y98820D01*
X1664547Y98567D01*
X1659071Y93091D01*
X1658851Y92938D01*
X1658556Y92868D01*
X1658257Y92919D01*
X1658002Y93082D01*
X1657830Y93332D01*
X1657770Y93630D01*
X1657770Y97726D01*
X1656835Y98661D01*
X1656677Y98892D01*
X1656612Y99188D01*
X1656667Y99486D01*
X1656835Y99739D01*
X1657770Y100674D01*
X1657770Y107726D01*
X1657026Y108470D01*
X1648805Y108470D01*
X1648519Y108526D01*
X1648266Y108693D01*
X1630311Y126649D01*
X1630148Y126890D01*
X1630088Y127187D01*
X1630088Y218309D01*
X1630143Y218595D01*
X1630311Y218848D01*
X1631600Y220137D01*
X1631600Y223063D01*
X1629531Y225132D01*
X1626605Y225132D01*
X1626541Y225068D01*
X1626321Y224915D01*
X1626026Y224846D01*
X1625727Y224896D01*
X1625472Y225060D01*
X1625300Y225310D01*
X1625240Y225607D01*
X1625240Y229389D01*
X1625296Y229675D01*
X1625463Y229928D01*
X1626752Y231217D01*
X1626752Y234143D01*
X1624683Y236212D01*
X1621757Y236212D01*
X1619688Y234143D01*
X1619688Y231217D01*
X1620977Y229928D01*
X1621140Y229687D01*
X1621200Y229389D01*
X1621200Y116888D01*
X1641507Y96581D01*
X1641670Y96340D01*
X1641730Y96043D01*
X1641730Y90674D01*
X1642665Y89739D01*
X1642823Y89508D01*
X1642888Y89212D01*
X1642833Y88914D01*
X1642665Y88661D01*
X1641559Y87555D01*
X1641515Y87487D01*
X1641265Y87315D01*
G37*
%LPC*%
G36*
X1251762Y333060D02*
X1263052Y333060D01*
X1264540Y334548D01*
X1264540Y344838D01*
X1251762Y344838D01*
X1251762Y333060D01*
G37*
G36*
X1275760Y337562D02*
X1282038Y337562D01*
X1282038Y342840D01*
X1277248Y342840D01*
X1275760Y341352D01*
X1275760Y337562D01*
G37*
G36*
X1277248Y330760D02*
X1282038Y330760D01*
X1282038Y336038D01*
X1275760Y336038D01*
X1275760Y332248D01*
X1277248Y330760D01*
G37*
%LPD*%
G36*
X893095Y26318D02*
X892798Y26258D01*
X863315Y26258D01*
X863029Y26313D01*
X862776Y26481D01*
X849661Y39596D01*
X849503Y39826D01*
X849438Y40122D01*
X849493Y40421D01*
X849661Y40673D01*
X851845Y42857D01*
X851845Y45783D01*
X850556Y47072D01*
X850393Y47313D01*
X850333Y47611D01*
X850333Y48598D01*
X850384Y48873D01*
X850547Y49128D01*
X850797Y49300D01*
X851095Y49360D01*
X852338Y49360D01*
X852338Y62440D01*
X850548Y62440D01*
X849501Y61393D01*
X849260Y61230D01*
X848962Y61170D01*
X848452Y61170D01*
X848177Y61221D01*
X847921Y61385D01*
X847750Y61635D01*
X847690Y61932D01*
X847690Y65173D01*
X845621Y67242D01*
X842695Y67242D01*
X841406Y65953D01*
X841164Y65790D01*
X840867Y65730D01*
X832237Y65730D01*
X831974Y65777D01*
X831716Y65936D01*
X831540Y66184D01*
X831475Y66480D01*
X831531Y66778D01*
X831698Y67031D01*
X831762Y67095D01*
X831762Y70021D01*
X829578Y72204D01*
X829420Y72435D01*
X829355Y72731D01*
X829411Y73029D01*
X829578Y73282D01*
X832306Y76009D01*
X832548Y76172D01*
X832845Y76233D01*
X865769Y76233D01*
X873959Y84422D01*
X874179Y84575D01*
X874474Y84645D01*
X874773Y84594D01*
X874879Y84526D01*
X874879Y85262D01*
X889340Y85262D01*
X889340Y88628D01*
X889391Y88903D01*
X889555Y89158D01*
X889805Y89330D01*
X890102Y89390D01*
X896398Y89390D01*
X896673Y89339D01*
X896928Y89175D01*
X897100Y88925D01*
X897160Y88628D01*
X897160Y85562D01*
X903438Y85562D01*
X903438Y90840D01*
X901606Y90840D01*
X901343Y90887D01*
X901085Y91046D01*
X900910Y91294D01*
X900844Y91590D01*
X900900Y91888D01*
X901068Y92141D01*
X901734Y92807D01*
X901975Y92970D01*
X902272Y93030D01*
X909226Y93030D01*
X909970Y93774D01*
X909970Y101826D01*
X909226Y102570D01*
X899174Y102570D01*
X898430Y101826D01*
X898430Y95532D01*
X898374Y95246D01*
X898207Y94994D01*
X896866Y93653D01*
X896625Y93490D01*
X896328Y93430D01*
X888832Y93430D01*
X888557Y93481D01*
X888302Y93645D01*
X888130Y93895D01*
X888070Y94192D01*
X888070Y101526D01*
X887326Y102270D01*
X877274Y102270D01*
X876530Y101526D01*
X876530Y99805D01*
X876483Y99541D01*
X876324Y99283D01*
X876076Y99108D01*
X875780Y99043D01*
X875489Y99097D01*
X872472Y99097D01*
X870403Y97028D01*
X870403Y94102D01*
X872472Y92033D01*
X874017Y92033D01*
X874280Y91986D01*
X874538Y91827D01*
X874713Y91579D01*
X874779Y91283D01*
X874723Y90985D01*
X874555Y90732D01*
X865141Y81318D01*
X864921Y81165D01*
X864626Y81095D01*
X864327Y81146D01*
X864072Y81309D01*
X863900Y81559D01*
X863840Y81856D01*
X863840Y83438D01*
X849760Y83438D01*
X849760Y81035D01*
X849709Y80760D01*
X849545Y80504D01*
X849295Y80333D01*
X848998Y80273D01*
X845302Y80273D01*
X845027Y80324D01*
X844772Y80487D01*
X844600Y80737D01*
X844540Y81035D01*
X844540Y83738D01*
X830460Y83738D01*
X830460Y80192D01*
X830404Y79906D01*
X830237Y79654D01*
X816515Y65932D01*
X816515Y63177D01*
X816468Y62914D01*
X816309Y62656D01*
X816061Y62480D01*
X815765Y62415D01*
X815467Y62471D01*
X815214Y62638D01*
X812065Y65788D01*
X807533Y65788D01*
X807247Y65843D01*
X806994Y66011D01*
X795646Y77359D01*
X795493Y77579D01*
X795423Y77874D01*
X795474Y78173D01*
X795637Y78428D01*
X795887Y78600D01*
X796038Y78630D01*
X796038Y90740D01*
X792982Y90740D01*
X792707Y90791D01*
X792452Y90955D01*
X792280Y91205D01*
X792220Y91502D01*
X792220Y92168D01*
X792271Y92443D01*
X792435Y92698D01*
X792685Y92870D01*
X792982Y92930D01*
X801826Y92930D01*
X802570Y93674D01*
X802570Y101726D01*
X801826Y102470D01*
X795412Y102470D01*
X795126Y102526D01*
X794874Y102693D01*
X793205Y104362D01*
X793042Y104603D01*
X792982Y104900D01*
X792982Y105338D01*
X790913Y107407D01*
X787987Y107407D01*
X785873Y105293D01*
X785871Y105283D01*
X785712Y105025D01*
X785464Y104850D01*
X785168Y104785D01*
X784870Y104840D01*
X784617Y105008D01*
X765653Y123972D01*
X765500Y124192D01*
X765430Y124487D01*
X765481Y124786D01*
X765644Y125041D01*
X765894Y125213D01*
X765930Y125220D01*
X767272Y126562D01*
X767513Y126725D01*
X767811Y126785D01*
X786220Y126785D01*
X786506Y126729D01*
X786759Y126562D01*
X812007Y101314D01*
X812170Y101072D01*
X812230Y100775D01*
X812230Y93574D01*
X812974Y92830D01*
X823026Y92830D01*
X823770Y93574D01*
X823770Y94861D01*
X823821Y95135D01*
X823985Y95391D01*
X824235Y95562D01*
X824532Y95623D01*
X826989Y95623D01*
X830429Y99062D01*
X830649Y99215D01*
X830944Y99285D01*
X831243Y99234D01*
X831498Y99071D01*
X831670Y98821D01*
X831730Y98524D01*
X831730Y95312D01*
X831674Y95026D01*
X831507Y94774D01*
X831206Y94473D01*
X830964Y94310D01*
X830667Y94250D01*
X828845Y94250D01*
X826776Y92181D01*
X826776Y89255D01*
X828845Y87186D01*
X829698Y87186D01*
X829973Y87134D01*
X830228Y86971D01*
X830400Y86721D01*
X830460Y86424D01*
X830460Y85262D01*
X836738Y85262D01*
X836738Y90540D01*
X834826Y90540D01*
X834563Y90587D01*
X834305Y90746D01*
X834130Y90994D01*
X834064Y91290D01*
X834120Y91588D01*
X834288Y91841D01*
X834954Y92507D01*
X835195Y92670D01*
X835492Y92730D01*
X842526Y92730D01*
X843270Y93474D01*
X843270Y101526D01*
X842526Y102270D01*
X835476Y102270D01*
X835213Y102317D01*
X834955Y102476D01*
X834780Y102724D01*
X834714Y103020D01*
X834770Y103318D01*
X834938Y103571D01*
X887072Y155705D01*
X887302Y155863D01*
X887598Y155928D01*
X887896Y155872D01*
X888149Y155705D01*
X888724Y155130D01*
X901276Y155130D01*
X902020Y155874D01*
X902020Y164985D01*
X901991Y165027D01*
X901926Y165323D01*
X901982Y165622D01*
X902149Y165874D01*
X903090Y166815D01*
X903090Y167299D01*
X903136Y167562D01*
X903296Y167820D01*
X903543Y167995D01*
X903839Y168060D01*
X904137Y168005D01*
X904390Y167837D01*
X971830Y100398D01*
X971983Y100178D01*
X972053Y99883D01*
X972002Y99584D01*
X971838Y99329D01*
X971588Y99157D01*
X971291Y99097D01*
X970807Y99097D01*
X968738Y97028D01*
X968738Y95205D01*
X968682Y94919D01*
X968515Y94667D01*
X939271Y65423D01*
X939051Y65270D01*
X938756Y65200D01*
X938457Y65251D01*
X938202Y65414D01*
X938030Y65664D01*
X937970Y65961D01*
X937970Y71126D01*
X937226Y71870D01*
X927174Y71870D01*
X926430Y71126D01*
X926430Y69262D01*
X926379Y68987D01*
X926215Y68732D01*
X925965Y68560D01*
X925668Y68500D01*
X879331Y68500D01*
X872224Y61393D01*
X871982Y61230D01*
X871685Y61170D01*
X871044Y61170D01*
X870908Y61077D01*
X870612Y61012D01*
X870314Y61067D01*
X870159Y61170D01*
X866044Y61170D01*
X865908Y61077D01*
X865612Y61012D01*
X865314Y61067D01*
X865159Y61170D01*
X861044Y61170D01*
X860908Y61077D01*
X860612Y61012D01*
X860314Y61067D01*
X860159Y61170D01*
X857238Y61170D01*
X856952Y61226D01*
X856699Y61393D01*
X855652Y62440D01*
X853862Y62440D01*
X853862Y49360D01*
X855652Y49360D01*
X856699Y50407D01*
X856941Y50570D01*
X857238Y50630D01*
X859560Y50630D01*
X859824Y50583D01*
X860082Y50424D01*
X860257Y50176D01*
X860322Y49880D01*
X860267Y49582D01*
X860099Y49329D01*
X860016Y49246D01*
X860016Y46320D01*
X862085Y44251D01*
X865011Y44251D01*
X867080Y46320D01*
X867080Y48142D01*
X867135Y48428D01*
X867303Y48681D01*
X869029Y50407D01*
X869270Y50570D01*
X869567Y50630D01*
X870156Y50630D01*
X870292Y50723D01*
X870588Y50788D01*
X870886Y50733D01*
X871041Y50630D01*
X874164Y50630D01*
X874427Y50583D01*
X874685Y50424D01*
X874860Y50176D01*
X874926Y49880D01*
X874870Y49582D01*
X874702Y49329D01*
X863753Y38380D01*
X863512Y38217D01*
X863215Y38157D01*
X861392Y38157D01*
X859323Y36088D01*
X859323Y33162D01*
X861392Y31093D01*
X864318Y31093D01*
X865432Y32207D01*
X865663Y32365D01*
X865959Y32431D01*
X866257Y32375D01*
X866510Y32207D01*
X867625Y31093D01*
X870551Y31093D01*
X872620Y33162D01*
X872620Y34985D01*
X872675Y35271D01*
X872843Y35523D01*
X884958Y47638D01*
X884958Y49907D01*
X885004Y50170D01*
X885164Y50428D01*
X885411Y50604D01*
X885707Y50669D01*
X885915Y50630D01*
X890126Y50630D01*
X890870Y51374D01*
X890870Y60426D01*
X890126Y61170D01*
X886044Y61170D01*
X885908Y61077D01*
X885612Y61012D01*
X885314Y61067D01*
X885159Y61170D01*
X881044Y61170D01*
X880908Y61077D01*
X880612Y61012D01*
X880314Y61067D01*
X880159Y61170D01*
X879554Y61170D01*
X879291Y61217D01*
X879032Y61376D01*
X878857Y61624D01*
X878792Y61920D01*
X878848Y62218D01*
X879015Y62471D01*
X880781Y64237D01*
X881023Y64400D01*
X881320Y64460D01*
X925668Y64460D01*
X925943Y64409D01*
X926198Y64245D01*
X926370Y63995D01*
X926430Y63698D01*
X926430Y63074D01*
X927174Y62330D01*
X934339Y62330D01*
X934602Y62283D01*
X934860Y62124D01*
X935035Y61876D01*
X935101Y61580D01*
X935045Y61282D01*
X934877Y61029D01*
X903941Y30093D01*
X903721Y29940D01*
X903426Y29870D01*
X903127Y29921D01*
X902872Y30084D01*
X902835Y30138D01*
X893560Y30138D01*
X893560Y27020D01*
X893509Y26745D01*
X893345Y26489D01*
X893095Y26318D01*
G37*
%LPC*%
G36*
X857562Y84962D02*
X863840Y84962D01*
X863840Y86424D01*
X863891Y86698D01*
X864055Y86954D01*
X864305Y87125D01*
X864602Y87186D01*
X865011Y87186D01*
X867080Y89255D01*
X867080Y92181D01*
X865011Y94250D01*
X863332Y94250D01*
X863057Y94301D01*
X862802Y94464D01*
X862630Y94714D01*
X862570Y95012D01*
X862570Y101226D01*
X861826Y101970D01*
X851774Y101970D01*
X851030Y101226D01*
X851030Y93174D01*
X851774Y92430D01*
X858663Y92430D01*
X858949Y92374D01*
X859201Y92207D01*
X859792Y91616D01*
X859955Y91374D01*
X860016Y91077D01*
X860016Y91002D01*
X859964Y90727D01*
X859801Y90472D01*
X859551Y90300D01*
X859254Y90240D01*
X857562Y90240D01*
X857562Y84962D01*
G37*
G36*
X904962Y85562D02*
X911240Y85562D01*
X911240Y89352D01*
X909752Y90840D01*
X904962Y90840D01*
X904962Y85562D01*
G37*
G36*
X797562Y85462D02*
X803840Y85462D01*
X803840Y89252D01*
X802352Y90740D01*
X797562Y90740D01*
X797562Y85462D01*
G37*
G36*
X818762Y85362D02*
X825040Y85362D01*
X825040Y89152D01*
X823552Y90640D01*
X818762Y90640D01*
X818762Y85362D01*
G37*
G36*
X810960Y85362D02*
X817238Y85362D01*
X817238Y90640D01*
X812448Y90640D01*
X810960Y89152D01*
X810960Y85362D01*
G37*
G36*
X838262Y85262D02*
X844540Y85262D01*
X844540Y89052D01*
X843052Y90540D01*
X838262Y90540D01*
X838262Y85262D01*
G37*
G36*
X849760Y84962D02*
X856038Y84962D01*
X856038Y90240D01*
X851248Y90240D01*
X849760Y88752D01*
X849760Y84962D01*
G37*
G36*
X925160Y80862D02*
X931438Y80862D01*
X931438Y86140D01*
X926648Y86140D01*
X925160Y84652D01*
X925160Y80862D01*
G37*
G36*
X932962Y80862D02*
X939240Y80862D01*
X939240Y84652D01*
X937752Y86140D01*
X932962Y86140D01*
X932962Y80862D01*
G37*
G36*
X904962Y78760D02*
X909752Y78760D01*
X911240Y80248D01*
X911240Y84038D01*
X904962Y84038D01*
X904962Y78760D01*
G37*
G36*
X898648Y78760D02*
X903438Y78760D01*
X903438Y84038D01*
X897160Y84038D01*
X897160Y80248D01*
X898648Y78760D01*
G37*
G36*
X797562Y78660D02*
X802352Y78660D01*
X803840Y80148D01*
X803840Y83938D01*
X797562Y83938D01*
X797562Y78660D01*
G37*
G36*
X812448Y78560D02*
X817238Y78560D01*
X817238Y83838D01*
X810960Y83838D01*
X810960Y80048D01*
X812448Y78560D01*
G37*
G36*
X818762Y78560D02*
X823552Y78560D01*
X825040Y80048D01*
X825040Y83838D01*
X818762Y83838D01*
X818762Y78560D01*
G37*
G36*
X883062Y78460D02*
X887852Y78460D01*
X889340Y79948D01*
X889340Y83738D01*
X883062Y83738D01*
X883062Y78460D01*
G37*
G36*
X876748Y78460D02*
X881538Y78460D01*
X881538Y83738D01*
X875260Y83738D01*
X875260Y79948D01*
X876748Y78460D01*
G37*
G36*
X926648Y74060D02*
X931438Y74060D01*
X931438Y79338D01*
X925160Y79338D01*
X925160Y75548D01*
X926648Y74060D01*
G37*
G36*
X932962Y74060D02*
X937752Y74060D01*
X939240Y75548D01*
X939240Y79338D01*
X932962Y79338D01*
X932962Y74060D01*
G37*
G36*
X898862Y31662D02*
X902640Y31662D01*
X902640Y35952D01*
X901152Y37440D01*
X898862Y37440D01*
X898862Y31662D01*
G37*
G36*
X893560Y31662D02*
X897338Y31662D01*
X897338Y37440D01*
X895048Y37440D01*
X893560Y35952D01*
X893560Y31662D01*
G37*
%LPD*%
G36*
X1698773Y-99678D02*
X1698476Y-99738D01*
X925524Y-99738D01*
X925249Y-99687D01*
X924994Y-99523D01*
X924822Y-99273D01*
X924762Y-98976D01*
X924762Y-2840D01*
X924813Y-2565D01*
X924977Y-2309D01*
X925227Y-2138D01*
X925524Y-2078D01*
X1049060Y-2078D01*
X1049345Y-2133D01*
X1049598Y-2301D01*
X1095080Y-47783D01*
X1479635Y-47783D01*
X1554659Y27242D01*
X1554879Y27395D01*
X1555174Y27465D01*
X1555473Y27414D01*
X1555728Y27250D01*
X1555900Y27000D01*
X1555960Y26703D01*
X1555960Y26542D01*
X1561762Y26542D01*
X1561762Y18160D01*
X1564186Y18160D01*
X1565192Y19166D01*
X1565411Y19319D01*
X1565706Y19389D01*
X1566005Y19338D01*
X1566261Y19174D01*
X1566432Y18924D01*
X1566493Y18627D01*
X1566493Y17080D01*
X1566437Y16794D01*
X1566269Y16541D01*
X1559568Y9839D01*
X1559568Y3732D01*
X1559516Y3457D01*
X1559353Y3202D01*
X1559103Y3030D01*
X1558806Y2970D01*
X1558340Y2970D01*
X1557230Y1860D01*
X1557230Y-8620D01*
X1558340Y-9730D01*
X1563704Y-9730D01*
X1563794Y-9669D01*
X1564090Y-9604D01*
X1564388Y-9659D01*
X1564641Y-9827D01*
X1565814Y-11000D01*
X1568238Y-11000D01*
X1568238Y4240D01*
X1565814Y4240D01*
X1564908Y3334D01*
X1564689Y3181D01*
X1564394Y3112D01*
X1564095Y3162D01*
X1563839Y3326D01*
X1563668Y3576D01*
X1563608Y3873D01*
X1563608Y7850D01*
X1563663Y8136D01*
X1563831Y8389D01*
X1570533Y15091D01*
X1570533Y18668D01*
X1570584Y18943D01*
X1570747Y19198D01*
X1570997Y19370D01*
X1571295Y19430D01*
X1571660Y19430D01*
X1572461Y20231D01*
X1572692Y20389D01*
X1572988Y20454D01*
X1573286Y20399D01*
X1573539Y20231D01*
X1574340Y19430D01*
X1577765Y19430D01*
X1578051Y19374D01*
X1578304Y19207D01*
X1606434Y-8924D01*
X1606597Y-9165D01*
X1606658Y-9462D01*
X1606658Y-34268D01*
X1606606Y-34543D01*
X1606443Y-34798D01*
X1606193Y-34970D01*
X1605896Y-35030D01*
X1596674Y-35030D01*
X1595930Y-35774D01*
X1595930Y-36691D01*
X1595879Y-36965D01*
X1595715Y-37221D01*
X1595465Y-37392D01*
X1595168Y-37453D01*
X1594532Y-37453D01*
X1594257Y-37401D01*
X1594002Y-37238D01*
X1593830Y-36988D01*
X1593770Y-36691D01*
X1593770Y-35774D01*
X1593026Y-35030D01*
X1588017Y-35030D01*
X1587731Y-34974D01*
X1587479Y-34807D01*
X1579758Y-27086D01*
X1579595Y-26845D01*
X1579535Y-26548D01*
X1579535Y-10361D01*
X1579582Y-10097D01*
X1579741Y-9839D01*
X1579989Y-9664D01*
X1580285Y-9599D01*
X1580583Y-9654D01*
X1580836Y-9822D01*
X1582014Y-11000D01*
X1584438Y-11000D01*
X1584438Y4240D01*
X1582014Y4240D01*
X1580741Y2967D01*
X1580510Y2809D01*
X1580214Y2744D01*
X1579916Y2799D01*
X1579663Y2967D01*
X1579660Y2970D01*
X1574296Y2970D01*
X1574206Y2909D01*
X1573910Y2844D01*
X1573612Y2899D01*
X1573359Y3067D01*
X1572186Y4240D01*
X1569762Y4240D01*
X1569762Y-11000D01*
X1572186Y-11000D01*
X1573359Y-9827D01*
X1573590Y-9669D01*
X1573886Y-9604D01*
X1574184Y-9659D01*
X1574291Y-9730D01*
X1574733Y-9730D01*
X1575008Y-9781D01*
X1575263Y-9945D01*
X1575435Y-10195D01*
X1575495Y-10492D01*
X1575495Y-28537D01*
X1579317Y-32359D01*
X1579470Y-32579D01*
X1579540Y-32874D01*
X1579489Y-33173D01*
X1579326Y-33428D01*
X1579076Y-33600D01*
X1578779Y-33660D01*
X1574962Y-33660D01*
X1574962Y-45740D01*
X1579752Y-45740D01*
X1581409Y-44083D01*
X1581640Y-43925D01*
X1581936Y-43860D01*
X1582234Y-43915D01*
X1582487Y-44083D01*
X1582974Y-44570D01*
X1593026Y-44570D01*
X1593770Y-43826D01*
X1593770Y-42255D01*
X1593821Y-41980D01*
X1593985Y-41724D01*
X1594235Y-41553D01*
X1594532Y-41493D01*
X1595168Y-41493D01*
X1595443Y-41544D01*
X1595698Y-41707D01*
X1595870Y-41957D01*
X1595930Y-42255D01*
X1595930Y-43826D01*
X1596674Y-44570D01*
X1603731Y-44570D01*
X1603994Y-44617D01*
X1604253Y-44776D01*
X1604428Y-45024D01*
X1604493Y-45320D01*
X1604437Y-45618D01*
X1604270Y-45871D01*
X1602334Y-47807D01*
X1602092Y-47970D01*
X1601795Y-48030D01*
X1596674Y-48030D01*
X1595930Y-48774D01*
X1595930Y-53191D01*
X1595883Y-53454D01*
X1595724Y-53713D01*
X1595476Y-53888D01*
X1595180Y-53953D01*
X1594882Y-53897D01*
X1594629Y-53730D01*
X1593993Y-53094D01*
X1593830Y-52852D01*
X1593770Y-52555D01*
X1593770Y-48774D01*
X1593026Y-48030D01*
X1582974Y-48030D01*
X1582230Y-48774D01*
X1582230Y-56826D01*
X1582974Y-57570D01*
X1592440Y-57570D01*
X1592726Y-57626D01*
X1592979Y-57793D01*
X1596068Y-60883D01*
X1607437Y-60883D01*
X1613468Y-54852D01*
X1613468Y144D01*
X1588993Y24619D01*
X1588830Y24860D01*
X1588770Y25157D01*
X1588770Y31020D01*
X1587554Y32236D01*
X1587384Y32345D01*
X1587213Y32595D01*
X1587153Y32892D01*
X1587153Y44492D01*
X1587208Y44778D01*
X1587376Y45031D01*
X1588665Y46320D01*
X1588665Y49246D01*
X1586481Y51429D01*
X1586323Y51660D01*
X1586258Y51956D01*
X1586313Y52254D01*
X1586481Y52507D01*
X1592544Y58570D01*
X1592786Y58733D01*
X1593083Y58793D01*
X1594906Y58793D01*
X1596975Y60862D01*
X1596975Y63788D01*
X1596968Y63794D01*
X1596815Y64014D01*
X1596746Y64309D01*
X1596796Y64608D01*
X1596960Y64863D01*
X1597210Y65035D01*
X1597507Y65095D01*
X1658300Y65095D01*
X1675850Y82645D01*
X1675850Y109168D01*
X1675901Y109443D01*
X1676065Y109698D01*
X1676315Y109870D01*
X1676612Y109930D01*
X1697026Y109930D01*
X1697937Y110841D01*
X1698157Y110994D01*
X1698452Y111064D01*
X1698751Y111013D01*
X1699006Y110850D01*
X1699178Y110600D01*
X1699238Y110302D01*
X1699238Y68098D01*
X1699191Y67834D01*
X1699032Y67576D01*
X1698784Y67401D01*
X1698488Y67336D01*
X1698190Y67391D01*
X1697937Y67559D01*
X1697026Y68470D01*
X1675974Y68470D01*
X1675230Y67726D01*
X1675230Y54674D01*
X1675974Y53930D01*
X1697026Y53930D01*
X1697937Y54841D01*
X1698157Y54994D01*
X1698452Y55064D01*
X1698751Y55013D01*
X1699006Y54850D01*
X1699178Y54600D01*
X1699238Y54302D01*
X1699238Y-98976D01*
X1699187Y-99251D01*
X1699023Y-99506D01*
X1698773Y-99678D01*
G37*
%LPC*%
G36*
X1557814Y18160D02*
X1560238Y18160D01*
X1560238Y25018D01*
X1555960Y25018D01*
X1555960Y20014D01*
X1557814Y18160D01*
G37*
G36*
X1585962Y-2618D02*
X1590240Y-2618D01*
X1590240Y2386D01*
X1588386Y4240D01*
X1585962Y4240D01*
X1585962Y-2618D01*
G37*
G36*
X1585962Y-11000D02*
X1588386Y-11000D01*
X1590240Y-9146D01*
X1590240Y-4142D01*
X1585962Y-4142D01*
X1585962Y-11000D01*
G37*
G36*
X1561762Y-45740D02*
X1566552Y-45740D01*
X1567061Y-45231D01*
X1567292Y-45073D01*
X1567588Y-45008D01*
X1567886Y-45063D01*
X1568139Y-45231D01*
X1568648Y-45740D01*
X1573438Y-45740D01*
X1573438Y-33660D01*
X1568648Y-33660D01*
X1568139Y-34169D01*
X1567908Y-34327D01*
X1567612Y-34392D01*
X1567314Y-34337D01*
X1567061Y-34169D01*
X1566552Y-33660D01*
X1561762Y-33660D01*
X1561762Y-45740D01*
G37*
G36*
X1553960Y-38938D02*
X1560238Y-38938D01*
X1560238Y-33660D01*
X1555448Y-33660D01*
X1553960Y-35148D01*
X1553960Y-38938D01*
G37*
G36*
X1555448Y-45740D02*
X1560238Y-45740D01*
X1560238Y-40462D01*
X1553960Y-40462D01*
X1553960Y-44252D01*
X1555448Y-45740D01*
G37*
G36*
X1555974Y-57470D02*
X1566026Y-57470D01*
X1566770Y-56726D01*
X1566770Y-55412D01*
X1566821Y-55137D01*
X1566985Y-54882D01*
X1567235Y-54710D01*
X1567532Y-54650D01*
X1567668Y-54650D01*
X1567943Y-54701D01*
X1568198Y-54865D01*
X1568370Y-55115D01*
X1568430Y-55412D01*
X1568430Y-56726D01*
X1569174Y-57470D01*
X1579226Y-57470D01*
X1579970Y-56726D01*
X1579970Y-48674D01*
X1579226Y-47930D01*
X1569174Y-47930D01*
X1568430Y-48674D01*
X1568430Y-49848D01*
X1568379Y-50123D01*
X1568215Y-50378D01*
X1567965Y-50550D01*
X1567668Y-50610D01*
X1567532Y-50610D01*
X1567257Y-50559D01*
X1567002Y-50395D01*
X1566830Y-50145D01*
X1566770Y-49848D01*
X1566770Y-48674D01*
X1566026Y-47930D01*
X1555974Y-47930D01*
X1555230Y-48674D01*
X1555230Y-49848D01*
X1555179Y-50123D01*
X1555015Y-50378D01*
X1554765Y-50550D01*
X1554468Y-50610D01*
X1044811Y-50610D01*
X1044525Y-50554D01*
X1044272Y-50387D01*
X1042983Y-49098D01*
X1040057Y-49098D01*
X1037988Y-51167D01*
X1037988Y-54093D01*
X1040057Y-56162D01*
X1042983Y-56162D01*
X1044272Y-54873D01*
X1044513Y-54710D01*
X1044811Y-54650D01*
X1554468Y-54650D01*
X1554743Y-54701D01*
X1554998Y-54865D01*
X1555170Y-55115D01*
X1555230Y-55412D01*
X1555230Y-56726D01*
X1555974Y-57470D01*
G37*
%LPD*%
G36*
X780744Y66328D02*
X780448Y66263D01*
X780150Y66318D01*
X779897Y66486D01*
X779141Y67242D01*
X776215Y67242D01*
X776151Y67178D01*
X775931Y67025D01*
X775636Y66956D01*
X775337Y67006D01*
X775082Y67170D01*
X774910Y67420D01*
X774850Y67717D01*
X774850Y71472D01*
X767456Y78866D01*
X767293Y79108D01*
X767233Y79405D01*
X767233Y89477D01*
X765868Y90841D01*
X765710Y91071D01*
X765645Y91367D01*
X765701Y91666D01*
X765868Y91918D01*
X768052Y94102D01*
X768052Y94168D01*
X768103Y94443D01*
X768267Y94698D01*
X768517Y94870D01*
X768814Y94930D01*
X770068Y94930D01*
X770343Y94879D01*
X770598Y94715D01*
X770770Y94465D01*
X770830Y94168D01*
X770830Y92974D01*
X771574Y92230D01*
X779616Y92230D01*
X779891Y92179D01*
X780146Y92015D01*
X780318Y91765D01*
X780378Y91468D01*
X780378Y90802D01*
X780327Y90527D01*
X780163Y90272D01*
X779913Y90100D01*
X779616Y90040D01*
X777362Y90040D01*
X777362Y77960D01*
X780436Y77960D01*
X780710Y77909D01*
X780966Y77745D01*
X781137Y77495D01*
X781198Y77198D01*
X781198Y67025D01*
X781151Y66761D01*
X780991Y66503D01*
X780744Y66328D01*
G37*
%LPC*%
G36*
X769560Y84762D02*
X775838Y84762D01*
X775838Y90040D01*
X771048Y90040D01*
X769560Y88552D01*
X769560Y84762D01*
G37*
G36*
X771048Y77960D02*
X775838Y77960D01*
X775838Y83238D01*
X769560Y83238D01*
X769560Y79448D01*
X771048Y77960D01*
G37*
%LPD*%
G36*
X1477322Y-42182D02*
X1477025Y-42243D01*
X1297232Y-42243D01*
X1296957Y-42191D01*
X1296702Y-42028D01*
X1296530Y-41778D01*
X1296470Y-41481D01*
X1296470Y-33322D01*
X1296426Y-33257D01*
X1296361Y-32961D01*
X1296416Y-32663D01*
X1296584Y-32410D01*
X1298359Y-30636D01*
X1299765Y-29229D01*
X1299765Y-19246D01*
X1297197Y-16678D01*
X1289895Y-16678D01*
X1289609Y-16622D01*
X1289356Y-16454D01*
X1268133Y4769D01*
X1267970Y5010D01*
X1267910Y5307D01*
X1267910Y39074D01*
X1267959Y39343D01*
X1268120Y39599D01*
X1268369Y39773D01*
X1268666Y39836D01*
X1268964Y39778D01*
X1272458Y38330D01*
X1276942Y38330D01*
X1281084Y40046D01*
X1284254Y43216D01*
X1285970Y47358D01*
X1285970Y51842D01*
X1284254Y55984D01*
X1281084Y59154D01*
X1276942Y60870D01*
X1272458Y60870D01*
X1268316Y59154D01*
X1265146Y55984D01*
X1263430Y51842D01*
X1263430Y47229D01*
X1263379Y46954D01*
X1263215Y46699D01*
X1262965Y46527D01*
X1262668Y46467D01*
X1260965Y46467D01*
X1258896Y44398D01*
X1258896Y41472D01*
X1260965Y39403D01*
X1263108Y39403D01*
X1263383Y39352D01*
X1263638Y39188D01*
X1263810Y38938D01*
X1263870Y38641D01*
X1263870Y3318D01*
X1285707Y-18519D01*
X1285865Y-18750D01*
X1285930Y-19046D01*
X1285875Y-19344D01*
X1285707Y-19597D01*
X1284930Y-20374D01*
X1284930Y-20706D01*
X1284879Y-20980D01*
X1284715Y-21236D01*
X1284465Y-21407D01*
X1284168Y-21468D01*
X1260420Y-21468D01*
X1260145Y-21416D01*
X1259889Y-21253D01*
X1259718Y-21003D01*
X1259658Y-20706D01*
X1259658Y26770D01*
X1255033Y31394D01*
X1254870Y31636D01*
X1254810Y31933D01*
X1254810Y80953D01*
X1254861Y81228D01*
X1255025Y81483D01*
X1255275Y81655D01*
X1255572Y81715D01*
X1640968Y81715D01*
X1641243Y81664D01*
X1641498Y81500D01*
X1641670Y81250D01*
X1641730Y80953D01*
X1641730Y80674D01*
X1641767Y80637D01*
X1641925Y80406D01*
X1641990Y80110D01*
X1641935Y79812D01*
X1641767Y79559D01*
X1640460Y78252D01*
X1640460Y74962D01*
X1650512Y74962D01*
X1650512Y73438D01*
X1640460Y73438D01*
X1640460Y71397D01*
X1640409Y71122D01*
X1640245Y70867D01*
X1639995Y70695D01*
X1639698Y70635D01*
X1590218Y70635D01*
X1477563Y-42019D01*
X1477322Y-42182D01*
G37*
%LPC*%
G36*
X1282560Y5862D02*
X1297040Y5862D01*
X1297040Y11002D01*
X1295552Y12490D01*
X1295376Y12490D01*
X1295112Y12537D01*
X1294854Y12696D01*
X1294679Y12944D01*
X1294614Y13240D01*
X1294669Y13538D01*
X1294837Y13791D01*
X1295770Y14724D01*
X1295770Y25476D01*
X1295026Y26220D01*
X1284574Y26220D01*
X1283830Y25476D01*
X1283830Y16957D01*
X1283774Y16671D01*
X1283607Y16419D01*
X1283408Y16220D01*
X1283167Y16057D01*
X1282870Y15997D01*
X1281047Y15997D01*
X1278978Y13928D01*
X1278978Y11002D01*
X1281047Y8933D01*
X1281798Y8933D01*
X1282073Y8882D01*
X1282328Y8718D01*
X1282500Y8468D01*
X1282560Y8171D01*
X1282560Y5862D01*
G37*
G36*
X1290562Y-2290D02*
X1295552Y-2290D01*
X1297040Y-802D01*
X1297040Y4338D01*
X1290562Y4338D01*
X1290562Y-2290D01*
G37*
G36*
X1284048Y-2290D02*
X1289038Y-2290D01*
X1289038Y4338D01*
X1282560Y4338D01*
X1282560Y-802D01*
X1284048Y-2290D01*
G37*
%LPD*%
G36*
X1573308Y31171D02*
X1573012Y31106D01*
X1572714Y31161D01*
X1572461Y31329D01*
X1571660Y32130D01*
X1566296Y32130D01*
X1566206Y32069D01*
X1565910Y32004D01*
X1565612Y32059D01*
X1565359Y32227D01*
X1564186Y33400D01*
X1562657Y33400D01*
X1562394Y33447D01*
X1562136Y33606D01*
X1561960Y33854D01*
X1561895Y34150D01*
X1561951Y34448D01*
X1562118Y34701D01*
X1574194Y46777D01*
X1574414Y46930D01*
X1574709Y47000D01*
X1575008Y46949D01*
X1575263Y46785D01*
X1575435Y46535D01*
X1575495Y46238D01*
X1575495Y32892D01*
X1575444Y32617D01*
X1575280Y32362D01*
X1575030Y32190D01*
X1574733Y32130D01*
X1574340Y32130D01*
X1573539Y31329D01*
X1573308Y31171D01*
G37*
G36*
X823770Y187540D02*
X770430Y187540D01*
X770430Y207860D01*
X780508Y207860D01*
X782208Y205256D01*
X784438Y202538D01*
X787152Y200311D01*
X790248Y198657D01*
X793598Y197641D01*
X797100Y197827D01*
X800602Y197641D01*
X803952Y198657D01*
X807048Y200311D01*
X809762Y202538D01*
X811992Y205256D01*
X813692Y207860D01*
X823770Y207860D01*
X823770Y187540D01*
G37*
G36*
X823770Y187540D02*
X770430Y187540D01*
X770430Y207860D01*
X780508Y207860D01*
X782208Y205256D01*
X784438Y202538D01*
X787152Y200311D01*
X790248Y198657D01*
X793598Y197641D01*
X797100Y197827D01*
X800602Y197641D01*
X803952Y198657D01*
X807048Y200311D01*
X809762Y202538D01*
X811992Y205256D01*
X813692Y207860D01*
X823770Y207860D01*
X823770Y187540D01*
G37*
G36*
X780508Y222540D02*
X770430Y222540D01*
X770430Y242860D01*
X823770Y242860D01*
X823770Y222540D01*
X813692Y222540D01*
X811992Y225144D01*
X809762Y227862D01*
X807048Y230089D01*
X803952Y231743D01*
X800602Y232759D01*
X797100Y232573D01*
X793598Y232759D01*
X790248Y231743D01*
X787152Y230089D01*
X784438Y227862D01*
X782208Y225144D01*
X780508Y222540D01*
G37*
G36*
X780508Y222540D02*
X770430Y222540D01*
X770430Y242860D01*
X823770Y242860D01*
X823770Y222540D01*
X813692Y222540D01*
X811992Y225144D01*
X809762Y227862D01*
X807048Y230089D01*
X803952Y231743D01*
X800602Y232759D01*
X797100Y232573D01*
X793598Y232759D01*
X790248Y231743D01*
X787152Y230089D01*
X784438Y227862D01*
X782208Y225144D01*
X780508Y222540D01*
G37*
D10*
X507800Y988988D03*
X472800Y988988D03*
X472800Y973988D03*
X507800Y973988D03*
D11*
X1574200Y-52700D03*
X1574200Y-39700D03*
X608100Y972500D03*
X608100Y985500D03*
D12*
X996800Y355300D03*
X996800Y333300D03*
D13*
X1139200Y441500D03*
X1152200Y441500D03*
X1152400Y311900D03*
X1165400Y311900D03*
D11*
X1282800Y323800D03*
X1282800Y336800D03*
X1561000Y-52700D03*
X1561000Y-39700D03*
X1265000Y464300D03*
X1265000Y477300D03*
D14*
X1251000Y315600D03*
X1251000Y345600D03*
D11*
X957900Y205900D03*
X957900Y192900D03*
D13*
X1479200Y391200D03*
X1492200Y391200D03*
D11*
X206900Y972600D03*
X206900Y985600D03*
D13*
X1478800Y372700D03*
X1491800Y372700D03*
D11*
X457200Y984822D03*
X457200Y971822D03*
X1002800Y258800D03*
X1002800Y245800D03*
X936800Y341300D03*
X936800Y354300D03*
X91600Y887100D03*
X91600Y900100D03*
D15*
X1207300Y442100D03*
X1192300Y442100D03*
D11*
X520000Y917300D03*
X520000Y904300D03*
D16*
X1468500Y429000D03*
X1468500Y419500D03*
X1468500Y410000D03*
X1493500Y410000D03*
X1493500Y419500D03*
X1493500Y429000D03*
D17*
X1174800Y4700D03*
X1174800Y19700D03*
X1139800Y4500D03*
X1139800Y19500D03*
X1101300Y4300D03*
X1101300Y19300D03*
D18*
X1150700Y331300D03*
X1150700Y352300D03*
D19*
X779300Y272600D03*
X814300Y272600D03*
X895700Y199100D03*
X930700Y199100D03*
X895000Y160400D03*
X930000Y160400D03*
D17*
X1249300Y4300D03*
X1249300Y19300D03*
D20*
X883200Y494700D03*
X904200Y494700D03*
D17*
X1289800Y5100D03*
X1289800Y20100D03*
X1211800Y4400D03*
X1211800Y19400D03*
D11*
X932200Y80100D03*
X932200Y67100D03*
X796800Y84700D03*
X796800Y97700D03*
X776600Y84000D03*
X776600Y97000D03*
X756400Y84000D03*
X756400Y97000D03*
X591800Y101000D03*
X591800Y114000D03*
X904200Y84800D03*
X904200Y97800D03*
X882300Y84500D03*
X882300Y97500D03*
X856800Y84200D03*
X856800Y97200D03*
X837500Y84500D03*
X837500Y97500D03*
X818000Y84600D03*
X818000Y97600D03*
D21*
X476200Y918300D03*
X476200Y908800D03*
X476200Y899300D03*
X504200Y899300D03*
X504200Y918300D03*
X1174500Y351900D03*
X1174500Y342400D03*
X1174500Y332900D03*
X1202500Y332900D03*
X1202500Y351900D03*
D22*
X888100Y55900D03*
X883100Y55900D03*
X878100Y55900D03*
X873100Y55900D03*
X868100Y55900D03*
X863100Y55900D03*
X858100Y55900D03*
X853100Y55900D03*
X848100Y55900D03*
X843100Y55900D03*
X838100Y55900D03*
X833100Y55900D03*
X828100Y55900D03*
X823100Y55900D03*
X818100Y55900D03*
X813100Y55900D03*
X808100Y55900D03*
X803100Y55900D03*
X798100Y55900D03*
X793100Y55900D03*
X788100Y55900D03*
X783100Y55900D03*
X778100Y55900D03*
X773100Y55900D03*
D23*
X898100Y30900D03*
X763100Y30900D03*
D24*
X1624890Y402900D03*
X1624890Y410900D03*
X1624890Y423900D03*
X1624890Y433900D03*
X1624890Y438900D03*
X1624890Y448900D03*
X1624890Y461900D03*
X1624890Y469900D03*
X1624890Y466900D03*
X1624890Y458900D03*
X1624890Y453900D03*
X1624890Y443900D03*
X1624890Y428900D03*
X1624890Y418900D03*
X1624890Y413900D03*
X1624890Y405900D03*
D25*
X1669940Y385300D03*
X1669940Y487500D03*
X1630640Y385300D03*
X1630640Y487500D03*
D26*
X1686500Y61200D03*
X1686500Y117200D03*
D27*
X1649750Y74200D03*
X1649750Y84200D03*
X1649750Y94200D03*
X1649750Y104200D03*
D28*
X154762Y738300D03*
X154762Y795300D03*
D29*
X12262Y708300D03*
X22262Y839800D03*
D30*
X50762Y756300D03*
X54762Y767300D03*
X50762Y778300D03*
X48762Y789300D03*
X50762Y800300D03*
X48762Y811300D03*
X50762Y822300D03*
X50762Y833300D03*
D28*
X154762Y766800D03*
X154762Y823800D03*
D31*
X797100Y238060D03*
X797100Y192340D03*
D32*
X1259601Y416700D03*
X1259601Y426200D03*
X1259601Y435700D03*
X1233599Y435700D03*
X1233599Y416700D03*
D33*
X1557600Y331500D03*
X1512600Y331500D03*
D20*
X1302500Y392500D03*
X1321500Y392500D03*
X1312000Y413500D03*
D18*
X736300Y171000D03*
X736300Y152000D03*
X757300Y161500D03*
D34*
X663300Y55300D03*
X676300Y55300D03*
X669800Y76300D03*
D11*
X193000Y317200D03*
X193000Y330200D03*
X1290700Y-37400D03*
X1290700Y-24400D03*
D13*
X1193900Y430000D03*
X1206900Y430000D03*
D11*
X1601700Y-52800D03*
X1601700Y-39800D03*
X936900Y446100D03*
X936900Y459100D03*
X1132100Y335500D03*
X1132100Y348500D03*
X651900Y-8800D03*
X651900Y4200D03*
D13*
X892300Y316000D03*
X879300Y316000D03*
D11*
X1521600Y444100D03*
X1521600Y457100D03*
X1419700Y433400D03*
X1419700Y420400D03*
X1241000Y384000D03*
X1241000Y397000D03*
X1588000Y-52800D03*
X1588000Y-39800D03*
D13*
X696900Y33300D03*
X709900Y33300D03*
X622500Y40800D03*
X635500Y40800D03*
D11*
X1212200Y-37800D03*
X1212200Y-24800D03*
X1176200Y-38100D03*
X1176200Y-25100D03*
X1139900Y-38100D03*
X1139900Y-25100D03*
X1101400Y-37900D03*
X1101400Y-24900D03*
X1250400Y-37700D03*
X1250400Y-24700D03*
D10*
X255100Y988988D03*
X220100Y988988D03*
X220100Y973988D03*
X255100Y973988D03*
D11*
X522600Y972400D03*
X522600Y985400D03*
D13*
X888500Y464600D03*
X901500Y464600D03*
D11*
X676100Y972200D03*
X676100Y985200D03*
D13*
X779300Y159500D03*
X792300Y159500D03*
D11*
X270500Y972400D03*
X270500Y985400D03*
D35*
X1562875Y30235D02*
X1562875Y21325D01*
X1559125Y21325D01*
X1559125Y30235D01*
X1562875Y30235D01*
X1562875Y22512D02*
X1559125Y22512D01*
X1559125Y23699D02*
X1562875Y23699D01*
X1562875Y24886D02*
X1559125Y24886D01*
X1559125Y26073D02*
X1562875Y26073D01*
X1562875Y27260D02*
X1559125Y27260D01*
X1559125Y28447D02*
X1562875Y28447D01*
X1562875Y29634D02*
X1559125Y29634D01*
X1570875Y30235D02*
X1570875Y21325D01*
X1567125Y21325D01*
X1567125Y30235D01*
X1570875Y30235D01*
X1570875Y22512D02*
X1567125Y22512D01*
X1567125Y23699D02*
X1570875Y23699D01*
X1570875Y24886D02*
X1567125Y24886D01*
X1567125Y26073D02*
X1570875Y26073D01*
X1570875Y27260D02*
X1567125Y27260D01*
X1567125Y28447D02*
X1570875Y28447D01*
X1570875Y29634D02*
X1567125Y29634D01*
X1578875Y30235D02*
X1578875Y21325D01*
X1575125Y21325D01*
X1575125Y30235D01*
X1578875Y30235D01*
X1578875Y22512D02*
X1575125Y22512D01*
X1575125Y23699D02*
X1578875Y23699D01*
X1578875Y24886D02*
X1575125Y24886D01*
X1575125Y26073D02*
X1578875Y26073D01*
X1578875Y27260D02*
X1575125Y27260D01*
X1575125Y28447D02*
X1578875Y28447D01*
X1578875Y29634D02*
X1575125Y29634D01*
X1586875Y30235D02*
X1586875Y21325D01*
X1583125Y21325D01*
X1583125Y30235D01*
X1586875Y30235D01*
X1586875Y22512D02*
X1583125Y22512D01*
X1583125Y23699D02*
X1586875Y23699D01*
X1586875Y24886D02*
X1583125Y24886D01*
X1583125Y26073D02*
X1586875Y26073D01*
X1586875Y27260D02*
X1583125Y27260D01*
X1583125Y28447D02*
X1586875Y28447D01*
X1586875Y29634D02*
X1583125Y29634D01*
X1587075Y1075D02*
X1587075Y-7835D01*
X1583325Y-7835D01*
X1583325Y1075D01*
X1587075Y1075D01*
X1587075Y-6648D02*
X1583325Y-6648D01*
X1583325Y-5461D02*
X1587075Y-5461D01*
X1587075Y-4274D02*
X1583325Y-4274D01*
X1583325Y-3087D02*
X1587075Y-3087D01*
X1587075Y-1900D02*
X1583325Y-1900D01*
X1583325Y-713D02*
X1587075Y-713D01*
X1587075Y474D02*
X1583325Y474D01*
X1578875Y1075D02*
X1578875Y-7835D01*
X1575125Y-7835D01*
X1575125Y1075D01*
X1578875Y1075D01*
X1578875Y-6648D02*
X1575125Y-6648D01*
X1575125Y-5461D02*
X1578875Y-5461D01*
X1578875Y-4274D02*
X1575125Y-4274D01*
X1575125Y-3087D02*
X1578875Y-3087D01*
X1578875Y-1900D02*
X1575125Y-1900D01*
X1575125Y-713D02*
X1578875Y-713D01*
X1578875Y474D02*
X1575125Y474D01*
X1570875Y1075D02*
X1570875Y-7835D01*
X1567125Y-7835D01*
X1567125Y1075D01*
X1570875Y1075D01*
X1570875Y-6648D02*
X1567125Y-6648D01*
X1567125Y-5461D02*
X1570875Y-5461D01*
X1570875Y-4274D02*
X1567125Y-4274D01*
X1567125Y-3087D02*
X1570875Y-3087D01*
X1570875Y-1900D02*
X1567125Y-1900D01*
X1567125Y-713D02*
X1570875Y-713D01*
X1570875Y474D02*
X1567125Y474D01*
X1562875Y1075D02*
X1562875Y-7835D01*
X1559125Y-7835D01*
X1559125Y1075D01*
X1562875Y1075D01*
X1562875Y-6648D02*
X1559125Y-6648D01*
X1559125Y-5461D02*
X1562875Y-5461D01*
X1562875Y-4274D02*
X1559125Y-4274D01*
X1559125Y-3087D02*
X1562875Y-3087D01*
X1562875Y-1900D02*
X1559125Y-1900D01*
X1559125Y-713D02*
X1562875Y-713D01*
X1562875Y474D02*
X1559125Y474D01*
D36*
X615580Y-3600D03*
X630820Y-3600D03*
D37*
X31400Y593600D03*
X1274700Y49600D03*
X106200Y318100D03*
X485200Y542100D03*
X880700Y941100D03*
X1142200Y536100D03*
X1064800Y471900D03*
X1667700Y204100D03*
X713210Y-10480D03*
X196400Y757900D03*
X1380600Y357400D03*
X446300Y868900D03*
X1049000Y294900D03*
X31700Y899400D03*
X899400Y279900D03*
X753600Y356400D03*
X126300Y597900D03*
D38*
X355900Y495400D02*
X364200Y495400D01*
X355900Y495400D02*
X355900Y498700D01*
X364200Y498700D01*
X364200Y495400D01*
X364200Y496445D02*
X355900Y496445D01*
X355900Y497490D02*
X364200Y497490D01*
X364200Y498535D02*
X355900Y498535D01*
X355900Y482700D02*
X364200Y482700D01*
X355900Y482700D02*
X355900Y486000D01*
X364200Y486000D01*
X364200Y482700D01*
X364200Y483745D02*
X355900Y483745D01*
X355900Y484790D02*
X364200Y484790D01*
X364200Y485835D02*
X355900Y485835D01*
X355900Y470000D02*
X364200Y470000D01*
X355900Y470000D02*
X355900Y473300D01*
X364200Y473300D01*
X364200Y470000D01*
X364200Y471045D02*
X355900Y471045D01*
X355900Y472090D02*
X364200Y472090D01*
X364200Y473135D02*
X355900Y473135D01*
X355900Y457300D02*
X364200Y457300D01*
X355900Y457300D02*
X355900Y460600D01*
X364200Y460600D01*
X364200Y457300D01*
X364200Y458345D02*
X355900Y458345D01*
X355900Y459390D02*
X364200Y459390D01*
X364200Y460435D02*
X355900Y460435D01*
X433800Y457300D02*
X442100Y457300D01*
X433800Y457300D02*
X433800Y460600D01*
X442100Y460600D01*
X442100Y457300D01*
X442100Y458345D02*
X433800Y458345D01*
X433800Y459390D02*
X442100Y459390D01*
X442100Y460435D02*
X433800Y460435D01*
X433800Y470000D02*
X442100Y470000D01*
X433800Y470000D02*
X433800Y473300D01*
X442100Y473300D01*
X442100Y470000D01*
X442100Y471045D02*
X433800Y471045D01*
X433800Y472090D02*
X442100Y472090D01*
X442100Y473135D02*
X433800Y473135D01*
X433800Y482700D02*
X442100Y482700D01*
X433800Y482700D02*
X433800Y486000D01*
X442100Y486000D01*
X442100Y482700D01*
X442100Y483745D02*
X433800Y483745D01*
X433800Y484790D02*
X442100Y484790D01*
X442100Y485835D02*
X433800Y485835D01*
X433800Y495400D02*
X442100Y495400D01*
X433800Y495400D02*
X433800Y498700D01*
X442100Y498700D01*
X442100Y495400D01*
X442100Y496445D02*
X433800Y496445D01*
X433800Y497490D02*
X442100Y497490D01*
X442100Y498535D02*
X433800Y498535D01*
D39*
X399000Y478000D03*
D40*
X76000Y376800D03*
X88700Y376800D03*
X101400Y376800D03*
X114100Y376800D03*
X126800Y376800D03*
X139500Y376800D03*
X152200Y376800D03*
X164900Y376800D03*
X177600Y376800D03*
X190300Y376800D03*
X203000Y376800D03*
X215700Y376800D03*
X228400Y376800D03*
X241100Y376800D03*
X241100Y551800D03*
X228400Y551800D03*
X215700Y551800D03*
X203000Y551800D03*
X190300Y551800D03*
X177600Y551800D03*
X164900Y551800D03*
X152200Y551800D03*
X139500Y551800D03*
X126800Y551800D03*
X114100Y551800D03*
X101400Y551800D03*
X88700Y551800D03*
X76000Y551800D03*
D15*
X133200Y449250D03*
X120700Y436750D03*
X120700Y449250D03*
X120700Y461750D03*
X133200Y436750D03*
X133200Y461750D03*
X145700Y436750D03*
X145700Y449250D03*
X145700Y461750D03*
D41*
X895037Y448463D02*
X895037Y429437D01*
X895037Y448463D02*
X899463Y448463D01*
X899463Y429437D01*
X895037Y429437D01*
X895037Y430838D02*
X899463Y430838D01*
X899463Y432239D02*
X895037Y432239D01*
X895037Y433640D02*
X899463Y433640D01*
X899463Y435041D02*
X895037Y435041D01*
X895037Y436442D02*
X899463Y436442D01*
X899463Y437843D02*
X895037Y437843D01*
X895037Y439244D02*
X899463Y439244D01*
X899463Y440645D02*
X895037Y440645D01*
X895037Y442046D02*
X899463Y442046D01*
X899463Y443447D02*
X895037Y443447D01*
X895037Y444848D02*
X899463Y444848D01*
X899463Y446249D02*
X895037Y446249D01*
X895037Y447650D02*
X899463Y447650D01*
X882337Y448463D02*
X882337Y429437D01*
X882337Y448463D02*
X886763Y448463D01*
X886763Y429437D01*
X882337Y429437D01*
X882337Y430838D02*
X886763Y430838D01*
X886763Y432239D02*
X882337Y432239D01*
X882337Y433640D02*
X886763Y433640D01*
X886763Y435041D02*
X882337Y435041D01*
X882337Y436442D02*
X886763Y436442D01*
X886763Y437843D02*
X882337Y437843D01*
X882337Y439244D02*
X886763Y439244D01*
X886763Y440645D02*
X882337Y440645D01*
X882337Y442046D02*
X886763Y442046D01*
X886763Y443447D02*
X882337Y443447D01*
X882337Y444848D02*
X886763Y444848D01*
X886763Y446249D02*
X882337Y446249D01*
X882337Y447650D02*
X886763Y447650D01*
X869637Y448463D02*
X869637Y429437D01*
X869637Y448463D02*
X874063Y448463D01*
X874063Y429437D01*
X869637Y429437D01*
X869637Y430838D02*
X874063Y430838D01*
X874063Y432239D02*
X869637Y432239D01*
X869637Y433640D02*
X874063Y433640D01*
X874063Y435041D02*
X869637Y435041D01*
X869637Y436442D02*
X874063Y436442D01*
X874063Y437843D02*
X869637Y437843D01*
X869637Y439244D02*
X874063Y439244D01*
X874063Y440645D02*
X869637Y440645D01*
X869637Y442046D02*
X874063Y442046D01*
X874063Y443447D02*
X869637Y443447D01*
X869637Y444848D02*
X874063Y444848D01*
X874063Y446249D02*
X869637Y446249D01*
X869637Y447650D02*
X874063Y447650D01*
X856937Y448463D02*
X856937Y429437D01*
X856937Y448463D02*
X861363Y448463D01*
X861363Y429437D01*
X856937Y429437D01*
X856937Y430838D02*
X861363Y430838D01*
X861363Y432239D02*
X856937Y432239D01*
X856937Y433640D02*
X861363Y433640D01*
X861363Y435041D02*
X856937Y435041D01*
X856937Y436442D02*
X861363Y436442D01*
X861363Y437843D02*
X856937Y437843D01*
X856937Y439244D02*
X861363Y439244D01*
X861363Y440645D02*
X856937Y440645D01*
X856937Y442046D02*
X861363Y442046D01*
X861363Y443447D02*
X856937Y443447D01*
X856937Y444848D02*
X861363Y444848D01*
X861363Y446249D02*
X856937Y446249D01*
X856937Y447650D02*
X861363Y447650D01*
X844237Y448463D02*
X844237Y429437D01*
X844237Y448463D02*
X848663Y448463D01*
X848663Y429437D01*
X844237Y429437D01*
X844237Y430838D02*
X848663Y430838D01*
X848663Y432239D02*
X844237Y432239D01*
X844237Y433640D02*
X848663Y433640D01*
X848663Y435041D02*
X844237Y435041D01*
X844237Y436442D02*
X848663Y436442D01*
X848663Y437843D02*
X844237Y437843D01*
X844237Y439244D02*
X848663Y439244D01*
X848663Y440645D02*
X844237Y440645D01*
X844237Y442046D02*
X848663Y442046D01*
X848663Y443447D02*
X844237Y443447D01*
X844237Y444848D02*
X848663Y444848D01*
X848663Y446249D02*
X844237Y446249D01*
X844237Y447650D02*
X848663Y447650D01*
X831537Y448463D02*
X831537Y429437D01*
X831537Y448463D02*
X835963Y448463D01*
X835963Y429437D01*
X831537Y429437D01*
X831537Y430838D02*
X835963Y430838D01*
X835963Y432239D02*
X831537Y432239D01*
X831537Y433640D02*
X835963Y433640D01*
X835963Y435041D02*
X831537Y435041D01*
X831537Y436442D02*
X835963Y436442D01*
X835963Y437843D02*
X831537Y437843D01*
X831537Y439244D02*
X835963Y439244D01*
X835963Y440645D02*
X831537Y440645D01*
X831537Y442046D02*
X835963Y442046D01*
X835963Y443447D02*
X831537Y443447D01*
X831537Y444848D02*
X835963Y444848D01*
X835963Y446249D02*
X831537Y446249D01*
X831537Y447650D02*
X835963Y447650D01*
X818837Y448463D02*
X818837Y429437D01*
X818837Y448463D02*
X823263Y448463D01*
X823263Y429437D01*
X818837Y429437D01*
X818837Y430838D02*
X823263Y430838D01*
X823263Y432239D02*
X818837Y432239D01*
X818837Y433640D02*
X823263Y433640D01*
X823263Y435041D02*
X818837Y435041D01*
X818837Y436442D02*
X823263Y436442D01*
X823263Y437843D02*
X818837Y437843D01*
X818837Y439244D02*
X823263Y439244D01*
X823263Y440645D02*
X818837Y440645D01*
X818837Y442046D02*
X823263Y442046D01*
X823263Y443447D02*
X818837Y443447D01*
X818837Y444848D02*
X823263Y444848D01*
X823263Y446249D02*
X818837Y446249D01*
X818837Y447650D02*
X823263Y447650D01*
X806137Y448463D02*
X806137Y429437D01*
X806137Y448463D02*
X810563Y448463D01*
X810563Y429437D01*
X806137Y429437D01*
X806137Y430838D02*
X810563Y430838D01*
X810563Y432239D02*
X806137Y432239D01*
X806137Y433640D02*
X810563Y433640D01*
X810563Y435041D02*
X806137Y435041D01*
X806137Y436442D02*
X810563Y436442D01*
X810563Y437843D02*
X806137Y437843D01*
X806137Y439244D02*
X810563Y439244D01*
X810563Y440645D02*
X806137Y440645D01*
X806137Y442046D02*
X810563Y442046D01*
X810563Y443447D02*
X806137Y443447D01*
X806137Y444848D02*
X810563Y444848D01*
X810563Y446249D02*
X806137Y446249D01*
X806137Y447650D02*
X810563Y447650D01*
X806137Y355363D02*
X806137Y336337D01*
X806137Y355363D02*
X810563Y355363D01*
X810563Y336337D01*
X806137Y336337D01*
X806137Y337738D02*
X810563Y337738D01*
X810563Y339139D02*
X806137Y339139D01*
X806137Y340540D02*
X810563Y340540D01*
X810563Y341941D02*
X806137Y341941D01*
X806137Y343342D02*
X810563Y343342D01*
X810563Y344743D02*
X806137Y344743D01*
X806137Y346144D02*
X810563Y346144D01*
X810563Y347545D02*
X806137Y347545D01*
X806137Y348946D02*
X810563Y348946D01*
X810563Y350347D02*
X806137Y350347D01*
X806137Y351748D02*
X810563Y351748D01*
X810563Y353149D02*
X806137Y353149D01*
X806137Y354550D02*
X810563Y354550D01*
X818837Y355363D02*
X818837Y336337D01*
X818837Y355363D02*
X823263Y355363D01*
X823263Y336337D01*
X818837Y336337D01*
X818837Y337738D02*
X823263Y337738D01*
X823263Y339139D02*
X818837Y339139D01*
X818837Y340540D02*
X823263Y340540D01*
X823263Y341941D02*
X818837Y341941D01*
X818837Y343342D02*
X823263Y343342D01*
X823263Y344743D02*
X818837Y344743D01*
X818837Y346144D02*
X823263Y346144D01*
X823263Y347545D02*
X818837Y347545D01*
X818837Y348946D02*
X823263Y348946D01*
X823263Y350347D02*
X818837Y350347D01*
X818837Y351748D02*
X823263Y351748D01*
X823263Y353149D02*
X818837Y353149D01*
X818837Y354550D02*
X823263Y354550D01*
X831537Y355363D02*
X831537Y336337D01*
X831537Y355363D02*
X835963Y355363D01*
X835963Y336337D01*
X831537Y336337D01*
X831537Y337738D02*
X835963Y337738D01*
X835963Y339139D02*
X831537Y339139D01*
X831537Y340540D02*
X835963Y340540D01*
X835963Y341941D02*
X831537Y341941D01*
X831537Y343342D02*
X835963Y343342D01*
X835963Y344743D02*
X831537Y344743D01*
X831537Y346144D02*
X835963Y346144D01*
X835963Y347545D02*
X831537Y347545D01*
X831537Y348946D02*
X835963Y348946D01*
X835963Y350347D02*
X831537Y350347D01*
X831537Y351748D02*
X835963Y351748D01*
X835963Y353149D02*
X831537Y353149D01*
X831537Y354550D02*
X835963Y354550D01*
X844237Y355363D02*
X844237Y336337D01*
X844237Y355363D02*
X848663Y355363D01*
X848663Y336337D01*
X844237Y336337D01*
X844237Y337738D02*
X848663Y337738D01*
X848663Y339139D02*
X844237Y339139D01*
X844237Y340540D02*
X848663Y340540D01*
X848663Y341941D02*
X844237Y341941D01*
X844237Y343342D02*
X848663Y343342D01*
X848663Y344743D02*
X844237Y344743D01*
X844237Y346144D02*
X848663Y346144D01*
X848663Y347545D02*
X844237Y347545D01*
X844237Y348946D02*
X848663Y348946D01*
X848663Y350347D02*
X844237Y350347D01*
X844237Y351748D02*
X848663Y351748D01*
X848663Y353149D02*
X844237Y353149D01*
X844237Y354550D02*
X848663Y354550D01*
X856937Y355363D02*
X856937Y336337D01*
X856937Y355363D02*
X861363Y355363D01*
X861363Y336337D01*
X856937Y336337D01*
X856937Y337738D02*
X861363Y337738D01*
X861363Y339139D02*
X856937Y339139D01*
X856937Y340540D02*
X861363Y340540D01*
X861363Y341941D02*
X856937Y341941D01*
X856937Y343342D02*
X861363Y343342D01*
X861363Y344743D02*
X856937Y344743D01*
X856937Y346144D02*
X861363Y346144D01*
X861363Y347545D02*
X856937Y347545D01*
X856937Y348946D02*
X861363Y348946D01*
X861363Y350347D02*
X856937Y350347D01*
X856937Y351748D02*
X861363Y351748D01*
X861363Y353149D02*
X856937Y353149D01*
X856937Y354550D02*
X861363Y354550D01*
X869637Y355363D02*
X869637Y336337D01*
X869637Y355363D02*
X874063Y355363D01*
X874063Y336337D01*
X869637Y336337D01*
X869637Y337738D02*
X874063Y337738D01*
X874063Y339139D02*
X869637Y339139D01*
X869637Y340540D02*
X874063Y340540D01*
X874063Y341941D02*
X869637Y341941D01*
X869637Y343342D02*
X874063Y343342D01*
X874063Y344743D02*
X869637Y344743D01*
X869637Y346144D02*
X874063Y346144D01*
X874063Y347545D02*
X869637Y347545D01*
X869637Y348946D02*
X874063Y348946D01*
X874063Y350347D02*
X869637Y350347D01*
X869637Y351748D02*
X874063Y351748D01*
X874063Y353149D02*
X869637Y353149D01*
X869637Y354550D02*
X874063Y354550D01*
X882337Y355363D02*
X882337Y336337D01*
X882337Y355363D02*
X886763Y355363D01*
X886763Y336337D01*
X882337Y336337D01*
X882337Y337738D02*
X886763Y337738D01*
X886763Y339139D02*
X882337Y339139D01*
X882337Y340540D02*
X886763Y340540D01*
X886763Y341941D02*
X882337Y341941D01*
X882337Y343342D02*
X886763Y343342D01*
X886763Y344743D02*
X882337Y344743D01*
X882337Y346144D02*
X886763Y346144D01*
X886763Y347545D02*
X882337Y347545D01*
X882337Y348946D02*
X886763Y348946D01*
X886763Y350347D02*
X882337Y350347D01*
X882337Y351748D02*
X886763Y351748D01*
X886763Y353149D02*
X882337Y353149D01*
X882337Y354550D02*
X886763Y354550D01*
X895037Y355363D02*
X895037Y336337D01*
X895037Y355363D02*
X899463Y355363D01*
X899463Y336337D01*
X895037Y336337D01*
X895037Y337738D02*
X899463Y337738D01*
X899463Y339139D02*
X895037Y339139D01*
X895037Y340540D02*
X899463Y340540D01*
X899463Y341941D02*
X895037Y341941D01*
X895037Y343342D02*
X899463Y343342D01*
X899463Y344743D02*
X895037Y344743D01*
X895037Y346144D02*
X899463Y346144D01*
X899463Y347545D02*
X895037Y347545D01*
X895037Y348946D02*
X899463Y348946D01*
X899463Y350347D02*
X895037Y350347D01*
X895037Y351748D02*
X899463Y351748D01*
X899463Y353149D02*
X895037Y353149D01*
X895037Y354550D02*
X899463Y354550D01*
D42*
X1339087Y471187D02*
X1346013Y471187D01*
X1339087Y471187D02*
X1339087Y473213D01*
X1346013Y473213D01*
X1346013Y471187D01*
X1346013Y471828D02*
X1339087Y471828D01*
X1339087Y472469D02*
X1346013Y472469D01*
X1346013Y473110D02*
X1339087Y473110D01*
X1339087Y466187D02*
X1346013Y466187D01*
X1339087Y466187D02*
X1339087Y468213D01*
X1346013Y468213D01*
X1346013Y466187D01*
X1346013Y466828D02*
X1339087Y466828D01*
X1339087Y467469D02*
X1346013Y467469D01*
X1346013Y468110D02*
X1339087Y468110D01*
X1339087Y461187D02*
X1346013Y461187D01*
X1339087Y461187D02*
X1339087Y463213D01*
X1346013Y463213D01*
X1346013Y461187D01*
X1346013Y461828D02*
X1339087Y461828D01*
X1339087Y462469D02*
X1346013Y462469D01*
X1346013Y463110D02*
X1339087Y463110D01*
X1339087Y456187D02*
X1346013Y456187D01*
X1339087Y456187D02*
X1339087Y458213D01*
X1346013Y458213D01*
X1346013Y456187D01*
X1346013Y456828D02*
X1339087Y456828D01*
X1339087Y457469D02*
X1346013Y457469D01*
X1346013Y458110D02*
X1339087Y458110D01*
X1358787Y456187D02*
X1365713Y456187D01*
X1358787Y456187D02*
X1358787Y458213D01*
X1365713Y458213D01*
X1365713Y456187D01*
X1365713Y456828D02*
X1358787Y456828D01*
X1358787Y457469D02*
X1365713Y457469D01*
X1365713Y458110D02*
X1358787Y458110D01*
X1358787Y461187D02*
X1365713Y461187D01*
X1358787Y461187D02*
X1358787Y463213D01*
X1365713Y463213D01*
X1365713Y461187D01*
X1365713Y461828D02*
X1358787Y461828D01*
X1358787Y462469D02*
X1365713Y462469D01*
X1365713Y463110D02*
X1358787Y463110D01*
X1358787Y466187D02*
X1365713Y466187D01*
X1358787Y466187D02*
X1358787Y468213D01*
X1365713Y468213D01*
X1365713Y466187D01*
X1365713Y466828D02*
X1358787Y466828D01*
X1358787Y467469D02*
X1365713Y467469D01*
X1365713Y468110D02*
X1358787Y468110D01*
X1358787Y471187D02*
X1365713Y471187D01*
X1358787Y471187D02*
X1358787Y473213D01*
X1365713Y473213D01*
X1365713Y471187D01*
X1365713Y471828D02*
X1358787Y471828D01*
X1358787Y472469D02*
X1365713Y472469D01*
X1365713Y473110D02*
X1358787Y473110D01*
D43*
X1352400Y464700D03*
D10*
X660100Y988988D03*
X625100Y988988D03*
X625100Y973988D03*
X660100Y973988D03*
D44*
X91410Y899558D02*
X82408Y899558D01*
X22853Y840003D01*
X91410Y899558D02*
X91600Y900100D01*
X22853Y840003D02*
X22262Y839800D01*
X235450Y973655D02*
X254840Y973655D01*
X235450Y973655D02*
X162045Y900250D01*
X92103Y900250D01*
X254840Y973655D02*
X255100Y973988D01*
X92103Y900250D02*
X91600Y900100D01*
X48475Y811610D02*
X47090Y811610D01*
X22853Y835848D01*
X22853Y839310D01*
X48475Y811610D02*
X48762Y811300D01*
X22853Y839310D02*
X22262Y839800D01*
X12465Y776293D02*
X12465Y708428D01*
X12465Y776293D02*
X47090Y810918D01*
X12465Y708428D02*
X12262Y708300D01*
X47090Y810918D02*
X48762Y811300D01*
X476440Y899558D02*
X493753Y899558D01*
X498600Y904405D01*
X519375Y904405D01*
X476440Y899558D02*
X476200Y899300D01*
X519375Y904405D02*
X520000Y904300D01*
X507603Y973655D02*
X499985Y973655D01*
X497215Y970885D01*
X497215Y906483D02*
X498600Y905098D01*
X507603Y973655D02*
X507800Y973988D01*
X498600Y905098D02*
X498600Y904405D01*
X651643Y974348D02*
X659953Y974348D01*
X651643Y974348D02*
X649565Y976425D01*
X659953Y974348D02*
X660100Y973988D01*
X463283Y885708D02*
X446663Y869088D01*
X446300Y868900D01*
X146118Y448740D02*
X146118Y436968D01*
X145700Y436750D01*
X146118Y448740D02*
X145700Y449250D01*
X121188Y448740D02*
X121188Y436968D01*
X120700Y436750D01*
X121188Y448740D02*
X120700Y449250D01*
X121880Y436968D02*
X132960Y436968D01*
X133200Y436750D01*
X121880Y436968D02*
X120700Y436750D01*
X121880Y448740D02*
X132960Y448740D01*
X133200Y449250D01*
X121880Y448740D02*
X120700Y449250D01*
X133653Y436968D02*
X145425Y436968D01*
X145700Y436750D01*
X133653Y436968D02*
X133200Y436750D01*
X76175Y391955D02*
X76175Y377413D01*
X109415Y425195D02*
X120495Y436275D01*
X76175Y377413D02*
X76000Y376800D01*
X120495Y436275D02*
X120700Y436750D01*
X360100Y459128D02*
X380183Y459128D01*
X398880Y477825D01*
X360100Y459128D02*
X360050Y458950D01*
X398880Y477825D02*
X399000Y478000D01*
X155120Y738898D02*
X155120Y749285D01*
X163430Y757595D01*
X163430Y770060D02*
X163430Y786680D01*
X163430Y770060D02*
X163430Y757595D01*
X163430Y786680D02*
X155120Y794990D01*
X155120Y738898D02*
X154762Y738300D01*
X155120Y794990D02*
X154762Y795300D01*
X132960Y461898D02*
X121188Y461898D01*
X120700Y461750D01*
X132960Y461898D02*
X133200Y461750D01*
X133653Y461898D02*
X145425Y461898D01*
X145700Y461750D01*
X133653Y461898D02*
X133200Y461750D01*
X76175Y540843D02*
X76175Y551230D01*
X76175Y540843D02*
X121188Y495830D01*
X121188Y462590D01*
X76175Y551230D02*
X76000Y551800D01*
X121188Y462590D02*
X120700Y461750D01*
X154428Y647488D02*
X154428Y738205D01*
X154428Y647488D02*
X76175Y569235D01*
X76175Y551923D01*
X154428Y738205D02*
X154762Y738300D01*
X76175Y551923D02*
X76000Y551800D01*
X360100Y461898D02*
X360100Y459820D01*
X360100Y461898D02*
X349020Y472978D01*
X349020Y483365D01*
X358023Y492368D01*
X364948Y492368D01*
X367025Y494445D01*
X367025Y604553D01*
X274576Y697001D02*
X201518Y770060D01*
X274576Y697001D02*
X367025Y604553D01*
X201518Y770060D02*
X163430Y770060D01*
X360100Y459820D02*
X360050Y458950D01*
X146118Y461205D02*
X146118Y449433D01*
X145700Y449250D01*
X146118Y461205D02*
X145700Y461750D01*
X274576Y697001D02*
X445970Y868395D01*
X446300Y868900D01*
X263843Y965345D02*
X255533Y973655D01*
X255100Y973988D01*
X1259658Y337248D02*
X1282510Y337248D01*
X1259658Y337248D02*
X1251348Y345558D01*
X1282510Y337248D02*
X1282800Y336800D01*
X1251348Y345558D02*
X1251000Y345600D01*
X1233343Y384338D02*
X1209105Y384338D01*
X1233343Y384338D02*
X1240960Y384338D01*
X1209105Y384338D02*
X1152320Y441123D01*
X1240960Y384338D02*
X1241000Y384000D01*
X1152320Y441123D02*
X1152200Y441500D01*
X1240268Y346250D02*
X1250655Y346250D01*
X1240268Y346250D02*
X1233343Y353175D01*
X1233343Y378105D02*
X1233343Y384338D01*
X1250655Y346250D02*
X1251000Y345600D01*
X1625298Y403035D02*
X1625298Y405805D01*
X1625298Y403035D02*
X1624890Y402900D01*
X1625298Y405805D02*
X1624890Y405900D01*
X1625298Y402343D02*
X1625298Y390570D01*
X1630145Y385723D01*
X1625298Y402343D02*
X1624890Y402900D01*
X1630145Y385723D02*
X1630640Y385300D01*
X1630838Y385723D02*
X1650228Y385723D01*
X1669618Y385723D01*
X1669940Y385300D01*
X1630838Y385723D02*
X1630640Y385300D01*
X1625298Y467438D02*
X1625298Y469515D01*
X1625298Y467438D02*
X1624890Y466900D01*
X1625298Y469515D02*
X1624890Y469900D01*
X1625298Y470208D02*
X1625298Y481980D01*
X1630145Y486828D01*
X1625298Y470208D02*
X1624890Y469900D01*
X1630145Y486828D02*
X1630640Y487500D01*
X1630838Y487520D02*
X1650228Y487520D01*
X1669618Y487520D01*
X1669940Y487500D01*
X1630838Y487520D02*
X1630640Y487500D01*
X1650228Y487520D02*
X1650228Y385723D01*
X1264505Y475055D02*
X1264505Y477133D01*
X1264505Y475055D02*
X1251348Y461898D01*
X1251348Y432120D01*
X1256888Y426580D01*
X1258965Y426580D01*
X1264505Y477133D02*
X1265000Y477300D01*
X1258965Y426580D02*
X1259601Y426200D01*
X1342758Y457743D02*
X1346220Y457743D01*
X1351760Y463283D01*
X1351760Y464668D01*
X1342758Y457743D02*
X1342550Y457200D01*
X1351760Y464668D02*
X1352400Y464700D01*
X1346220Y471593D02*
X1342758Y471593D01*
X1346220Y471593D02*
X1352453Y465360D01*
X1342758Y471593D02*
X1342550Y472200D01*
X1352453Y465360D02*
X1352400Y464700D01*
X1351760Y462590D02*
X1362148Y462590D01*
X1362250Y462200D01*
X1352400Y464700D02*
X1351760Y462590D01*
X1492338Y390570D02*
X1492338Y373258D01*
X1491800Y372700D01*
X1492338Y390570D02*
X1492200Y391200D01*
X1443863Y432813D02*
X1420318Y432813D01*
X1443863Y432813D02*
X1457020Y419655D01*
X1468100Y419655D01*
X1420318Y432813D02*
X1419700Y433400D01*
X1468100Y419655D02*
X1468500Y419500D01*
X1508958Y457050D02*
X1521423Y457050D01*
X1508958Y457050D02*
X1471563Y419655D01*
X1468793Y419655D01*
X1521423Y457050D02*
X1521600Y457100D01*
X1468793Y419655D02*
X1468500Y419500D01*
X1492338Y402343D02*
X1492338Y391955D01*
X1478488Y416193D02*
X1473640Y421040D01*
X1492338Y391955D02*
X1492200Y391200D01*
X1473640Y421040D02*
X1468500Y419500D01*
X1391233Y461898D02*
X1362840Y461898D01*
X1391233Y461898D02*
X1419625Y433505D01*
X1362840Y461898D02*
X1362250Y462200D01*
X1419625Y433505D02*
X1419700Y433400D01*
X1339295Y475055D02*
X1265198Y475055D01*
X1339295Y475055D02*
X1342065Y472285D01*
X1265198Y475055D02*
X1265000Y477300D01*
X1342065Y472285D02*
X1342550Y472200D01*
X1531118Y466745D02*
X1624605Y466745D01*
X1531118Y466745D02*
X1522115Y457743D01*
X1624605Y466745D02*
X1624890Y466900D01*
X1522115Y457743D02*
X1521600Y457100D01*
X1254118Y428658D02*
X1249963Y424503D01*
X1254118Y428658D02*
X1259601Y426200D01*
X1561588Y-39473D02*
X1574053Y-39473D01*
X1561588Y-39473D02*
X1561000Y-39700D01*
X1574053Y-39473D02*
X1574200Y-39700D01*
X1569205Y-2770D02*
X1569205Y-693D01*
X1574053Y4155D01*
X1579593Y4155D01*
X1585133Y-1385D01*
X1585133Y-2770D01*
X1569205Y-2770D02*
X1569000Y-3380D01*
X1585133Y-2770D02*
X1585200Y-3380D01*
X1560895Y12465D02*
X1560895Y25623D01*
X1560895Y12465D02*
X1556048Y7618D01*
X1556048Y-9003D01*
X1558125Y-11080D01*
X1563665Y-11080D01*
X1568513Y-6233D01*
X1568513Y-3463D01*
X1560895Y25623D02*
X1561000Y25780D01*
X1568513Y-3463D02*
X1569000Y-3380D01*
X1563665Y-11080D02*
X1563665Y-38780D01*
X1561000Y-39700D01*
X1139163Y4848D02*
X1108693Y4848D01*
X1101768Y4848D01*
X1101300Y4300D01*
X1139163Y4848D02*
X1139800Y4500D01*
X1139855Y4848D02*
X1174480Y4848D01*
X1174800Y4700D01*
X1139855Y4848D02*
X1139800Y4500D01*
X1175173Y4848D02*
X1211183Y4848D01*
X1211800Y4400D01*
X1175173Y4848D02*
X1174800Y4700D01*
X1211875Y4848D02*
X1240960Y4848D01*
X1249270Y4848D01*
X1249300Y4300D01*
X1211875Y4848D02*
X1211800Y4400D01*
X1270738Y5540D02*
X1289435Y5540D01*
X1289800Y5100D01*
X1240960Y4848D02*
X1240960Y5540D01*
X1358685Y74098D02*
X1565743Y74098D01*
X1649535Y74098D01*
X1358685Y74098D02*
X1290128Y5540D01*
X1649535Y74098D02*
X1649750Y74200D01*
X1290128Y5540D02*
X1289800Y5100D01*
X1561588Y26315D02*
X1561588Y30470D01*
X1565743Y34625D01*
X1561588Y26315D02*
X1561000Y25780D01*
X1565743Y73405D02*
X1565743Y74098D01*
X943878Y354560D02*
X936953Y354560D01*
X943878Y354560D02*
X945263Y355945D01*
X967423Y333785D02*
X996508Y333785D01*
X936953Y354560D02*
X936800Y354300D01*
X996508Y333785D02*
X996800Y333300D01*
X859393Y346250D02*
X859393Y360100D01*
X859393Y346250D02*
X859150Y345850D01*
X1132238Y335863D02*
X1143318Y335863D01*
X1145395Y337940D01*
X1166170Y337940D02*
X1170325Y337940D01*
X1166170Y337940D02*
X1165478Y337940D01*
X1145395Y337940D01*
X1170325Y337940D02*
X1174480Y342095D01*
X1132238Y335863D02*
X1132100Y335500D01*
X1174480Y342095D02*
X1174500Y342400D01*
X1165478Y337940D02*
X1165478Y312318D01*
X1165400Y311900D01*
X1003433Y247915D02*
X1003433Y245838D01*
X1003433Y247915D02*
X1048445Y292928D01*
X1048445Y294313D01*
X1003433Y245838D02*
X1002800Y245800D01*
X1048445Y294313D02*
X1049000Y294900D01*
X1089303Y335170D02*
X1131545Y335170D01*
X1089303Y335170D02*
X1049138Y295005D01*
X1131545Y335170D02*
X1132100Y335500D01*
X1049138Y295005D02*
X1049000Y294900D01*
X995815Y333093D02*
X995815Y254840D01*
X1002740Y247915D01*
X995815Y333093D02*
X996800Y333300D01*
X1002740Y247915D02*
X1002800Y245800D01*
X837233Y85178D02*
X818535Y85178D01*
X818000Y84600D01*
X837233Y85178D02*
X837500Y84500D01*
X837925Y84485D02*
X856623Y84485D01*
X856800Y84200D01*
X837925Y84485D02*
X837500Y84500D01*
X817843Y85178D02*
X797068Y85178D01*
X796800Y84700D01*
X817843Y85178D02*
X818000Y84600D01*
X853160Y59555D02*
X853160Y56093D01*
X853160Y59555D02*
X878090Y84485D01*
X882245Y84485D01*
X853160Y56093D02*
X853100Y55900D01*
X882245Y84485D02*
X882300Y84500D01*
X871165Y30470D02*
X897480Y30470D01*
X871165Y30470D02*
X870473Y29778D01*
X861470Y29778D01*
X853160Y38088D01*
X853160Y55400D01*
X897480Y30470D02*
X898100Y30900D01*
X853160Y55400D02*
X853100Y55900D01*
X882938Y85178D02*
X903713Y85178D01*
X904200Y84800D01*
X882938Y85178D02*
X882300Y84500D01*
X908560Y80330D02*
X932105Y80330D01*
X908560Y80330D02*
X904405Y84485D01*
X932105Y80330D02*
X932200Y80100D01*
X904405Y84485D02*
X904200Y84800D01*
X863548Y84485D02*
X857315Y84485D01*
X863548Y84485D02*
X869088Y90025D01*
X869088Y96950D01*
X876013Y103875D01*
X909253Y103875D01*
X911330Y101798D01*
X911330Y93488D01*
X903713Y85870D01*
X857315Y84485D02*
X856800Y84200D01*
X903713Y85870D02*
X904200Y84800D01*
X621865Y40165D02*
X621865Y2770D01*
X615633Y-3463D01*
X621865Y40165D02*
X622500Y40800D01*
X615633Y-3463D02*
X615580Y-3600D01*
X642640Y-9003D02*
X651643Y-9003D01*
X642640Y-9003D02*
X637793Y-13850D01*
X623943Y-13850D01*
X615633Y-5540D01*
X615633Y-4155D01*
X651643Y-9003D02*
X651900Y-8800D01*
X615633Y-4155D02*
X615580Y-3600D01*
X592088Y70635D02*
X592088Y100413D01*
X592088Y70635D02*
X621865Y40858D01*
X592088Y100413D02*
X591800Y101000D01*
X621865Y40858D02*
X622500Y40800D01*
X762443Y74098D02*
X762443Y78253D01*
X762443Y74098D02*
X762443Y42935D01*
X762443Y31163D01*
X762443Y78253D02*
X756903Y83793D01*
X762443Y31163D02*
X763100Y30900D01*
X756903Y83793D02*
X756400Y84000D01*
X807455Y55400D02*
X807455Y51245D01*
X799145Y42935D01*
X762443Y42935D01*
X807455Y55400D02*
X808100Y55900D01*
X776293Y80330D02*
X776293Y83793D01*
X776293Y80330D02*
X772830Y76868D01*
X776293Y83793D02*
X776600Y84000D01*
X763135Y74098D02*
X762443Y74098D01*
X779063Y256918D02*
X779063Y272153D01*
X779063Y256918D02*
X767290Y245145D01*
X779063Y272153D02*
X779300Y272600D01*
X698040Y-8310D02*
X652335Y-8310D01*
X698040Y-8310D02*
X737513Y31163D01*
X761750Y31163D01*
X652335Y-8310D02*
X651900Y-8800D01*
X761750Y31163D02*
X763100Y30900D01*
X799145Y77560D02*
X799145Y84485D01*
X796800Y84700D01*
X1108693Y139885D02*
X1108693Y4848D01*
X1108693Y139885D02*
X1003433Y245145D01*
X1002800Y245800D01*
X1166170Y337940D02*
X1166170Y338633D01*
X76175Y331015D02*
X76175Y376720D01*
X76175Y331015D02*
X306085Y101105D01*
X591395Y101105D01*
X76175Y376720D02*
X76000Y376800D01*
X591395Y101105D02*
X591800Y101000D01*
D45*
X497215Y970885D03*
X497215Y906483D03*
X649565Y976425D03*
X463283Y885708D03*
X76175Y391955D03*
X109415Y425195D03*
X263843Y965345D03*
X1233343Y353175D03*
X1233343Y378105D03*
X1492338Y402343D03*
X1478488Y416193D03*
X1249963Y424503D03*
X1270738Y5540D03*
X1240960Y5540D03*
X1565743Y34625D03*
X1565743Y73405D03*
X945263Y355945D03*
X967423Y333785D03*
X859393Y360100D03*
X772830Y76868D03*
X763135Y74098D03*
X767290Y245145D03*
X799145Y77560D03*
X1166170Y338633D03*
D44*
X1522115Y444585D02*
X1610063Y444585D01*
X1619065Y453588D01*
X1624605Y453588D01*
X1522115Y444585D02*
X1521600Y444100D01*
X1624605Y453588D02*
X1624890Y453900D01*
X1449403Y421040D02*
X1420318Y421040D01*
X1615603Y421040D02*
X1618373Y423810D01*
X1624605Y423810D01*
X1420318Y421040D02*
X1419700Y420400D01*
X1624605Y423810D02*
X1624890Y423900D01*
D45*
X1449403Y421040D03*
X1615603Y421040D03*
D46*
X1625298Y413423D02*
X1625298Y411345D01*
X1624890Y410900D01*
X1625298Y413423D02*
X1624890Y413900D01*
X1625298Y459128D02*
X1625298Y461898D01*
X1625298Y459128D02*
X1624890Y458900D01*
X1624890Y461900D02*
X1625298Y461898D01*
X1626683Y414115D02*
X1631530Y414115D01*
X1633608Y416193D01*
X1633608Y456358D01*
X1631530Y458435D01*
X1626683Y458435D01*
X1626683Y414115D02*
X1624890Y413900D01*
X1626683Y458435D02*
X1624890Y458900D01*
X1623913Y410653D02*
X1618373Y410653D01*
X1558125Y350405D01*
X1558125Y331708D01*
X1623913Y410653D02*
X1624890Y410900D01*
X1558125Y331708D02*
X1557600Y331500D01*
X1479180Y373258D02*
X1479180Y390570D01*
X1479180Y373258D02*
X1478800Y372700D01*
X1479180Y390570D02*
X1479200Y391200D01*
X1488875Y418963D02*
X1493030Y418963D01*
X1488875Y418963D02*
X1479873Y409960D01*
X1479873Y392648D01*
X1493030Y418963D02*
X1493500Y419500D01*
X1479873Y392648D02*
X1479200Y391200D01*
X1478488Y371180D02*
X1478488Y365640D01*
X1512420Y331708D01*
X1478488Y371180D02*
X1478800Y372700D01*
X1512420Y331708D02*
X1512600Y331500D01*
X1147473Y349020D02*
X1139855Y349020D01*
X1132238Y349020D01*
X1147473Y349020D02*
X1150243Y351790D01*
X1132238Y349020D02*
X1132100Y348500D01*
X1150243Y351790D02*
X1150700Y352300D01*
X1207720Y441815D02*
X1227803Y441815D01*
X1233343Y436275D01*
X1207720Y441815D02*
X1207300Y442100D01*
X1233343Y436275D02*
X1233599Y435700D01*
X1147473Y449433D02*
X1139855Y441815D01*
X1147473Y449433D02*
X1200103Y449433D01*
X1206335Y443200D01*
X1139855Y441815D02*
X1139200Y441500D01*
X1206335Y443200D02*
X1207300Y442100D01*
X1270738Y392648D02*
X1301900Y392648D01*
X1270738Y392648D02*
X1233343Y430043D01*
X1233343Y434198D01*
X1301900Y392648D02*
X1302500Y392500D01*
X1233343Y434198D02*
X1233599Y435700D01*
X1139855Y440430D02*
X1139855Y349020D01*
X1139855Y440430D02*
X1139200Y441500D01*
X1142625Y454973D02*
X1142625Y535995D01*
X1142625Y454973D02*
X1146780Y450818D01*
X1142625Y535995D02*
X1142200Y536100D01*
X1146780Y450818D02*
X1147473Y449433D01*
X1406468Y364948D02*
X1477103Y364948D01*
X1406468Y364948D02*
X1385693Y344173D01*
X1350375Y344173D01*
X1303285Y391263D01*
X1477103Y364948D02*
X1478488Y365640D01*
X1303285Y391263D02*
X1302500Y392500D01*
D44*
X1615603Y434198D02*
X1624605Y434198D01*
X1624605Y443893D02*
X1615603Y443893D01*
X1624605Y434198D02*
X1624890Y433900D01*
X1624605Y443893D02*
X1624890Y443900D01*
X1600368Y429350D02*
X1493723Y429350D01*
X1600368Y429350D02*
X1614910Y443893D01*
X1493723Y429350D02*
X1493500Y429000D01*
X1614910Y443893D02*
X1615603Y443893D01*
D45*
X1615603Y434198D03*
X1615603Y443893D03*
D44*
X1614218Y429350D02*
X1624605Y429350D01*
X1614218Y429350D02*
X1610755Y432813D01*
X1610755Y435583D01*
X1614218Y439045D01*
X1624605Y439045D01*
X1624605Y429350D02*
X1624890Y428900D01*
X1624890Y438900D02*
X1624605Y439045D01*
X1587903Y410653D02*
X1493723Y410653D01*
X1587903Y410653D02*
X1610063Y432813D01*
X1493723Y410653D02*
X1493500Y410000D01*
X1610063Y432813D02*
X1610755Y432813D01*
X1468100Y410653D02*
X1449403Y410653D01*
X875320Y506218D02*
X510373Y506218D01*
X409960Y405805D01*
X237528Y388493D02*
X228525Y379490D01*
X228525Y377413D01*
X1468100Y410653D02*
X1468500Y410000D01*
X228525Y377413D02*
X228400Y376800D01*
D45*
X1449403Y410653D03*
X875320Y506218D03*
X409960Y405805D03*
X237528Y388493D03*
D44*
X1451480Y429350D02*
X1468100Y429350D01*
X1451480Y429350D02*
X1329600Y551230D01*
X549153Y551230D01*
X398880Y400958D01*
X249300Y385030D02*
X241683Y377413D01*
X1468100Y429350D02*
X1468500Y429000D01*
X241683Y377413D02*
X241100Y376800D01*
D45*
X398880Y400958D03*
X249300Y385030D03*
D46*
X192515Y330323D02*
X131575Y330323D01*
X89333Y372565D01*
X89333Y376720D01*
X192515Y330323D02*
X193000Y330200D01*
X89333Y376720D02*
X88700Y376800D01*
X91410Y825460D02*
X91410Y887093D01*
X91410Y825460D02*
X55400Y789450D01*
X49168Y789450D01*
X91410Y887093D02*
X91600Y887100D01*
X49168Y789450D02*
X48762Y789300D01*
X360100Y473670D02*
X360100Y472285D01*
X360100Y473670D02*
X378798Y492368D01*
X378798Y500678D01*
X380875Y502755D01*
X432120Y502755D01*
X437660Y497215D01*
X360100Y472285D02*
X360050Y471650D01*
X437660Y497215D02*
X437950Y497050D01*
X438353Y495830D02*
X438353Y484750D01*
X437950Y484350D01*
X438353Y495830D02*
X437950Y497050D01*
X476440Y909253D02*
X479210Y909253D01*
X530455Y960498D01*
X530455Y965345D02*
X530455Y977118D01*
X530455Y965345D02*
X530455Y960498D01*
X530455Y977118D02*
X522838Y984735D01*
X476440Y909253D02*
X476200Y908800D01*
X522838Y984735D02*
X522600Y985400D01*
X398188Y984735D02*
X278385Y984735D01*
X270768Y984735D01*
X398188Y984735D02*
X472978Y909945D01*
X475055Y909945D01*
X270768Y984735D02*
X270500Y985400D01*
X475055Y909945D02*
X476200Y908800D01*
X676573Y984735D02*
X683498Y977810D01*
X683498Y967423D01*
X681420Y965345D01*
X530455Y965345D01*
X676100Y985200D02*
X676573Y984735D01*
X432813Y837233D02*
X432813Y504140D01*
X432813Y837233D02*
X468823Y873243D01*
X468823Y905098D01*
X472285Y908560D01*
X432813Y504140D02*
X432120Y502755D01*
X472285Y908560D02*
X476200Y908800D01*
X198055Y887785D02*
X92795Y887785D01*
X198055Y887785D02*
X278385Y968115D01*
X278385Y984735D01*
X92795Y887785D02*
X91600Y887100D01*
X87948Y523530D02*
X87948Y378105D01*
X87948Y523530D02*
X67865Y543613D01*
X67865Y776293D01*
X56093Y788065D01*
X87948Y378105D02*
X88700Y376800D01*
X56093Y788065D02*
X48762Y789300D01*
X904405Y494445D02*
X904405Y490983D01*
X936260Y459128D01*
X904405Y494445D02*
X904200Y494700D01*
X936260Y459128D02*
X936900Y459100D01*
X792220Y159275D02*
X784603Y151658D01*
X767290Y151658D01*
X757595Y161353D01*
X792220Y159275D02*
X792300Y159500D01*
X757595Y161353D02*
X757300Y161500D01*
X878783Y316473D02*
X878783Y322013D01*
X865625Y335170D01*
X865625Y415500D01*
X884323Y434198D01*
X884323Y438353D01*
X878783Y316473D02*
X879300Y316000D01*
X884323Y438353D02*
X884550Y438950D01*
X800530Y159968D02*
X793605Y159968D01*
X858354Y217791D02*
X878090Y237528D01*
X858354Y217791D02*
X800530Y159968D01*
X878090Y237528D02*
X878090Y315088D01*
X793605Y159968D02*
X792300Y159500D01*
X878090Y315088D02*
X879300Y316000D01*
X901635Y490290D02*
X903020Y490290D01*
X901635Y490290D02*
X881553Y470208D01*
X881553Y443200D01*
X884323Y440430D01*
X903020Y490290D02*
X904200Y494700D01*
X884323Y440430D02*
X884550Y438950D01*
X1650228Y84485D02*
X1654383Y84485D01*
X1667540Y97643D01*
X1667540Y203595D01*
X1650228Y84485D02*
X1649750Y84200D01*
X1667540Y203595D02*
X1667700Y204100D01*
X1214645Y351790D02*
X1202873Y351790D01*
X1214645Y351790D02*
X1250655Y315780D01*
X1202873Y351790D02*
X1202500Y351900D01*
X1250655Y315780D02*
X1251000Y315600D01*
X1258965Y323398D02*
X1282510Y323398D01*
X1258965Y323398D02*
X1252040Y316473D01*
X1282510Y323398D02*
X1282800Y323800D01*
X1252040Y316473D02*
X1251000Y315600D01*
X1139855Y-24930D02*
X1101768Y-24930D01*
X1101400Y-24900D01*
X1139855Y-24930D02*
X1139900Y-25100D01*
X1141240Y-24930D02*
X1175865Y-24930D01*
X1176200Y-25100D01*
X1141240Y-24930D02*
X1139900Y-25100D01*
X1177250Y-24238D02*
X1211875Y-24238D01*
X1212200Y-24800D01*
X1177250Y-24238D02*
X1176200Y-25100D01*
X1213260Y-24238D02*
X1249963Y-24238D01*
X1250400Y-24700D01*
X1213260Y-24238D02*
X1212200Y-24800D01*
X1251348Y-24238D02*
X1256888Y-24238D01*
X1290128Y-24238D01*
X1290700Y-24400D01*
X1251348Y-24238D02*
X1250400Y-24700D01*
X1252040Y30470D02*
X1252040Y84485D01*
X1252040Y314395D01*
X1252040Y30470D02*
X1256888Y25623D01*
X1256888Y-24238D01*
X1252040Y314395D02*
X1251000Y315600D01*
X1252040Y84485D02*
X1648843Y84485D01*
X1649750Y84200D01*
X1100383Y-24238D02*
X858354Y217791D01*
X1100383Y-24238D02*
X1101400Y-24900D01*
X415500Y329630D02*
X193900Y329630D01*
X415500Y329630D02*
X583085Y162045D01*
X756210Y162045D01*
X193900Y329630D02*
X193000Y330200D01*
X756210Y162045D02*
X757300Y161500D01*
D44*
X1152320Y312318D02*
X1152320Y329630D01*
X1150935Y331015D01*
X1152320Y312318D02*
X1152400Y311900D01*
X1150935Y331015D02*
X1150700Y331300D01*
X1175173Y333093D02*
X1179328Y337248D01*
X1180020Y337248D01*
X1181405Y338633D01*
X1181405Y346250D01*
X1175173Y352483D01*
X1175173Y333093D02*
X1174500Y332900D01*
X1174500Y351900D02*
X1175173Y352483D01*
X1310210Y391955D02*
X1321290Y391955D01*
X1182790Y346943D02*
X1182098Y346250D01*
X1321290Y391955D02*
X1321500Y392500D01*
X1182098Y346250D02*
X1181405Y346250D01*
X1154398Y311625D02*
X1153013Y311625D01*
X1154398Y311625D02*
X1161323Y304700D01*
X1169633Y304700D01*
X1174480Y309548D01*
X1174480Y332400D01*
X1153013Y311625D02*
X1152400Y311900D01*
X1174480Y332400D02*
X1174500Y332900D01*
D45*
X1310210Y391955D03*
X1182790Y346943D03*
D46*
X1342758Y462590D02*
X1342758Y466745D01*
X1342758Y462590D02*
X1342550Y462200D01*
X1342758Y466745D02*
X1342550Y467200D01*
X1311595Y414115D02*
X1284588Y414115D01*
X1263120Y435583D01*
X1259658Y435583D01*
X1311595Y414115D02*
X1312000Y413500D01*
X1259658Y435583D02*
X1259601Y435700D01*
X1264505Y436275D02*
X1264505Y463975D01*
X1265000Y464300D01*
X1264505Y436275D02*
X1259601Y435700D01*
X1337910Y461898D02*
X1341373Y461898D01*
X1337910Y461898D02*
X1312288Y436275D01*
X1312288Y415500D01*
X1341373Y461898D02*
X1342550Y462200D01*
X1312288Y415500D02*
X1312000Y413500D01*
X1370458Y358023D02*
X1380153Y358023D01*
X1370458Y358023D02*
X1313673Y414808D01*
X1380153Y358023D02*
X1380600Y357400D01*
X1313673Y414808D02*
X1312000Y413500D01*
D44*
X437660Y471593D02*
X431428Y471593D01*
X419655Y459820D01*
X236143Y398880D02*
X159275Y398880D01*
X139885Y379490D01*
X139885Y377413D01*
X437660Y471593D02*
X437950Y471650D01*
X139885Y377413D02*
X139500Y376800D01*
X50553Y799838D02*
X45013Y799838D01*
X38780Y793605D01*
X38780Y663415D01*
X50553Y799838D02*
X50762Y800300D01*
X1169633Y-38088D02*
X1175865Y-38088D01*
X1169633Y-38088D02*
X1167555Y-36010D01*
X1166863Y11773D02*
X1174480Y19390D01*
X1175865Y-38088D02*
X1176200Y-38100D01*
X1174480Y19390D02*
X1174800Y19700D01*
X828230Y63710D02*
X828230Y68558D01*
X828230Y63710D02*
X828230Y56093D01*
X772138Y263843D02*
X772138Y266613D01*
X754133Y284618D01*
X754133Y355945D01*
X828230Y56093D02*
X828100Y55900D01*
X754133Y355945D02*
X753600Y356400D01*
X828230Y63710D02*
X844158Y63710D01*
X753440Y356638D02*
X519375Y356638D01*
X753440Y356638D02*
X753600Y356400D01*
D45*
X419655Y459820D03*
X236143Y398880D03*
X38780Y663415D03*
X1167555Y-36010D03*
X1166863Y11773D03*
X828230Y68558D03*
X772138Y263843D03*
X844158Y63710D03*
X519375Y356638D03*
D44*
X50553Y822690D02*
X47090Y822690D01*
X39473Y830308D01*
X39473Y887785D02*
X39473Y891248D01*
X31855Y898865D01*
X50553Y822690D02*
X50762Y822300D01*
X31855Y898865D02*
X31700Y899400D01*
X1096228Y-37395D02*
X1101075Y-37395D01*
X1096228Y-37395D02*
X1092765Y-33933D01*
X1092765Y10388D02*
X1101075Y18698D01*
X1101075Y-37395D02*
X1101400Y-37900D01*
X1101075Y18698D02*
X1101300Y19300D01*
X359408Y484058D02*
X353868Y478518D01*
X171740Y478518D02*
X159275Y478518D01*
X89333Y548460D01*
X89333Y551230D01*
X359408Y484058D02*
X360050Y484350D01*
X89333Y551230D02*
X88700Y551800D01*
X1101075Y136423D02*
X1101075Y19390D01*
X1101075Y136423D02*
X975040Y262458D01*
X369795Y490983D02*
X367718Y490983D01*
X361485Y484750D01*
X360100Y484750D01*
X1101075Y19390D02*
X1101300Y19300D01*
X360050Y484350D02*
X360100Y484750D01*
X81023Y562310D02*
X81023Y567850D01*
X81023Y562310D02*
X87948Y555385D01*
X87948Y551923D01*
X88700Y551800D01*
D45*
X39473Y830308D03*
X39473Y887785D03*
X1092765Y-33933D03*
X1092765Y10388D03*
X353868Y478518D03*
X171740Y478518D03*
X975040Y262458D03*
X369795Y490983D03*
X81023Y567850D03*
D44*
X1282510Y-37395D02*
X1290128Y-37395D01*
X1282510Y12465D02*
X1290128Y20083D01*
X1290128Y-37395D02*
X1290700Y-37400D01*
X1290128Y20083D02*
X1289800Y20100D01*
X114263Y377413D02*
X114263Y388493D01*
X60940Y635023D02*
X60940Y761750D01*
X55400Y767290D01*
X114263Y377413D02*
X114100Y376800D01*
X55400Y767290D02*
X54762Y767300D01*
X869088Y16620D02*
X978503Y16620D01*
D45*
X1282510Y-37395D03*
X1282510Y12465D03*
X114263Y388493D03*
X60940Y635023D03*
X978503Y16620D03*
X869088Y16620D03*
D44*
X1132930Y-38088D02*
X1139855Y-38088D01*
X1132930Y-38088D02*
X1130853Y-36010D01*
X1130853Y11080D02*
X1139163Y19390D01*
X1139855Y-38088D02*
X1139900Y-38100D01*
X1139163Y19390D02*
X1139800Y19500D01*
X823383Y56093D02*
X823383Y63710D01*
X873935Y218830D02*
X873935Y227833D01*
X898865Y252763D01*
X898865Y279770D01*
X823383Y56093D02*
X823100Y55900D01*
X898865Y279770D02*
X899400Y279900D01*
X437660Y459128D02*
X426580Y459128D01*
X171048Y387800D02*
X160660Y387800D01*
X152350Y379490D01*
X152350Y377413D01*
X437660Y459128D02*
X437950Y458950D01*
X152350Y377413D02*
X152200Y376800D01*
X43628Y770753D02*
X50553Y777678D01*
X50762Y778300D01*
X698733Y183513D02*
X776985Y183513D01*
X698733Y183513D02*
X530455Y351790D01*
D45*
X1130853Y-36010D03*
X1130853Y11080D03*
X823383Y63710D03*
X873935Y218830D03*
X426580Y459128D03*
X171048Y387800D03*
X43628Y770753D03*
X776985Y183513D03*
X530455Y351790D03*
D44*
X638485Y4155D02*
X651643Y4155D01*
X638485Y4155D02*
X630868Y-3463D01*
X651643Y4155D02*
X651900Y4200D01*
X630868Y-3463D02*
X630820Y-3600D01*
X680728Y33240D02*
X696655Y33240D01*
X680728Y33240D02*
X652335Y4848D01*
X696655Y33240D02*
X696900Y33300D01*
X652335Y4848D02*
X651900Y4200D01*
X902328Y205673D02*
X957728Y205673D01*
X902328Y205673D02*
X896095Y199440D01*
X957728Y205673D02*
X957900Y205900D01*
X896095Y199440D02*
X895700Y199100D01*
X826845Y272153D02*
X814380Y272153D01*
X887093Y211905D02*
X897480Y201518D01*
X814380Y272153D02*
X814300Y272600D01*
X897480Y201518D02*
X895700Y199100D01*
D45*
X826845Y272153D03*
X887093Y211905D03*
D44*
X778370Y55400D02*
X778370Y51938D01*
X780448Y49860D01*
X785988Y49860D01*
X788065Y51938D01*
X788065Y55400D01*
X778370Y55400D02*
X778100Y55900D01*
X788065Y55400D02*
X788100Y55900D01*
X776293Y96950D02*
X765905Y96950D01*
X764520Y95565D01*
X777678Y63710D02*
X777678Y56093D01*
X776293Y96950D02*
X776600Y97000D01*
X777678Y56093D02*
X778100Y55900D01*
X818535Y97643D02*
X826153Y97643D01*
X888478Y159968D01*
X894710Y159968D01*
X818535Y97643D02*
X818000Y97600D01*
X894710Y159968D02*
X895000Y160400D01*
X909945Y178665D02*
X930028Y198748D01*
X899558Y168278D02*
X899558Y164815D01*
X895403Y160660D01*
X930028Y198748D02*
X930700Y199100D01*
X895403Y160660D02*
X895000Y160400D01*
X787373Y128805D02*
X764520Y128805D01*
X787373Y128805D02*
X817843Y98335D01*
X818000Y97600D01*
D45*
X764520Y95565D03*
X777678Y63710D03*
X909945Y178665D03*
X899558Y168278D03*
X764520Y128805D03*
D46*
X768675Y170355D02*
X736820Y170355D01*
X768675Y170355D02*
X779063Y159968D01*
X736820Y170355D02*
X736300Y171000D01*
X779063Y159968D02*
X779300Y159500D01*
X203595Y547768D02*
X203595Y551230D01*
X370834Y380529D02*
X579623Y171740D01*
X370834Y380529D02*
X203595Y547768D01*
X579623Y171740D02*
X735435Y171740D01*
X203595Y551230D02*
X203000Y551800D01*
X735435Y171740D02*
X736300Y171000D01*
X880168Y889863D02*
X880168Y940415D01*
X880168Y889863D02*
X370834Y380529D01*
X880168Y940415D02*
X880700Y941100D01*
D44*
X882938Y55400D02*
X882938Y48475D01*
X869088Y34625D01*
X669648Y48475D02*
X663415Y54708D01*
X882938Y55400D02*
X883100Y55900D01*
X663415Y54708D02*
X663300Y55300D01*
X648873Y40858D02*
X635715Y40858D01*
X648873Y40858D02*
X662723Y54708D01*
X635715Y40858D02*
X635500Y40800D01*
X662723Y54708D02*
X663300Y55300D01*
D45*
X869088Y34625D03*
X669648Y48475D03*
D44*
X878090Y49860D02*
X878090Y55400D01*
X878090Y49860D02*
X862855Y34625D01*
X719508Y24238D02*
X710505Y33240D01*
X878090Y55400D02*
X878100Y55900D01*
X710505Y33240D02*
X709900Y33300D01*
X689038Y54708D02*
X676573Y54708D01*
X689038Y54708D02*
X709813Y33933D01*
X676573Y54708D02*
X676300Y55300D01*
X709813Y33933D02*
X709900Y33300D01*
D45*
X862855Y34625D03*
X719508Y24238D03*
D44*
X957728Y188360D02*
X957728Y192515D01*
X957728Y188360D02*
X930028Y160660D01*
X957728Y192515D02*
X957900Y192900D01*
X930028Y160660D02*
X930000Y160400D01*
X670340Y110800D02*
X670340Y76868D01*
X764520Y204980D02*
X797068Y237528D01*
X670340Y76868D02*
X669800Y76300D01*
X797068Y237528D02*
X797100Y238060D01*
X921025Y160660D02*
X929335Y160660D01*
X921025Y160660D02*
X866318Y215368D01*
X866318Y217445D01*
X800530Y234758D02*
X797760Y237528D01*
X929335Y160660D02*
X930000Y160400D01*
X797760Y237528D02*
X797068Y237528D01*
D45*
X670340Y110800D03*
X764520Y204980D03*
X866318Y217445D03*
X800530Y234758D03*
D44*
X1561588Y9003D02*
X1561588Y-2770D01*
X1561588Y9003D02*
X1568513Y15928D01*
X1568513Y25623D01*
X1561588Y-2770D02*
X1561000Y-3380D01*
X1568513Y25623D02*
X1569000Y25780D01*
X1588595Y-53323D02*
X1591365Y-53323D01*
X1596905Y-58863D01*
X1606600Y-58863D01*
X1611448Y-54015D01*
X1611448Y-693D01*
X1585133Y25623D01*
X1588000Y-52800D02*
X1588595Y-53323D01*
X1585133Y25623D02*
X1585000Y25780D01*
X1382923Y466745D02*
X1362840Y466745D01*
X1628068Y221600D02*
X1628068Y126035D01*
X1649535Y104568D01*
X1362840Y466745D02*
X1362250Y467200D01*
X1649535Y104568D02*
X1649750Y104200D01*
X1585133Y47783D02*
X1585133Y26315D01*
X1585000Y25780D01*
X177973Y551923D02*
X177973Y554693D01*
X186283Y563003D01*
X897480Y345558D02*
X904405Y338633D01*
X177973Y551923D02*
X177600Y551800D01*
X897250Y345850D02*
X897480Y345558D01*
X970193Y387108D02*
X982658Y399573D01*
D45*
X1382923Y466745D03*
X1628068Y221600D03*
X1585133Y47783D03*
X186283Y563003D03*
X904405Y338633D03*
X982658Y399573D03*
X970193Y387108D03*
D44*
X1601753Y-51245D02*
X1601753Y-52630D01*
X1601753Y-51245D02*
X1608678Y-44320D01*
X1608678Y-8310D01*
X1577515Y22853D01*
X1577515Y25623D01*
X1601753Y-52630D02*
X1601700Y-52800D01*
X1577515Y25623D02*
X1577000Y25780D01*
X1379460Y471593D02*
X1362840Y471593D01*
X1623220Y232680D02*
X1623220Y117725D01*
X1646073Y94873D01*
X1649535Y94873D01*
X1362840Y471593D02*
X1362250Y472200D01*
X1649535Y94873D02*
X1649750Y94200D01*
X1577515Y46398D02*
X1577515Y26315D01*
X1577515Y46398D02*
X1593443Y62325D01*
X1577515Y26315D02*
X1577000Y25780D01*
X190438Y551923D02*
X190438Y554693D01*
X198748Y563003D01*
X956343Y349713D02*
X957728Y349713D01*
X956343Y349713D02*
X939723Y333093D01*
X894018Y333093D01*
X885015Y342095D01*
X885015Y345558D01*
X190438Y551923D02*
X190300Y551800D01*
X884550Y345850D02*
X885015Y345558D01*
X1358685Y472285D02*
X1362148Y472285D01*
X1358685Y472285D02*
X1282510Y548460D01*
X924488Y548460D01*
X849005Y472978D01*
X1362148Y472285D02*
X1362250Y472200D01*
D45*
X1379460Y471593D03*
X1623220Y232680D03*
X1593443Y62325D03*
X198748Y563003D03*
X957728Y349713D03*
X849005Y472978D03*
D44*
X1588595Y-39473D02*
X1601060Y-39473D01*
X1588595Y-39473D02*
X1588000Y-39800D01*
X1601060Y-39473D02*
X1601700Y-39800D01*
X1577515Y-27700D02*
X1577515Y-3463D01*
X1577515Y-27700D02*
X1588595Y-38780D01*
X1577515Y-3463D02*
X1577000Y-3380D01*
X1588595Y-38780D02*
X1588000Y-39800D01*
X1574053Y-52630D02*
X1561588Y-52630D01*
X1561000Y-52700D01*
X1574053Y-52630D02*
X1574200Y-52700D01*
X1560895Y-52630D02*
X1041520Y-52630D01*
X370488Y388493D02*
X370488Y394725D01*
X216060Y549153D01*
X216060Y551230D01*
X1560895Y-52630D02*
X1561000Y-52700D01*
X216060Y551230D02*
X215700Y551800D01*
D45*
X1041520Y-52630D03*
X370488Y388493D03*
D44*
X1241653Y397495D02*
X1241653Y403728D01*
X1246500Y408575D01*
X1246500Y411345D01*
X1241653Y416193D01*
X1234035Y416193D01*
X1241653Y397495D02*
X1241000Y397000D01*
X1234035Y416193D02*
X1233599Y416700D01*
X1209105Y429350D02*
X1207028Y429350D01*
X1209105Y429350D02*
X1228495Y409960D01*
X1241653Y409960D01*
X1261043Y409960D02*
X1261043Y414808D01*
X1259658Y416193D01*
X1207028Y429350D02*
X1206900Y430000D01*
X1259601Y416700D02*
X1259658Y416193D01*
D45*
X1241653Y409960D03*
X1261043Y409960D03*
D44*
X1192485Y431428D02*
X1192485Y441815D01*
X1192485Y431428D02*
X1193870Y430043D01*
X1192485Y441815D02*
X1192300Y442100D01*
X1193870Y430043D02*
X1193900Y430000D01*
X772830Y70635D02*
X772830Y56093D01*
X772830Y70635D02*
X765213Y78253D01*
X765213Y88640D01*
X756903Y96950D01*
X772830Y56093D02*
X773100Y55900D01*
X756903Y96950D02*
X756400Y97000D01*
X783218Y90025D02*
X783218Y56093D01*
X783218Y90025D02*
X783910Y90718D01*
X789450Y103875D02*
X790835Y103875D01*
X796375Y98335D01*
X783218Y56093D02*
X783100Y55900D01*
X796800Y97700D02*
X796375Y98335D01*
D45*
X783910Y90718D03*
X789450Y103875D03*
D44*
X797760Y63710D02*
X797760Y56093D01*
X857315Y96950D02*
X863548Y90718D01*
X798100Y55900D02*
X797760Y56093D01*
X856800Y97200D02*
X857315Y96950D01*
D45*
X797760Y63710D03*
X863548Y90718D03*
D44*
X792913Y67173D02*
X792913Y56093D01*
X830308Y90718D02*
X837233Y97643D01*
X793100Y55900D02*
X792913Y56093D01*
X837233Y97643D02*
X837500Y97500D01*
D45*
X792913Y67173D03*
X830308Y90718D03*
D44*
X802608Y55400D02*
X802608Y51938D01*
X798453Y47783D01*
X797760Y47783D01*
X873935Y95565D02*
X880860Y95565D01*
X882245Y96950D01*
X803100Y55900D02*
X802608Y55400D01*
X882245Y96950D02*
X882300Y97500D01*
D45*
X797760Y47783D03*
X873935Y95565D03*
D46*
X812995Y55400D02*
X812995Y51245D01*
X762443Y693D01*
X724355Y693D01*
X713275Y-10388D01*
X812995Y55400D02*
X813100Y55900D01*
X713275Y-10388D02*
X713210Y-10480D01*
X736820Y148888D02*
X736820Y151658D01*
X736820Y148888D02*
X789450Y96258D01*
X789450Y79638D01*
X806070Y63018D01*
X810918Y63018D01*
X812995Y60940D01*
X812995Y56785D01*
X736820Y151658D02*
X736300Y152000D01*
X812995Y56785D02*
X813100Y55900D01*
X1003433Y258995D02*
X1003433Y322013D01*
X1006895Y325475D01*
X1006895Y342095D02*
X1006895Y405113D01*
X1006895Y342095D02*
X1006895Y325475D01*
X1006895Y405113D02*
X909945Y502063D01*
X898865Y502063D01*
X890555Y493753D01*
X890555Y487520D01*
X852468Y449433D01*
X852468Y247223D01*
X797068Y191823D01*
X1002800Y258800D02*
X1003433Y258995D01*
X797100Y192340D02*
X797068Y191823D01*
X813688Y49860D02*
X862855Y693D01*
X1050523Y693D01*
X1096228Y-45013D01*
X1478488Y-45013D01*
X1591365Y67865D01*
X1657153Y67865D01*
X1673080Y83793D01*
X1673080Y191130D01*
X1680698Y198748D01*
X1680698Y209828D01*
X1580285Y310240D01*
X1321290Y310240D01*
X1272815Y358715D01*
X1169633Y358715D01*
X1153013Y342095D01*
X1006895Y342095D01*
X812995Y51245D02*
X813688Y49860D01*
D44*
X818535Y56093D02*
X818535Y65095D01*
X831693Y78253D01*
X864933Y78253D01*
X878090Y91410D01*
X897480Y91410D01*
X903713Y97643D01*
X818535Y56093D02*
X818100Y55900D01*
X903713Y97643D02*
X904200Y97800D01*
X1249270Y25623D02*
X1249270Y19390D01*
X1249270Y25623D02*
X1247193Y27700D01*
X1265890Y42935D02*
X1267968Y42935D01*
X1265890Y42935D02*
X1262428Y42935D01*
X1267968Y42935D02*
X1274200Y49168D01*
X1249270Y19390D02*
X1249300Y19300D01*
X1274200Y49168D02*
X1274700Y49600D01*
X833078Y46398D02*
X833078Y55400D01*
X843119Y36356D02*
X874628Y4848D01*
X843119Y36356D02*
X833078Y46398D01*
X874628Y4848D02*
X1060218Y4848D01*
X1096228Y-31163D01*
X1200103Y-31163D01*
X1202180Y-29085D01*
X1204950Y-29085D01*
X1207720Y-31855D01*
X1244423Y-31855D01*
X1249963Y-37395D01*
X833078Y55400D02*
X833100Y55900D01*
X1249963Y-37395D02*
X1250400Y-37700D01*
X203595Y373950D02*
X203595Y376720D01*
X203595Y373950D02*
X242375Y335170D01*
X405113Y335170D01*
X203595Y376720D02*
X203000Y376800D01*
X842773Y36010D02*
X843119Y36356D01*
X1265890Y42935D02*
X1265890Y4155D01*
X1288743Y-18698D01*
X1296360Y-18698D01*
X1297745Y-20083D01*
X1297745Y-28393D01*
X1294283Y-31855D01*
X1256195Y-31855D01*
X1250655Y-37395D01*
X1250400Y-37700D01*
D45*
X1247193Y27700D03*
X1262428Y42935D03*
X405113Y335170D03*
X842773Y36010D03*
D44*
X837925Y47783D02*
X837925Y55400D01*
X600398Y156505D02*
X267998Y156505D01*
X106645Y317858D01*
X838100Y55900D02*
X837925Y55400D01*
X106645Y317858D02*
X106200Y318100D01*
X126728Y342788D02*
X126728Y376720D01*
X114263Y330323D02*
X114263Y326168D01*
X106645Y318550D01*
X126728Y376720D02*
X126800Y376800D01*
X106645Y318550D02*
X106200Y318100D01*
D45*
X837925Y47783D03*
X600398Y156505D03*
X126728Y342788D03*
X114263Y330323D03*
D44*
X843465Y55400D02*
X843465Y42935D01*
X862163Y24238D01*
X900943Y24238D01*
X972270Y95565D01*
X495138Y531840D02*
X485443Y541535D01*
X843100Y55900D02*
X843465Y55400D01*
X485443Y541535D02*
X485200Y542100D01*
X165508Y551923D02*
X165508Y554693D01*
X178665Y567850D01*
X236835Y567850D01*
X165508Y551923D02*
X164900Y551800D01*
D45*
X972270Y95565D03*
X495138Y531840D03*
X236835Y567850D03*
D44*
X848313Y55400D02*
X848313Y44320D01*
X375335Y368410D02*
X375335Y370488D01*
X203595Y542228D01*
X108723Y542228D01*
X101798Y549153D01*
X101798Y551230D01*
X848100Y55900D02*
X848313Y55400D01*
X101798Y551230D02*
X101400Y551800D01*
X126035Y589318D02*
X126035Y597628D01*
X126035Y589318D02*
X101105Y564388D01*
X101105Y551923D01*
X126035Y597628D02*
X126300Y597900D01*
X101400Y551800D02*
X101105Y551923D01*
D45*
X848313Y44320D03*
X375335Y368410D03*
D44*
X873243Y59555D02*
X873243Y56093D01*
X873243Y59555D02*
X880168Y66480D01*
X932105Y66480D01*
X873243Y56093D02*
X873100Y55900D01*
X932105Y66480D02*
X932200Y67100D01*
X867703Y55400D02*
X867703Y51938D01*
X863548Y47783D01*
X637100Y113570D02*
X592088Y113570D01*
X867703Y55400D02*
X868100Y55900D01*
X592088Y113570D02*
X591800Y114000D01*
D45*
X863548Y47783D03*
X637100Y113570D03*
D44*
X1207028Y-37395D02*
X1211875Y-37395D01*
X1207028Y-37395D02*
X1203565Y-33933D01*
X1203565Y11773D02*
X1211183Y19390D01*
X1211875Y-37395D02*
X1212200Y-37800D01*
X1211183Y19390D02*
X1211800Y19400D01*
X359408Y496523D02*
X333093Y496523D01*
X310240Y473670D01*
X216060Y389185D02*
X216060Y377413D01*
X359408Y496523D02*
X360050Y497050D01*
X216060Y377413D02*
X215700Y376800D01*
X653720Y473670D02*
X817843Y309548D01*
D45*
X1203565Y-33933D03*
X1203565Y11773D03*
X310240Y473670D03*
X216060Y389185D03*
X817843Y309548D03*
X653720Y473670D03*
D44*
X675880Y972270D02*
X675880Y973655D01*
X668263Y981273D01*
X632945Y981273D01*
X625328Y988890D01*
X675880Y972270D02*
X676100Y972200D01*
X625328Y988890D02*
X625100Y988988D01*
X139885Y554693D02*
X139885Y551923D01*
X139885Y554693D02*
X236835Y651643D01*
X599705Y988198D02*
X603168Y991660D01*
X622558Y991660D01*
X624635Y989583D01*
X139885Y551923D02*
X139500Y551800D01*
X625100Y988988D02*
X624635Y989583D01*
D45*
X236835Y651643D03*
X599705Y988198D03*
D44*
X113570Y555385D02*
X113570Y551923D01*
X113570Y555385D02*
X105953Y563003D01*
X45013Y590010D02*
X35318Y590010D01*
X31855Y593473D01*
X113570Y551923D02*
X114100Y551800D01*
X31855Y593473D02*
X31400Y593600D01*
D45*
X105953Y563003D03*
X45013Y590010D03*
D44*
X127420Y581700D02*
X127420Y551923D01*
X127420Y581700D02*
X195978Y650258D01*
X195978Y757595D01*
X127420Y551923D02*
X126800Y551800D01*
X195978Y757595D02*
X196400Y757900D01*
X228525Y551230D02*
X228525Y549153D01*
X324783Y452895D01*
X435583Y452895D01*
X858008Y437660D02*
X858008Y424503D01*
X858008Y437660D02*
X858700Y438353D01*
X228525Y551230D02*
X228400Y551800D01*
X858700Y438353D02*
X859150Y438950D01*
D45*
X435583Y452895D03*
X858008Y424503D03*
D44*
X475748Y918948D02*
X471593Y918948D01*
X468130Y922410D01*
X166893Y446663D02*
X113570Y393340D01*
X112878Y393340D01*
X101798Y382260D01*
X101798Y377413D01*
X476200Y918300D02*
X475748Y918948D01*
X101798Y377413D02*
X101400Y376800D01*
D45*
X468130Y922410D03*
X166893Y446663D03*
D44*
X904405Y445970D02*
X936260Y445970D01*
X876013Y443200D02*
X876013Y452895D01*
X876013Y443200D02*
X871858Y439045D01*
X936260Y445970D02*
X936900Y446100D01*
X871858Y439045D02*
X871850Y438950D01*
X165508Y376720D02*
X165508Y373950D01*
X173818Y365640D01*
X860085Y400958D02*
X860085Y420348D01*
X871165Y431428D01*
X871165Y438353D01*
X165508Y376720D02*
X164900Y376800D01*
X871165Y438353D02*
X871850Y438950D01*
X963268Y471593D02*
X1064373Y471593D01*
X943878Y452203D02*
X937645Y445970D01*
X1064373Y471593D02*
X1064800Y471900D01*
X937645Y445970D02*
X936900Y446100D01*
D45*
X904405Y445970D03*
X876013Y452895D03*
X173818Y365640D03*
X860085Y400958D03*
X963268Y471593D03*
X943878Y452203D03*
D44*
X892633Y328245D02*
X892633Y316473D01*
X912715Y405805D02*
X912715Y423118D01*
X912715Y405805D02*
X912715Y355253D01*
X912715Y423118D02*
X897480Y438353D01*
X892633Y316473D02*
X892300Y316000D01*
X897480Y438353D02*
X897250Y438950D01*
X177973Y379490D02*
X177973Y377413D01*
X177973Y379490D02*
X192515Y394033D01*
X345558Y394033D01*
X909253Y405805D02*
X912715Y405805D01*
X177973Y377413D02*
X177600Y376800D01*
D45*
X892633Y328245D03*
X912715Y355253D03*
X345558Y394033D03*
X909253Y405805D03*
D44*
X515913Y966038D02*
X522145Y972270D01*
X515913Y966038D02*
X451510Y966038D01*
X450125Y967423D01*
X450125Y988890D01*
X452203Y990968D01*
X470900Y990968D01*
X472285Y989583D01*
X522145Y972270D02*
X522600Y972400D01*
X472800Y988988D02*
X472285Y989583D01*
X241683Y723663D02*
X241683Y551923D01*
X450818Y964653D02*
X451510Y965345D01*
X241683Y551923D02*
X241100Y551800D01*
X451510Y965345D02*
X451510Y966038D01*
D45*
X241683Y723663D03*
X450818Y964653D03*
D44*
X186283Y324090D02*
X192515Y317858D01*
X186283Y324090D02*
X185590Y324090D01*
X185590Y365640D02*
X185590Y372565D01*
X189745Y376720D01*
X192515Y317858D02*
X193000Y317200D01*
X189745Y376720D02*
X190300Y376800D01*
D45*
X185590Y324090D03*
X185590Y365640D03*
D46*
X900943Y459820D02*
X900943Y463975D01*
X900943Y459820D02*
X890555Y449433D01*
X890555Y369103D01*
X871858Y350405D01*
X871858Y346250D01*
X900943Y463975D02*
X901500Y464600D01*
X871858Y346250D02*
X871850Y345850D01*
X918948Y341403D02*
X936260Y341403D01*
X918948Y341403D02*
X891940Y368410D01*
X936260Y341403D02*
X936800Y341300D01*
X891940Y368410D02*
X890555Y369103D01*
X952188Y355253D02*
X996508Y355253D01*
X952188Y355253D02*
X938338Y341403D01*
X996508Y355253D02*
X996800Y355300D01*
X938338Y341403D02*
X936800Y341300D01*
D44*
X889170Y464668D02*
X889170Y470208D01*
X891940Y472978D01*
X880168Y484750D02*
X880168Y491675D01*
X882938Y494445D01*
X888500Y464600D02*
X889170Y464668D01*
X882938Y494445D02*
X883200Y494700D01*
D45*
X891940Y472978D03*
X880168Y484750D03*
D44*
X519375Y917563D02*
X505525Y917563D01*
X504833Y918255D01*
X519375Y917563D02*
X520000Y917300D01*
X504833Y918255D02*
X504200Y918300D01*
X470900Y972270D02*
X457743Y972270D01*
X470900Y972270D02*
X472285Y973655D01*
X457743Y972270D02*
X457200Y971822D01*
X472285Y973655D02*
X472800Y973988D01*
X208443Y985428D02*
X207058Y985428D01*
X208443Y985428D02*
X219523Y974348D01*
X207058Y985428D02*
X206900Y985600D01*
X219523Y974348D02*
X220100Y973988D01*
X457743Y984735D02*
X461898Y984735D01*
X465360Y981273D01*
X499985Y981273D01*
X507603Y988890D01*
X457743Y984735D02*
X457200Y984822D01*
X507603Y988890D02*
X507800Y988988D01*
X270075Y974348D02*
X270075Y972963D01*
X270075Y974348D02*
X263150Y981273D01*
X227833Y981273D01*
X220215Y988890D01*
X270075Y972963D02*
X270500Y972400D01*
X220215Y988890D02*
X220100Y988988D01*
X207058Y972270D02*
X207058Y970885D01*
X213290Y964653D01*
X237528Y988890D02*
X254840Y988890D01*
X207058Y972270D02*
X206900Y972600D01*
X254840Y988890D02*
X255100Y988988D01*
D45*
X213290Y964653D03*
X237528Y988890D03*
D47*
X190000Y275500D03*
X172000Y275500D03*
X118000Y275500D03*
X100000Y275500D03*
X82000Y275500D03*
X64000Y275500D03*
X190000Y257500D03*
X136000Y257500D03*
X118000Y257500D03*
X100000Y257500D03*
X82000Y257500D03*
X64000Y257500D03*
X154000Y239500D03*
X136000Y239500D03*
X118000Y239500D03*
X100000Y239500D03*
X82000Y239500D03*
X64000Y239500D03*
X172000Y221500D03*
X154000Y221500D03*
X136000Y221500D03*
X118000Y221500D03*
X100000Y221500D03*
X82000Y221500D03*
X64000Y221500D03*
X190000Y203500D03*
X172000Y203500D03*
X154000Y203500D03*
X136000Y203500D03*
X118000Y203500D03*
X100000Y203500D03*
X82000Y203500D03*
X64000Y203500D03*
X64000Y185500D03*
X82000Y185500D03*
X100000Y185500D03*
X118000Y185500D03*
X136000Y185500D03*
X154000Y185500D03*
X172000Y185500D03*
X190000Y185500D03*
M02*
