G04 EAGLE Gerber RS-274X export*
G75*
%MOMM*%
%FSLAX34Y34*%
%LPD*%
%INSolderpaste Top*%
%IPPOS*%
%AMOC8*
5,1,8,0,0,1.08239X$1,22.5*%
G01*
G04 Define Apertures*
%ADD10R,1.400000X1.050000*%
%ADD11R,0.900000X0.700000*%
%ADD12R,1.400000X1.400000*%
%ADD13R,0.700000X0.900000*%
%ADD14R,2.200000X2.000000*%
%ADD15R,0.800000X0.800000*%
%ADD16R,1.200000X0.600000*%
%ADD17R,0.940000X0.970000*%
%ADD18R,0.900000X0.800000*%
%ADD19R,1.150000X0.800000*%
%ADD20R,0.800000X0.900000*%
%ADD21R,0.900000X0.600000*%
%ADD22R,0.300000X0.800000*%
%ADD23R,0.400000X0.800000*%
%ADD24R,1.150000X0.300000*%
%ADD25R,2.000000X2.180000*%
%ADD26R,2.000000X1.200000*%
%ADD27R,1.350000X0.600000*%
%ADD28R,1.200000X1.800000*%
%ADD29R,1.900000X1.400000*%
%ADD30R,1.500000X0.700000*%
%ADD31R,0.127000X0.127000*%
%ADD32R,1.200000X0.550000*%
%ADD33R,1.500000X3.600000*%
%ADD34R,0.500000X1.050000*%
%ADD35C,0.125000*%
%ADD36R,1.168400X1.600200*%
%ADD37R,1.010000X1.460000*%
%ADD38C,0.110000*%
%ADD39R,0.900000X1.500000*%
%ADD40C,0.147500*%
%ADD41R,0.560000X0.820000*%
%ADD42C,0.067500*%
D10*
X507800Y988988D03*
X472800Y988988D03*
X472800Y973988D03*
X507800Y973988D03*
D11*
X1574200Y-52700D03*
X1574200Y-39700D03*
X608100Y972500D03*
X608100Y985500D03*
D12*
X996800Y355300D03*
X996800Y333300D03*
D13*
X1139200Y441500D03*
X1152200Y441500D03*
X1152400Y311900D03*
X1165400Y311900D03*
D11*
X1282800Y323800D03*
X1282800Y336800D03*
X1561000Y-52700D03*
X1561000Y-39700D03*
X1265000Y464300D03*
X1265000Y477300D03*
D14*
X1251000Y315600D03*
X1251000Y345600D03*
D11*
X957900Y205900D03*
X957900Y192900D03*
D13*
X1479200Y391200D03*
X1492200Y391200D03*
D11*
X206900Y972600D03*
X206900Y985600D03*
D13*
X1478800Y372700D03*
X1491800Y372700D03*
D11*
X457200Y984822D03*
X457200Y971822D03*
X1002800Y258800D03*
X1002800Y245800D03*
X936800Y341300D03*
X936800Y354300D03*
X91600Y887100D03*
X91600Y900100D03*
D15*
X1207300Y442100D03*
X1192300Y442100D03*
D11*
X520000Y917300D03*
X520000Y904300D03*
D16*
X1468500Y429000D03*
X1468500Y419500D03*
X1468500Y410000D03*
X1493500Y410000D03*
X1493500Y419500D03*
X1493500Y429000D03*
D17*
X1174800Y4700D03*
X1174800Y19700D03*
X1139800Y4500D03*
X1139800Y19500D03*
X1101300Y4300D03*
X1101300Y19300D03*
D18*
X1150700Y331300D03*
X1150700Y352300D03*
D19*
X779300Y272600D03*
X814300Y272600D03*
X895700Y199100D03*
X930700Y199100D03*
X895000Y160400D03*
X930000Y160400D03*
D17*
X1249300Y4300D03*
X1249300Y19300D03*
D20*
X883200Y494700D03*
X904200Y494700D03*
D17*
X1289800Y5100D03*
X1289800Y20100D03*
X1211800Y4400D03*
X1211800Y19400D03*
D11*
X932200Y80100D03*
X932200Y67100D03*
X796800Y84700D03*
X796800Y97700D03*
X776600Y84000D03*
X776600Y97000D03*
X756400Y84000D03*
X756400Y97000D03*
X591800Y101000D03*
X591800Y114000D03*
X904200Y84800D03*
X904200Y97800D03*
X882300Y84500D03*
X882300Y97500D03*
X856800Y84200D03*
X856800Y97200D03*
X837500Y84500D03*
X837500Y97500D03*
X818000Y84600D03*
X818000Y97600D03*
D21*
X476200Y918300D03*
X476200Y908800D03*
X476200Y899300D03*
X504200Y899300D03*
X504200Y918300D03*
X1174500Y351900D03*
X1174500Y342400D03*
X1174500Y332900D03*
X1202500Y332900D03*
X1202500Y351900D03*
D22*
X888100Y55900D03*
X883100Y55900D03*
X878100Y55900D03*
X873100Y55900D03*
X868100Y55900D03*
X863100Y55900D03*
X858100Y55900D03*
X853100Y55900D03*
X848100Y55900D03*
X843100Y55900D03*
X838100Y55900D03*
X833100Y55900D03*
X828100Y55900D03*
X823100Y55900D03*
X818100Y55900D03*
X813100Y55900D03*
X808100Y55900D03*
X803100Y55900D03*
X798100Y55900D03*
X793100Y55900D03*
X788100Y55900D03*
X783100Y55900D03*
X778100Y55900D03*
X773100Y55900D03*
D23*
X898100Y30900D03*
X763100Y30900D03*
D24*
X1624890Y402900D03*
X1624890Y410900D03*
X1624890Y423900D03*
X1624890Y433900D03*
X1624890Y438900D03*
X1624890Y448900D03*
X1624890Y461900D03*
X1624890Y469900D03*
X1624890Y466900D03*
X1624890Y458900D03*
X1624890Y453900D03*
X1624890Y443900D03*
X1624890Y428900D03*
X1624890Y418900D03*
X1624890Y413900D03*
X1624890Y405900D03*
D25*
X1669940Y385300D03*
X1669940Y487500D03*
X1630640Y385300D03*
X1630640Y487500D03*
D26*
X1686500Y61200D03*
X1686500Y117200D03*
D27*
X1649750Y74200D03*
X1649750Y84200D03*
X1649750Y94200D03*
X1649750Y104200D03*
D28*
X154762Y738300D03*
X154762Y795300D03*
D29*
X12262Y708300D03*
X22262Y839800D03*
D30*
X50762Y756300D03*
X54762Y767300D03*
X50762Y778300D03*
X48762Y789300D03*
X50762Y800300D03*
X48762Y811300D03*
X50762Y822300D03*
X50762Y833300D03*
D28*
X154762Y766800D03*
X154762Y823800D03*
D31*
X797100Y238060D03*
X797100Y192340D03*
D32*
X1259601Y416700D03*
X1259601Y426200D03*
X1259601Y435700D03*
X1233599Y435700D03*
X1233599Y416700D03*
D33*
X1557600Y331500D03*
X1512600Y331500D03*
D20*
X1302500Y392500D03*
X1321500Y392500D03*
X1312000Y413500D03*
D18*
X736300Y171000D03*
X736300Y152000D03*
X757300Y161500D03*
D34*
X663300Y55300D03*
X676300Y55300D03*
X669800Y76300D03*
D11*
X193000Y317200D03*
X193000Y330200D03*
X1290700Y-37400D03*
X1290700Y-24400D03*
D13*
X1193900Y430000D03*
X1206900Y430000D03*
D11*
X1601700Y-52800D03*
X1601700Y-39800D03*
X936900Y446100D03*
X936900Y459100D03*
X1132100Y335500D03*
X1132100Y348500D03*
X651900Y-8800D03*
X651900Y4200D03*
D13*
X892300Y316000D03*
X879300Y316000D03*
D11*
X1521600Y444100D03*
X1521600Y457100D03*
X1419700Y433400D03*
X1419700Y420400D03*
X1241000Y384000D03*
X1241000Y397000D03*
X1588000Y-52800D03*
X1588000Y-39800D03*
D13*
X696900Y33300D03*
X709900Y33300D03*
X622500Y40800D03*
X635500Y40800D03*
D11*
X1212200Y-37800D03*
X1212200Y-24800D03*
X1176200Y-38100D03*
X1176200Y-25100D03*
X1139900Y-38100D03*
X1139900Y-25100D03*
X1101400Y-37900D03*
X1101400Y-24900D03*
X1250400Y-37700D03*
X1250400Y-24700D03*
D10*
X255100Y988988D03*
X220100Y988988D03*
X220100Y973988D03*
X255100Y973988D03*
D11*
X522600Y972400D03*
X522600Y985400D03*
D13*
X888500Y464600D03*
X901500Y464600D03*
D11*
X676100Y972200D03*
X676100Y985200D03*
D13*
X779300Y159500D03*
X792300Y159500D03*
D11*
X270500Y972400D03*
X270500Y985400D03*
D35*
X1562875Y30235D02*
X1562875Y21325D01*
X1559125Y21325D01*
X1559125Y30235D01*
X1562875Y30235D01*
X1562875Y22512D02*
X1559125Y22512D01*
X1559125Y23699D02*
X1562875Y23699D01*
X1562875Y24886D02*
X1559125Y24886D01*
X1559125Y26073D02*
X1562875Y26073D01*
X1562875Y27260D02*
X1559125Y27260D01*
X1559125Y28447D02*
X1562875Y28447D01*
X1562875Y29634D02*
X1559125Y29634D01*
X1570875Y30235D02*
X1570875Y21325D01*
X1567125Y21325D01*
X1567125Y30235D01*
X1570875Y30235D01*
X1570875Y22512D02*
X1567125Y22512D01*
X1567125Y23699D02*
X1570875Y23699D01*
X1570875Y24886D02*
X1567125Y24886D01*
X1567125Y26073D02*
X1570875Y26073D01*
X1570875Y27260D02*
X1567125Y27260D01*
X1567125Y28447D02*
X1570875Y28447D01*
X1570875Y29634D02*
X1567125Y29634D01*
X1578875Y30235D02*
X1578875Y21325D01*
X1575125Y21325D01*
X1575125Y30235D01*
X1578875Y30235D01*
X1578875Y22512D02*
X1575125Y22512D01*
X1575125Y23699D02*
X1578875Y23699D01*
X1578875Y24886D02*
X1575125Y24886D01*
X1575125Y26073D02*
X1578875Y26073D01*
X1578875Y27260D02*
X1575125Y27260D01*
X1575125Y28447D02*
X1578875Y28447D01*
X1578875Y29634D02*
X1575125Y29634D01*
X1586875Y30235D02*
X1586875Y21325D01*
X1583125Y21325D01*
X1583125Y30235D01*
X1586875Y30235D01*
X1586875Y22512D02*
X1583125Y22512D01*
X1583125Y23699D02*
X1586875Y23699D01*
X1586875Y24886D02*
X1583125Y24886D01*
X1583125Y26073D02*
X1586875Y26073D01*
X1586875Y27260D02*
X1583125Y27260D01*
X1583125Y28447D02*
X1586875Y28447D01*
X1586875Y29634D02*
X1583125Y29634D01*
X1587075Y1075D02*
X1587075Y-7835D01*
X1583325Y-7835D01*
X1583325Y1075D01*
X1587075Y1075D01*
X1587075Y-6648D02*
X1583325Y-6648D01*
X1583325Y-5461D02*
X1587075Y-5461D01*
X1587075Y-4274D02*
X1583325Y-4274D01*
X1583325Y-3087D02*
X1587075Y-3087D01*
X1587075Y-1900D02*
X1583325Y-1900D01*
X1583325Y-713D02*
X1587075Y-713D01*
X1587075Y474D02*
X1583325Y474D01*
X1578875Y1075D02*
X1578875Y-7835D01*
X1575125Y-7835D01*
X1575125Y1075D01*
X1578875Y1075D01*
X1578875Y-6648D02*
X1575125Y-6648D01*
X1575125Y-5461D02*
X1578875Y-5461D01*
X1578875Y-4274D02*
X1575125Y-4274D01*
X1575125Y-3087D02*
X1578875Y-3087D01*
X1578875Y-1900D02*
X1575125Y-1900D01*
X1575125Y-713D02*
X1578875Y-713D01*
X1578875Y474D02*
X1575125Y474D01*
X1570875Y1075D02*
X1570875Y-7835D01*
X1567125Y-7835D01*
X1567125Y1075D01*
X1570875Y1075D01*
X1570875Y-6648D02*
X1567125Y-6648D01*
X1567125Y-5461D02*
X1570875Y-5461D01*
X1570875Y-4274D02*
X1567125Y-4274D01*
X1567125Y-3087D02*
X1570875Y-3087D01*
X1570875Y-1900D02*
X1567125Y-1900D01*
X1567125Y-713D02*
X1570875Y-713D01*
X1570875Y474D02*
X1567125Y474D01*
X1562875Y1075D02*
X1562875Y-7835D01*
X1559125Y-7835D01*
X1559125Y1075D01*
X1562875Y1075D01*
X1562875Y-6648D02*
X1559125Y-6648D01*
X1559125Y-5461D02*
X1562875Y-5461D01*
X1562875Y-4274D02*
X1559125Y-4274D01*
X1559125Y-3087D02*
X1562875Y-3087D01*
X1562875Y-1900D02*
X1559125Y-1900D01*
X1559125Y-713D02*
X1562875Y-713D01*
X1562875Y474D02*
X1559125Y474D01*
D36*
X615580Y-3600D03*
X630820Y-3600D03*
D37*
X391650Y487600D03*
X406350Y487600D03*
X391650Y468400D03*
X406350Y468400D03*
D38*
X364200Y495400D02*
X355900Y495400D01*
X355900Y498700D01*
X364200Y498700D01*
X364200Y495400D01*
X364200Y496445D02*
X355900Y496445D01*
X355900Y497490D02*
X364200Y497490D01*
X364200Y498535D02*
X355900Y498535D01*
X355900Y482700D02*
X364200Y482700D01*
X355900Y482700D02*
X355900Y486000D01*
X364200Y486000D01*
X364200Y482700D01*
X364200Y483745D02*
X355900Y483745D01*
X355900Y484790D02*
X364200Y484790D01*
X364200Y485835D02*
X355900Y485835D01*
X355900Y470000D02*
X364200Y470000D01*
X355900Y470000D02*
X355900Y473300D01*
X364200Y473300D01*
X364200Y470000D01*
X364200Y471045D02*
X355900Y471045D01*
X355900Y472090D02*
X364200Y472090D01*
X364200Y473135D02*
X355900Y473135D01*
X355900Y457300D02*
X364200Y457300D01*
X355900Y457300D02*
X355900Y460600D01*
X364200Y460600D01*
X364200Y457300D01*
X364200Y458345D02*
X355900Y458345D01*
X355900Y459390D02*
X364200Y459390D01*
X364200Y460435D02*
X355900Y460435D01*
X433800Y457300D02*
X442100Y457300D01*
X433800Y457300D02*
X433800Y460600D01*
X442100Y460600D01*
X442100Y457300D01*
X442100Y458345D02*
X433800Y458345D01*
X433800Y459390D02*
X442100Y459390D01*
X442100Y460435D02*
X433800Y460435D01*
X433800Y470000D02*
X442100Y470000D01*
X433800Y470000D02*
X433800Y473300D01*
X442100Y473300D01*
X442100Y470000D01*
X442100Y471045D02*
X433800Y471045D01*
X433800Y472090D02*
X442100Y472090D01*
X442100Y473135D02*
X433800Y473135D01*
X433800Y482700D02*
X442100Y482700D01*
X433800Y482700D02*
X433800Y486000D01*
X442100Y486000D01*
X442100Y482700D01*
X442100Y483745D02*
X433800Y483745D01*
X433800Y484790D02*
X442100Y484790D01*
X442100Y485835D02*
X433800Y485835D01*
X433800Y495400D02*
X442100Y495400D01*
X433800Y495400D02*
X433800Y498700D01*
X442100Y498700D01*
X442100Y495400D01*
X442100Y496445D02*
X433800Y496445D01*
X433800Y497490D02*
X442100Y497490D01*
X442100Y498535D02*
X433800Y498535D01*
D39*
X76000Y376800D03*
X88700Y376800D03*
X101400Y376800D03*
X114100Y376800D03*
X126800Y376800D03*
X139500Y376800D03*
X152200Y376800D03*
X164900Y376800D03*
X177600Y376800D03*
X190300Y376800D03*
X203000Y376800D03*
X215700Y376800D03*
X228400Y376800D03*
X241100Y376800D03*
X241100Y551800D03*
X228400Y551800D03*
X215700Y551800D03*
X203000Y551800D03*
X190300Y551800D03*
X177600Y551800D03*
X164900Y551800D03*
X152200Y551800D03*
X139500Y551800D03*
X126800Y551800D03*
X114100Y551800D03*
X101400Y551800D03*
X88700Y551800D03*
X76000Y551800D03*
D15*
X133200Y449250D03*
X120700Y436750D03*
X120700Y449250D03*
X120700Y461750D03*
X133200Y436750D03*
X133200Y461750D03*
X145700Y436750D03*
X145700Y449250D03*
X145700Y461750D03*
D40*
X895037Y448463D02*
X895037Y429437D01*
X895037Y448463D02*
X899463Y448463D01*
X899463Y429437D01*
X895037Y429437D01*
X895037Y430838D02*
X899463Y430838D01*
X899463Y432239D02*
X895037Y432239D01*
X895037Y433640D02*
X899463Y433640D01*
X899463Y435041D02*
X895037Y435041D01*
X895037Y436442D02*
X899463Y436442D01*
X899463Y437843D02*
X895037Y437843D01*
X895037Y439244D02*
X899463Y439244D01*
X899463Y440645D02*
X895037Y440645D01*
X895037Y442046D02*
X899463Y442046D01*
X899463Y443447D02*
X895037Y443447D01*
X895037Y444848D02*
X899463Y444848D01*
X899463Y446249D02*
X895037Y446249D01*
X895037Y447650D02*
X899463Y447650D01*
X882337Y448463D02*
X882337Y429437D01*
X882337Y448463D02*
X886763Y448463D01*
X886763Y429437D01*
X882337Y429437D01*
X882337Y430838D02*
X886763Y430838D01*
X886763Y432239D02*
X882337Y432239D01*
X882337Y433640D02*
X886763Y433640D01*
X886763Y435041D02*
X882337Y435041D01*
X882337Y436442D02*
X886763Y436442D01*
X886763Y437843D02*
X882337Y437843D01*
X882337Y439244D02*
X886763Y439244D01*
X886763Y440645D02*
X882337Y440645D01*
X882337Y442046D02*
X886763Y442046D01*
X886763Y443447D02*
X882337Y443447D01*
X882337Y444848D02*
X886763Y444848D01*
X886763Y446249D02*
X882337Y446249D01*
X882337Y447650D02*
X886763Y447650D01*
X869637Y448463D02*
X869637Y429437D01*
X869637Y448463D02*
X874063Y448463D01*
X874063Y429437D01*
X869637Y429437D01*
X869637Y430838D02*
X874063Y430838D01*
X874063Y432239D02*
X869637Y432239D01*
X869637Y433640D02*
X874063Y433640D01*
X874063Y435041D02*
X869637Y435041D01*
X869637Y436442D02*
X874063Y436442D01*
X874063Y437843D02*
X869637Y437843D01*
X869637Y439244D02*
X874063Y439244D01*
X874063Y440645D02*
X869637Y440645D01*
X869637Y442046D02*
X874063Y442046D01*
X874063Y443447D02*
X869637Y443447D01*
X869637Y444848D02*
X874063Y444848D01*
X874063Y446249D02*
X869637Y446249D01*
X869637Y447650D02*
X874063Y447650D01*
X856937Y448463D02*
X856937Y429437D01*
X856937Y448463D02*
X861363Y448463D01*
X861363Y429437D01*
X856937Y429437D01*
X856937Y430838D02*
X861363Y430838D01*
X861363Y432239D02*
X856937Y432239D01*
X856937Y433640D02*
X861363Y433640D01*
X861363Y435041D02*
X856937Y435041D01*
X856937Y436442D02*
X861363Y436442D01*
X861363Y437843D02*
X856937Y437843D01*
X856937Y439244D02*
X861363Y439244D01*
X861363Y440645D02*
X856937Y440645D01*
X856937Y442046D02*
X861363Y442046D01*
X861363Y443447D02*
X856937Y443447D01*
X856937Y444848D02*
X861363Y444848D01*
X861363Y446249D02*
X856937Y446249D01*
X856937Y447650D02*
X861363Y447650D01*
X844237Y448463D02*
X844237Y429437D01*
X844237Y448463D02*
X848663Y448463D01*
X848663Y429437D01*
X844237Y429437D01*
X844237Y430838D02*
X848663Y430838D01*
X848663Y432239D02*
X844237Y432239D01*
X844237Y433640D02*
X848663Y433640D01*
X848663Y435041D02*
X844237Y435041D01*
X844237Y436442D02*
X848663Y436442D01*
X848663Y437843D02*
X844237Y437843D01*
X844237Y439244D02*
X848663Y439244D01*
X848663Y440645D02*
X844237Y440645D01*
X844237Y442046D02*
X848663Y442046D01*
X848663Y443447D02*
X844237Y443447D01*
X844237Y444848D02*
X848663Y444848D01*
X848663Y446249D02*
X844237Y446249D01*
X844237Y447650D02*
X848663Y447650D01*
X831537Y448463D02*
X831537Y429437D01*
X831537Y448463D02*
X835963Y448463D01*
X835963Y429437D01*
X831537Y429437D01*
X831537Y430838D02*
X835963Y430838D01*
X835963Y432239D02*
X831537Y432239D01*
X831537Y433640D02*
X835963Y433640D01*
X835963Y435041D02*
X831537Y435041D01*
X831537Y436442D02*
X835963Y436442D01*
X835963Y437843D02*
X831537Y437843D01*
X831537Y439244D02*
X835963Y439244D01*
X835963Y440645D02*
X831537Y440645D01*
X831537Y442046D02*
X835963Y442046D01*
X835963Y443447D02*
X831537Y443447D01*
X831537Y444848D02*
X835963Y444848D01*
X835963Y446249D02*
X831537Y446249D01*
X831537Y447650D02*
X835963Y447650D01*
X818837Y448463D02*
X818837Y429437D01*
X818837Y448463D02*
X823263Y448463D01*
X823263Y429437D01*
X818837Y429437D01*
X818837Y430838D02*
X823263Y430838D01*
X823263Y432239D02*
X818837Y432239D01*
X818837Y433640D02*
X823263Y433640D01*
X823263Y435041D02*
X818837Y435041D01*
X818837Y436442D02*
X823263Y436442D01*
X823263Y437843D02*
X818837Y437843D01*
X818837Y439244D02*
X823263Y439244D01*
X823263Y440645D02*
X818837Y440645D01*
X818837Y442046D02*
X823263Y442046D01*
X823263Y443447D02*
X818837Y443447D01*
X818837Y444848D02*
X823263Y444848D01*
X823263Y446249D02*
X818837Y446249D01*
X818837Y447650D02*
X823263Y447650D01*
X806137Y448463D02*
X806137Y429437D01*
X806137Y448463D02*
X810563Y448463D01*
X810563Y429437D01*
X806137Y429437D01*
X806137Y430838D02*
X810563Y430838D01*
X810563Y432239D02*
X806137Y432239D01*
X806137Y433640D02*
X810563Y433640D01*
X810563Y435041D02*
X806137Y435041D01*
X806137Y436442D02*
X810563Y436442D01*
X810563Y437843D02*
X806137Y437843D01*
X806137Y439244D02*
X810563Y439244D01*
X810563Y440645D02*
X806137Y440645D01*
X806137Y442046D02*
X810563Y442046D01*
X810563Y443447D02*
X806137Y443447D01*
X806137Y444848D02*
X810563Y444848D01*
X810563Y446249D02*
X806137Y446249D01*
X806137Y447650D02*
X810563Y447650D01*
X806137Y355363D02*
X806137Y336337D01*
X806137Y355363D02*
X810563Y355363D01*
X810563Y336337D01*
X806137Y336337D01*
X806137Y337738D02*
X810563Y337738D01*
X810563Y339139D02*
X806137Y339139D01*
X806137Y340540D02*
X810563Y340540D01*
X810563Y341941D02*
X806137Y341941D01*
X806137Y343342D02*
X810563Y343342D01*
X810563Y344743D02*
X806137Y344743D01*
X806137Y346144D02*
X810563Y346144D01*
X810563Y347545D02*
X806137Y347545D01*
X806137Y348946D02*
X810563Y348946D01*
X810563Y350347D02*
X806137Y350347D01*
X806137Y351748D02*
X810563Y351748D01*
X810563Y353149D02*
X806137Y353149D01*
X806137Y354550D02*
X810563Y354550D01*
X818837Y355363D02*
X818837Y336337D01*
X818837Y355363D02*
X823263Y355363D01*
X823263Y336337D01*
X818837Y336337D01*
X818837Y337738D02*
X823263Y337738D01*
X823263Y339139D02*
X818837Y339139D01*
X818837Y340540D02*
X823263Y340540D01*
X823263Y341941D02*
X818837Y341941D01*
X818837Y343342D02*
X823263Y343342D01*
X823263Y344743D02*
X818837Y344743D01*
X818837Y346144D02*
X823263Y346144D01*
X823263Y347545D02*
X818837Y347545D01*
X818837Y348946D02*
X823263Y348946D01*
X823263Y350347D02*
X818837Y350347D01*
X818837Y351748D02*
X823263Y351748D01*
X823263Y353149D02*
X818837Y353149D01*
X818837Y354550D02*
X823263Y354550D01*
X831537Y355363D02*
X831537Y336337D01*
X831537Y355363D02*
X835963Y355363D01*
X835963Y336337D01*
X831537Y336337D01*
X831537Y337738D02*
X835963Y337738D01*
X835963Y339139D02*
X831537Y339139D01*
X831537Y340540D02*
X835963Y340540D01*
X835963Y341941D02*
X831537Y341941D01*
X831537Y343342D02*
X835963Y343342D01*
X835963Y344743D02*
X831537Y344743D01*
X831537Y346144D02*
X835963Y346144D01*
X835963Y347545D02*
X831537Y347545D01*
X831537Y348946D02*
X835963Y348946D01*
X835963Y350347D02*
X831537Y350347D01*
X831537Y351748D02*
X835963Y351748D01*
X835963Y353149D02*
X831537Y353149D01*
X831537Y354550D02*
X835963Y354550D01*
X844237Y355363D02*
X844237Y336337D01*
X844237Y355363D02*
X848663Y355363D01*
X848663Y336337D01*
X844237Y336337D01*
X844237Y337738D02*
X848663Y337738D01*
X848663Y339139D02*
X844237Y339139D01*
X844237Y340540D02*
X848663Y340540D01*
X848663Y341941D02*
X844237Y341941D01*
X844237Y343342D02*
X848663Y343342D01*
X848663Y344743D02*
X844237Y344743D01*
X844237Y346144D02*
X848663Y346144D01*
X848663Y347545D02*
X844237Y347545D01*
X844237Y348946D02*
X848663Y348946D01*
X848663Y350347D02*
X844237Y350347D01*
X844237Y351748D02*
X848663Y351748D01*
X848663Y353149D02*
X844237Y353149D01*
X844237Y354550D02*
X848663Y354550D01*
X856937Y355363D02*
X856937Y336337D01*
X856937Y355363D02*
X861363Y355363D01*
X861363Y336337D01*
X856937Y336337D01*
X856937Y337738D02*
X861363Y337738D01*
X861363Y339139D02*
X856937Y339139D01*
X856937Y340540D02*
X861363Y340540D01*
X861363Y341941D02*
X856937Y341941D01*
X856937Y343342D02*
X861363Y343342D01*
X861363Y344743D02*
X856937Y344743D01*
X856937Y346144D02*
X861363Y346144D01*
X861363Y347545D02*
X856937Y347545D01*
X856937Y348946D02*
X861363Y348946D01*
X861363Y350347D02*
X856937Y350347D01*
X856937Y351748D02*
X861363Y351748D01*
X861363Y353149D02*
X856937Y353149D01*
X856937Y354550D02*
X861363Y354550D01*
X869637Y355363D02*
X869637Y336337D01*
X869637Y355363D02*
X874063Y355363D01*
X874063Y336337D01*
X869637Y336337D01*
X869637Y337738D02*
X874063Y337738D01*
X874063Y339139D02*
X869637Y339139D01*
X869637Y340540D02*
X874063Y340540D01*
X874063Y341941D02*
X869637Y341941D01*
X869637Y343342D02*
X874063Y343342D01*
X874063Y344743D02*
X869637Y344743D01*
X869637Y346144D02*
X874063Y346144D01*
X874063Y347545D02*
X869637Y347545D01*
X869637Y348946D02*
X874063Y348946D01*
X874063Y350347D02*
X869637Y350347D01*
X869637Y351748D02*
X874063Y351748D01*
X874063Y353149D02*
X869637Y353149D01*
X869637Y354550D02*
X874063Y354550D01*
X882337Y355363D02*
X882337Y336337D01*
X882337Y355363D02*
X886763Y355363D01*
X886763Y336337D01*
X882337Y336337D01*
X882337Y337738D02*
X886763Y337738D01*
X886763Y339139D02*
X882337Y339139D01*
X882337Y340540D02*
X886763Y340540D01*
X886763Y341941D02*
X882337Y341941D01*
X882337Y343342D02*
X886763Y343342D01*
X886763Y344743D02*
X882337Y344743D01*
X882337Y346144D02*
X886763Y346144D01*
X886763Y347545D02*
X882337Y347545D01*
X882337Y348946D02*
X886763Y348946D01*
X886763Y350347D02*
X882337Y350347D01*
X882337Y351748D02*
X886763Y351748D01*
X886763Y353149D02*
X882337Y353149D01*
X882337Y354550D02*
X886763Y354550D01*
X895037Y355363D02*
X895037Y336337D01*
X895037Y355363D02*
X899463Y355363D01*
X899463Y336337D01*
X895037Y336337D01*
X895037Y337738D02*
X899463Y337738D01*
X899463Y339139D02*
X895037Y339139D01*
X895037Y340540D02*
X899463Y340540D01*
X899463Y341941D02*
X895037Y341941D01*
X895037Y343342D02*
X899463Y343342D01*
X899463Y344743D02*
X895037Y344743D01*
X895037Y346144D02*
X899463Y346144D01*
X899463Y347545D02*
X895037Y347545D01*
X895037Y348946D02*
X899463Y348946D01*
X899463Y350347D02*
X895037Y350347D01*
X895037Y351748D02*
X899463Y351748D01*
X899463Y353149D02*
X895037Y353149D01*
X895037Y354550D02*
X899463Y354550D01*
D41*
X1352400Y464700D03*
D42*
X1346013Y471187D02*
X1339087Y471187D01*
X1339087Y473213D01*
X1346013Y473213D01*
X1346013Y471187D01*
X1346013Y471828D02*
X1339087Y471828D01*
X1339087Y472469D02*
X1346013Y472469D01*
X1346013Y473110D02*
X1339087Y473110D01*
X1339087Y466187D02*
X1346013Y466187D01*
X1339087Y466187D02*
X1339087Y468213D01*
X1346013Y468213D01*
X1346013Y466187D01*
X1346013Y466828D02*
X1339087Y466828D01*
X1339087Y467469D02*
X1346013Y467469D01*
X1346013Y468110D02*
X1339087Y468110D01*
X1339087Y461187D02*
X1346013Y461187D01*
X1339087Y461187D02*
X1339087Y463213D01*
X1346013Y463213D01*
X1346013Y461187D01*
X1346013Y461828D02*
X1339087Y461828D01*
X1339087Y462469D02*
X1346013Y462469D01*
X1346013Y463110D02*
X1339087Y463110D01*
X1339087Y456187D02*
X1346013Y456187D01*
X1339087Y456187D02*
X1339087Y458213D01*
X1346013Y458213D01*
X1346013Y456187D01*
X1346013Y456828D02*
X1339087Y456828D01*
X1339087Y457469D02*
X1346013Y457469D01*
X1346013Y458110D02*
X1339087Y458110D01*
X1358787Y456187D02*
X1365713Y456187D01*
X1358787Y456187D02*
X1358787Y458213D01*
X1365713Y458213D01*
X1365713Y456187D01*
X1365713Y456828D02*
X1358787Y456828D01*
X1358787Y457469D02*
X1365713Y457469D01*
X1365713Y458110D02*
X1358787Y458110D01*
X1358787Y461187D02*
X1365713Y461187D01*
X1358787Y461187D02*
X1358787Y463213D01*
X1365713Y463213D01*
X1365713Y461187D01*
X1365713Y461828D02*
X1358787Y461828D01*
X1358787Y462469D02*
X1365713Y462469D01*
X1365713Y463110D02*
X1358787Y463110D01*
X1358787Y466187D02*
X1365713Y466187D01*
X1358787Y466187D02*
X1358787Y468213D01*
X1365713Y468213D01*
X1365713Y466187D01*
X1365713Y466828D02*
X1358787Y466828D01*
X1358787Y467469D02*
X1365713Y467469D01*
X1365713Y468110D02*
X1358787Y468110D01*
X1358787Y471187D02*
X1365713Y471187D01*
X1358787Y471187D02*
X1358787Y473213D01*
X1365713Y473213D01*
X1365713Y471187D01*
X1365713Y471828D02*
X1358787Y471828D01*
X1358787Y472469D02*
X1365713Y472469D01*
X1365713Y473110D02*
X1358787Y473110D01*
D10*
X660100Y988988D03*
X625100Y988988D03*
X625100Y973988D03*
X660100Y973988D03*
M02*
