G04 EAGLE Gerber RS-274X export*
G75*
%MOMM*%
%FSLAX34Y34*%
%LPD*%
%INSoldermask Top*%
%IPPOS*%
%AMOC8*
5,1,8,0,0,1.08239X$1,22.5*%
G01*
G04 Define Apertures*
%ADD10R,1.603200X1.253200*%
%ADD11R,1.103200X0.903200*%
%ADD12R,1.603200X1.603200*%
%ADD13R,0.903200X1.103200*%
%ADD14R,2.403200X2.203200*%
%ADD15R,1.003200X1.003200*%
%ADD16R,1.403200X0.803200*%
%ADD17R,1.143200X1.173200*%
%ADD18R,1.103200X1.003200*%
%ADD19R,1.353200X1.003200*%
%ADD20R,1.003200X1.103200*%
%ADD21R,1.103200X0.803200*%
%ADD22R,0.503200X1.003200*%
%ADD23R,0.603200X1.003200*%
%ADD24R,1.353200X0.503200*%
%ADD25R,2.203200X2.383200*%
%ADD26C,0.853200*%
%ADD27R,2.203200X1.403200*%
%ADD28R,1.553200X0.803200*%
%ADD29R,1.403200X2.003200*%
%ADD30R,2.103200X1.603200*%
%ADD31R,1.703200X0.903200*%
%ADD32R,0.330200X0.330200*%
%ADD33R,1.403200X0.753200*%
%ADD34R,1.703200X3.803200*%
%ADD35R,0.703200X1.253200*%
%ADD36C,0.330503*%
%ADD37R,0.152400X1.828800*%
%ADD38R,1.371600X1.803400*%
%ADD39C,2.203200*%
%ADD40C,0.315166*%
%ADD41R,3.603200X4.503200*%
%ADD42R,1.103200X1.703200*%
%ADD43C,0.349006*%
%ADD44C,0.269722*%
%ADD45R,1.103200X1.503200*%
%ADD46C,0.655600*%
%ADD47C,0.705600*%
D10*
X507800Y988988D03*
X472800Y988988D03*
X472800Y973988D03*
X507800Y973988D03*
D11*
X1574200Y-52700D03*
X1574200Y-39700D03*
X608100Y972500D03*
X608100Y985500D03*
D12*
X996800Y355300D03*
X996800Y333300D03*
D13*
X1139200Y441500D03*
X1152200Y441500D03*
X1152400Y311900D03*
X1165400Y311900D03*
D11*
X1282800Y323800D03*
X1282800Y336800D03*
X1561000Y-52700D03*
X1561000Y-39700D03*
X1265000Y464300D03*
X1265000Y477300D03*
D14*
X1251000Y315600D03*
X1251000Y345600D03*
D11*
X957900Y205900D03*
X957900Y192900D03*
D13*
X1479200Y391200D03*
X1492200Y391200D03*
D11*
X206900Y972600D03*
X206900Y985600D03*
D13*
X1478800Y372700D03*
X1491800Y372700D03*
D11*
X457200Y984822D03*
X457200Y971822D03*
X1002800Y258800D03*
X1002800Y245800D03*
X936800Y341300D03*
X936800Y354300D03*
X91600Y887100D03*
X91600Y900100D03*
D15*
X1207300Y442100D03*
X1192300Y442100D03*
D11*
X520000Y917300D03*
X520000Y904300D03*
D16*
X1468500Y429000D03*
X1468500Y419500D03*
X1468500Y410000D03*
X1493500Y410000D03*
X1493500Y419500D03*
X1493500Y429000D03*
D17*
X1174800Y4700D03*
X1174800Y19700D03*
X1139800Y4500D03*
X1139800Y19500D03*
X1101300Y4300D03*
X1101300Y19300D03*
D18*
X1150700Y331300D03*
X1150700Y352300D03*
D19*
X779300Y272600D03*
X814300Y272600D03*
X895700Y199100D03*
X930700Y199100D03*
X895000Y160400D03*
X930000Y160400D03*
D17*
X1249300Y4300D03*
X1249300Y19300D03*
D20*
X883200Y494700D03*
X904200Y494700D03*
D17*
X1289800Y5100D03*
X1289800Y20100D03*
X1211800Y4400D03*
X1211800Y19400D03*
D11*
X932200Y80100D03*
X932200Y67100D03*
X796800Y84700D03*
X796800Y97700D03*
X776600Y84000D03*
X776600Y97000D03*
X756400Y84000D03*
X756400Y97000D03*
X591800Y101000D03*
X591800Y114000D03*
X904200Y84800D03*
X904200Y97800D03*
X882300Y84500D03*
X882300Y97500D03*
X856800Y84200D03*
X856800Y97200D03*
X837500Y84500D03*
X837500Y97500D03*
X818000Y84600D03*
X818000Y97600D03*
D21*
X476200Y918300D03*
X476200Y908800D03*
X476200Y899300D03*
X504200Y899300D03*
X504200Y918300D03*
X1174500Y351900D03*
X1174500Y342400D03*
X1174500Y332900D03*
X1202500Y332900D03*
X1202500Y351900D03*
D22*
X888100Y55900D03*
X883100Y55900D03*
X878100Y55900D03*
X873100Y55900D03*
X868100Y55900D03*
X863100Y55900D03*
X858100Y55900D03*
X853100Y55900D03*
X848100Y55900D03*
X843100Y55900D03*
X838100Y55900D03*
X833100Y55900D03*
X828100Y55900D03*
X823100Y55900D03*
X818100Y55900D03*
X813100Y55900D03*
X808100Y55900D03*
X803100Y55900D03*
X798100Y55900D03*
X793100Y55900D03*
X788100Y55900D03*
X783100Y55900D03*
X778100Y55900D03*
X773100Y55900D03*
D23*
X898100Y30900D03*
X763100Y30900D03*
D24*
X1624890Y402900D03*
X1624890Y410900D03*
X1624890Y423900D03*
X1624890Y433900D03*
X1624890Y438900D03*
X1624890Y448900D03*
X1624890Y461900D03*
X1624890Y469900D03*
X1624890Y466900D03*
X1624890Y458900D03*
X1624890Y453900D03*
X1624890Y443900D03*
X1624890Y428900D03*
X1624890Y418900D03*
X1624890Y413900D03*
X1624890Y405900D03*
D25*
X1669940Y385300D03*
X1669940Y487500D03*
X1630640Y385300D03*
X1630640Y487500D03*
D26*
X1635640Y407500D03*
X1635640Y465300D03*
D27*
X1686500Y61200D03*
X1686500Y117200D03*
D28*
X1649750Y74200D03*
X1649750Y84200D03*
X1649750Y94200D03*
X1649750Y104200D03*
D29*
X154762Y738300D03*
X154762Y795300D03*
D30*
X12262Y708300D03*
X22262Y839800D03*
D31*
X50762Y756300D03*
X54762Y767300D03*
X50762Y778300D03*
X48762Y789300D03*
X50762Y800300D03*
X48762Y811300D03*
X50762Y822300D03*
X50762Y833300D03*
D29*
X154762Y766800D03*
X154762Y823800D03*
D32*
X797100Y238060D03*
X797100Y192340D03*
D33*
X1259601Y416700D03*
X1259601Y426200D03*
X1259601Y435700D03*
X1233599Y435700D03*
X1233599Y416700D03*
D34*
X1557600Y331500D03*
X1512600Y331500D03*
D20*
X1302500Y392500D03*
X1321500Y392500D03*
X1312000Y413500D03*
D18*
X736300Y171000D03*
X736300Y152000D03*
X757300Y161500D03*
D35*
X663300Y55300D03*
X676300Y55300D03*
X669800Y76300D03*
D11*
X193000Y317200D03*
X193000Y330200D03*
X1290700Y-37400D03*
X1290700Y-24400D03*
D13*
X1193900Y430000D03*
X1206900Y430000D03*
D11*
X1601700Y-52800D03*
X1601700Y-39800D03*
X936900Y446100D03*
X936900Y459100D03*
X1132100Y335500D03*
X1132100Y348500D03*
X651900Y-8800D03*
X651900Y4200D03*
D13*
X892300Y316000D03*
X879300Y316000D03*
D11*
X1521600Y444100D03*
X1521600Y457100D03*
X1419700Y433400D03*
X1419700Y420400D03*
X1241000Y384000D03*
X1241000Y397000D03*
X1588000Y-52800D03*
X1588000Y-39800D03*
D13*
X696900Y33300D03*
X709900Y33300D03*
X622500Y40800D03*
X635500Y40800D03*
D11*
X1212200Y-37800D03*
X1212200Y-24800D03*
X1176200Y-38100D03*
X1176200Y-25100D03*
X1139900Y-38100D03*
X1139900Y-25100D03*
X1101400Y-37900D03*
X1101400Y-24900D03*
X1250400Y-37700D03*
X1250400Y-24700D03*
D10*
X255100Y988988D03*
X220100Y988988D03*
X220100Y973988D03*
X255100Y973988D03*
D11*
X522600Y972400D03*
X522600Y985400D03*
D13*
X888500Y464600D03*
X901500Y464600D03*
D11*
X676100Y972200D03*
X676100Y985200D03*
D13*
X779300Y159500D03*
X792300Y159500D03*
D11*
X270500Y972400D03*
X270500Y985400D03*
D36*
X1562864Y30224D02*
X1562864Y21336D01*
X1559136Y21336D01*
X1559136Y30224D01*
X1562864Y30224D01*
X1562864Y24476D02*
X1559136Y24476D01*
X1559136Y27616D02*
X1562864Y27616D01*
X1570864Y30224D02*
X1570864Y21336D01*
X1567136Y21336D01*
X1567136Y30224D01*
X1570864Y30224D01*
X1570864Y24476D02*
X1567136Y24476D01*
X1567136Y27616D02*
X1570864Y27616D01*
X1578864Y30224D02*
X1578864Y21336D01*
X1575136Y21336D01*
X1575136Y30224D01*
X1578864Y30224D01*
X1578864Y24476D02*
X1575136Y24476D01*
X1575136Y27616D02*
X1578864Y27616D01*
X1586864Y30224D02*
X1586864Y21336D01*
X1583136Y21336D01*
X1583136Y30224D01*
X1586864Y30224D01*
X1586864Y24476D02*
X1583136Y24476D01*
X1583136Y27616D02*
X1586864Y27616D01*
X1587064Y1064D02*
X1587064Y-7824D01*
X1583336Y-7824D01*
X1583336Y1064D01*
X1587064Y1064D01*
X1587064Y-4684D02*
X1583336Y-4684D01*
X1583336Y-1544D02*
X1587064Y-1544D01*
X1578864Y1064D02*
X1578864Y-7824D01*
X1575136Y-7824D01*
X1575136Y1064D01*
X1578864Y1064D01*
X1578864Y-4684D02*
X1575136Y-4684D01*
X1575136Y-1544D02*
X1578864Y-1544D01*
X1570864Y1064D02*
X1570864Y-7824D01*
X1567136Y-7824D01*
X1567136Y1064D01*
X1570864Y1064D01*
X1570864Y-4684D02*
X1567136Y-4684D01*
X1567136Y-1544D02*
X1570864Y-1544D01*
X1562864Y1064D02*
X1562864Y-7824D01*
X1559136Y-7824D01*
X1559136Y1064D01*
X1562864Y1064D01*
X1562864Y-4684D02*
X1559136Y-4684D01*
X1559136Y-1544D02*
X1562864Y-1544D01*
D37*
X623200Y-3600D03*
D38*
X615580Y-3600D03*
X630820Y-3600D03*
D39*
X31400Y593600D03*
X1274700Y49600D03*
X106200Y318100D03*
X485200Y542100D03*
X880700Y941100D03*
X1142200Y536100D03*
X1064800Y471900D03*
X1667700Y204100D03*
X713210Y-10480D03*
X196400Y757900D03*
X1380600Y357400D03*
X446300Y868900D03*
X1049000Y294900D03*
X31700Y899400D03*
X899400Y279900D03*
X753600Y356400D03*
X126300Y597900D03*
D40*
X355910Y495410D02*
X364190Y495410D01*
X355910Y495410D02*
X355910Y498690D01*
X364190Y498690D01*
X364190Y495410D01*
X364190Y498404D02*
X355910Y498404D01*
X355910Y482710D02*
X364190Y482710D01*
X355910Y482710D02*
X355910Y485990D01*
X364190Y485990D01*
X364190Y482710D01*
X364190Y485704D02*
X355910Y485704D01*
X355910Y470010D02*
X364190Y470010D01*
X355910Y470010D02*
X355910Y473290D01*
X364190Y473290D01*
X364190Y470010D01*
X364190Y473004D02*
X355910Y473004D01*
X355910Y457310D02*
X364190Y457310D01*
X355910Y457310D02*
X355910Y460590D01*
X364190Y460590D01*
X364190Y457310D01*
X364190Y460304D02*
X355910Y460304D01*
X433810Y457310D02*
X442090Y457310D01*
X433810Y457310D02*
X433810Y460590D01*
X442090Y460590D01*
X442090Y457310D01*
X442090Y460304D02*
X433810Y460304D01*
X433810Y470010D02*
X442090Y470010D01*
X433810Y470010D02*
X433810Y473290D01*
X442090Y473290D01*
X442090Y470010D01*
X442090Y473004D02*
X433810Y473004D01*
X433810Y482710D02*
X442090Y482710D01*
X433810Y482710D02*
X433810Y485990D01*
X442090Y485990D01*
X442090Y482710D01*
X442090Y485704D02*
X433810Y485704D01*
X433810Y495410D02*
X442090Y495410D01*
X433810Y495410D02*
X433810Y498690D01*
X442090Y498690D01*
X442090Y495410D01*
X442090Y498404D02*
X433810Y498404D01*
D41*
X399000Y478000D03*
D42*
X76000Y376800D03*
X88700Y376800D03*
X101400Y376800D03*
X114100Y376800D03*
X126800Y376800D03*
X139500Y376800D03*
X152200Y376800D03*
X164900Y376800D03*
X177600Y376800D03*
X190300Y376800D03*
X203000Y376800D03*
X215700Y376800D03*
X228400Y376800D03*
X241100Y376800D03*
X241100Y551800D03*
X228400Y551800D03*
X215700Y551800D03*
X203000Y551800D03*
X190300Y551800D03*
X177600Y551800D03*
X164900Y551800D03*
X152200Y551800D03*
X139500Y551800D03*
X126800Y551800D03*
X114100Y551800D03*
X101400Y551800D03*
X88700Y551800D03*
X76000Y551800D03*
D15*
X133200Y449250D03*
X120700Y436750D03*
X120700Y449250D03*
X120700Y461750D03*
X133200Y436750D03*
X133200Y461750D03*
X145700Y436750D03*
X145700Y449250D03*
X145700Y461750D03*
D43*
X895029Y448471D02*
X895029Y429429D01*
X895029Y448471D02*
X899471Y448471D01*
X899471Y429429D01*
X895029Y429429D01*
X895029Y432744D02*
X899471Y432744D01*
X899471Y436059D02*
X895029Y436059D01*
X895029Y439374D02*
X899471Y439374D01*
X899471Y442689D02*
X895029Y442689D01*
X895029Y446004D02*
X899471Y446004D01*
X882329Y448471D02*
X882329Y429429D01*
X882329Y448471D02*
X886771Y448471D01*
X886771Y429429D01*
X882329Y429429D01*
X882329Y432744D02*
X886771Y432744D01*
X886771Y436059D02*
X882329Y436059D01*
X882329Y439374D02*
X886771Y439374D01*
X886771Y442689D02*
X882329Y442689D01*
X882329Y446004D02*
X886771Y446004D01*
X869629Y448471D02*
X869629Y429429D01*
X869629Y448471D02*
X874071Y448471D01*
X874071Y429429D01*
X869629Y429429D01*
X869629Y432744D02*
X874071Y432744D01*
X874071Y436059D02*
X869629Y436059D01*
X869629Y439374D02*
X874071Y439374D01*
X874071Y442689D02*
X869629Y442689D01*
X869629Y446004D02*
X874071Y446004D01*
X856929Y448471D02*
X856929Y429429D01*
X856929Y448471D02*
X861371Y448471D01*
X861371Y429429D01*
X856929Y429429D01*
X856929Y432744D02*
X861371Y432744D01*
X861371Y436059D02*
X856929Y436059D01*
X856929Y439374D02*
X861371Y439374D01*
X861371Y442689D02*
X856929Y442689D01*
X856929Y446004D02*
X861371Y446004D01*
X844229Y448471D02*
X844229Y429429D01*
X844229Y448471D02*
X848671Y448471D01*
X848671Y429429D01*
X844229Y429429D01*
X844229Y432744D02*
X848671Y432744D01*
X848671Y436059D02*
X844229Y436059D01*
X844229Y439374D02*
X848671Y439374D01*
X848671Y442689D02*
X844229Y442689D01*
X844229Y446004D02*
X848671Y446004D01*
X831529Y448471D02*
X831529Y429429D01*
X831529Y448471D02*
X835971Y448471D01*
X835971Y429429D01*
X831529Y429429D01*
X831529Y432744D02*
X835971Y432744D01*
X835971Y436059D02*
X831529Y436059D01*
X831529Y439374D02*
X835971Y439374D01*
X835971Y442689D02*
X831529Y442689D01*
X831529Y446004D02*
X835971Y446004D01*
X818829Y448471D02*
X818829Y429429D01*
X818829Y448471D02*
X823271Y448471D01*
X823271Y429429D01*
X818829Y429429D01*
X818829Y432744D02*
X823271Y432744D01*
X823271Y436059D02*
X818829Y436059D01*
X818829Y439374D02*
X823271Y439374D01*
X823271Y442689D02*
X818829Y442689D01*
X818829Y446004D02*
X823271Y446004D01*
X806129Y448471D02*
X806129Y429429D01*
X806129Y448471D02*
X810571Y448471D01*
X810571Y429429D01*
X806129Y429429D01*
X806129Y432744D02*
X810571Y432744D01*
X810571Y436059D02*
X806129Y436059D01*
X806129Y439374D02*
X810571Y439374D01*
X810571Y442689D02*
X806129Y442689D01*
X806129Y446004D02*
X810571Y446004D01*
X806129Y355371D02*
X806129Y336329D01*
X806129Y355371D02*
X810571Y355371D01*
X810571Y336329D01*
X806129Y336329D01*
X806129Y339644D02*
X810571Y339644D01*
X810571Y342959D02*
X806129Y342959D01*
X806129Y346274D02*
X810571Y346274D01*
X810571Y349589D02*
X806129Y349589D01*
X806129Y352904D02*
X810571Y352904D01*
X818829Y355371D02*
X818829Y336329D01*
X818829Y355371D02*
X823271Y355371D01*
X823271Y336329D01*
X818829Y336329D01*
X818829Y339644D02*
X823271Y339644D01*
X823271Y342959D02*
X818829Y342959D01*
X818829Y346274D02*
X823271Y346274D01*
X823271Y349589D02*
X818829Y349589D01*
X818829Y352904D02*
X823271Y352904D01*
X831529Y355371D02*
X831529Y336329D01*
X831529Y355371D02*
X835971Y355371D01*
X835971Y336329D01*
X831529Y336329D01*
X831529Y339644D02*
X835971Y339644D01*
X835971Y342959D02*
X831529Y342959D01*
X831529Y346274D02*
X835971Y346274D01*
X835971Y349589D02*
X831529Y349589D01*
X831529Y352904D02*
X835971Y352904D01*
X844229Y355371D02*
X844229Y336329D01*
X844229Y355371D02*
X848671Y355371D01*
X848671Y336329D01*
X844229Y336329D01*
X844229Y339644D02*
X848671Y339644D01*
X848671Y342959D02*
X844229Y342959D01*
X844229Y346274D02*
X848671Y346274D01*
X848671Y349589D02*
X844229Y349589D01*
X844229Y352904D02*
X848671Y352904D01*
X856929Y355371D02*
X856929Y336329D01*
X856929Y355371D02*
X861371Y355371D01*
X861371Y336329D01*
X856929Y336329D01*
X856929Y339644D02*
X861371Y339644D01*
X861371Y342959D02*
X856929Y342959D01*
X856929Y346274D02*
X861371Y346274D01*
X861371Y349589D02*
X856929Y349589D01*
X856929Y352904D02*
X861371Y352904D01*
X869629Y355371D02*
X869629Y336329D01*
X869629Y355371D02*
X874071Y355371D01*
X874071Y336329D01*
X869629Y336329D01*
X869629Y339644D02*
X874071Y339644D01*
X874071Y342959D02*
X869629Y342959D01*
X869629Y346274D02*
X874071Y346274D01*
X874071Y349589D02*
X869629Y349589D01*
X869629Y352904D02*
X874071Y352904D01*
X882329Y355371D02*
X882329Y336329D01*
X882329Y355371D02*
X886771Y355371D01*
X886771Y336329D01*
X882329Y336329D01*
X882329Y339644D02*
X886771Y339644D01*
X886771Y342959D02*
X882329Y342959D01*
X882329Y346274D02*
X886771Y346274D01*
X886771Y349589D02*
X882329Y349589D01*
X882329Y352904D02*
X886771Y352904D01*
X895029Y355371D02*
X895029Y336329D01*
X895029Y355371D02*
X899471Y355371D01*
X899471Y336329D01*
X895029Y336329D01*
X895029Y339644D02*
X899471Y339644D01*
X899471Y342959D02*
X895029Y342959D01*
X895029Y346274D02*
X899471Y346274D01*
X899471Y349589D02*
X895029Y349589D01*
X895029Y352904D02*
X899471Y352904D01*
D44*
X1339082Y471182D02*
X1346018Y471182D01*
X1339082Y471182D02*
X1339082Y473218D01*
X1346018Y473218D01*
X1346018Y471182D01*
X1346018Y466182D02*
X1339082Y466182D01*
X1339082Y468218D01*
X1346018Y468218D01*
X1346018Y466182D01*
X1346018Y461182D02*
X1339082Y461182D01*
X1339082Y463218D01*
X1346018Y463218D01*
X1346018Y461182D01*
X1346018Y456182D02*
X1339082Y456182D01*
X1339082Y458218D01*
X1346018Y458218D01*
X1346018Y456182D01*
X1358782Y456182D02*
X1365718Y456182D01*
X1358782Y456182D02*
X1358782Y458218D01*
X1365718Y458218D01*
X1365718Y456182D01*
X1365718Y461182D02*
X1358782Y461182D01*
X1358782Y463218D01*
X1365718Y463218D01*
X1365718Y461182D01*
X1365718Y466182D02*
X1358782Y466182D01*
X1358782Y468218D01*
X1365718Y468218D01*
X1365718Y466182D01*
X1365718Y471182D02*
X1358782Y471182D01*
X1358782Y473218D01*
X1365718Y473218D01*
X1365718Y471182D01*
D45*
X1352400Y464700D03*
D10*
X660100Y988988D03*
X625100Y988988D03*
X625100Y973988D03*
X660100Y973988D03*
D46*
X497215Y970885D03*
X497215Y906483D03*
X649565Y976425D03*
X463283Y885708D03*
X76175Y391955D03*
X109415Y425195D03*
X263843Y965345D03*
X1233343Y353175D03*
X1233343Y378105D03*
X1492338Y402343D03*
X1478488Y416193D03*
X1249963Y424503D03*
X1270738Y5540D03*
X1240960Y5540D03*
X1565743Y34625D03*
X1565743Y73405D03*
X945263Y355945D03*
X967423Y333785D03*
X859393Y360100D03*
X772830Y76868D03*
X763135Y74098D03*
X767290Y245145D03*
X799145Y77560D03*
X1166170Y338633D03*
X1449403Y421040D03*
X1615603Y421040D03*
X1615603Y434198D03*
X1615603Y443893D03*
X1449403Y410653D03*
X875320Y506218D03*
X409960Y405805D03*
X237528Y388493D03*
X398880Y400958D03*
X249300Y385030D03*
X1310210Y391955D03*
X1182790Y346943D03*
X419655Y459820D03*
X236143Y398880D03*
X38780Y663415D03*
X1167555Y-36010D03*
X1166863Y11773D03*
X828230Y68558D03*
X772138Y263843D03*
X844158Y63710D03*
X519375Y356638D03*
X39473Y830308D03*
X39473Y887785D03*
X1092765Y-33933D03*
X1092765Y10388D03*
X353868Y478518D03*
X171740Y478518D03*
X975040Y262458D03*
X369795Y490983D03*
X81023Y567850D03*
X1282510Y-37395D03*
X1282510Y12465D03*
X114263Y388493D03*
X60940Y635023D03*
X978503Y16620D03*
X869088Y16620D03*
X1130853Y-36010D03*
X1130853Y11080D03*
X823383Y63710D03*
X873935Y218830D03*
X426580Y459128D03*
X171048Y387800D03*
X43628Y770753D03*
X776985Y183513D03*
X530455Y351790D03*
X826845Y272153D03*
X887093Y211905D03*
X764520Y95565D03*
X777678Y63710D03*
X909945Y178665D03*
X899558Y168278D03*
X764520Y128805D03*
X869088Y34625D03*
X669648Y48475D03*
X862855Y34625D03*
X719508Y24238D03*
X670340Y110800D03*
X764520Y204980D03*
X866318Y217445D03*
X800530Y234758D03*
X1382923Y466745D03*
X1628068Y221600D03*
X1585133Y47783D03*
X186283Y563003D03*
X904405Y338633D03*
X982658Y399573D03*
X970193Y387108D03*
X1379460Y471593D03*
X1623220Y232680D03*
X1593443Y62325D03*
X198748Y563003D03*
X957728Y349713D03*
X849005Y472978D03*
X1041520Y-52630D03*
X370488Y388493D03*
X1241653Y409960D03*
X1261043Y409960D03*
X783910Y90718D03*
X789450Y103875D03*
X797760Y63710D03*
X863548Y90718D03*
X792913Y67173D03*
X830308Y90718D03*
X797760Y47783D03*
X873935Y95565D03*
X1247193Y27700D03*
X1262428Y42935D03*
X405113Y335170D03*
X842773Y36010D03*
X837925Y47783D03*
X600398Y156505D03*
X126728Y342788D03*
X114263Y330323D03*
X972270Y95565D03*
X495138Y531840D03*
X236835Y567850D03*
X848313Y44320D03*
X375335Y368410D03*
X863548Y47783D03*
X637100Y113570D03*
X1203565Y-33933D03*
X1203565Y11773D03*
X310240Y473670D03*
X216060Y389185D03*
X817843Y309548D03*
X653720Y473670D03*
X236835Y651643D03*
X599705Y988198D03*
X105953Y563003D03*
X45013Y590010D03*
X435583Y452895D03*
X858008Y424503D03*
X468130Y922410D03*
X166893Y446663D03*
X904405Y445970D03*
X876013Y452895D03*
X173818Y365640D03*
X860085Y400958D03*
X963268Y471593D03*
X943878Y452203D03*
X892633Y328245D03*
X912715Y355253D03*
X345558Y394033D03*
X909253Y405805D03*
X241683Y723663D03*
X450818Y964653D03*
X185590Y324090D03*
X185590Y365640D03*
X891940Y472978D03*
X880168Y484750D03*
X213290Y964653D03*
X237528Y988890D03*
D47*
X190000Y275500D03*
X172000Y275500D03*
X118000Y275500D03*
X100000Y275500D03*
X82000Y275500D03*
X64000Y275500D03*
X190000Y257500D03*
X136000Y257500D03*
X118000Y257500D03*
X100000Y257500D03*
X82000Y257500D03*
X64000Y257500D03*
X154000Y239500D03*
X136000Y239500D03*
X118000Y239500D03*
X100000Y239500D03*
X82000Y239500D03*
X64000Y239500D03*
X172000Y221500D03*
X154000Y221500D03*
X136000Y221500D03*
X118000Y221500D03*
X100000Y221500D03*
X82000Y221500D03*
X64000Y221500D03*
X190000Y203500D03*
X172000Y203500D03*
X154000Y203500D03*
X136000Y203500D03*
X118000Y203500D03*
X100000Y203500D03*
X82000Y203500D03*
X64000Y203500D03*
X64000Y185500D03*
X82000Y185500D03*
X100000Y185500D03*
X118000Y185500D03*
X136000Y185500D03*
X154000Y185500D03*
X172000Y185500D03*
X190000Y185500D03*
M02*
